<svg width="14" height="14" viewBox="0 0 14 14" fill="none" xmlns="http://www.w3.org/2000/svg">
<mask id="mask0" mask-type="alpha" maskUnits="userSpaceOnUse" x="0" y="0" width="14" height="14">
<path fill-rule="evenodd" clip-rule="evenodd" d="M0.332031 0.333496H13.9984V13.9998H0.332031V0.333496Z" fill="white"/>
</mask>
<g mask="url(#mask0)">
<path fill-rule="evenodd" clip-rule="evenodd" d="M1.90477 2.37383C1.9061 2.37383 1.87277 2.40849 1.83077 2.44983C1.66943 2.60649 1.33543 2.93249 1.3321 3.61449C1.32677 4.56849 1.9541 6.33983 4.97477 9.35983C7.98143 12.3652 9.7501 12.9998 10.7061 12.9998H10.7201C11.4021 12.9965 11.7274 12.6618 11.8848 12.5012C11.9328 12.4518 11.9714 12.4158 11.9988 12.3932C12.6628 11.7252 13.0028 11.2278 12.9994 10.9092C12.9948 10.5838 12.5901 10.1992 12.0308 9.66716C11.8528 9.49783 11.6594 9.31383 11.4554 9.10983C10.9268 8.58249 10.6648 8.67249 10.0888 8.87516C9.2921 9.15449 8.19877 9.53449 6.5001 7.83516C4.79877 6.13516 5.17943 5.04316 5.4581 4.24649C5.65943 3.67049 5.75143 3.40783 5.2221 2.87849C5.01477 2.67183 4.82877 2.47583 4.65743 2.29583C4.12877 1.73983 3.74743 1.33783 3.4241 1.33316H3.41877C3.09943 1.33316 2.60343 1.67449 1.90143 2.37649C1.90343 2.37449 1.9041 2.37383 1.90477 2.37383ZM10.7068 13.9998C9.04542 13.9998 6.87942 12.6771 4.26809 10.0671C1.64675 7.44644 0.322087 5.27378 0.332087 3.60911C0.338087 2.50911 0.914754 1.94578 1.13142 1.73444C1.14275 1.72044 1.18142 1.68244 1.19475 1.66911C2.15075 0.712443 2.79542 0.325777 3.43675 0.33311C4.18142 0.34311 4.71142 0.900443 5.38209 1.60644C5.54809 1.78111 5.72809 1.97111 5.92875 2.17111C6.90209 3.14444 6.62475 3.93844 6.40209 4.57578C6.15942 5.27111 5.94942 5.87111 7.20675 7.12844C8.46542 8.38578 9.06542 8.17578 9.75809 7.93111C10.3961 7.70844 11.1881 7.42978 12.1628 8.40311C12.3601 8.60044 12.5474 8.77844 12.7201 8.94311C13.4294 9.61711 13.9894 10.1498 13.9988 10.8964C14.0068 11.5331 13.6201 12.1818 12.6654 13.1371L12.2428 12.8504L12.6001 13.1998C12.3888 13.4164 11.8261 13.9938 10.7254 13.9998H10.7068Z" fill="#2B304D" fill-opacity="0.5"/>
</g>
</svg>
