<svg width="16" height="16" viewBox="0 0 16 16" fill="none" xmlns="http://www.w3.org/2000/svg">
<mask id="mask0" mask-type="alpha" maskUnits="userSpaceOnUse" x="1" y="1" width="14" height="14">
<path fill-rule="evenodd" clip-rule="evenodd" d="M1.33203 1.3335H14.6672V14.6675H1.33203V1.3335Z" fill="white"/>
</mask>
<g mask="url(#mask0)">
<path fill-rule="evenodd" clip-rule="evenodd" d="M7.295 13.3838C7.68833 13.7678 8.32167 13.7631 8.71233 13.3705L9.19367 12.8905C9.567 12.5178 10.083 12.3051 10.609 12.3051H11.2957C11.8517 12.3051 12.3037 11.8531 12.3037 11.2978V10.6118C12.3037 10.0778 12.5103 9.57581 12.8877 9.19781L13.3677 8.71714C13.563 8.52114 13.6677 8.26714 13.667 7.99781C13.6663 7.72914 13.5603 7.47647 13.369 7.28581L12.8883 6.80447C12.5103 6.42381 12.3037 5.92247 12.3037 5.38847V4.70381C12.3037 4.14781 11.8517 3.69581 11.2957 3.69581H10.6103C10.0763 3.69581 9.57433 3.48847 9.19633 3.11314L8.715 2.63114C8.31433 2.23447 7.675 2.23647 7.28367 2.63047L6.80433 3.11114C6.42167 3.48914 5.91967 3.69581 5.38767 3.69581H4.70167C4.14633 3.69647 3.69433 4.14847 3.69433 4.70381V5.38714C3.69433 5.92114 3.487 6.42314 3.111 6.80181L2.63767 7.27581C2.633 7.28114 2.62833 7.28514 2.62367 7.28981C2.23233 7.68381 2.23433 8.32314 2.62833 8.71447L3.10967 9.19581C3.487 9.57447 3.69433 10.0765 3.69433 10.6105V11.2978C3.69433 11.8531 4.14567 12.3051 4.70167 12.3051H5.38633C5.921 12.3058 6.423 12.5131 6.801 12.8898L7.28167 13.3691C7.28567 13.3738 7.29033 13.3785 7.295 13.3838ZM7.99785 14.6678C7.48651 14.6678 6.97518 14.4744 6.58385 14.0864C6.57851 14.0811 6.57318 14.0758 6.56785 14.0698L6.09451 13.5971C5.90585 13.4098 5.65385 13.3058 5.38585 13.3051H4.70185C3.59451 13.3051 2.69451 12.4044 2.69451 11.2978V10.6104C2.69451 10.3424 2.58985 10.0911 2.40185 9.90175L1.92251 9.42309C1.14385 8.64842 1.13451 7.38709 1.89918 6.60042C1.90518 6.59442 1.91118 6.58842 1.91718 6.58242L2.40251 6.09575C2.58985 5.90709 2.69451 5.65442 2.69451 5.38709V4.70375C2.69451 3.59709 3.59451 2.69642 4.70118 2.69575H5.38785C5.65518 2.69575 5.90718 2.59109 6.09851 2.40242L6.57518 1.92442C7.35451 1.13975 8.62851 1.13575 9.41451 1.91709L9.90185 2.40442C10.0905 2.59175 10.3425 2.69575 10.6105 2.69575H11.2958C12.4032 2.69575 13.3038 3.59642 13.3038 4.70375V5.38842C13.3038 5.65575 13.4078 5.90842 13.5965 6.09842L14.0752 6.57775C14.4545 6.95442 14.6652 7.45775 14.6672 7.99442C14.6692 8.53109 14.4618 9.03575 14.0838 9.41642L13.5952 9.90376C13.4078 10.0924 13.3038 10.3438 13.3038 10.6118V11.2978C13.3038 12.4044 12.4032 13.3051 11.2965 13.3051H10.6092C10.3452 13.3051 10.0872 13.4118 9.89985 13.5978L9.42118 14.0764C9.02985 14.4704 8.51385 14.6678 7.99785 14.6678Z" fill="#2B304D" fill-opacity="0.5"/>
</g>
<path fill-rule="evenodd" clip-rule="evenodd" d="M6.28499 10.2143C6.15699 10.2143 6.02899 10.1656 5.93166 10.0676C5.73632 9.87228 5.73632 9.55628 5.93166 9.36094L9.35832 5.93361C9.55366 5.73828 9.87032 5.73828 10.0657 5.93361C10.261 6.12894 10.261 6.44561 10.0657 6.64094L6.63832 10.0676C6.54099 10.1656 6.41299 10.2143 6.28499 10.2143Z" fill="#2B304D" fill-opacity="0.5"/>
<path fill-rule="evenodd" clip-rule="evenodd" d="M9.66609 10.3328C9.29743 10.3328 8.99609 10.0348 8.99609 9.66618C8.99609 9.29751 9.29143 8.99951 9.66009 8.99951H9.66609C10.0348 8.99951 10.3328 9.29751 10.3328 9.66618C10.3328 10.0348 10.0348 10.3328 9.66609 10.3328Z" fill="#2B304D" fill-opacity="0.5"/>
<path fill-rule="evenodd" clip-rule="evenodd" d="M6.33406 6.99935C5.9654 6.99935 5.66406 6.70135 5.66406 6.33268C5.66406 5.96402 5.9594 5.66602 6.32806 5.66602H6.33406C6.70273 5.66602 7.00073 5.96402 7.00073 6.33268C7.00073 6.70135 6.70273 6.99935 6.33406 6.99935Z" fill="#2B304D" fill-opacity="0.5"/>
</svg>
