<svg width="18" height="18" viewBox="0 0 18 18" fill="none" xmlns="http://www.w3.org/2000/svg">
<g id="Iconly/Light-Outline/Filter 3">
<g id="Filter 2">
<mask id="mask0" mask-type="alpha" maskUnits="userSpaceOnUse" x="1" y="1" width="16" height="16">
<path id="Clip 2" fill-rule="evenodd" clip-rule="evenodd" d="M1.50049 1.5H16.1252V16.1255H1.50049V1.5Z" fill="white"/>
</mask>
<g mask="url(#mask0)">
<path id="Fill 1" fill-rule="evenodd" clip-rule="evenodd" d="M6.58024 8.69925C6.59374 8.71125 6.60649 8.7225 6.61924 8.736C7.42849 9.5655 7.87474 10.6642 7.87474 11.8305V14.8185L9.55174 13.905C9.68374 13.833 9.76549 13.692 9.76549 13.5367V11.8215C9.76549 10.6597 10.2072 9.56475 11.009 8.73975L14.6367 4.881C14.8715 4.63125 15.0005 4.3035 15.0005 3.95775V3.25575C15.0005 2.90775 14.726 2.625 14.39 2.625H3.23674C2.89999 2.625 2.62549 2.90775 2.62549 3.25575V3.95775C2.62549 4.3035 2.75449 4.63125 2.98924 4.88025L6.58024 8.69925ZM7.60999 16.1258C7.45849 16.1258 7.30849 16.0853 7.17199 16.0043C6.90799 15.8468 6.74974 15.5685 6.74974 15.2595V11.8305C6.74974 10.9793 6.43249 10.1775 5.85424 9.56325C5.83699 9.549 5.81974 9.53325 5.80474 9.51675L2.17024 5.652C1.73824 5.193 1.50049 4.59075 1.50049 3.95775V3.25575C1.50049 2.2875 2.27974 1.5 3.23674 1.5H14.39C15.3462 1.5 16.1255 2.2875 16.1255 3.25575V3.95775C16.1255 4.59 15.8877 5.1915 15.4572 5.65125L11.822 9.51675C11.2197 10.1378 10.8905 10.9545 10.8905 11.8215V13.5368C10.8905 14.1038 10.5837 14.6228 10.0902 14.8928L8.01949 16.0208C7.89049 16.0905 7.75024 16.1258 7.60999 16.1258Z" fill="#2B304D" fill-opacity="0.7"/>
</g>
</g>
</g>
</svg>
