<svg width="24" height="24" viewBox="0 0 24 24" fill="none" xmlns="http://www.w3.org/2000/svg">
<path fill-rule="evenodd" clip-rule="evenodd" d="M17.2779 13.8896C17.9527 13.8896 18.519 14.4465 18.4158 15.1128C17.8106 19.0328 14.4548 21.9433 10.4074 21.9433C5.92952 21.9433 2.30005 18.3138 2.30005 13.837C2.30005 10.1486 5.10215 6.71279 8.25689 5.93595C8.93479 5.76858 9.62952 6.24542 9.62952 6.94332C9.62952 11.6717 9.78847 12.8949 10.6864 13.5602C11.5843 14.2254 12.64 13.8896 17.2779 13.8896Z" stroke="white" stroke-width="1.5" stroke-linecap="round" stroke-linejoin="round"/>
<path fill-rule="evenodd" clip-rule="evenodd" d="M21.6926 9.95121C21.7463 6.91331 18.0147 2.01647 13.4674 2.10068C13.1137 2.107 12.8305 2.40173 12.8147 2.75437C12.7 5.25226 12.8547 8.4891 12.9411 9.95647C12.9674 10.4133 13.3263 10.7723 13.7821 10.7986C15.2905 10.8849 18.6453 11.0028 21.1074 10.6302C21.4421 10.5796 21.6874 10.2891 21.6926 9.95121Z" stroke="white" stroke-width="1.5" stroke-linecap="round" stroke-linejoin="round"/>
</svg>
