<svg xmlns="http://www.w3.org/2000/svg" width="18" height="18" viewBox="0 0 18 18" fill="none">
<path fill-rule="evenodd" clip-rule="evenodd" d="M10.1997 6.12825C9.88921 6.12825 9.63721 5.87625 9.63721 5.56575V3.75C9.63721 3.4395 9.88921 3.1875 10.1997 3.1875C10.5102 3.1875 10.7622 3.4395 10.7622 3.75V5.56575C10.7622 5.87625 10.5102 6.12825 10.1997 6.12825Z" fill="#2B304D" fill-opacity="0.5"/>
<path fill-rule="evenodd" clip-rule="evenodd" d="M10.1997 15.963C9.88921 15.963 9.63721 15.7111 9.63721 15.4006V13.8833C9.63721 13.5721 9.88921 13.3208 10.1997 13.3208C10.5102 13.3208 10.7622 13.5721 10.7622 13.8833V15.4006C10.7622 15.7111 10.5102 15.963 10.1997 15.963Z" fill="#2B304D" fill-opacity="0.5"/>
<path fill-rule="evenodd" clip-rule="evenodd" d="M10.1997 11.8687C9.88921 11.8687 9.63721 11.6167 9.63721 11.3062V7.69043C9.63721 7.37993 9.88921 7.12793 10.1997 7.12793C10.5102 7.12793 10.7622 7.37993 10.7622 7.69043V11.3062C10.7622 11.6167 10.5102 11.8687 10.1997 11.8687Z" fill="#2B304D" fill-opacity="0.5"/>
<mask id="mask0" mask-type="alpha" maskUnits="userSpaceOnUse" x="0" y="3" width="17" height="14">
<path fill-rule="evenodd" clip-rule="evenodd" d="M0.75 3H16.875V16.1248H0.75V3Z" fill="white"/>
</mask>
<g mask="url(#mask0)">
<path fill-rule="evenodd" clip-rule="evenodd" d="M1.875 11.6655V13.1198C1.875 14.1562 2.73225 15 3.786 15H13.839C14.8927 15 15.75 14.1562 15.75 13.1198V11.6655C14.8118 11.4187 14.1173 10.5697 14.1173 9.56325C14.1173 8.556 14.811 7.70775 15.75 7.461L15.7493 6.00525C15.7493 4.96875 14.892 4.125 13.8383 4.125H3.78675C2.733 4.125 1.87575 4.96875 1.87575 6.00525L1.875 7.51875C2.82525 7.752 3.50775 8.5665 3.50775 9.56325C3.50775 10.5697 2.81325 11.4187 1.875 11.6655ZM13.839 16.125H3.786C2.112 16.125 0.75 14.7765 0.75 13.1198V11.1757C0.75 10.8653 1.002 10.6132 1.3125 10.6132C1.90275 10.6132 2.38275 10.1423 2.38275 9.56325C2.38275 9.00075 1.92225 8.57625 1.3125 8.57625C1.16325 8.57625 1.02 8.517 0.915 8.41125C0.80925 8.30625 0.75 8.16225 0.75 8.01375L0.75075 6.00525C0.75075 4.3485 2.11275 3 3.78675 3H13.8383C15.5122 3 16.8743 4.3485 16.8743 6.00525L16.875 7.95075C16.875 8.09925 16.8158 8.24325 16.71 8.34825C16.605 8.454 16.4618 8.51325 16.3125 8.51325C15.7222 8.51325 15.2423 8.98425 15.2423 9.56325C15.2423 10.1423 15.7222 10.6132 16.3125 10.6132C16.623 10.6132 16.875 10.8653 16.875 11.1757V13.1198C16.875 14.7765 15.513 16.125 13.839 16.125Z" fill="#2B304D" fill-opacity="0.5"/>
</g>
</svg>