<svg width="18" height="18" viewBox="0 0 18 18" fill="none" xmlns="http://www.w3.org/2000/svg">
<path fill-rule="evenodd" clip-rule="evenodd" d="M8.99609 13.0697C8.68559 13.0697 8.43359 12.8177 8.43359 12.5072V10.6045C8.43359 10.294 8.68559 10.042 8.99609 10.042C9.30659 10.042 9.55859 10.294 9.55859 10.6045V12.5072C9.55859 12.8177 9.30659 13.0697 8.99609 13.0697Z" fill="#2B304D" fill-opacity="0.5"/>
<mask id="mask0" mask-type="alpha" maskUnits="userSpaceOnUse" x="1" y="3" width="16" height="9">
<path fill-rule="evenodd" clip-rule="evenodd" d="M1.5 3.43506H16.4923V11.1683H1.5V3.43506Z" fill="white"/>
</mask>
<g mask="url(#mask0)">
<path fill-rule="evenodd" clip-rule="evenodd" d="M2.625 8.54481C4.407 9.51306 6.654 10.0433 8.9925 10.0433C11.3355 10.0433 13.5848 9.51306 15.3675 8.54481V6.29331C15.3675 5.33706 14.5942 4.56006 13.6425 4.56006H4.3575C3.402 4.56006 2.625 5.33406 2.625 6.28581V8.54481ZM8.9925 11.1683C6.33375 11.1683 3.771 10.5248 1.77825 9.35781C1.60575 9.25731 1.5 9.07281 1.5 8.87256V6.28581C1.5 4.71381 2.78175 3.43506 4.3575 3.43506H13.6425C15.2145 3.43506 16.4925 4.71681 16.4925 6.29331V8.87256C16.4925 9.07281 16.386 9.25731 16.2142 9.35781C14.2215 10.5248 11.6565 11.1683 8.9925 11.1683Z" fill="#2B304D" fill-opacity="0.5"/>
</g>
<mask id="mask1" mask-type="alpha" maskUnits="userSpaceOnUse" x="5" y="1" width="8" height="4">
<path fill-rule="evenodd" clip-rule="evenodd" d="M5.80859 1.5H12.1836V4.55693H5.80859V1.5Z" fill="white"/>
</mask>
<g mask="url(#mask1)">
<path fill-rule="evenodd" clip-rule="evenodd" d="M11.6211 4.557C11.3106 4.557 11.0586 4.305 11.0586 3.9945V3.72C11.0586 3.11625 10.5673 2.625 9.96359 2.625H8.02859C7.42484 2.625 6.93359 3.11625 6.93359 3.72V3.9945C6.93359 4.305 6.68159 4.557 6.37109 4.557C6.06059 4.557 5.80859 4.305 5.80859 3.9945V3.72C5.80859 2.496 6.80459 1.5 8.02859 1.5H9.96359C11.1876 1.5 12.1836 2.496 12.1836 3.72V3.9945C12.1836 4.305 11.9316 4.557 11.6211 4.557Z" fill="#2B304D" fill-opacity="0.5"/>
</g>
<path fill-rule="evenodd" clip-rule="evenodd" d="M13.3479 16.305H4.64788C3.09163 16.305 1.78138 15.0892 1.66363 13.5367L1.52113 11.655C1.49788 11.3452 1.73038 11.0745 2.04013 11.0512C2.35138 11.04 2.61988 11.2597 2.64388 11.5702L2.78563 13.4512C2.85913 14.4202 3.67663 15.18 4.64788 15.18H13.3479C14.3191 15.18 15.1374 14.4202 15.2101 13.4512L15.3526 11.5702C15.3766 11.2597 15.6519 11.0392 15.9564 11.0512C16.2661 11.0745 16.4979 11.3452 16.4746 11.655L16.3321 13.5367C16.2144 15.0892 14.9041 16.305 13.3479 16.305Z" fill="#2B304D" fill-opacity="0.5"/>
</svg>
