<svg width="20" height="20" viewBox="0 0 20 20" fill="none" xmlns="http://www.w3.org/2000/svg">
<path d="M7.79107 12.3809C4.4879 12.3809 1.66663 12.8911 1.66663 14.9306C1.66663 16.9716 4.46996 17.4994 7.79107 17.4994C11.0942 17.4994 13.9155 16.9892 13.9155 14.9497C13.9155 12.9087 11.1122 12.3809 7.79107 12.3809Z" fill="#0074B3"/>
<path d="M7.79105 10.4374C10.0407 10.4374 11.8436 8.67181 11.8436 6.46868C11.8436 4.26554 10.0407 2.5 7.79105 2.5C5.54218 2.5 3.73853 4.26554 3.73853 6.46868C3.73853 8.67181 5.54218 10.4374 7.79105 10.4374Z" fill="#D9E1E8"/>
<path d="M13.4779 6.53988C13.4779 7.66181 13.1338 8.70867 12.5304 9.57827C12.4676 9.6677 12.5231 9.78828 12.6323 9.80745C12.784 9.8322 12.9397 9.84737 13.0987 9.85057C14.6806 9.89129 16.1002 8.89393 16.4924 7.3919C17.0738 5.16322 15.368 3.16211 13.195 3.16211C12.9593 3.16211 12.7334 3.18607 12.5133 3.22998C12.4831 3.23637 12.4505 3.25075 12.4342 3.2763C12.413 3.30904 12.4285 3.35136 12.4497 3.37931C13.1028 4.27605 13.4779 5.36764 13.4779 6.53988Z" fill="#D9E1E8"/>
<path d="M18.1494 12.6411C17.8599 12.0366 17.1611 11.6222 16.0978 11.4186C15.5964 11.2988 14.2379 11.1287 12.9749 11.1527C12.9561 11.1551 12.9455 11.1678 12.9439 11.1758C12.9414 11.1886 12.9471 11.2078 12.9716 11.2213C13.5554 11.504 15.8116 12.7338 15.5279 15.3274C15.5156 15.4408 15.6078 15.5366 15.7227 15.5206C16.278 15.4432 17.7066 15.1421 18.1494 14.2062C18.3948 13.7111 18.3948 13.1362 18.1494 12.6411Z" fill="#0074B3"/>
</svg>
