<svg width="20" height="20" viewBox="0 0 20 20" fill="none" xmlns="http://www.w3.org/2000/svg">
<path d="M9.95728 12.1172C7.08229 12.1172 4.65649 12.587 4.65649 14.4001C4.65649 16.214 7.09796 16.6672 9.95728 16.6672C12.8323 16.6672 15.2581 16.1975 15.2581 14.3843C15.2581 12.5705 12.8166 12.1172 9.95728 12.1172Z" fill="#B5B5B5"/>
<path opacity="0.4" d="M9.95781 10.3898C11.9046 10.3898 13.4656 8.81987 13.4656 6.86191C13.4656 4.9032 11.9046 3.33398 9.95781 3.33398C8.01106 3.33398 6.45007 4.9032 6.45007 6.86191C6.45007 8.81987 8.01106 10.3898 9.95781 10.3898Z" fill="#D9E1E8"/>
<path opacity="0.4" d="M17.5732 7.68245C18.0768 5.70122 16.6002 3.92188 14.7198 3.92188C14.5154 3.92188 14.3199 3.94439 14.1289 3.98266C14.1035 3.98867 14.0751 4.00142 14.0602 4.02394C14.0431 4.05246 14.0557 4.09073 14.0744 4.11549C14.6392 4.91249 14.9638 5.88284 14.9638 6.92448C14.9638 7.9226 14.6661 8.85317 14.1438 9.6254C14.0901 9.70495 14.1378 9.81226 14.2326 9.82877C14.3639 9.85204 14.4982 9.86404 14.6355 9.8678C16.0047 9.90382 17.2337 9.01752 17.5732 7.68245Z" fill="#D9E1E8"/>
<path d="M19.0077 12.3484C18.757 11.811 18.1519 11.4426 17.2318 11.2617C16.7976 11.1551 15.6223 11.005 14.5292 11.0253C14.5128 11.0275 14.5038 11.0388 14.5023 11.0463C14.5001 11.0568 14.5046 11.0748 14.5262 11.0861C15.0314 11.3375 16.9841 12.4309 16.7386 14.7371C16.7282 14.8369 16.808 14.9232 16.9073 14.9082C17.3878 14.8391 18.6242 14.572 19.0077 13.7397C19.2196 13.2999 19.2196 12.7889 19.0077 12.3484Z" fill="#B5B5B5"/>
<path opacity="0.4" d="M5.87069 3.98462C5.68042 3.94559 5.48418 3.92383 5.27973 3.92383C3.39938 3.92383 1.92271 5.70318 2.42712 7.6844C2.76588 9.01947 3.99482 9.90577 5.36404 9.86975C5.50134 9.866 5.6364 9.85324 5.76697 9.83072C5.86174 9.81421 5.90949 9.7069 5.85577 9.62735C5.33345 8.85437 5.03573 7.92455 5.03573 6.92643C5.03573 5.88404 5.36106 4.91369 5.92591 4.11745C5.94382 4.09268 5.95725 4.05441 5.93934 4.02589C5.92442 4.00263 5.89681 3.99062 5.87069 3.98462Z" fill="#D9E1E8"/>
<path d="M2.768 11.2611C1.84798 11.4419 1.24358 11.8104 0.992868 12.3477C0.780209 12.7883 0.780209 13.2993 0.992868 13.7399C1.3764 14.5714 2.6128 14.8393 3.09333 14.9076C3.19257 14.9226 3.27167 14.837 3.26122 14.7365C3.01573 12.431 4.96846 11.3376 5.47436 11.0862C5.49525 11.0742 5.49973 11.0569 5.49749 11.0457C5.496 11.0382 5.48779 11.0269 5.47137 11.0254C4.37749 11.0044 3.20302 11.1545 2.768 11.2611Z" fill="#B5B5B5"/>
</svg>
