<svg width="30" height="30" viewBox="0 0 30 30" fill="none" xmlns="http://www.w3.org/2000/svg">
<path d="M20.875 6.62501L22.675 4.82501C23.075 4.42501 22.7875 3.76251 22.2375 3.76251H14.375C14.025 3.76251 13.75 4.03751 13.75 4.38751V12.25C13.75 12.8125 14.425 13.0875 14.8125 12.6875L16.625 10.875C19.0875 12.7 20.6875 15.6 20.6875 18.9C20.6875 19.725 20.5875 20.5375 20.3875 21.3C20.2375 21.925 20.9875 22.375 21.4375 21.9125C23.2875 20 24.4375 17.4 24.4375 14.525C24.4375 11.3875 23.05 8.57501 20.875 6.62501Z" fill="#006298"/>
<path d="M15.1875 17.325L13.375 19.125C10.9125 17.3 9.3125 14.4 9.3125 11.1C9.3125 10.275 9.4125 9.4625 9.6125 8.7C9.7625 8.075 9.0125 7.625 8.5625 8.0875C6.7125 10 5.5625 12.6 5.5625 15.475C5.5625 18.625 6.9375 21.4375 9.1125 23.3875L7.3125 25.1875C6.9125 25.5875 7.2 26.25 7.75 26.25H15.6125C15.9625 26.25 16.2375 25.975 16.2375 25.625V17.7625C16.25 17.2125 15.575 16.925 15.1875 17.325Z" fill="#B7BCC7"/>
</svg>
