<svg width="20" height="20" viewBox="0 0 20 20" fill="none" xmlns="http://www.w3.org/2000/svg">
<path opacity="0.4" d="M9.99269 15.5178L4.58291 18.2199C4.17438 18.4417 3.66478 18.2936 3.43628 17.8868C3.36954 17.7589 3.33426 17.6167 3.33337 17.4722V11.4238C3.33337 12.0235 3.67148 12.3936 4.56086 12.8082L9.99269 15.5178Z" fill="#CFDBE6"/>
<path fill-rule="evenodd" clip-rule="evenodd" d="M7.41276 1.66602H12.5579C14.8144 1.66602 16.6447 2.55439 16.6667 4.82716V17.4717C16.6658 17.6139 16.6305 17.7536 16.5638 17.8789C16.4567 18.0832 16.2717 18.2349 16.0513 18.2991C15.8309 18.3634 15.594 18.3346 15.3951 18.2194L9.99269 15.5173L4.56086 12.8077C3.67149 12.3932 3.33337 12.023 3.33337 11.4234V4.82716C3.33337 2.55439 5.16358 1.66602 7.41276 1.66602ZM6.85389 8.0179H13.1236C13.4849 8.0179 13.7778 7.72291 13.7778 7.35902C13.7778 6.99513 13.4849 6.70014 13.1236 6.70014H6.85389C6.4926 6.70014 6.19972 6.99513 6.19972 7.35902C6.19972 7.72291 6.4926 8.0179 6.85389 8.0179Z" fill="#B5B5B5"/>
</svg>
