<svg width="18" height="16" viewBox="0 0 18 16" fill="none" xmlns="http://www.w3.org/2000/svg">
<path fill-rule="evenodd" clip-rule="evenodd" d="M15.4676 8.00083C15.4676 8.67874 16.0242 9.23032 16.7084 9.23032C17.0534 9.23032 17.3334 9.50776 17.3334 9.84961V12.0799C17.3334 13.9658 15.7851 15.5 13.8817 15.5H4.11925C2.21591 15.5 0.666748 13.9658 0.666748 12.0799V9.84961C0.666748 9.50776 0.946748 9.23032 1.29175 9.23032C1.97675 9.23032 2.53341 8.67874 2.53341 8.00083C2.53341 7.34025 1.99925 6.84317 1.29175 6.84317C1.12591 6.84317 0.967581 6.77794 0.850081 6.66151C0.732581 6.54508 0.666748 6.38737 0.666748 6.22388L0.668415 3.92095C0.668415 2.03501 2.21675 0.5 4.12008 0.5H13.8801C15.7834 0.5 17.3326 2.03501 17.3326 3.92095L17.3334 6.15204C17.3334 6.31553 17.2676 6.47407 17.1509 6.58967C17.0334 6.7061 16.8751 6.77133 16.7084 6.77133C16.0242 6.77133 15.4676 7.32291 15.4676 8.00083ZM10.8768 8.53988L11.8593 7.59196C12.0301 7.42847 12.0893 7.18736 12.0151 6.96441C11.9418 6.74147 11.7501 6.58293 11.5184 6.55073L10.1609 6.35421L9.55342 5.13545C9.44926 4.92571 9.23759 4.79525 9.00176 4.79442H9.00009C8.76509 4.79442 8.55342 4.92489 8.44759 5.13462L7.84009 6.35421L6.48509 6.5499C6.25092 6.58293 6.05926 6.74147 5.98509 6.96441C5.91176 7.18736 5.97092 7.42847 6.14092 7.59196L7.12342 8.53988L6.89176 9.88002C6.85176 10.1112 6.94592 10.3408 7.13759 10.4787C7.24592 10.5555 7.37176 10.5951 7.49926 10.5951C7.59676 10.5951 7.69509 10.5711 7.78509 10.5241L9.00009 9.89158L10.2126 10.5224C10.4226 10.6339 10.6718 10.6166 10.8626 10.4778C11.0551 10.3408 11.1493 10.1112 11.1093 9.88002L10.8768 8.53988Z" fill="#B5B5B5"/>
</svg>
