<svg width="30" height="30" viewBox="0 0 30 30" fill="none" xmlns="http://www.w3.org/2000/svg">
<g id="Iconly/Bulk/Chart">
<g id="Chart">
<path id="Fill 1" d="M20.8444 2.5H9.16667C4.91111 2.5 2.5 4.91111 2.5 9.16667V20.8333C2.5 25.0889 4.91111 27.5 9.16667 27.5H20.8444C25.1 27.5 27.5 25.0889 27.5 20.8333V9.16667C27.5 4.91111 25.1 2.5 20.8444 2.5Z" fill="#006298"/>
<path id="Fill 4" d="M9.21107 11.7112C8.6444 11.7112 8.17773 12.1779 8.17773 12.7557V21.3445C8.17773 21.9112 8.6444 22.3779 9.21107 22.3779C9.78885 22.3779 10.2555 21.9112 10.2555 21.3445V12.7557C10.2555 12.1779 9.78885 11.7112 9.21107 11.7112Z" fill="#D9E1E8"/>
<path id="Fill 6" d="M15.0441 7.61124C14.4774 7.61124 14.0107 8.0779 14.0107 8.65568V21.3446C14.0107 21.9112 14.4774 22.3779 15.0441 22.3779C15.6219 22.3779 16.0885 21.9112 16.0885 21.3446V8.65568C16.0885 8.0779 15.6219 7.61124 15.0441 7.61124Z" fill="#D9E1E8"/>
<path id="Fill 8" d="M20.7998 16.2446C20.222 16.2446 19.7554 16.7112 19.7554 17.289V21.3446C19.7554 21.9112 20.222 22.3779 20.7887 22.3779C21.3665 22.3779 21.8331 21.9112 21.8331 21.3446V17.289C21.8331 16.7112 21.3665 16.2446 20.7998 16.2446Z" fill="#D9E1E8"/>
</g>
</g>
</svg>
