<svg width="40" height="40" viewBox="0 0 40 40" fill="none" xmlns="http://www.w3.org/2000/svg">
<g id="Iconly/Bulk/Close Square">
<g id="Group">
<path id="Fill 1" opacity="0.4" d="M27.234 3.33398H12.784C7.13398 3.33398 3.33398 7.30065 3.33398 13.2007V26.8173C3.33398 32.7007 7.13398 36.6673 12.784 36.6673H27.234C32.884 36.6673 36.6673 32.7007 36.6673 26.8173V13.2007C36.6673 7.30065 32.884 3.33398 27.234 3.33398Z" fill="#F40D0D"/>
<path id="Fill 4" d="M25.0278 22.9508L22.0628 19.9875L25.0262 17.0242C25.5962 16.4558 25.5962 15.5308 25.0262 14.9625C24.4562 14.3892 23.5345 14.3908 22.9645 14.9608L19.9995 17.9242L17.0345 14.9575C16.4645 14.3875 15.5412 14.3908 14.9712 14.9575C14.4028 15.5275 14.4028 16.4525 14.9712 17.0208L17.9378 19.9875L14.9778 22.9458C14.4078 23.5158 14.4078 24.4408 14.9778 25.0075C15.2628 25.2942 15.6345 25.4358 16.0078 25.4358C16.3828 25.4358 16.7545 25.2942 17.0395 25.0092L19.9995 22.0492L22.9662 25.0142C23.2512 25.2992 23.6228 25.4408 23.9962 25.4408C24.3695 25.4408 24.7428 25.2975 25.0278 25.0142C25.5978 24.4442 25.5978 23.5208 25.0278 22.9508Z" fill="#F40D0D"/>
</g>
</g>
</svg>
