<svg width="26" height="26" viewBox="0 0 26 26" fill="none" xmlns="http://www.w3.org/2000/svg">
<path fill-rule="evenodd" clip-rule="evenodd" d="M11.3803 2.39854C10.5424 2.39854 9.82956 2.98081 9.62946 3.76562H16.3578C16.1577 2.98081 15.4449 2.39854 14.6069 2.39854H11.3803ZM18.2588 3.76581H20.735C23.3613 3.76581 25.4999 5.93035 25.4999 8.58856C25.4999 8.58856 25.4248 9.71388 25.3998 11.281C25.3973 11.405 25.3373 11.5265 25.2385 11.5999C24.6369 12.0442 24.0867 12.4113 24.0366 12.4366C21.9606 13.829 19.5482 14.8088 16.9781 15.2961C16.8105 15.329 16.6455 15.2417 16.5604 15.0923C15.84 13.8442 14.4944 13.0316 12.9936 13.0316C11.5029 13.0316 10.1447 13.8354 9.40308 15.0847C9.31679 15.2316 9.15421 15.3164 8.98787 15.2847C6.4391 14.7961 4.02664 13.8177 1.96311 12.4493L0.762509 11.6139C0.662459 11.5506 0.599928 11.4367 0.599928 11.3101C0.562409 10.6645 0.499878 8.58856 0.499878 8.58856C0.499878 5.93035 2.63845 3.76581 5.26476 3.76581H7.72849C7.96611 1.93037 9.50438 0.5 11.3803 0.5H14.6069C16.4829 0.5 18.0211 1.93037 18.2588 3.76581ZM25.0747 14.0191L25.0247 14.0444C22.4984 15.7406 19.4594 16.8672 16.2703 17.3355C15.8201 17.3988 15.3699 17.1077 15.2448 16.652C14.9697 15.614 14.0817 14.9305 13.0187 14.9305H13.0062H12.9812C11.9181 14.9305 11.0302 15.614 10.7551 16.652C10.63 17.1077 10.1798 17.3988 9.72955 17.3355C6.54045 16.8672 3.50143 15.7406 0.975168 14.0444C0.962662 14.0318 0.837599 13.9558 0.737549 14.0191C0.624993 14.0824 0.624993 14.2343 0.624993 14.2343L0.712537 20.69C0.712537 23.3482 2.8386 25.5001 5.46491 25.5001H20.5224C23.1488 25.5001 25.2748 23.3482 25.2748 20.69L25.3749 14.2343C25.3749 14.2343 25.3749 14.0824 25.2623 14.0191C25.1998 13.9811 25.1247 13.9938 25.0747 14.0191ZM13.9317 19.3224C13.9317 19.8541 13.519 20.2718 12.9937 20.2718C12.481 20.2718 12.0558 19.8541 12.0558 19.3224V17.6895C12.0558 17.1705 12.481 16.7402 12.9937 16.7402C13.519 16.7402 13.9317 17.1705 13.9317 17.6895V19.3224Z" fill="#006298"/>
</svg>
