<svg width="20" height="20" viewBox="0 0 20 20" fill="none" xmlns="http://www.w3.org/2000/svg">
<path opacity="0.4" d="M13.4925 1.66602H6.50833C3.975 1.66602 2.5 3.14935 2.5 5.69102V14.2993C2.5 16.8827 3.975 18.3327 6.50833 18.3327H13.4925C16.0667 18.3327 17.5 16.8827 17.5 14.2993V5.69102C17.5 3.14935 16.0667 1.66602 13.4925 1.66602Z" fill="#9FB5C5"/>
<path fill-rule="evenodd" clip-rule="evenodd" d="M6.73321 5.54102V5.54935C6.37404 5.54935 6.08321 5.84102 6.08321 6.19935C6.08321 6.55768 6.37404 6.84935 6.73321 6.84935H9.22404C9.58321 6.84935 9.87487 6.55768 9.87487 6.19018C9.87487 5.83268 9.58321 5.54102 9.22404 5.54102H6.73321ZM13.2665 10.616H6.73321C6.37404 10.616 6.08321 10.3243 6.08321 9.96601C6.08321 9.60767 6.37404 9.31517 6.73321 9.31517H13.2665C13.6249 9.31517 13.9165 9.60767 13.9165 9.96601C13.9165 10.3243 13.6249 10.616 13.2665 10.616ZM13.2665 14.4244H6.73318C6.48318 14.4577 6.24151 14.3327 6.10818 14.1244C5.97485 13.9077 5.97485 13.6327 6.10818 13.4244C6.24151 13.2077 6.48318 13.091 6.73318 13.116H13.2665C13.599 13.1494 13.8498 13.4327 13.8498 13.7744C13.8498 14.1069 13.599 14.391 13.2665 14.4244Z" fill="black" fill-opacity="0.29"/>
</svg>
