<svg width="125" height="120" viewBox="0 0 125 120" fill="none" xmlns="http://www.w3.org/2000/svg">
<g clip-path="url(#clip0)">
<path d="M114.664 60.7215C114.229 70.5185 112.06 79.7823 106.763 88.2315C104.565 91.7415 101.835 94.7406 99.2977 97.947C97.0698 100.761 95.1369 103.842 92.6139 106.404C88.6745 110.402 84.5875 114.083 79.18 116.297C73.47 118.63 67.6051 119.755 61.5852 119.985C57.1736 120.155 52.7399 119.4 48.4316 118.23C39.5199 115.816 32.4673 110.617 27.0893 103.264C25.5253 101.116 23.6072 99.006 22.9064 96.2216C22.6998 95.4071 21.8883 94.7258 21.2981 94.0223C19.926 92.3784 18.7603 90.5863 17.5652 88.8091C16.5988 87.3799 16.0086 85.7582 13.8545 85.1806C11.7593 84.6104 11.538 82.8332 12.7479 80.9079C13.0725 80.3895 13.1463 79.9304 12.9249 79.3602C10.1732 72.3031 9.00763 64.9498 9.48715 57.4336C9.8929 51.1319 11.479 45.03 13.9651 39.2022C14.4152 38.1359 14.902 37.1954 12.984 37.0621C11.5897 36.9659 11.2429 35.5737 11.0585 34.4407C10.911 33.5299 11.3388 32.6413 12.2241 32.1155C13.3307 31.4639 14.5627 31.338 15.4922 32.1896C16.7685 33.367 17.2406 33.0634 18.1628 31.6934C22.7662 24.8659 28.5795 19.3269 35.7059 15.0837C41.4159 11.6848 47.5095 9.45583 53.9793 8.545C63.2894 7.23429 72.4445 8.19696 81.3194 11.6107C88.4532 14.358 94.5025 18.6752 99.7846 24.0587C103.281 27.628 106.129 31.7304 108.512 36.2179C111.404 41.6533 113.012 47.4441 114.133 53.3978C114.583 55.7749 114.886 58.2334 114.664 60.7215ZM26.4769 53.7162C25.7023 54.3235 26.0048 55.1899 26.0048 55.9526C25.99 67.6971 25.99 79.4342 25.99 91.1788C25.99 94.3852 27.4655 95.8736 30.6451 95.8736C50.9251 95.8736 71.2052 95.8736 91.4852 95.8736C91.8541 95.8736 92.2229 95.8958 92.5844 95.8662C94.4509 95.7403 96.2214 94.0149 96.2214 92.1488C96.2214 79.3009 96.1919 66.4531 96.1697 53.6052C96.1771 45.9853 96.1919 38.3654 96.1845 30.7456C96.1845 27.7243 94.8566 26.4358 91.7729 26.4358C71.3822 26.4284 50.9915 26.4284 30.6082 26.4358C27.3991 26.4358 26.2114 27.6428 26.204 30.9159C26.1892 37.8619 26.1892 44.8005 26.1892 51.7465C26.1892 52.4129 26.0712 53.1016 26.4769 53.7162ZM108.667 60.1291C108.586 59.9217 108.571 59.781 108.497 59.6996C106.992 58.1741 105.487 56.6487 103.96 55.1454C103.717 54.9085 103.392 54.9677 103.149 55.2343C102.809 55.612 102.78 56.0489 103.119 56.3969C104.484 57.8039 105.871 59.1886 107.265 60.566C107.553 60.8474 107.944 60.8696 108.276 60.6326C108.453 60.4993 108.556 60.2698 108.667 60.1291Z" fill="#DFE7F6"/>
<path d="M92.5623 8.69394C92.5623 6.6057 92.5844 4.51745 92.5549 2.42921C92.5328 1.08148 93.0566 -0.0218857 94.4287 0.000329698C95.8009 0.0225451 96.2583 1.15553 96.2509 2.49586C96.2214 6.67234 96.2214 10.8488 96.2509 15.0253C96.2657 16.3656 95.8156 17.5208 94.4582 17.5431C92.968 17.5727 92.5254 16.3582 92.5475 14.9587C92.5844 12.8704 92.5623 10.7822 92.5623 8.69394Z" fill="#DFE7F6"/>
<path d="M103.237 17.6316C103.119 16.8467 103.569 16.358 104.056 15.8692C107 12.9294 109.943 9.98956 112.864 7.02011C113.816 6.05744 114.915 5.71681 115.919 6.64985C117.077 7.71619 116.354 8.70848 115.446 9.6119C112.407 12.6332 109.382 15.6619 106.38 18.7202C105.76 19.3496 105.081 19.6829 104.255 19.3719C103.488 19.0831 103.141 18.4536 103.237 17.6316Z" fill="#DFE7F6"/>
<path d="M113.617 29.8124C111.418 29.8124 109.22 29.805 107.014 29.8198C105.863 29.8272 105.081 29.3977 105.081 28.1462C105.081 26.9022 105.871 26.4727 107.022 26.4727C111.485 26.4801 115.941 26.4801 120.404 26.4727C121.547 26.4727 122.344 26.8947 122.337 28.1462C122.337 29.3903 121.547 29.8198 120.397 29.8124C118.139 29.805 115.874 29.8124 113.617 29.8124Z" fill="#DFE7F6"/>
<path d="M111.928 101.79C109.914 101.813 108.372 100.376 108.372 98.4654C108.364 96.2291 109.464 95.1554 111.765 95.1331C114.207 95.1109 115.38 96.1995 115.365 98.4728C115.358 100.287 113.816 101.768 111.928 101.79ZM113.477 98.732C113.617 97.5916 113.226 96.8289 112.237 96.6882C111.175 96.5401 110.467 97.3028 110.297 98.2285C110.091 99.3689 110.917 100.087 111.942 100.243C113.071 100.413 113.241 99.3837 113.477 98.732Z" fill="#DFE7F6"/>
<path d="M0.826279 60.1214C0.42053 60.1065 0.20659 59.8844 0.0811772 59.5956C-0.0884994 59.2031 0.0811772 58.8329 0.36889 58.6033C1.60827 57.6332 1.76319 56.715 0.405776 55.7079C0.0590454 55.4487 -0.162272 54.9896 0.169704 54.5675C0.553321 54.0862 1.12137 54.1528 1.46072 54.5453C2.49354 55.7523 3.41569 55.7894 4.44113 54.5379C4.79524 54.1084 5.34115 54.1454 5.72477 54.6119C6.07888 55.0414 5.85018 55.4783 5.49607 55.7375C4.07964 56.7668 4.41162 57.6777 5.57722 58.6403C5.99773 58.9884 6.06412 59.4993 5.61411 59.9288C5.30427 60.225 4.87639 60.2398 4.63294 59.9214C3.48209 58.4404 2.39025 58.4848 1.26891 59.9362C1.17301 60.0621 0.944315 60.0769 0.826279 60.1214Z" fill="#006298"/>
<path d="M124.321 75.5834C123.384 74.6059 122.447 74.4875 121.474 75.4427C121.4 75.5094 120.979 75.3613 120.861 75.2057C120.655 74.9318 120.802 74.5985 121.038 74.3912C121.791 73.7247 121.865 73.1249 121.016 72.4584C120.721 72.2289 120.618 71.8068 120.943 71.4884C121.267 71.17 121.643 71.2958 121.916 71.5698C122.543 72.2067 123.134 72.2881 123.79 71.6143C124.107 71.2884 124.543 71.0885 124.882 71.5624C125.118 71.8957 124.993 72.3029 124.675 72.5399C123.864 73.1545 124.026 73.7247 124.675 74.3319C124.897 74.5393 125.096 74.8355 124.919 75.1465C124.816 75.3242 124.565 75.4131 124.321 75.5834Z" fill="#006298"/>
<path d="M22.1907 17.9421C21.8219 17.9569 21.5563 17.8088 21.4014 17.5348C21.1358 17.0757 21.0841 16.5352 21.4604 16.1649C22.9506 14.7357 24.4703 13.3361 26.0121 11.9588C26.3441 11.6626 26.6982 11.8847 26.9712 12.1661C27.222 12.4327 27.5614 12.7585 27.2589 13.114C25.8056 14.8172 24.308 16.4907 22.5153 17.8533C22.412 17.9199 22.2719 17.9199 22.1907 17.9421Z" fill="#DFE7F6"/>
<path d="M96.1624 53.6055C96.1845 66.4534 96.2214 79.3013 96.214 92.1491C96.214 94.0152 94.4435 95.748 92.577 95.8665C92.2082 95.8887 91.8393 95.8739 91.4778 95.8739C71.1978 95.8739 50.9178 95.8739 30.6377 95.8739C27.4581 95.8739 25.9827 94.3781 25.9827 91.1791C25.9827 79.4345 25.9753 67.6974 25.9974 55.9529C25.9974 55.1976 25.695 54.3312 26.4696 53.7165C27.2073 53.7017 27.9376 53.6721 28.6754 53.6721C48.7784 53.6721 68.8887 53.6721 88.9917 53.6647C91.3819 53.6647 93.7722 53.6277 96.1624 53.6055ZM61.032 81.6709C61.9467 81.6709 62.8615 81.7227 63.7689 81.6561C64.728 81.582 65.3993 81.034 65.414 80.027C65.4288 79.0273 64.787 78.3978 63.8279 78.3534C62.0648 78.2793 60.2942 78.2793 58.5311 78.346C57.572 78.383 56.9007 78.9828 56.8786 79.9751C56.8564 80.9748 57.5351 81.5524 58.4794 81.6487C59.3204 81.7375 60.1762 81.6635 61.032 81.6709ZM70.9101 68.4527C71.8691 68.2824 72.5036 67.7493 72.415 66.7199C72.3265 65.7425 71.6921 65.1352 70.6961 65.1723C69.656 65.2093 69.1543 65.935 69.1912 66.9051C69.2207 67.9122 69.8994 68.4009 70.9101 68.4527ZM51.6038 68.4527C52.585 68.275 53.1604 67.6974 53.094 66.6903C53.0276 65.6906 52.4301 65.0834 51.412 65.1723C50.4456 65.2611 49.8112 65.8684 49.8849 66.8754C49.9661 67.8529 50.6153 68.3787 51.6038 68.4527Z" fill="#F8FAFC"/>
<path d="M96.1623 53.6046C93.7721 53.6268 91.3819 53.6639 88.9916 53.6639C68.8887 53.6713 48.7783 53.6639 28.6753 53.6713C27.9376 53.6713 27.2072 53.7009 26.4695 53.7157C26.0638 53.1011 26.1818 52.4124 26.1818 51.7459C26.1818 44.7999 26.1818 37.8613 26.1892 30.9153C26.1966 27.6423 27.3843 26.4352 30.5934 26.4352C50.9841 26.4278 71.3748 26.4278 91.7581 26.4352C94.8492 26.4352 96.1697 27.7237 96.1697 30.745C96.1844 38.3649 96.1697 45.9848 96.1623 53.6046ZM48.9627 32.4778C44.3077 32.4778 39.6526 32.4852 34.9976 32.4704C34.0459 32.4704 33.1976 32.7148 33.1385 33.7959C33.0869 34.8771 33.8689 35.2547 34.8501 35.2547C44.2192 35.2547 53.5956 35.2547 62.9647 35.2547C63.8721 35.2547 64.573 34.9511 64.6099 33.9366C64.6467 32.8185 63.9164 32.463 62.9278 32.4778C62.559 32.4778 62.1901 32.4778 61.8286 32.4778C57.5351 32.4778 53.2489 32.4778 48.9627 32.4778ZM43.0904 38.7129C40.4641 38.7129 37.8378 38.7203 35.2042 38.7055C34.2746 38.6981 33.3894 38.8166 33.3672 39.9792C33.3451 41.1492 34.223 41.2973 35.1599 41.2973C40.2945 41.2899 45.429 41.2973 50.5636 41.2899C51.4562 41.2899 52.3931 41.2529 52.4005 40.0384C52.4079 38.861 51.53 38.7129 50.6078 38.7129C48.0996 38.7129 45.5913 38.7129 43.0904 38.7129ZM39.5936 47.4584C41.2461 47.4584 42.8913 47.451 44.5438 47.4584C45.4438 47.4584 46.1667 47.2066 46.1594 46.1551C46.152 45.2146 45.4807 44.9332 44.6618 44.9258C41.3642 44.9184 38.0665 44.9258 34.7689 44.9258C33.9427 44.9258 33.2418 45.2591 33.2197 46.1329C33.1902 47.1251 33.9353 47.4584 34.8353 47.4584C36.4214 47.4584 38.0075 47.4584 39.5936 47.4584Z" fill="#006298"/>
<path d="M108.667 60.1301C108.556 60.2708 108.453 60.5004 108.276 60.6337C107.944 60.8707 107.553 60.8484 107.265 60.567C105.871 59.1897 104.484 57.8049 103.119 56.398C102.78 56.0499 102.817 55.613 103.149 55.2354C103.392 54.9688 103.717 54.9095 103.96 55.1465C105.487 56.6497 106.992 58.1752 108.497 59.7006C108.571 59.7821 108.586 59.9228 108.667 60.1301Z" fill="#F8FAFC"/>
<path d="M113.477 98.7322C113.241 99.3839 113.071 100.413 111.95 100.243C110.924 100.087 110.098 99.369 110.305 98.2287C110.474 97.303 111.182 96.5403 112.245 96.6884C113.226 96.8291 113.617 97.5918 113.477 98.7322Z" fill="#F8FAFC"/>
<path d="M61.0319 81.6631C60.1761 81.6631 59.3204 81.7297 58.4794 81.6408C57.5351 81.5372 56.8564 80.967 56.8785 79.9673C56.9006 78.975 57.572 78.3752 58.531 78.3382C60.2942 78.2715 62.0647 78.2715 63.8279 78.3456C64.7943 78.39 65.4287 79.012 65.414 80.0191C65.3992 81.0262 64.7279 81.5742 63.7689 81.6483C62.8615 81.7223 61.9467 81.6705 61.0319 81.6631Z" fill="#006298"/>
<path d="M70.9101 68.4535C69.8994 68.4017 69.2207 67.913 69.1838 66.8985C69.1469 65.9358 69.6485 65.2027 70.6887 65.1657C71.6847 65.1286 72.3191 65.7359 72.4076 66.7133C72.5035 67.7501 71.8691 68.2832 70.9101 68.4535Z" fill="#006298"/>
<path d="M51.6038 68.4535C50.6152 68.3795 49.9661 67.8537 49.8849 66.8836C49.8038 65.8765 50.4382 65.2619 51.412 65.1805C52.4374 65.0916 53.035 65.6988 53.094 66.6985C53.1604 67.7056 52.585 68.2758 51.6038 68.4535Z" fill="#006298"/>
<path d="M48.9628 32.4781C53.249 32.4781 57.5425 32.4781 61.8287 32.4781C62.1976 32.4781 62.5664 32.4855 62.9279 32.4781C63.9238 32.4707 64.6468 32.8187 64.6099 33.9369C64.573 34.9514 63.8722 35.255 62.9648 35.255C53.5957 35.255 44.2192 35.255 34.8501 35.255C33.869 35.255 33.0796 34.8774 33.1386 33.7962C33.1902 32.7151 34.046 32.4707 34.9977 32.4707C39.6527 32.4855 44.3078 32.4781 48.9628 32.4781Z" fill="#DFE7F6"/>
<path d="M43.0905 38.7147C45.5988 38.7147 48.0996 38.7147 50.6079 38.7147C51.5301 38.7147 52.408 38.8628 52.4006 40.0403C52.3932 41.2547 51.4563 41.2917 50.5636 41.2917C45.4291 41.2917 40.2945 41.2917 35.16 41.2991C34.2231 41.2991 33.3452 41.151 33.3673 39.981C33.3894 38.8184 34.2673 38.6999 35.2042 38.7073C37.8305 38.7221 40.4568 38.7147 43.0905 38.7147Z" fill="#DFE7F6"/>
<path d="M39.5936 47.4597C38.0075 47.4597 36.4141 47.4597 34.8279 47.4597C33.9279 47.4597 33.1828 47.1338 33.2123 46.1342C33.2345 45.2603 33.9353 44.9271 34.7616 44.9271C38.0592 44.9271 41.3568 44.9197 44.6544 44.9271C45.4733 44.9271 46.1446 45.2085 46.152 46.1564C46.1594 47.2005 45.4364 47.4597 44.5364 47.4597C42.8913 47.4523 41.2461 47.4597 39.5936 47.4597Z" fill="#DFE7F6"/>
</g>
<defs>
<clipPath id="clip0">
<rect width="125" height="120" fill="white"/>
</clipPath>
</defs>
</svg>
