<svg width="24" height="24" viewBox="0 0 24 24" fill="none" xmlns="http://www.w3.org/2000/svg">
<path fill-rule="evenodd" clip-rule="evenodd" d="M8.7205 22.0349L19.7035 7.8318C20.3004 7.06588 20.5126 6.18037 20.3136 5.27874C20.1412 4.45907 19.6372 3.67972 18.8811 3.08848L17.0373 1.62383C15.4323 0.347299 13.4426 0.481671 12.3019 1.94632L11.0683 3.54669C10.9091 3.7469 10.9489 4.04252 11.1479 4.20376C11.1479 4.20376 14.265 6.70308 14.3314 6.75682C14.5436 6.95838 14.7028 7.22713 14.7426 7.54962C14.8089 8.18116 14.3712 8.7724 13.7212 8.85302C13.4161 8.89333 13.1243 8.79927 12.9121 8.62459L9.63575 6.01778C9.47657 5.89819 9.23781 5.92372 9.10517 6.08497L1.31892 16.1628C0.814873 16.7944 0.642435 17.614 0.814873 18.4068L1.80971 22.7202C1.86277 22.9486 2.06173 23.1098 2.30049 23.1098L6.67777 23.0561C7.47364 23.0427 8.21645 22.6799 8.7205 22.0349ZM14.8497 20.6919H21.9873C22.6837 20.6919 23.2501 21.2656 23.2501 21.9711C23.2501 22.6779 22.6837 23.2503 21.9873 23.2503H14.8497C14.1533 23.2503 13.587 22.6779 13.587 21.9711C13.587 21.2656 14.1533 20.6919 14.8497 20.6919Z" fill="#006298"/>
</svg>
