<svg width="50" height="59" viewBox="0 0 50 59" fill="none" xmlns="http://www.w3.org/2000/svg">
<path d="M0 4.425C0 3.25142 0.464809 2.1259 1.29218 1.29605C2.11954 0.466203 3.24169 0 4.41177 0H34.3132L49.0191 14.75V54.575C49.0191 55.7485 48.5543 56.8741 47.7269 57.7039C46.8996 58.5338 45.7774 59 44.6074 59H4.41177C3.24169 59 2.11954 58.5338 1.29218 57.7039C0.464809 56.8741 0 55.7485 0 54.575V4.425Z" fill="#F5F5F5"/>
<path d="M0.5 4.425C0.5 3.38354 0.912493 2.38504 1.64626 1.64908C2.37997 0.91316 3.37478 0.5 4.41177 0.5H34.1057L48.5191 14.9567V54.575C48.5191 55.6164 48.1066 56.6149 47.3728 57.3509C46.6391 58.0868 45.6443 58.5 44.6074 58.5H4.41177C3.3748 58.5 2.37998 58.0868 1.64626 57.3509C0.912495 56.6149 0.5 55.6164 0.5 54.575V4.425Z" stroke="#006298" stroke-opacity="0.12"/>
<path d="M0 41.2998H49.0191V54.5748C49.0191 55.7483 48.5543 56.8739 47.7269 57.7037C46.8996 58.5336 45.7774 58.9998 44.6074 58.9998H4.41177C3.24169 58.9998 2.11954 58.5336 1.29218 57.7037C0.464809 56.8739 0 55.7483 0 54.5748V41.2998Z" fill="#348560"/>
<path fill-rule="evenodd" clip-rule="evenodd" d="M22.0886 49.7035C21.965 48.289 20.7812 47.5869 19.4533 47.5869C17.7341 47.5869 16.6533 48.8053 16.6533 50.5089C16.6533 52.1506 17.8474 53.2553 19.4533 53.2553C20.8738 53.2553 21.9856 52.4293 22.14 50.9942H20.4415C20.3591 51.562 20.0503 51.9131 19.443 51.9131C18.7018 51.9131 18.4033 51.2007 18.4033 50.5089C18.4033 49.7655 18.5577 48.9292 19.5356 48.9292C19.9783 48.9292 20.3797 49.2492 20.39 49.7035H22.0886ZM22.7038 51.3349C22.7553 52.832 24.0524 53.2553 25.3186 53.2553C26.523 53.2553 27.8818 52.7804 27.8818 51.3452C27.8818 50.9012 27.6038 50.1165 26.523 49.8997C26.3678 49.8658 26.1988 49.835 26.0271 49.8037C25.3103 49.6729 24.5465 49.5335 24.5465 49.1253C24.5465 48.7536 25.0097 48.7227 25.298 48.7227C25.5141 48.7227 25.7097 48.764 25.8538 48.8569C25.998 48.9498 26.0803 49.0944 26.0803 49.3215H27.6965C27.6347 47.9276 26.4097 47.5869 25.2362 47.5869C24.1862 47.5869 22.7965 47.938 22.7965 49.2286C22.7965 50.4539 23.7877 50.6629 24.7606 50.8679C24.9355 50.9046 25.1096 50.9414 25.2774 50.9838C25.2931 50.9875 25.3094 50.9912 25.3262 50.995C25.3377 50.9976 25.3494 51.0002 25.3615 51.0029C25.6756 51.0726 26.1318 51.1741 26.1318 51.5517C26.1318 51.975 25.648 52.1196 25.3083 52.1196C25.0612 52.1196 24.8244 52.0576 24.6597 51.9337C24.4847 51.7995 24.3715 51.6033 24.3715 51.3349H22.7038ZM31.924 47.7418H33.7049L31.9137 53.1005H29.8961L28.1152 47.7418H29.9372L30.9152 51.2833H30.9358L31.924 47.7418Z" fill="white"/>
<path d="M38.0365 14.7356C37.0691 14.7356 36.1415 14.3502 35.4575 13.6642C34.7735 12.9782 34.3894 12.0478 34.3894 11.0776V0.0859375L49.0159 14.7356H38.0365Z" fill="#DBDBDB"/>
<path fill-rule="evenodd" clip-rule="evenodd" d="M11.7647 21.3582H19.0588V17.7002H11.7647V21.3582ZM19.0588 27.4544H11.7647V23.7964H19.0588V27.4544ZM19.0588 33.552H11.7647V29.894H19.0588V33.552ZM36.0779 27.4544H21.4897V23.7964H36.0779V27.4544ZM21.4897 33.552H36.0779V29.894H21.4897V33.552ZM21.4897 21.3582V17.7002H36.0779V21.3582H21.4897Z" fill="#CFCFCF"/>
</svg>
