<svg width="13" height="12" viewBox="0 0 13 12" fill="none" xmlns="http://www.w3.org/2000/svg">
<path fill-rule="evenodd" clip-rule="evenodd" d="M1 0.5C1 0.223858 0.776142 0 0.5 0C0.223858 0 0 0.223858 0 0.5V11.5V12H0.5H12.5C12.7761 12 13 11.7761 13 11.5C13 11.2239 12.7761 11 12.5 11H1V0.5ZM12.4764 4.59915C12.6456 4.38086 12.6057 4.0668 12.3874 3.89767C12.1692 3.72853 11.8551 3.76838 11.686 3.98667L9.06518 7.36911L6.04681 4.99811C5.94184 4.91566 5.80827 4.8786 5.67582 4.89518C5.54338 4.91176 5.42307 4.98062 5.34167 5.08641L2.34853 8.97657C2.18014 9.19542 2.22105 9.50935 2.43991 9.67774C2.65877 9.84614 2.9727 9.80522 3.14109 9.58637L5.82625 6.09648L8.84327 8.46642C8.94801 8.5487 9.08124 8.58578 9.21342 8.56946C9.3456 8.55313 9.4658 8.48475 9.54738 8.37947L12.4764 4.59915Z" fill="#51B74F"/>
</svg>
