<svg width="52" height="40" viewBox="0 0 52 40" fill="none" xmlns="http://www.w3.org/2000/svg">
<path d="M6.5 0.5H45.5V39.5H6.5V0.5Z" fill="#ECEFF1"/>
<path d="M26 24.1016L45.5 39.5001V9.09961L26 24.1016Z" fill="#CFD8DC"/>
<path d="M47.125 0.5H45.5L26 15.8985L6.5 0.5H4.875C3.58207 0.5 2.34209 1.01361 1.42785 1.92785C0.513615 2.84209 0 4.08207 0 5.375L0 34.625C0 35.9179 0.513615 37.1579 1.42785 38.0721C2.34209 38.9864 3.58207 39.5 4.875 39.5H6.5V9.0995L26 24.0982L45.5 9.09625V39.5H47.125C48.4179 39.5 49.6579 38.9864 50.5721 38.0721C51.4864 37.1579 52 35.9179 52 34.625V5.375C52 4.08207 51.4864 2.84209 50.5721 1.92785C49.6579 1.01361 48.4179 0.5 47.125 0.5Z" fill="#F44336"/>
</svg>
