<svg width="30" height="30" viewBox="0 0 30 30" fill="none" xmlns="http://www.w3.org/2000/svg">
<g id="Iconly/Bulk/Heart">
<g id="Heart">
<path id="Path_34179" opacity="0.4" d="M14.2201 29.5468C11.3663 27.7841 8.71339 25.7057 6.30996 23.3495C4.61324 21.6672 3.31743 19.6131 2.52156 17.3441C1.09952 12.919 2.75486 7.86185 7.37649 6.3605C9.81588 5.59441 12.4689 6.06469 14.5089 7.62479C16.5497 6.06644 19.2018 5.59631 21.6413 6.3605C26.263 7.86185 27.9294 12.919 26.5074 17.3441C25.718 19.6109 24.4299 21.6649 22.7412 23.3495C20.3356 25.7031 17.683 27.7813 14.8311 29.5468L14.52 29.75L14.2201 29.5468Z" fill="#BEC2C7"/>
<path id="Path_34178" d="M14.5136 29.75L14.22 29.5468C11.3627 27.7843 8.70609 25.7059 6.29877 23.3495C4.594 21.6695 3.29048 19.6152 2.48815 17.3441C1.07722 12.919 2.73256 7.86185 7.35419 6.36049C9.79358 5.59441 12.4816 6.06505 14.5136 7.63822V29.75Z" fill="#006298"/>
<path id="Path_34180" d="M22.2881 14.749C22.037 14.7329 21.8031 14.6074 21.6413 14.402C21.4795 14.1965 21.404 13.9293 21.4324 13.6627C21.4596 12.7848 20.96 11.9856 20.1897 11.6747C19.7012 11.5414 19.4053 11.0123 19.5275 10.4906C19.6435 9.97727 20.1242 9.65809 20.6073 9.77363C20.6683 9.78375 20.727 9.80585 20.7805 9.83881C22.3251 10.4332 23.3252 12.033 23.2456 13.7822C23.2431 14.0473 23.1397 14.3 22.9592 14.4823C22.7786 14.6645 22.5364 14.7608 22.2881 14.749Z" fill="#BEC2C7"/>
</g>
</g>
</svg>
