<svg width="50" height="36" viewBox="0 0 50 36" fill="none" xmlns="http://www.w3.org/2000/svg">
<path d="M24.9997 28.9365C22.6071 28.9361 20.2286 28.5689 17.9472 27.8478C17.7283 27.7863 17.5247 27.6796 17.3495 27.5346C17.1744 27.3895 17.0317 27.2092 16.9306 27.0055C16.8295 26.8018 16.7723 26.5792 16.7627 26.352C16.7531 26.1248 16.7912 25.8981 16.8747 25.6865C17.031 25.2981 17.3311 24.985 17.7126 24.8124C18.094 24.6399 18.5274 24.6212 18.9222 24.7603C22.8619 26.0033 27.0888 26.0033 31.0285 24.7603C31.4234 24.6212 31.8567 24.6399 32.2382 24.8124C32.6196 24.985 32.9197 25.2981 33.076 25.6865C33.16 25.8959 33.1995 26.1205 33.192 26.346C33.1844 26.5715 33.13 26.793 33.0321 26.9963C32.9343 27.1996 32.7952 27.3803 32.6237 27.5269C32.4522 27.6735 32.252 27.7828 32.036 27.8478C29.7598 28.5672 27.3869 28.9344 24.9997 28.9365Z" fill="black"/>
<path d="M43.6875 35.3714H6.3125C4.80408 35.3714 3.35744 34.7722 2.29083 33.7056C1.22422 32.639 0.625 31.1923 0.625 29.6839V6.31641C0.625 4.80799 1.22422 3.36135 2.29083 2.29474C3.35744 1.22812 4.80408 0.628906 6.3125 0.628906H43.6875C45.1959 0.628906 46.6426 1.22812 47.7092 2.29474C48.7758 3.36135 49.375 4.80799 49.375 6.31641V29.6839C49.375 31.1923 48.7758 32.639 47.7092 33.7056C46.6426 34.7722 45.1959 35.3714 43.6875 35.3714ZM6.3125 3.87891C5.66603 3.87891 5.04605 4.13571 4.58893 4.59283C4.13181 5.04995 3.875 5.66994 3.875 6.31641V29.6839C3.875 30.3304 4.13181 30.9504 4.58893 31.4075C5.04605 31.8646 5.66603 32.1214 6.3125 32.1214H43.6875C44.334 32.1214 44.954 31.8646 45.4111 31.4075C45.8682 30.9504 46.125 30.3304 46.125 29.6839V6.31641C46.125 5.66994 45.8682 5.04995 45.4111 4.59283C44.954 4.13571 44.334 3.87891 43.6875 3.87891H6.3125Z" fill="black"/>
<path d="M24.9997 16.018C23.7289 16.0194 22.4798 15.6889 21.376 15.0592L3.09473 5.30922L4.62223 2.44922L22.9522 12.1992C23.5659 12.5498 24.2605 12.7342 24.9672 12.7342C25.674 12.7342 26.3685 12.5498 26.9822 12.1992L45.3447 2.44922L46.8722 5.30922L28.5422 15.0592C27.4646 15.6809 26.2438 16.0113 24.9997 16.018Z" fill="black"/>
</svg>
