<svg width="227" height="31" viewBox="0 0 227 31" fill="none" xmlns="http://www.w3.org/2000/svg">
<path d="M46.8701 30.1829H31.1991C30.3372 30.1829 29.6391 29.4842 29.6391 28.623C29.6391 27.7617 30.3378 27.063 31.1991 27.063H46.8707C50.3654 27.063 53.3071 24.3103 53.4276 20.926C53.4894 19.1777 52.8567 17.5237 51.6452 16.2684C50.4374 15.0168 48.8157 14.3259 47.077 14.3211C47.0692 14.3211 47.0626 14.3211 47.0555 14.3211C46.2116 14.3211 45.5201 13.6494 45.4961 12.8055C45.396 9.33788 42.6006 6.62168 39.1306 6.62168C37.6876 6.62168 36.3268 7.09367 35.1933 7.98667C34.867 8.24336 34.4532 8.35971 34.0412 8.31053C33.6298 8.26075 33.2543 8.04964 32.9989 7.72279C30.7097 4.79728 27.272 3.11982 23.568 3.11982C17.9539 3.11982 13.1578 6.93654 11.9038 12.4019C11.8312 12.7174 11.7946 13.0418 11.7946 13.3669C11.7946 14.2287 11.0959 14.9268 10.2347 14.9268C9.3729 14.9268 8.6748 14.2281 8.6748 13.3669C8.6748 12.8073 8.73838 12.2478 8.86312 11.7038C10.4422 4.81347 16.4888 0 23.5668 0C27.7512 0 31.6651 1.69725 34.5084 4.70132C35.913 3.91327 37.4861 3.50185 39.1294 3.50185C43.8175 3.50185 47.6804 6.83038 48.4702 11.3038C50.5285 11.6073 52.4159 12.574 53.89 14.1016C55.6946 15.9715 56.6374 18.4341 56.5451 21.0369C56.3657 26.0801 52.0255 30.1829 46.8701 30.1829Z" fill="url(#paint0_linear)"/>
<path d="M20.2053 27.0612C19.9402 27.0612 19.7507 26.9857 19.5618 26.7884C19.1756 26.3865 18.8949 25.6597 18.7054 24.7882C20.387 22.4097 21.7658 18.9096 21.7658 13.8263C21.7658 12.9627 21.0689 12.2658 20.2053 12.2658C19.3417 12.2658 18.6448 12.9627 18.6448 13.8263C18.6448 15.6291 18.4481 17.1746 18.1218 18.5156C17.2888 15.4474 14.9474 13.0688 11.9631 12.1524C11.0917 11.8873 10.1753 11.7434 9.22056 11.7434C9.09941 11.7434 8.97826 11.7434 8.85712 11.7584C6.44078 11.8496 4.1378 12.9021 2.47834 14.6677C0.713316 16.5611 -0.158099 19.0236 0.0236204 21.6138C0.334283 26.0987 3.93989 29.7648 8.41751 30.1517C9.96303 30.2806 11.5157 30.0227 12.9251 29.4092C13.3191 29.2731 14.7201 28.7201 16.2962 27.4091C16.5613 27.9926 16.9026 28.5228 17.3266 28.9624C18.099 29.7577 19.0994 30.1823 20.2053 30.1823C21.0689 30.1823 21.7658 29.4854 21.7658 28.6218C21.7658 27.7581 21.0689 27.0612 20.2053 27.0612ZM11.887 26.4627C11.8342 26.4855 11.7736 26.5083 11.7203 26.5311C10.7655 26.9629 9.74293 27.1296 8.6826 27.0385C5.7283 26.7884 3.34195 24.3642 3.13745 21.3949C3.0163 19.6827 3.59204 18.0466 4.75853 16.804C5.92501 15.5463 7.50831 14.8644 9.22056 14.8644C12.4022 14.8644 15.0086 17.243 15.2959 20.4024C15.3187 20.6753 15.3187 20.9703 15.3109 21.2204C15.2881 21.8567 15.2959 22.8343 15.417 23.9174C13.7432 25.8264 12.0237 26.4243 11.887 26.4627Z" fill="url(#paint1_linear)"/>
<path d="M13.3282 22.9135C12.2229 24.1735 11.0876 24.5688 10.9976 24.5939C10.9628 24.6089 10.9226 24.6239 10.8878 24.6389C10.2575 24.9238 9.58223 25.0341 8.88234 24.9742C6.932 24.8092 5.35649 23.2086 5.22155 21.248C5.14179 20.1175 5.52142 19.0374 6.29208 18.217C7.06214 17.3869 8.10748 16.9365 9.23798 16.9365C11.3389 16.9365 13.0589 18.5072 13.249 20.5925C13.264 20.7724 13.264 20.9673 13.2592 21.1329C13.243 21.5533 13.2484 22.198 13.3282 22.9135Z" fill="#00A651"/>
<path d="M80.4278 21.4454H73.2397L71.9758 25H68.0527L74.6088 6.93762H79.4536L86.0097 25H81.7443L80.4278 21.4454ZM74.3455 18.3648H79.3482C78.6812 16.3813 77.8738 14.0204 76.9259 11.2821H76.7942L74.3455 18.3648ZM87.7882 25V6.0424H91.6324V25H87.7882ZM98.565 13.2305C99.548 11.9315 100.812 11.2821 102.357 11.2821C103.41 11.2821 104.358 11.5366 105.2 12.0456C106.043 12.5547 106.71 13.327 107.201 14.3627C107.693 15.3983 107.938 16.6797 107.938 18.2069V18.4965C107.938 19.9534 107.71 21.1909 107.254 22.209C106.798 23.2271 106.174 23.9907 105.384 24.4997C104.612 25.0088 103.734 25.2633 102.751 25.2633C101.909 25.2633 101.163 25.0878 100.513 24.7367C99.8815 24.3856 99.3725 23.9556 98.9863 23.4465V29.7657H95.1421V11.5454H98.1701L98.565 13.2305ZM104.042 17.101C104.042 16.0654 103.805 15.2755 103.331 14.7313C102.857 14.1871 102.251 13.9151 101.514 13.9151C100.777 13.9151 100.171 14.1871 99.6972 14.7313C99.2233 15.2755 98.9863 16.0654 98.9863 17.101V19.2864C98.9863 20.3045 99.2233 21.0944 99.6972 21.6561C100.171 22.2002 100.777 22.4723 101.514 22.4723C102.251 22.4723 102.857 22.2002 103.331 21.6561C103.805 21.0944 104.042 20.3045 104.042 19.2864V17.101ZM114.645 12.8619C115.664 11.8087 116.91 11.2821 118.384 11.2821C119.753 11.2821 120.877 11.6507 121.755 12.3879C122.65 13.1252 123.097 14.1959 123.097 15.6002V25H119.253V16.4427C119.253 15.7582 119.051 15.1965 118.648 14.7576C118.261 14.3012 117.761 14.073 117.147 14.073C116.462 14.073 115.874 14.3363 115.383 14.8629C114.891 15.372 114.645 15.9951 114.645 16.7324V25H110.801V6.0424H114.645V12.8619ZM134.779 15.9161C134.779 15.3193 134.586 14.8366 134.2 14.468C133.831 14.0994 133.225 13.9151 132.383 13.9151C131.891 13.9151 131.47 14.0028 131.119 14.1784C130.768 14.3363 130.496 14.5382 130.303 14.784C130.127 15.0297 130.039 15.2579 130.039 15.4685V15.6792H126.327C126.292 15.4685 126.274 15.3106 126.274 15.2052C126.274 14.4504 126.52 13.7746 127.011 13.1778C127.521 12.581 128.223 12.1159 129.118 11.7823C130.013 11.4488 131.04 11.2821 132.199 11.2821H132.751C134.647 11.2821 136.087 11.6595 137.07 12.4143C138.053 13.1515 138.544 14.1696 138.544 15.4685V21.6824C138.544 21.9984 138.614 22.2353 138.755 22.3933C138.913 22.5513 139.097 22.6303 139.308 22.6303C139.483 22.6303 139.676 22.5952 139.887 22.525C140.098 22.4548 140.264 22.3933 140.387 22.3407V24.7104C139.738 25.079 138.965 25.2633 138.07 25.2633C137.105 25.2633 136.367 25.0702 135.858 24.684C135.349 24.2803 135.051 23.7186 134.963 22.9989C133.734 24.5085 132.225 25.2633 130.434 25.2633C129.1 25.2633 128.003 24.9912 127.143 24.4471C126.283 23.9029 125.853 22.8673 125.853 21.3401C125.853 20.0938 126.204 19.146 126.906 18.4965C127.626 17.8295 128.618 17.3819 129.881 17.1537C131.145 16.9255 132.778 16.8114 134.779 16.8114V15.9161ZM134.779 18.9704C133.111 18.9704 131.865 19.1372 131.04 19.4707C130.233 19.7867 129.829 20.3133 129.829 21.0505C129.829 21.6298 129.987 22.0423 130.303 22.288C130.636 22.5162 131.137 22.6303 131.804 22.6303C132.26 22.6303 132.716 22.5074 133.173 22.2617C133.629 22.0159 134.006 21.6649 134.305 21.2085C134.621 20.7521 134.779 20.243 134.779 19.6813V18.9704Z" fill="#0074B3"/>
<path d="M149.567 24.763C149.216 24.9035 148.751 25.0176 148.172 25.1053C147.61 25.2106 147.11 25.2633 146.671 25.2633C145.319 25.2633 144.301 24.9737 143.617 24.3944C142.932 23.8151 142.59 22.8497 142.59 21.4981V14.1784H141.115V11.5454H142.721L144.064 7.25358H146.434V11.5454H149.567V14.1784H146.434V20.8399C146.434 21.542 146.566 22.0159 146.829 22.2617C147.11 22.5074 147.478 22.6303 147.935 22.6303C148.145 22.6303 148.418 22.5952 148.751 22.525C149.085 22.4548 149.357 22.3758 149.567 22.288V24.763ZM152.018 6.0424H155.915V9.07035H152.018V6.0424ZM152.045 25V11.5454H155.889V25H152.045ZM162.664 19.5497C162.664 20.4274 162.892 21.1646 163.349 21.7614C163.805 22.3407 164.42 22.6303 165.192 22.6303C165.999 22.6303 166.631 22.3846 167.088 21.8931C167.562 21.384 167.799 20.638 167.799 19.655H171.432C171.432 20.9013 171.16 21.9457 170.616 22.7883C170.089 23.6308 169.387 24.254 168.509 24.6577C167.632 25.0614 166.666 25.2633 165.613 25.2633H165.192C163.226 25.2633 161.664 24.684 160.505 23.5255C159.347 22.3494 158.767 20.7258 158.767 18.6545V17.8909C158.767 16.5217 159.039 15.3457 159.584 14.3627C160.145 13.3621 160.909 12.5986 161.874 12.072C162.84 11.5454 163.946 11.2821 165.192 11.2821H165.613C166.649 11.2821 167.605 11.5103 168.483 11.9666C169.378 12.4055 170.089 13.055 170.616 13.9151C171.16 14.7576 171.432 15.7582 171.432 16.9167H167.614C167.614 16.0039 167.412 15.2755 167.009 14.7313C166.605 14.1871 166.008 13.9151 165.218 13.9151C164.428 13.9151 163.805 14.231 163.349 14.8629C162.892 15.4773 162.664 16.2584 162.664 17.2063V19.5497ZM182.843 25L179.657 20.6029L178.156 22.051V25H174.312V6.0424H178.156V17.8119L182.869 11.5454H187.214L182.264 17.8646L187.424 25H182.843ZM201.577 19.971C201.577 21.147 201.297 22.1388 200.735 22.9463C200.173 23.7362 199.427 24.3242 198.497 24.7104C197.584 25.079 196.584 25.2633 195.495 25.2633H195.074C193.828 25.2633 192.704 25 191.704 24.4734C190.703 23.9468 189.913 23.192 189.334 22.209C188.772 21.2085 188.491 20.0236 188.491 18.6545V17.8909C188.491 16.5393 188.781 15.3632 189.36 14.3627C189.94 13.3621 190.721 12.5986 191.704 12.072C192.704 11.5454 193.828 11.2821 195.074 11.2821H195.495C196.584 11.2821 197.593 11.5103 198.523 11.9666C199.453 12.4055 200.2 13.055 200.761 13.9151C201.323 14.7576 201.604 15.7582 201.604 16.9167V18.9178H192.388V19.5497C192.388 20.4274 192.643 21.1646 193.152 21.7614C193.678 22.3407 194.389 22.6303 195.285 22.6303C196.092 22.6303 196.724 22.4109 197.18 21.972C197.654 21.5157 197.891 20.8486 197.891 19.971H201.577ZM195.1 13.9151C194.328 13.9151 193.696 14.1871 193.204 14.7313C192.731 15.2755 192.458 15.9688 192.388 16.8114H197.707C197.707 15.9161 197.496 15.214 197.075 14.705C196.671 14.1784 196.013 13.9151 195.1 13.9151ZM211.767 24.763C211.416 24.9035 210.951 25.0176 210.371 25.1053C209.81 25.2106 209.309 25.2633 208.87 25.2633C207.519 25.2633 206.501 24.9737 205.816 24.3944C205.132 23.8151 204.789 22.8497 204.789 21.4981V14.1784H203.315V11.5454H204.921L206.264 7.25358H208.633V11.5454H211.767V14.1784H208.633V20.8399C208.633 21.542 208.765 22.0159 209.028 22.2617C209.309 22.5074 209.678 22.6303 210.134 22.6303C210.345 22.6303 210.617 22.5952 210.951 22.525C211.284 22.4548 211.556 22.3758 211.767 22.288V24.763ZM216.667 20.8925C216.667 21.5069 216.939 21.9545 217.483 22.2353C218.027 22.4986 218.703 22.6303 219.51 22.6303C220.212 22.6303 220.835 22.525 221.38 22.3143C221.941 22.1037 222.222 21.7702 222.222 21.3138C222.222 20.8223 221.968 20.4712 221.459 20.2606C220.95 20.05 220.16 19.8656 219.089 19.7077C217.966 19.5146 217.044 19.3039 216.324 19.0757C215.605 18.8476 214.981 18.4526 214.455 17.8909C213.946 17.3292 213.691 16.5481 213.691 15.5475C213.691 14.6348 213.955 13.8624 214.481 13.2305C215.025 12.581 215.736 12.0983 216.614 11.7823C217.509 11.4488 218.483 11.2821 219.537 11.2821H220.063C220.993 11.2821 221.871 11.44 222.696 11.756C223.539 12.0544 224.215 12.4845 224.724 13.0462C225.233 13.5903 225.487 14.2135 225.487 14.9156C225.487 15.056 225.478 15.1877 225.461 15.3106C225.443 15.4159 225.434 15.4773 225.434 15.4949H222.064C222.064 14.4417 221.257 13.9151 219.642 13.9151C218.905 13.9151 218.308 14.0204 217.851 14.231C217.413 14.4417 217.193 14.7313 217.193 15.0999C217.193 15.5388 217.43 15.8459 217.904 16.0215C218.396 16.197 219.159 16.3638 220.195 16.5217C221.371 16.7148 222.319 16.9255 223.038 17.1537C223.776 17.3643 224.416 17.7592 224.961 18.3385C225.505 18.9002 225.777 19.6989 225.777 20.7345C225.777 22.3319 225.215 23.4904 224.092 24.2101C222.968 24.9122 221.538 25.2633 219.8 25.2633H218.931C217.843 25.2633 216.868 25.0965 216.008 24.763C215.148 24.4295 214.472 23.9556 213.981 23.3412C213.507 22.7268 213.27 22.0247 213.27 21.2348L213.296 20.7082H216.667V20.8925Z" fill="#6C4181"/>
<defs>
<linearGradient id="paint0_linear" x1="0.7956" y1="32.0276" x2="72.0945" y2="-3.73878" gradientUnits="userSpaceOnUse">
<stop stop-color="#662D91"/>
<stop offset="1" stop-color="#00AEEF"/>
</linearGradient>
<linearGradient id="paint1_linear" x1="-1.02153" y1="28.4038" x2="70.2785" y2="-7.3631" gradientUnits="userSpaceOnUse">
<stop stop-color="#662D91"/>
<stop offset="1" stop-color="#00AEEF"/>
</linearGradient>
</defs>
</svg>
