<svg width="18" height="16" viewBox="0 0 18 16" fill="none" xmlns="http://www.w3.org/2000/svg">
<path d="M17.3332 11.2846C17.3332 13.6096 15.4665 15.493 13.1415 15.5013H13.1332H4.87484C2.55817 15.5013 0.666504 13.6263 0.666504 11.3013V11.293C0.666504 11.293 0.671504 7.60464 0.678171 5.74964C0.679004 5.4013 1.079 5.2063 1.3515 5.42297C3.3315 6.9938 6.87234 9.85797 6.9165 9.89547C7.50817 10.3696 8.25817 10.6371 9.02484 10.6371C9.7915 10.6371 10.5415 10.3696 11.1332 9.8863C11.1773 9.85714 14.639 7.0788 16.649 5.48214C16.9223 5.26464 17.324 5.45964 17.3248 5.80714C17.3332 7.64797 17.3332 11.2846 17.3332 11.2846Z" fill="#0074B3"/>
<path d="M16.8965 2.72833C16.1748 1.36833 14.7548 0.5 13.1915 0.5H4.87482C3.31149 0.5 1.89149 1.36833 1.16982 2.72833C1.00815 3.0325 1.08482 3.41167 1.35399 3.62667L7.54149 8.57583C7.97482 8.92583 8.49982 9.1 9.02482 9.1C9.02815 9.1 9.03065 9.1 9.03315 9.1C9.03565 9.1 9.03899 9.1 9.04149 9.1C9.56649 9.1 10.0915 8.92583 10.5248 8.57583L16.7123 3.62667C16.9815 3.41167 17.0582 3.0325 16.8965 2.72833Z" fill="#D9E1E8"/>
</svg>
