<svg width="20" height="20" viewBox="0 0 20 20" fill="none" xmlns="http://www.w3.org/2000/svg">
<path d="M18.3333 13.2846C18.3333 15.6096 16.4666 17.493 14.1416 17.5013H14.1333H5.87496C3.55829 17.5013 1.66663 15.6263 1.66663 13.3013V13.293C1.66663 13.293 1.67163 9.60464 1.67829 7.74964C1.67913 7.4013 2.07913 7.2063 2.35163 7.42297C4.33163 8.9938 7.87246 11.858 7.91663 11.8955C8.50829 12.3696 9.25829 12.6371 10.025 12.6371C10.7916 12.6371 11.5416 12.3696 12.1333 11.8863C12.1775 11.8571 15.6391 9.0788 17.6491 7.48214C17.9225 7.26464 18.3241 7.45964 18.325 7.80714C18.3333 9.64797 18.3333 13.2846 18.3333 13.2846Z" fill="#B5B5B5"/>
<path d="M17.8966 4.72833C17.1749 3.36833 15.7549 2.5 14.1916 2.5H5.87494C4.31161 2.5 2.89161 3.36833 2.16994 4.72833C2.00828 5.0325 2.08494 5.41167 2.35411 5.62667L8.54161 10.5758C8.97494 10.9258 9.49994 11.1 10.0249 11.1C10.0283 11.1 10.0308 11.1 10.0333 11.1C10.0358 11.1 10.0391 11.1 10.0416 11.1C10.5666 11.1 11.0916 10.9258 11.5249 10.5758L17.7124 5.62667C17.9816 5.41167 18.0583 5.0325 17.8966 4.72833Z" fill="#D9E1E8"/>
</svg>
