<svg width="30" height="30" viewBox="0 0 30 30" fill="none" xmlns="http://www.w3.org/2000/svg">
<path d="M27.4995 19.9252C27.4995 23.4127 24.6995 26.2377 21.212 26.2502H21.1995H8.81201C5.33701 26.2502 2.49951 23.4377 2.49951 19.9502V19.9377C2.49951 19.9377 2.50701 14.4052 2.51701 11.6227C2.51826 11.1002 3.11826 10.8077 3.52701 11.1327C6.49701 13.489 11.8083 17.7852 11.8745 17.8415C12.762 18.5527 13.887 18.954 15.037 18.954C16.187 18.954 17.312 18.5527 18.1995 17.8277C18.2658 17.784 23.4583 13.6165 26.4733 11.2215C26.8833 10.8952 27.4858 11.1877 27.487 11.709C27.4995 14.4702 27.4995 19.9252 27.4995 19.9252Z" fill="#006298"/>
<path d="M26.8446 7.09198C25.7621 5.05198 23.6321 3.74948 21.2871 3.74948H8.81211C6.46711 3.74948 4.33711 5.05198 3.25461 7.09198C3.01211 7.54823 3.12711 8.11698 3.53086 8.43948L12.8121 15.8632C13.4621 16.3882 14.2496 16.6495 15.0371 16.6495C15.0421 16.6495 15.0459 16.6495 15.0496 16.6495C15.0534 16.6495 15.0584 16.6495 15.0621 16.6495C15.8496 16.6495 16.6371 16.3882 17.2871 15.8632L26.5684 8.43948C26.9721 8.11698 27.0871 7.54823 26.8446 7.09198Z" fill="#D9E1E8"/>
</svg>
