<svg width="34" height="40" viewBox="0 0 34 40" fill="none" xmlns="http://www.w3.org/2000/svg">
<path fill-rule="evenodd" clip-rule="evenodd" d="M21.7716 6.35296L21.7244 34.9841L0.825918 32.0891C1.3035 31.6086 1.91079 31.4877 2.60062 31.2135C3.19612 30.9777 3.66191 30.7979 4.24856 30.565C5.38944 30.1139 6.5716 29.5479 7.63878 29.2531L7.64172 9.72548L21.7716 6.35296ZM0.395508 31.8356C0.395508 31.8356 0.578285 32.0478 0.758113 32.1658C0.958578 32.2955 1.01459 32.3014 1.23864 32.3957C1.57471 32.5343 1.92553 32.6463 2.28518 32.773C3.00745 33.0207 3.61769 33.2654 4.34585 33.5395L16.7275 38.1148C22.2226 40.0428 20.6395 40.3671 25.2148 38.9933L31.7801 37.0712C32.9622 36.7204 33.4781 36.8089 33.6049 36.2517V3.74691C33.3661 3.2487 33.487 3.41084 32.747 3.19564L29.4511 2.24638C28.0066 1.8366 26.5621 1.40619 25.0763 0.963991C23.4873 0.492309 22.1961 -0.200474 20.7221 0.403868L0.395508 8.00974V31.8356Z" fill="#EB3B00"/>
</svg>
