<svg width="4" height="14" viewBox="0 0 4 14" fill="none" xmlns="http://www.w3.org/2000/svg">
<path opacity="0.5" fill-rule="evenodd" clip-rule="evenodd" d="M2.39453 3.49609C1.5661 3.49609 0.894531 2.82452 0.894531 1.99609V1.98709C0.894531 1.15867 1.5661 0.487094 2.39453 0.487094C3.22296 0.487094 3.89453 1.15867 3.89453 1.98709V1.99609C3.89453 2.82452 3.22296 3.49609 2.39453 3.49609Z" fill="#130F26"/>
<path opacity="0.5" fill-rule="evenodd" clip-rule="evenodd" d="M2.39453 8.50391C1.5661 8.50391 0.894531 7.83233 0.894531 7.00391V6.99491C0.894531 6.16648 1.5661 5.49491 2.39453 5.49491C3.22296 5.49491 3.89453 6.16648 3.89453 6.99491V7.00391C3.89453 7.83233 3.22296 8.50391 2.39453 8.50391Z" fill="#130F26"/>
<path opacity="0.5" fill-rule="evenodd" clip-rule="evenodd" d="M2.39453 13.5137C1.5661 13.5137 0.894531 12.8421 0.894531 12.0137V12.0047C0.894531 11.1762 1.5661 10.5047 2.39453 10.5047C3.22296 10.5047 3.89453 11.1762 3.89453 12.0047V12.0137C3.89453 12.8421 3.22296 13.5137 2.39453 13.5137Z" fill="#130F26"/>
</svg>
