<svg width="16" height="14" viewBox="0 0 16 14" fill="none" xmlns="http://www.w3.org/2000/svg">
<path fill-rule="evenodd" clip-rule="evenodd" d="M12.3929 13.3127C13.7976 13.3127 14.9369 12.1743 14.9376 10.7695V10.768V8.743C14.0099 8.743 13.2584 7.9915 13.2576 7.06375C13.2576 6.13675 14.0091 5.3845 14.9369 5.3845H14.9376V3.3595C14.9391 1.954 13.8014 0.814 12.3966 0.8125H12.3921H3.60812C2.20262 0.8125 1.06337 1.951 1.06262 3.3565V3.35725V5.44975C1.95812 5.41825 2.70887 6.11875 2.74037 7.01425C2.74112 7.03075 2.74187 7.04725 2.74187 7.06375C2.74262 7.99 1.99337 8.7415 1.06712 8.743H1.06262V10.768C1.06187 12.1728 2.20112 13.3127 3.60587 13.3127H3.60662H12.3929Z" stroke="white" stroke-linecap="round" stroke-linejoin="round"/>
<path fill-rule="evenodd" clip-rule="evenodd" d="M8.27844 4.79727L8.74044 5.73252C8.78544 5.82402 8.87244 5.88777 8.97369 5.90277L10.0064 6.05352C10.2622 6.09102 10.3634 6.40452 10.1789 6.58377L9.43194 7.31127C9.35844 7.38252 9.32544 7.48527 9.34194 7.58652L9.51819 8.61402C9.56169 8.86827 9.29544 9.06177 9.06744 8.94177L8.14419 8.45652C8.05344 8.40852 7.94544 8.40852 7.85469 8.45652L6.93219 8.94177C6.70344 9.06177 6.43719 8.86827 6.48069 8.61402L6.65694 7.58652C6.67419 7.48527 6.64044 7.38252 6.56694 7.31127L5.82069 6.58377C5.63619 6.40452 5.73744 6.09102 5.99244 6.05352L7.02519 5.90277C7.12644 5.88777 7.21419 5.82402 7.25919 5.73252L7.72044 4.79727C7.83444 4.56627 8.16444 4.56627 8.27844 4.79727Z" stroke="white" stroke-linecap="round" stroke-linejoin="round"/>
</svg>
