<svg width="22" height="18" viewBox="0 0 22 18" fill="none" xmlns="http://www.w3.org/2000/svg">
<path fill-rule="evenodd" clip-rule="evenodd" d="M17.451 -0.000488281C19.683 -0.000488281 21.499 1.79751 21.499 4.00651L21.5 6.60051C21.5 6.79851 21.421 6.99051 21.28 7.13051C21.14 7.27151 20.949 7.35051 20.75 7.35051C19.963 7.35051 19.323 7.97851 19.323 8.75051C19.323 9.52251 19.963 10.1505 20.75 10.1505C21.164 10.1505 21.5 10.4865 21.5 10.9005V13.4925C21.5 15.7015 19.684 17.4995 17.452 17.4995H4.048C1.816 17.4995 0 15.7015 0 13.4925V10.9005C0 10.4865 0.336 10.1505 0.75 10.1505C1.537 10.1505 2.177 9.52251 2.177 8.75051C2.177 8.00051 1.563 7.43451 0.75 7.43451C0.551 7.43451 0.36 7.35551 0.22 7.21451C0.079 7.07451 0 6.88251 0 6.68451L0.001 4.00651C0.001 1.79751 1.817 -0.000488281 4.049 -0.000488281H17.451ZM17.451 1.49951H13.349L13.3496 3.42071C13.3496 3.83471 13.0136 4.17071 12.5996 4.17071C12.1856 4.17071 11.8496 3.83471 11.8496 3.42071L11.849 1.49951H4.049C2.644 1.49951 1.501 2.62451 1.501 4.00651L1.5 6.02451C2.767 6.33551 3.677 7.42151 3.677 8.75051C3.677 10.0925 2.751 11.2245 1.5 11.5535V13.4925C1.5 14.8745 2.643 15.9995 4.048 15.9995H11.849L11.8496 14.511C11.8496 14.096 12.1856 13.761 12.5996 13.761C13.0136 13.761 13.3496 14.096 13.3496 14.511L13.349 15.9995H17.452C18.857 15.9995 20 14.8745 20 13.4925V11.5535C18.749 11.2245 17.823 10.0925 17.823 8.75051C17.823 7.40751 18.748 6.27651 20 5.94751L19.999 4.00651C19.999 2.62451 18.856 1.49951 17.451 1.49951ZM12.5996 5.50401C13.0136 5.50401 13.3496 5.84001 13.3496 6.25401V11.075C13.3496 11.489 13.0136 11.825 12.5996 11.825C12.1856 11.825 11.8496 11.489 11.8496 11.075V6.25401C11.8496 5.84001 12.1856 5.50401 12.5996 5.50401Z" fill="#FD7289"/>
</svg>
