<svg width="26" height="26" viewBox="0 0 26 26" fill="none" xmlns="http://www.w3.org/2000/svg">
<path fill-rule="evenodd" clip-rule="evenodd" d="M17.0532 3.92195C17.0532 6.69819 19.3071 8.94878 22.0874 8.94878C22.3935 8.94727 22.6989 8.91788 22.9997 8.86098V18.8268C22.9997 23.0195 20.5266 25.5 16.3277 25.5H7.18265C2.97283 25.5 0.499695 23.0195 0.499695 18.8268V9.69512C0.499695 5.50244 2.97283 3 7.18265 3H17.1411C17.082 3.30376 17.0526 3.61252 17.0532 3.92195ZM14.437 16.6207L18.0093 12.011V11.989C18.3151 11.5781 18.2371 10.9986 17.8334 10.6829C17.638 10.5321 17.3898 10.4668 17.1453 10.502C16.9009 10.5371 16.6812 10.6698 16.5364 10.8695L13.5247 14.7439L10.0953 12.0439C9.89946 11.8914 9.65039 11.824 9.40427 11.8571C9.15815 11.8901 8.93574 12.0208 8.78724 12.2195L5.09404 16.9829C4.96422 17.1447 4.89433 17.3463 4.89619 17.5537C4.87475 17.9727 5.13935 18.3533 5.53998 18.4798C5.94061 18.6062 6.37623 18.4466 6.5999 18.0915L9.68856 14.0963L13.118 16.7854C13.313 16.9426 13.5637 17.0139 13.8125 16.9829C14.0613 16.9518 14.2867 16.8211 14.437 16.6207Z" fill="#006298"/>
<ellipse opacity="0.4" cx="22.3747" cy="3.625" rx="3.125" ry="3.125" fill="#9FB5C5"/>
</svg>
