<svg width="21" height="19" viewBox="0 0 21 19" fill="none" xmlns="http://www.w3.org/2000/svg">
<mask id="mask0" mask-type="alpha" maskUnits="userSpaceOnUse" x="0" y="0" width="21" height="19">
<path d="M0.453125 0.467773H20.4531V18.6338H0.453125V0.467773Z" fill="white"/>
</mask>
<g mask="url(#mask0)">
<path fill-rule="evenodd" clip-rule="evenodd" d="M1.95312 12.4468V14.4918C1.95312 15.1978 2.22712 15.8608 2.72613 16.3598C3.22513 16.8588 3.88912 17.1338 4.59412 17.1338H16.3101C17.7661 17.1338 18.9521 15.9498 18.9531 14.4938V12.4458C17.6671 12.1128 16.7141 10.9418 16.7131 9.55277C16.7131 8.16377 17.6661 6.99277 18.9521 6.65877L18.9531 4.61377C18.9541 3.15577 17.7711 1.96877 16.3141 1.96777H4.59713C3.14013 1.96777 1.95413 3.15277 1.95312 4.60977V6.72677C2.43913 6.84277 2.89013 7.08177 3.26513 7.43177C3.83413 7.96277 4.16212 8.68277 4.19012 9.46077C4.19313 10.9268 3.24012 12.1108 1.95312 12.4468ZM16.3101 18.6338H4.59513C3.48813 18.6338 2.44813 18.2038 1.66513 17.4208C0.883125 16.6378 0.453125 15.5978 0.453125 14.4918V11.7918C0.453125 11.3778 0.789125 11.0418 1.20312 11.0418C2.02713 11.0408 2.69313 10.3728 2.69213 9.55277C2.67813 9.13477 2.51813 8.78677 2.24213 8.52877C1.96713 8.27077 1.61112 8.12977 1.22913 8.15077C1.02213 8.15277 0.828125 8.08177 0.682125 7.94077C0.536125 7.79977 0.453125 7.60377 0.453125 7.40077V4.61077C0.454125 2.32577 2.31313 0.467773 4.59713 0.467773H16.3091C18.5991 0.468773 20.4551 2.33077 20.4531 4.61477V7.31377C20.4531 7.72777 20.1171 8.06377 19.7031 8.06377C18.8821 8.06377 18.2131 8.73177 18.2131 9.55177C18.2141 10.3738 18.8821 11.0418 19.7031 11.0418C20.1171 11.0418 20.4531 11.3778 20.4531 11.7918V14.4918C20.4521 16.7758 18.5931 18.6338 16.3101 18.6338Z" fill="#6C4181"/>
</g>
<path fill-rule="evenodd" clip-rule="evenodd" d="M8.55793 8.84881L9.06693 9.3448C9.34293 9.6158 9.46793 10.0018 9.40193 10.3788L9.28193 11.0768L9.91093 10.7458C10.2499 10.5648 10.6569 10.5658 10.9989 10.7478L11.6239 11.0758L11.5039 10.3768C11.4409 9.99381 11.5669 9.6108 11.8399 9.3448L12.3489 8.84881L11.6439 8.74681C11.2659 8.69181 10.9379 8.45381 10.7689 8.10881L10.4539 7.47181L10.1389 8.1098C9.96993 8.4538 9.64193 8.69181 9.26193 8.74681L8.55793 8.84881ZM12.0719 12.8548C11.8859 12.8548 11.6999 12.8098 11.5279 12.7188L10.4539 12.1558L9.37893 12.7198C8.98293 12.9268 8.51193 12.8938 8.15193 12.6318C7.79093 12.3688 7.61393 11.9328 7.68893 11.4928L7.89393 10.2968L7.02493 9.44981C6.70593 9.13881 6.59193 8.6818 6.72893 8.2578C6.86693 7.8328 7.22693 7.5278 7.66793 7.4638L8.87193 7.2878L9.40893 6.1988C9.60593 5.7988 10.0059 5.5498 10.4539 5.5498C10.8999 5.5498 11.3009 5.7988 11.4979 6.1998L12.0359 7.2878L13.2379 7.4638C13.6799 7.5278 14.0409 7.8328 14.1779 8.2578C14.3149 8.6818 14.2019 9.1388 13.8819 9.4508L13.0119 10.2978L13.2179 11.4928C13.2929 11.9338 13.1149 12.3708 12.7529 12.6328C12.5489 12.7798 12.3109 12.8548 12.0719 12.8548Z" fill="#6C4181"/>
</svg>
