<svg width="16" height="17" viewBox="0 0 16 17" fill="none" xmlns="http://www.w3.org/2000/svg">
<path fill-rule="evenodd" clip-rule="evenodd" d="M14.6048 5.71814L14.138 4.90807C13.7431 4.22263 12.8678 3.98617 12.1815 4.37946V4.37946C11.8547 4.57194 11.4649 4.62654 11.0978 4.53124C10.7308 4.43594 10.4168 4.19857 10.2249 3.87146C10.1015 3.66354 10.0352 3.42672 10.0327 3.18496V3.18496C10.0439 2.79734 9.89762 2.42173 9.62733 2.14368C9.35704 1.86563 8.98572 1.70882 8.59795 1.70898H7.65744C7.27754 1.70898 6.9133 1.86036 6.64532 2.12964C6.37733 2.39891 6.2277 2.76387 6.22952 3.14377V3.14377C6.21826 3.92812 5.57918 4.55804 4.79474 4.55795C4.55298 4.55544 4.31616 4.48914 4.10824 4.36574V4.36574C3.42186 3.97244 2.54665 4.2089 2.15172 4.89434L1.65058 5.71814C1.25612 6.40272 1.48937 7.27738 2.17232 7.67466V7.67466C2.61624 7.93096 2.88972 8.40462 2.88972 8.91722C2.88972 9.42982 2.61624 9.90349 2.17232 10.1598V10.1598C1.49023 10.5544 1.25674 11.4269 1.65058 12.1094V12.1094L2.12426 12.9264C2.3093 13.2603 2.61977 13.5066 2.98696 13.611C3.35415 13.7154 3.7478 13.6691 4.08078 13.4824V13.4824C4.40813 13.2914 4.79821 13.2391 5.16432 13.3371C5.53044 13.435 5.84224 13.6752 6.03044 14.0042C6.15384 14.2121 6.22015 14.4489 6.22266 14.6907V14.6907C6.22266 15.4831 6.86503 16.1255 7.65744 16.1255H8.59795C9.38768 16.1255 10.0289 15.4873 10.0327 14.6975V14.6975C10.0309 14.3165 10.1815 13.9504 10.4509 13.681C10.7204 13.4115 11.0864 13.2609 11.4675 13.2628C11.7087 13.2692 11.9445 13.3353 12.154 13.455V13.455C12.8386 13.8494 13.7133 13.6162 14.1105 12.9332V12.9332L14.6048 12.1094C14.7961 11.7811 14.8486 11.3899 14.7507 11.0227C14.6528 10.6555 14.4125 10.3424 14.0831 10.1529V10.1529C13.7536 9.9634 13.5134 9.65036 13.4154 9.28313C13.3175 8.91591 13.37 8.52479 13.5613 8.1964C13.6857 7.97918 13.8659 7.79908 14.0831 7.67466V7.67466C14.7619 7.2776 14.9946 6.40805 14.6048 5.725V5.725V5.71814Z" stroke="#2B304D" stroke-width="1.5" stroke-linecap="round" stroke-linejoin="round"/>
<ellipse cx="8.13129" cy="8.91657" rx="1.97712" ry="1.97712" stroke="#2B304D" stroke-width="1.5" stroke-linecap="round" stroke-linejoin="round"/>
</svg>
