<svg width="18" height="18" viewBox="0 0 18 18" fill="none" xmlns="http://www.w3.org/2000/svg">
<g id="Iconly/Light-Outline/Show">
<g id="Show">
<path id="Fill 1" fill-rule="evenodd" clip-rule="evenodd" d="M8.99966 7.23096C8.00216 7.23096 7.19141 8.04246 7.19141 9.03996C7.19141 10.0367 8.00216 10.8475 8.99966 10.8475C9.99716 10.8475 10.8087 10.0367 10.8087 9.03996C10.8087 8.04246 9.99716 7.23096 8.99966 7.23096ZM8.99966 11.9725C7.38191 11.9725 6.06641 10.657 6.06641 9.03996C6.06641 7.42221 7.38191 6.10596 8.99966 6.10596C10.6174 6.10596 11.9337 7.42221 11.9337 9.03996C11.9337 10.657 10.6174 11.9725 8.99966 11.9725Z" fill="#2B304D" fill-opacity="0.4"/>
<g id="Group 5">
<mask id="mask0" mask-type="alpha" maskUnits="userSpaceOnUse" x="1" y="3" width="16" height="13">
<path id="Clip 4" fill-rule="evenodd" clip-rule="evenodd" d="M1.5 3H16.4999V15.0787H1.5V3Z" fill="white"/>
</mask>
<g mask="url(#mask0)">
<path id="Fill 3" fill-rule="evenodd" clip-rule="evenodd" d="M2.67729 9.03902C4.07229 12.1208 6.42204 13.953 8.99979 13.9538C11.5775 13.953 13.9273 12.1208 15.3223 9.03902C13.9273 5.95802 11.5775 4.12577 8.99979 4.12502C6.42279 4.12577 4.07229 5.95802 2.67729 9.03902ZM9.00131 15.0788H8.99831H8.99756C5.89556 15.0766 3.11006 12.9023 1.54556 9.26107C1.48481 9.11932 1.48481 8.95882 1.54556 8.81707C3.11006 5.17657 5.89631 3.00232 8.99756 3.00007C8.99906 2.99932 8.99906 2.99932 8.99981 3.00007C9.00131 2.99932 9.00131 2.99932 9.00206 3.00007C12.1041 3.00232 14.8896 5.17657 16.4541 8.81707C16.5156 8.95882 16.5156 9.11932 16.4541 9.26107C14.8903 12.9023 12.1041 15.0766 9.00206 15.0788H9.00131Z" fill="#2B304D" fill-opacity="0.4"/>
</g>
</g>
</g>
</g>
</svg>
