<svg width="24" height="24" viewBox="0 0 24 24" fill="none" xmlns="http://www.w3.org/2000/svg">
<path fill-rule="evenodd" clip-rule="evenodd" d="M0.306668 6.67063C0 7.81513 0 9.21008 0 12C0 14.7899 0 16.1849 0.306668 17.3294C1.13887 20.4352 3.5648 22.8611 6.67063 23.6933C7.81513 24 9.21008 24 12 24H18C20.8284 24 22.2426 24 23.1213 23.1213C24 22.2426 24 20.8284 24 18V12C24 9.21008 24 7.81513 23.6933 6.67063C22.8611 3.5648 20.4352 1.13887 17.3294 0.306668C16.1849 0 14.7899 0 12 0C9.21008 0 7.81513 0 6.67063 0.306668C3.5648 1.13887 1.13887 3.5648 0.306668 6.67063ZM7 10.6667C7 10.1144 7.44772 9.66666 8 9.66666H16C16.5523 9.66666 17 10.1144 17 10.6667C17 11.2189 16.5523 11.6667 16 11.6667H8C7.44772 11.6667 7 11.2189 7 10.6667ZM11 16C11 15.4477 11.4477 15 12 15H16C16.5523 15 17 15.4477 17 16C17 16.5523 16.5523 17 16 17H12C11.4477 17 11 16.5523 11 16Z" fill="#006298"/>
</svg>
