<svg width="20" height="20" viewBox="0 0 20 20" fill="none" xmlns="http://www.w3.org/2000/svg">
<path d="M11.4587 8.0861V6.4029C11.1283 6.4029 10.8542 6.13672 10.8542 5.81573V3.81154C10.8542 3.54458 10.6366 3.33398 10.3626 3.33398H4.82588C3.08507 3.33398 1.66663 4.71108 1.66663 6.4029V8.42979C1.66663 8.58715 1.7311 8.7359 1.84393 8.8455C1.95676 8.95432 2.10989 9.01695 2.27107 9.01695C2.88358 9.01695 3.35102 9.43971 3.35102 9.99556C3.35102 10.5757 2.87552 11.0376 2.27913 11.0446C1.9487 11.0446 1.66663 11.2717 1.66663 11.6005V13.6054C1.66663 15.2965 3.08507 16.6665 4.81782 16.6665H10.3626C10.6366 16.6665 10.8542 16.4544 10.8542 16.189V14.4972C10.8542 14.1691 11.1283 13.91 11.4587 13.91V12.392C11.1283 12.392 10.8542 12.125 10.8542 11.8048V8.67327C10.8542 8.35228 11.1283 8.0861 11.4587 8.0861Z" fill="#D9E1E8"/>
<path d="M16.6489 9.99634C16.6489 10.5757 17.1325 11.0376 17.7208 11.0454C18.0513 11.0454 18.3333 11.2724 18.3333 11.5934V13.6054C18.3333 15.2973 16.923 16.6673 15.1821 16.6673H12.5548C12.2888 16.6673 12.0632 16.4552 12.0632 16.189V14.4979C12.0632 14.1691 11.7972 13.9108 11.4587 13.9108V12.3928C11.7972 12.3928 12.0632 12.1258 12.0632 11.8056V8.67405C12.0632 8.35228 11.7972 8.08689 11.4587 8.08689V6.4029C11.7972 6.4029 12.0632 6.13672 12.0632 5.81573V3.81233C12.0632 3.54536 12.2888 3.33398 12.5548 3.33398H15.1821C16.923 3.33398 18.3333 4.70403 18.3333 6.39507V8.36794C18.3333 8.52452 18.2689 8.67405 18.156 8.78287C18.0432 8.89248 17.8901 8.95511 17.7289 8.95511C17.1325 8.95511 16.6489 9.42562 16.6489 9.99634Z" fill="black" fill-opacity="0.29"/>
</svg>
