<svg width="20" height="20" viewBox="0 0 20 20" fill="none" xmlns="http://www.w3.org/2000/svg">
<path fill-rule="evenodd" clip-rule="evenodd" d="M16.4675 10.0008C16.4675 10.6787 17.0241 11.2303 17.7083 11.2303C18.0533 11.2303 18.3333 11.5078 18.3333 11.8496V14.0799C18.3333 15.9658 16.785 17.5 14.8816 17.5H5.11913C3.21579 17.5 1.66663 15.9658 1.66663 14.0799V11.8496C1.66663 11.5078 1.94663 11.2303 2.29163 11.2303C2.97663 11.2303 3.53329 10.6787 3.53329 10.0008C3.53329 9.34025 2.99913 8.84317 2.29163 8.84317C2.12579 8.84317 1.96746 8.77794 1.84996 8.66151C1.73246 8.54508 1.66663 8.38737 1.66663 8.22388L1.66829 5.92095C1.66829 4.03501 3.21663 2.5 5.11996 2.5H14.88C16.7833 2.5 18.3325 4.03501 18.3325 5.92095L18.3333 8.15204C18.3333 8.31553 18.2675 8.47407 18.1508 8.58967C18.0333 8.7061 17.875 8.77133 17.7083 8.77133C17.0241 8.77133 16.4675 9.32291 16.4675 10.0008ZM11.8766 10.5399L12.8591 9.59196C13.03 9.42847 13.0891 9.18736 13.015 8.96441C12.9416 8.74147 12.75 8.58293 12.5183 8.55073L11.1608 8.35421L10.5533 7.13545C10.4491 6.92571 10.2375 6.79525 10.0016 6.79442H9.99997C9.76497 6.79442 9.5533 6.92489 9.44747 7.13462L8.83997 8.35421L7.48497 8.5499C7.2508 8.58293 7.05913 8.74147 6.98497 8.96441C6.91163 9.18736 6.9708 9.42847 7.1408 9.59196L8.1233 10.5399L7.89163 11.88C7.85163 12.1112 7.9458 12.3408 8.13747 12.4787C8.2458 12.5555 8.37163 12.5951 8.49913 12.5951C8.59663 12.5951 8.69497 12.5711 8.78497 12.5241L9.99997 11.8916L11.2125 12.5224C11.4225 12.6339 11.6716 12.6166 11.8625 12.4778C12.055 12.3408 12.1491 12.1112 12.1091 11.88L11.8766 10.5399Z" fill="#B5B5B5"/>
</svg>
