<svg width="36" height="36" viewBox="0 0 36 36" fill="none" xmlns="http://www.w3.org/2000/svg">
<g opacity="0.3">
<path fill-rule="evenodd" clip-rule="evenodd" d="M26.7859 30.6256C29.5954 30.6256 31.8739 28.3486 31.8754 25.5391V25.5361V21.4861C30.0199 21.4861 28.5169 19.9831 28.5154 18.1276C28.5154 16.2736 30.0184 14.7691 31.8739 14.7691H31.8754V10.7191C31.8784 7.90812 29.6029 5.62812 26.7934 5.62512H26.7844H9.21637C6.40537 5.62512 4.12687 7.90212 4.12537 10.7131V10.7146V14.8996C5.91637 14.8366 7.41787 16.2376 7.48087 18.0286C7.48237 18.0616 7.48387 18.0946 7.48387 18.1276C7.48537 19.9801 5.98687 21.4831 4.13437 21.4861H4.12537V25.5361C4.12387 28.3456 6.40237 30.6256 9.21187 30.6256H9.21337H26.7859Z" stroke="#352B4D" stroke-width="2" stroke-linecap="round" stroke-linejoin="round"/>
<path fill-rule="evenodd" clip-rule="evenodd" d="M18.557 13.5947L19.481 15.4652C19.571 15.6482 19.745 15.7757 19.9475 15.8057L22.013 16.1072C22.5245 16.1822 22.727 16.8092 22.358 17.1677L20.864 18.6227C20.717 18.7652 20.651 18.9707 20.684 19.1732L21.0365 21.2282C21.1235 21.7367 20.591 22.1237 20.135 21.8837L18.2885 20.9132C18.107 20.8172 17.891 20.8172 17.7095 20.9132L15.8645 21.8837C15.407 22.1237 14.8745 21.7367 14.9615 21.2282L15.314 19.1732C15.3485 18.9707 15.281 18.7652 15.134 18.6227L13.6415 17.1677C13.2725 16.8092 13.475 16.1822 13.985 16.1072L16.0505 15.8057C16.253 15.7757 16.4285 15.6482 16.5185 15.4652L17.441 13.5947C17.669 13.1327 18.329 13.1327 18.557 13.5947Z" stroke="#352B4D" stroke-width="2" stroke-linecap="round" stroke-linejoin="round"/>
</g>
</svg>
