<svg width="20" height="19" viewBox="0 0 20 19" fill="none" xmlns="http://www.w3.org/2000/svg">
<path d="M14.5947 3.25H19.0947" stroke="#8A8A8A" stroke-width="1.5" stroke-linecap="round" stroke-linejoin="round"/>
<path d="M16.8447 1V5.5" stroke="#8A8A8A" stroke-width="1.5" stroke-linecap="round" stroke-linejoin="round"/>
<path d="M1 18.2491C1.92209 16.6531 3.24795 15.3278 4.84439 14.4064C6.44083 13.485 8.25163 13 10.0949 13C11.9381 13 13.7489 13.4851 15.3454 14.4065C16.9418 15.3279 18.2676 16.6533 19.1897 18.2493" stroke="#8A8A8A" stroke-width="1.5" stroke-linecap="round" stroke-linejoin="round"/>
<path d="M15.7244 9.07964C15.3233 10.1625 14.6182 11.1066 13.6936 11.7984C12.769 12.4902 11.6643 12.9004 10.5122 12.9796C9.3602 13.0588 8.20978 12.8037 7.19919 12.245C6.1886 11.6862 5.36083 10.8476 4.81532 9.82976C4.26981 8.81197 4.02976 7.65831 4.12402 6.5074C4.21827 5.35648 4.64281 4.25726 5.34664 3.34177C6.05047 2.42629 7.00366 1.73348 8.09169 1.34659C9.17971 0.959701 10.3563 0.895175 11.4801 1.16077" stroke="#8A8A8A" stroke-width="1.5" stroke-linecap="round" stroke-linejoin="round"/>
</svg>
