<svg width="20" height="20" viewBox="0 0 20 20" fill="none" xmlns="http://www.w3.org/2000/svg">
<path fill-rule="evenodd" clip-rule="evenodd" d="M8.92024 2.93174C8.36163 2.93174 7.88639 3.31992 7.75299 3.84313H12.2386C12.1052 3.31992 11.6299 2.93174 11.0713 2.93174H8.92024ZM13.5059 3.84322H15.1567C16.9076 3.84322 18.3333 5.28625 18.3333 7.05839C18.3333 7.05839 18.2833 7.8086 18.2666 8.85332C18.2649 8.93602 18.2249 9.01703 18.159 9.06598C17.758 9.36218 17.3912 9.6069 17.3578 9.62378C15.9738 10.552 14.3655 11.2052 12.6521 11.5301C12.5404 11.552 12.4303 11.4938 12.3736 11.3942C11.8934 10.5622 10.9963 10.0204 9.99579 10.0204C9.00196 10.0204 8.09651 10.5563 7.60209 11.3892C7.54457 11.4871 7.43618 11.5436 7.32529 11.5225C5.62611 11.1968 4.0178 10.5445 2.64211 9.63222L1.84171 9.07526C1.77501 9.03307 1.73333 8.95712 1.73333 8.87273C1.70831 8.44235 1.66663 7.05839 1.66663 7.05839C1.66663 5.28625 3.09234 3.84322 4.84321 3.84322H6.4857C6.64411 2.6196 7.66963 1.66602 8.92025 1.66602H11.0713C12.322 1.66602 13.3475 2.6196 13.5059 3.84322ZM18.0498 10.6788L18.0165 10.6957C16.3323 11.8265 14.3063 12.5775 12.1802 12.8897C11.8801 12.9319 11.5799 12.7378 11.4965 12.434C11.3131 11.7421 10.7211 11.2864 10.0125 11.2864H10.0041H9.98744C9.27876 11.2864 8.68679 11.7421 8.50337 12.434C8.41999 12.7378 8.11984 12.9319 7.81969 12.8897C5.69363 12.5775 3.66762 11.8265 1.98344 10.6957C1.97511 10.6872 1.89173 10.6366 1.82503 10.6788C1.74999 10.721 1.74999 10.8222 1.74999 10.8222L1.80836 15.126C1.80836 16.8982 3.22573 18.3328 4.97661 18.3328H15.015C16.7658 18.3328 18.1832 16.8982 18.1832 15.126L18.2499 10.8222C18.2499 10.8222 18.2499 10.721 18.1749 10.6788C18.1332 10.6535 18.0832 10.6619 18.0498 10.6788ZM10.6211 14.2146C10.6211 14.569 10.346 14.8475 9.99579 14.8475C9.65395 14.8475 9.37048 14.569 9.37048 14.2146V13.126C9.37048 12.78 9.65395 12.4931 9.99579 12.4931C10.346 12.4931 10.6211 12.78 10.6211 13.126V14.2146Z" fill="#B5B5B5"/>
</svg>
