<svg width="70" height="70" viewBox="0 0 70 70" fill="none" xmlns="http://www.w3.org/2000/svg">
<g id="Iconly/Light-Outline/Work">
<g id="Work">
<path id="Fill 1" fill-rule="evenodd" clip-rule="evenodd" d="M34.9844 50.8254C33.7769 50.8254 32.7969 49.8454 32.7969 48.6379V41.2383C32.7969 40.0308 33.7769 39.0508 34.9844 39.0508C36.1919 39.0508 37.1719 40.0308 37.1719 41.2383V48.6379C37.1719 49.8454 36.1919 50.8254 34.9844 50.8254Z" fill="#006298"/>
<g id="Group 5">
<mask id="mask0" mask-type="alpha" maskUnits="userSpaceOnUse" x="5" y="13" width="60" height="31">
<path id="Clip 4" fill-rule="evenodd" clip-rule="evenodd" d="M5.83398 13.3584H64.1376V43.4321H5.83398V13.3584Z" fill="white"/>
</mask>
<g mask="url(#mask0)">
<path id="Fill 3" fill-rule="evenodd" clip-rule="evenodd" d="M10.209 33.2296C17.139 36.9951 25.8773 39.0571 34.9715 39.0571C44.0831 39.0571 52.8302 36.9951 59.7631 33.2296V24.4738C59.7631 20.7551 56.7561 17.7334 53.0548 17.7334H16.9465C13.2306 17.7334 10.209 20.7434 10.209 24.4446V33.2296ZM34.9715 43.4321C24.6319 43.4321 14.6657 40.9296 6.91607 36.3913C6.24523 36.0005 5.83398 35.283 5.83398 34.5042V24.4446C5.83398 18.3313 10.8186 13.3584 16.9465 13.3584H53.0548C59.1681 13.3584 64.1381 18.343 64.1381 24.4738V34.5042C64.1381 35.283 63.724 36.0005 63.0561 36.3913C55.3065 40.9296 45.3315 43.4321 34.9715 43.4321Z" fill="#006298"/>
</g>
</g>
<g id="Group 8">
<mask id="mask1" mask-type="alpha" maskUnits="userSpaceOnUse" x="22" y="5" width="26" height="13">
<path id="Clip 7" fill-rule="evenodd" clip-rule="evenodd" d="M22.5879 5.83301H47.3796V17.721H22.5879V5.83301Z" fill="white"/>
</mask>
<g mask="url(#mask1)">
<path id="Fill 6" fill-rule="evenodd" clip-rule="evenodd" d="M45.1921 17.7213C43.9846 17.7213 43.0046 16.7413 43.0046 15.5338V14.4663C43.0046 12.1184 41.0941 10.208 38.7462 10.208H31.2212C28.8733 10.208 26.9629 12.1184 26.9629 14.4663V15.5338C26.9629 16.7413 25.9829 17.7213 24.7754 17.7213C23.5679 17.7213 22.5879 16.7413 22.5879 15.5338V14.4663C22.5879 9.70634 26.4612 5.83301 31.2212 5.83301H38.7462C43.5062 5.83301 47.3796 9.70634 47.3796 14.4663V15.5338C47.3796 16.7413 46.3996 17.7213 45.1921 17.7213Z" fill="#006298"/>
</g>
</g>
<path id="Fill 9" fill-rule="evenodd" clip-rule="evenodd" d="M51.9015 63.4077H18.0682C12.0161 63.4077 6.92066 58.6798 6.46274 52.6423L5.90858 45.3243C5.81816 44.1198 6.72233 43.0668 7.92691 42.9764C9.13733 42.9327 10.1815 43.7873 10.2748 44.9948L10.8261 52.3098C11.1119 56.0781 14.2911 59.0327 18.0682 59.0327H51.9015C55.6786 59.0327 58.8607 56.0781 59.1436 52.3098L59.6977 44.9948C59.7911 43.7873 60.8615 42.9298 62.0457 42.9764C63.2502 43.0668 64.1515 44.1198 64.0611 45.3243L63.5069 52.6423C63.049 58.6798 57.9536 63.4077 51.9015 63.4077Z" fill="#006298"/>
</g>
</g>
</svg>
