<svg width="22" height="22" viewBox="0 0 22 22" fill="none" xmlns="http://www.w3.org/2000/svg">
<path d="M11 21C16.5228 21 21 16.5228 21 11C21 5.47715 16.5228 1 11 1C5.47715 1 1 5.47715 1 11C1 16.5228 5.47715 21 11 21Z" stroke="#8A8A8A" stroke-width="1.5" stroke-miterlimit="10"/>
<path d="M10.9987 14.3333C13.2999 14.3333 15.1654 12.4679 15.1654 10.1667C15.1654 7.86548 13.2999 6 10.9987 6C8.69751 6 6.83203 7.86548 6.83203 10.1667C6.83203 12.4679 8.69751 14.3333 10.9987 14.3333Z" stroke="#8A8A8A" stroke-width="1.5" stroke-miterlimit="10"/>
<path d="M4.3125 18.4354C4.94022 17.2013 5.89721 16.1649 7.07753 15.441C8.25785 14.7171 9.61547 14.334 11.0001 14.334C12.3847 14.334 13.7423 14.7171 14.9226 15.441C16.103 16.1649 17.06 17.2013 17.6877 18.4354" stroke="#8A8A8A" stroke-width="1.5" stroke-linecap="round" stroke-linejoin="round"/>
</svg>
