<svg width="48" height="26" viewBox="0 0 48 26" fill="none" xmlns="http://www.w3.org/2000/svg">
<g clip-path="url(#clip0)">
<path d="M42.7106 10.0807C41.7274 9.70504 41.1376 9.2571 40.7156 8.27933C38.9076 4.06481 35.2293 2.26822 30.7981 3.35677C30.0595 3.5398 29.3354 4.16596 28.6496 3.2797C20.4058 -2.64953 11.9175 -0.40018 7.8891 8.88622C7.37116 10.0759 6.51753 10.0374 5.70226 10.336C0.369463 12.2916 -1.63993 18.0667 1.47727 22.5172C2.57068 24.073 4.22999 24.8677 5.76461 25.8407C7.41912 25.7347 9.13597 26.1826 10.7042 25.3734C12.445 24.4776 14.042 23.4564 15.826 25.5131C16.4686 26.2501 17.8977 26.2067 18.4876 25.0363C19.0391 23.9381 18.3293 23.3457 17.2838 22.9073C15.8547 22.3101 16.1808 21.2601 16.7707 20.1474C18.0559 17.7102 18.7225 15.1045 18.6986 12.3301C18.689 11.3234 18.3725 10.5528 17.2743 10.5046C16.3055 10.4613 15.8979 11.1019 15.7924 12.0218C15.7061 12.778 16.0178 13.6354 15.2457 14.3049C14.181 13.1152 13.3466 11.651 11.8359 11.0441C10.4788 10.495 10.5651 9.76766 11.0782 8.65503C13.9029 2.57166 22.1275 1.09778 26.9711 5.92401C28.1988 7.14743 29.0668 7.63391 30.8125 6.64169C33.968 4.84028 37.6175 6.71875 38.2602 10.3505C38.4952 11.675 38.9172 12.2434 40.2648 12.5083C43.569 13.1537 45.3434 15.4561 45.0173 18.3412C44.7008 21.1445 42.3845 22.9362 39.0035 22.9507C35.0998 22.97 31.1913 22.9603 27.2876 22.9507C26.4676 22.9507 25.6571 22.9555 25.2063 23.7936C24.7172 24.6991 25.3118 25.2964 25.8777 25.8792C30.5007 25.8744 35.1286 25.8985 39.7516 25.8503C43.732 25.8118 47.1514 23.0133 47.8467 19.3286C48.5997 15.3405 46.5615 11.5546 42.7106 10.0807ZM12.9485 18.6398C12.9485 21.1348 10.9439 22.9025 8.06174 22.9555C5.34259 23.0037 2.98311 20.7399 2.92556 18.0233C2.86801 15.3838 5.23708 12.9562 7.90828 12.9225C10.9008 12.884 12.9485 15.2056 12.9485 18.6398Z" fill="white"/>
<path d="M4.41688 17.8984C4.3881 19.7383 6.02823 21.4434 7.87456 21.5012C9.91273 21.5638 11.5145 20.167 11.5145 18.3271C11.5145 16.0633 9.97028 14.3486 7.9513 14.3678C6.08577 14.3871 4.44086 16.0296 4.41688 17.8984Z" fill="white"/>
</g>
<defs>
<clipPath id="clip0">
<rect width="48" height="26" fill="white"/>
</clipPath>
</defs>
</svg>
