<svg width="22" height="22" viewBox="0 0 22 22" fill="none" xmlns="http://www.w3.org/2000/svg">
<path fill-rule="evenodd" clip-rule="evenodd" d="M15.4455 0.400391C19.0069 0.400391 21.4004 2.89618 21.4004 6.60986V15.1909C21.4004 18.9046 19.0069 21.4004 15.4455 21.4004H6.34478C2.78867 21.4004 0.400391 18.9046 0.400391 15.1909V6.60986C0.400391 2.89618 2.78867 0.400391 6.34478 0.400391H15.4455ZM15.4455 1.97934H6.34478C3.69243 1.97934 1.97855 3.79723 1.97855 6.60986V15.1909C1.97855 18.0046 3.69243 19.8214 6.34478 19.8214H15.4455C18.1041 19.8214 19.8222 18.0046 19.8222 15.1909V6.60986C19.8222 3.79723 18.1041 1.97934 15.4455 1.97934ZM16.1178 11.0313C16.1244 11.0368 16.131 11.0422 16.1447 11.055L16.165 11.0744C16.1691 11.0784 16.1737 11.0828 16.1786 11.0876L16.2374 11.146C16.4271 11.336 16.9515 11.8719 18.5145 13.4777C18.8185 13.7892 18.8133 14.2892 18.5008 14.5934C18.1894 14.8998 17.6886 14.8903 17.3845 14.5787C17.3845 14.5787 15.2287 12.365 15.0751 12.2155C14.9121 12.0819 14.6501 12.004 14.3923 12.0292C14.1304 12.0555 13.8947 12.1808 13.7274 12.384C11.2823 15.3513 11.2528 15.3798 11.2129 15.4187C10.3102 16.305 8.853 16.2903 7.96607 15.385C7.96607 15.385 6.98762 14.3913 6.97078 14.3713C6.72775 14.1461 6.29428 14.1608 6.03441 14.4355L4.42469 16.1334C4.26898 16.2977 4.06066 16.3798 3.85234 16.3798C3.65665 16.3798 3.46201 16.3082 3.30946 16.1629C2.99278 15.864 2.98015 15.3629 3.28 15.0482L4.88762 13.3503C5.73877 12.4461 7.17489 12.4019 8.08286 13.2545L9.09077 14.2777C9.37168 14.5619 9.8283 14.5671 10.1103 14.2892C10.2165 14.164 12.508 11.3798 12.508 11.3798C12.9436 10.8513 13.558 10.525 14.2408 10.4577C14.9247 10.3977 15.5886 10.5966 16.1178 11.0313ZM7.3003 5.27292C8.75431 5.27397 9.93582 6.45713 9.93582 7.90871C9.93582 9.36239 8.75326 10.5455 7.3003 10.5455C5.84734 10.5455 4.66583 9.36239 4.66583 7.90871C4.66583 6.45502 5.84734 5.27292 7.3003 5.27292ZM7.29925 6.85186C6.71743 6.85186 6.24399 7.32555 6.24399 7.90871C6.24399 8.49186 6.71743 8.9666 7.3003 8.9666C7.88317 8.9666 8.35767 8.49186 8.35767 7.90871C8.35767 7.3266 7.88317 6.85292 7.29925 6.85186Z" fill="black" fill-opacity="0.3"/>
</svg>
