<svg width="11" height="13" viewBox="0 0 11 13" fill="none" xmlns="http://www.w3.org/2000/svg">
<path fill-rule="evenodd" clip-rule="evenodd" d="M5.4987 4.3335C4.85536 4.3335 4.33203 4.85683 4.33203 5.50083C4.33203 6.14416 4.85536 6.66683 5.4987 6.66683C6.14203 6.66683 6.66536 6.14416 6.66536 5.50083C6.66536 4.85683 6.14203 4.3335 5.4987 4.3335ZM5.4987 7.66683C4.30403 7.66683 3.33203 6.6955 3.33203 5.50083C3.33203 4.3055 4.30403 3.3335 5.4987 3.3335C6.69336 3.3335 7.66536 4.3055 7.66536 5.50083C7.66536 6.6955 6.69336 7.66683 5.4987 7.66683Z" fill="#2B304D" fill-opacity="0.5"/>
<mask id="mask0" mask-type="alpha" maskUnits="userSpaceOnUse" x="0" y="0" width="11" height="13">
<path fill-rule="evenodd" clip-rule="evenodd" d="M0 0H10.9997V13H0V0Z" fill="white"/>
</mask>
<g mask="url(#mask0)">
<path fill-rule="evenodd" clip-rule="evenodd" d="M5.5 1C3.01867 1 1 3.038 1 5.542C1 8.728 4.74933 11.832 5.5 11.9973C6.25067 11.8313 10 8.72733 10 5.542C10 3.038 7.98133 1 5.5 1ZM5.5 13C4.304 13 0 9.29867 0 5.542C0 2.486 2.46733 0 5.5 0C8.53267 0 11 2.486 11 5.542C11 9.29867 6.696 13 5.5 13Z" fill="#2B304D" fill-opacity="0.5"/>
</g>
</svg>
