<svg width="25" height="27" viewBox="0 0 25 27" fill="none" xmlns="http://www.w3.org/2000/svg">
<path d="M11.5 27C13.0866 27 14.3737 25.657 14.3737 24H8.62635C8.62635 25.657 9.91336 27 11.5 27ZM21.1757 19.9823C20.3078 19.0092 18.6839 17.5453 18.6839 12.75C18.6839 9.10781 16.2366 6.19219 12.9366 5.47688V4.5C12.9366 3.67172 12.2933 3 11.5 3C10.7067 3 10.0634 3.67172 10.0634 4.5V5.47688C6.76344 6.19219 4.31609 9.10781 4.31609 12.75C4.31609 17.5453 2.69217 19.0092 1.82428 19.9823C1.55475 20.2847 1.43525 20.6461 1.4375 21C1.44244 21.7687 2.02059 22.5 2.87949 22.5H20.1205C20.9794 22.5 21.558 21.7687 21.5625 21C21.5647 20.6461 21.4453 20.2842 21.1757 19.9823Z" fill="#C5C7CD"/>
<path d="M18.6875 11.25C21.5132 11.25 23.75 8.86909 23.75 6C23.75 3.13091 21.5132 0.75 18.6875 0.75C15.8618 0.75 13.625 3.13091 13.625 6C13.625 8.86909 15.8618 11.25 18.6875 11.25Z" fill="#0074B3" stroke="#F7F8FC" stroke-width="1.5"/>
</svg>
