<svg width="131" height="136" viewBox="0 0 131 136" fill="none" xmlns="http://www.w3.org/2000/svg">
<path d="M130.961 68.2135C130.961 90.266 130.945 112.319 131 134.371C131 135.7 130.773 136 129.408 135.992C86.8287 135.945 44.2419 135.945 1.65515 136C0.133353 136 0.00784431 135.549 0.00784431 134.237C0.0392216 90.0684 0.0470659 45.9 0 1.72372C0 0.332093 0.251018 0 1.68653 0C44.2027 0.0474419 86.7267 0.0474419 129.243 0C130.796 0 131 0.450698 130.992 1.85814C130.953 23.974 130.961 46.0898 130.961 68.2135Z" fill="white"/>
<path d="M28.114 12.2639C29.2122 10.7457 30.7183 10.3267 32.5382 10.3267C53.2001 10.3662 73.862 10.3504 94.5161 10.3504C97.9519 10.3504 99.1129 11.489 99.3639 15.0155C99.3874 15.2764 99.4267 14.9443 99.4188 15.2053C99.2305 22.7011 100.086 30.1653 99.9522 37.6532C99.913 39.9541 99.1364 41.7174 96.8929 42.6029C93.0649 42.9588 89.2212 42.8164 85.3932 42.8401C70.6851 42.9271 55.9849 42.8955 41.2768 42.8639C38.1547 42.856 35.0327 42.7453 31.9107 42.7611C30.985 42.769 30.0908 42.6741 29.2671 42.1997C27.5492 41.069 27.2041 39.3532 27.1021 37.4318C26.8197 31.8732 27.6591 26.3462 27.5885 20.7955C27.5571 18.7001 27.6041 16.6048 27.5728 14.5095C27.5728 13.695 27.6669 12.9439 28.114 12.2639Z" fill="#006298"/>
<path d="M28.114 12.2637C27.8395 13.2758 27.7296 14.3037 27.7375 15.3553C27.7532 22.693 27.7689 30.0227 27.6904 37.3604C27.6747 39.1158 28.0669 40.5786 29.3534 41.7646C29.8947 42.326 30.6007 42.3102 31.3145 42.4288C33.3854 42.7767 35.4328 42.2548 37.488 42.4051C37.9194 42.4367 38.4999 42.2074 38.7274 42.7055C38.9549 43.2116 38.6803 43.7413 38.3273 44.1446C37.3781 45.2595 36.0838 45.9158 34.7189 45.726C33.4952 45.552 32.9304 45.9632 32.4755 46.9279C28.467 46.9595 27.3923 48.0348 27.3923 52.0516C27.3923 71.6134 27.3923 91.1753 27.3845 110.737C27.3845 111.196 27.3845 111.654 27.3845 112.113C27.3767 112.508 27.3923 112.951 27.008 113.165C26.553 113.418 26.3098 112.975 26.051 112.722C22.3014 109.164 19.0068 105.234 16.1985 100.861C13.3118 96.3623 11.2252 91.5153 9.55437 86.4786C8.40126 82.9995 8.00904 79.3386 7.5227 75.733C6.49509 68.1027 7.70312 60.6544 9.75048 53.3167C11.2174 48.0507 13.555 43.1483 16.5515 38.6334C19.3205 34.4665 22.474 30.5367 26.3804 27.3344C27.1884 26.6702 27.4237 25.9744 27.4159 24.986C27.3688 21.4437 27.4002 17.8934 27.4002 14.3511C27.3923 13.5683 27.2433 12.7302 28.114 12.2637Z" fill="#DCE4F3"/>
<path d="M96.94 42.0969C98.6893 41.0927 99.356 39.6141 99.3403 37.5583C99.2776 30.0467 99.3482 22.5351 99.3639 15.0234C100.054 17.1979 99.5286 19.4276 99.6776 21.6258C99.7247 22.282 99.7561 22.9462 99.6698 23.5946C99.3482 26.022 100.18 27.7062 102.007 29.5011C111.107 38.4676 116.543 49.5058 118.339 62.1411C119.751 72.0486 118.496 81.7267 114.794 91.1439C112.44 97.1374 109.075 102.38 105.153 107.353C104.839 107.756 104.376 108.041 103.984 108.373C103.404 107.298 104.219 106.61 104.769 105.962C106.973 103.392 108.675 100.45 109.703 97.3114C110.793 93.9746 111.938 90.4007 109.82 86.9058C109.507 86.3918 109.31 85.7434 109.554 85.1979C110.55 82.9918 109.358 81.276 108.401 79.4969C107.938 78.6272 107.365 77.8286 106.785 77.0379C105.435 75.1876 104.776 73.2425 105.804 70.9811C106.408 69.6448 106.439 68.3086 105.396 67.1146C105.271 66.9723 105.114 66.7825 105.106 66.6086C105.004 63.2006 103.113 60.5518 101.309 57.9583C100.972 58.4169 101.105 59.2393 100.854 59.943C100.635 60.5676 100.697 61.4453 99.6855 61.4769C99.6855 58.1955 99.7012 54.922 99.6698 51.6406C99.6384 48.5253 98.0146 46.9123 94.9789 46.9044C93.2845 46.8965 91.598 46.8965 89.9036 46.8965C90.037 46.0425 89.6605 45.4653 89.0094 44.9355C88.374 44.4216 87.5346 43.7811 87.8641 42.8718C88.2014 41.9388 89.2133 42.4606 89.9193 42.3974C92.2648 42.1839 94.6337 42.7848 96.94 42.0969Z" fill="#DCE4F3"/>
<path d="M99.7012 61.5006C100.909 59.9588 100.101 57.7053 101.67 56.2188C102.384 56.6932 101.796 57.6341 102.196 58.2429C103.835 60.7495 104.957 63.3825 105.812 66.3397C106.4 68.3876 106.918 70.0006 106.071 71.8904C105.31 73.5825 105.992 75.0374 106.902 76.2788C108.071 77.876 108.957 79.5997 109.954 81.2839C110.589 82.3513 110.824 83.2922 110.291 84.3992C109.781 85.4508 109.993 86.3285 110.597 87.3248C111.562 88.9062 111.381 90.6062 111.303 92.496C111.122 96.9081 108.871 100.276 107.028 103.914C106.196 105.55 104.376 106.475 104 108.397C102.933 109.535 101.882 110.69 100.792 111.797C100.203 112.398 99.7561 112.311 99.7169 111.378C99.7012 110.982 99.709 110.595 99.709 110.2C99.709 96.0699 99.709 81.9481 99.7169 67.8183C100.305 65.9839 100.305 64.1415 99.7169 62.3071C99.7012 62.0225 99.7012 61.7615 99.7012 61.5006Z" fill="#D7DFEE"/>
<path d="M96.94 42.0967C96.1634 43.014 95.1279 42.5158 94.2101 42.5712C92.7903 42.6581 91.3627 42.5553 89.9428 42.6107C89.3467 42.6344 88.4524 42.2312 88.2092 42.9902C88.0053 43.6465 88.9388 43.9628 89.2604 44.5005C89.731 45.2753 90.79 45.1646 91.2607 45.8605C91.1116 46.667 90.2017 46.3586 89.9272 46.9121C70.7792 46.9121 51.6234 46.9121 32.4754 46.9121C32.5147 46.3349 32.4754 45.7339 32.6166 45.1805C32.7264 44.7298 32.9775 43.9944 33.5893 44.8326C33.958 45.3465 34.46 45.4414 34.9542 45.307C36.2407 44.9512 37.6527 44.7614 38.3273 43.3302C38.4371 43.1009 38.5312 42.7135 38.2175 42.6898C36.8761 42.5633 35.519 42.3972 34.2012 42.7846C33.4403 43.006 30.028 42.3735 29.3534 41.7646C30.3496 42.0809 31.3459 42.247 32.4048 42.2391C53.1373 42.2233 73.8699 42.2233 94.6024 42.2233C95.3868 42.2233 96.1634 42.1442 96.94 42.0967Z" fill="#D7DFEE"/>
<path d="M50.4468 64.6474C54.6043 64.6474 58.7696 64.7265 62.9271 64.6158C64.8882 64.5604 64.9352 65.6437 64.9509 67.1065C64.9666 68.5693 64.7234 69.4232 62.9506 69.4153C54.6357 69.3442 46.3128 69.3363 37.99 69.4153C36.029 69.4311 35.9819 68.3874 35.9662 66.9325C35.9505 65.4618 36.1937 64.5842 37.9665 64.6237C42.124 64.7186 46.2815 64.6474 50.4468 64.6474Z" fill="#DDE6E7"/>
<path d="M50.4625 120.186C46.305 120.186 42.1475 120.107 37.99 120.218C36.029 120.273 35.9897 119.19 35.9662 117.735C35.9505 116.265 36.1937 115.418 37.9665 115.434C46.2815 115.505 54.5964 115.513 62.9192 115.434C64.8803 115.418 64.9195 116.454 64.9352 117.917C64.9509 119.388 64.7078 120.258 62.9349 120.218C58.7775 120.123 54.62 120.186 50.4625 120.186Z" fill="#DEE7E8"/>
<path d="M50.2585 94.5915C46.156 94.5915 42.0534 94.5362 37.9508 94.6153C36.3506 94.6469 35.9662 93.9511 35.9662 92.4804C35.9584 90.9622 36.2878 90.2032 38.0214 90.219C46.4227 90.2902 54.8239 90.2822 63.2252 90.219C64.6764 90.2111 65.0137 90.7962 64.9352 92.0929C64.8568 93.3422 65.1392 94.6469 63.1624 94.6153C58.8559 94.5441 54.5572 94.5915 50.2585 94.5915Z" fill="#DDE6E7"/>
<path d="M44.9243 83.4974C42.9162 83.4974 40.9002 83.4894 38.8921 83.4974C37.2918 83.5053 36.1466 82.7699 36.1387 81.1411C36.1309 79.4648 37.3467 78.8164 38.9156 78.8164C42.9397 78.8164 46.9639 78.8085 50.9802 78.8243C52.5804 78.8322 53.6708 79.5834 53.6158 81.2676C53.5609 82.8569 52.447 83.4894 50.9566 83.4974C48.9485 83.4974 46.9325 83.4974 44.9243 83.4974Z" fill="#006298"/>
<path d="M44.9558 58.2032C42.9476 58.2032 40.9316 58.219 38.9235 58.1953C37.3782 58.1795 36.1545 57.5469 36.1388 55.8627C36.1231 54.1706 37.3233 53.5381 38.8921 53.5381C42.9162 53.5381 46.9404 53.5381 50.9567 53.5381C52.4471 53.5381 53.5688 54.1232 53.6159 55.7441C53.663 57.4283 52.5883 58.1874 50.988 58.2032C48.9799 58.219 46.9639 58.2032 44.9558 58.2032Z" fill="#006298"/>
<path d="M44.9793 108.8C42.9633 108.8 40.9395 108.792 38.9235 108.8C37.3468 108.8 36.1309 108.152 36.1466 106.475C36.1623 104.831 37.3311 104.127 38.9314 104.135C42.9006 104.143 46.8776 104.143 50.8469 104.135C52.4393 104.135 53.6002 104.791 53.6081 106.483C53.6159 108.191 52.4314 108.816 50.8469 108.808C48.8858 108.792 46.9326 108.8 44.9793 108.8Z" fill="#006298"/>
<path d="M99.7012 62.291C100.901 64.1254 100.901 65.9678 99.7012 67.8022C99.7012 65.9598 99.7012 64.1254 99.7012 62.291Z" fill="#DCE4F3"/>
<path d="M50.6271 31.0353C54.212 31.0353 57.789 31.0273 61.3739 31.0353C63.9154 31.0432 64.9038 31.7073 64.8724 33.3915C64.841 34.9966 63.884 35.645 61.468 35.645C54.11 35.6529 46.7521 35.6529 39.3941 35.645C37.08 35.645 36.0367 34.8859 36.076 33.2887C36.1073 31.7548 37.1036 31.0432 39.3078 31.0432C43.0731 31.0273 46.854 31.0353 50.6271 31.0353Z" fill="#FEFEFE"/>
<path d="M45.0656 19.7513C47.0815 19.7513 49.0975 19.7513 51.1135 19.7513C52.6667 19.7513 53.6315 20.4471 53.6315 22.0759C53.6237 23.681 52.6981 24.4401 51.137 24.4401C46.9717 24.4401 42.8064 24.448 38.6411 24.4401C37.1114 24.4322 36.0917 23.7047 36.076 22.1154C36.0681 20.5182 37.0879 19.7829 38.6097 19.7592C40.7669 19.7354 42.9162 19.7513 45.0656 19.7513Z" fill="#DDE6E7"/>
</svg>
