<svg width="36" height="36" viewBox="0 0 36 36" fill="none" xmlns="http://www.w3.org/2000/svg">
<g opacity="0.3">
<path d="M26.8315 16.3451C28.924 16.0511 30.535 14.2571 30.5395 12.0836C30.5395 9.94159 28.978 8.16559 26.9305 7.82959" stroke="#2B304D" stroke-width="2" stroke-linecap="round" stroke-linejoin="round"/>
<path d="M29.5928 21.3755C31.6193 21.6785 33.0338 22.388 33.0338 23.8505C33.0338 24.857 32.3678 25.511 31.2908 25.922" stroke="#2B304D" stroke-width="2" stroke-linecap="round" stroke-linejoin="round"/>
<path fill-rule="evenodd" clip-rule="evenodd" d="M17.8301 21.9957C13.0091 21.9957 8.8916 22.7262 8.8916 25.6437C8.8916 28.5597 12.9836 29.3112 17.8301 29.3112C22.6511 29.3112 26.7671 28.5882 26.7671 25.6692C26.7671 22.7502 22.6766 21.9957 17.8301 21.9957Z" stroke="#2B304D" stroke-width="2" stroke-linecap="round" stroke-linejoin="round"/>
<path fill-rule="evenodd" clip-rule="evenodd" d="M17.8301 17.8319C20.9936 17.8319 23.5586 15.2684 23.5586 12.1034C23.5586 8.93988 20.9936 6.37488 17.8301 6.37488C14.6666 6.37488 12.1016 8.93988 12.1016 12.1034C12.0896 15.2564 14.6351 17.8214 17.7881 17.8319H17.8301Z" stroke="#2B304D" stroke-width="2" stroke-linecap="round" stroke-linejoin="round"/>
<path d="M8.82714 16.3451C6.73314 16.0511 5.12364 14.2571 5.11914 12.0836C5.11914 9.94159 6.68064 8.16559 8.72814 7.82959" stroke="#2B304D" stroke-width="2" stroke-linecap="round" stroke-linejoin="round"/>
<path d="M6.06588 21.3755C4.03938 21.6785 2.62488 22.388 2.62488 23.8505C2.62488 24.857 3.29088 25.511 4.36788 25.922" stroke="#2B304D" stroke-width="2" stroke-linecap="round" stroke-linejoin="round"/>
</g>
</svg>
