<svg width="30" height="30" viewBox="0 0 30 30" fill="none" xmlns="http://www.w3.org/2000/svg">
<g id="Iconly/Bulk/3 User">
<g id="3 User">
<path id="Fill 1" d="M14.936 18.1749C10.6236 18.1749 6.98486 18.8796 6.98486 21.5993C6.98486 24.3201 10.6471 25 14.936 25C19.2485 25 22.8872 24.2953 22.8872 21.5757C22.8872 18.8548 19.225 18.1749 14.936 18.1749Z" fill="#006298"/>
<path id="Fill 3" opacity="0.4" d="M14.9364 15.5838C17.8565 15.5838 20.198 13.2288 20.198 10.2919C20.198 7.35383 17.8565 5 14.9364 5C12.0163 5 9.6748 7.35383 9.6748 10.2919C9.6748 13.2288 12.0163 15.5838 14.9364 15.5838Z" fill="#B7BCC7"/>
<path id="Fill 6" opacity="0.4" d="M26.3602 11.5241C27.1157 8.55226 24.9007 5.88324 22.0802 5.88324C21.7735 5.88324 21.4803 5.91701 21.1937 5.97442C21.1557 5.98343 21.1131 6.00256 21.0908 6.03633C21.065 6.07911 21.084 6.13652 21.112 6.17367C21.9593 7.36916 22.4462 8.82468 22.4462 10.3871C22.4462 11.8843 21.9996 13.2802 21.2161 14.4385C21.1355 14.5578 21.2072 14.7188 21.3493 14.7436C21.5463 14.7785 21.7478 14.7965 21.9537 14.8021C24.0075 14.8562 25.8509 13.5267 26.3602 11.5241Z" fill="#B7BCC7"/>
<path id="Fill 8" d="M28.5118 18.5212C28.1357 17.7152 27.228 17.1625 25.8479 16.8912C25.1965 16.7313 23.4337 16.5062 21.794 16.5366C21.7694 16.54 21.7559 16.5569 21.7537 16.5681C21.7504 16.5839 21.7571 16.6109 21.7895 16.6278C22.5473 17.0049 25.4763 18.645 25.1081 22.1043C25.0924 22.254 25.2122 22.3835 25.3611 22.3609C26.0819 22.2574 27.9365 21.8566 28.5118 20.6082C28.8296 19.9486 28.8296 19.182 28.5118 18.5212Z" fill="#006298"/>
<path id="Fill 11" opacity="0.4" d="M8.80586 5.97473C8.52045 5.91619 8.22608 5.88354 7.91941 5.88354C5.09889 5.88354 2.88389 8.55257 3.6405 11.5244C4.14864 13.527 5.99205 14.8565 8.04588 14.8024C8.25183 14.7968 8.45441 14.7777 8.65028 14.7439C8.79243 14.7191 8.86406 14.5582 8.78347 14.4388C7.99999 13.2794 7.55341 11.8846 7.55341 10.3875C7.55341 8.82386 8.04141 7.36834 8.88868 6.17397C8.91554 6.13683 8.93569 6.07942 8.90883 6.03664C8.88644 6.00174 8.84503 5.98373 8.80586 5.97473Z" fill="#B7BCC7"/>
<path id="Fill 13" d="M4.15194 16.8908C2.7719 17.1621 1.86531 17.7148 1.48924 18.5208C1.17025 19.1816 1.17025 19.9482 1.48924 20.609C2.06454 21.8563 3.91914 22.2581 4.63994 22.3606C4.7888 22.3831 4.90744 22.2548 4.89177 22.1039C4.52354 18.6458 7.45262 17.0056 8.21148 16.6285C8.24282 16.6105 8.24953 16.5846 8.24617 16.5677C8.24394 16.5565 8.23162 16.5396 8.207 16.5373C6.56617 16.5058 4.80447 16.731 4.15194 16.8908Z" fill="#006298"/>
</g>
</g>
</svg>
