<svg width="70" height="70" viewBox="0 0 70 70" fill="none" xmlns="http://www.w3.org/2000/svg">
<g id="Iconly/Light-Outline/3 User">
<g id="3 User">
<path id="Fill 1" fill-rule="evenodd" clip-rule="evenodd" d="M52.1677 35.4296C51.0944 35.4296 50.1582 34.6392 50.0036 33.5454C49.8373 32.3467 50.6686 31.2413 51.8673 31.075C54.9007 30.6492 57.1902 28.0184 57.1961 24.95C57.1961 21.9079 55.0144 19.3354 52.0073 18.8425C50.8173 18.6471 50.0094 17.5213 50.2048 16.3284C50.4032 15.1354 51.5202 14.3363 52.719 14.5259C57.8465 15.3688 61.5711 19.7554 61.5711 24.9559C61.5594 30.1913 57.6482 34.6829 52.4711 35.4092C52.369 35.4238 52.2669 35.4296 52.1677 35.4296Z" fill="#006298"/>
<g id="Group 5">
<mask id="mask0" mask-type="alpha" maskUnits="userSpaceOnUse" x="55" y="40" width="12" height="15">
<path id="Clip 4" fill-rule="evenodd" clip-rule="evenodd" d="M55.3535 40.8389H66.4193V54.0501H55.3535V40.8389Z" fill="white"/>
</mask>
<g mask="url(#mask0)">
<path id="Fill 3" fill-rule="evenodd" clip-rule="evenodd" d="M60.8464 54.0501C59.9656 54.0501 59.1343 53.5134 58.8018 52.6414C58.3701 51.5126 58.9389 50.2468 60.0676 49.818C62.0451 49.0655 62.0451 48.2343 62.0451 47.8347C62.0451 46.5572 60.4206 45.6647 57.2181 45.1864C56.0251 45.0055 55.1997 43.8943 55.3776 42.6955C55.5556 41.4997 56.6639 40.7034 57.8685 40.858C64.9356 41.9168 66.4201 45.2359 66.4201 47.8347C66.4201 49.4214 65.796 52.3176 61.6251 53.9072C61.3685 54.0034 61.106 54.0501 60.8464 54.0501Z" fill="#006298"/>
</g>
</g>
<path id="Fill 6" fill-rule="evenodd" clip-rule="evenodd" d="M34.6695 46.416C27.7395 46.416 19.4766 47.2677 19.4766 51.3219C19.4766 55.4081 27.7395 56.2656 34.6695 56.2656C41.5995 56.2656 49.8595 55.4169 49.8595 51.3714C49.8595 47.2764 41.5995 46.416 34.6695 46.416ZM34.6695 60.6406C29.8307 60.6406 15.1016 60.6406 15.1016 51.3219C15.1016 42.041 29.8307 42.041 34.6695 42.041C39.5082 42.041 54.2345 42.041 54.2345 51.3714C54.2345 60.6406 40.0216 60.6406 34.6695 60.6406Z" fill="#006298"/>
<path id="Fill 8" fill-rule="evenodd" clip-rule="evenodd" d="M34.6691 16.042C29.7341 16.042 25.7208 20.0582 25.7208 24.9932C25.712 27.3849 26.6279 29.622 28.305 31.3107C29.982 32.9995 32.2162 33.9357 34.5962 33.9445L34.6691 36.132V33.9445C39.6041 33.9445 43.6204 29.9312 43.6204 24.9932C43.6204 20.0582 39.6041 16.042 34.6691 16.042ZM34.6692 38.3195H34.5904C31.0321 38.3078 27.6983 36.9137 25.2017 34.3937C22.6992 31.8766 21.3312 28.5341 21.3458 24.9845C21.3458 17.6462 27.3221 11.667 34.6692 11.667C42.0192 11.667 47.9954 17.6462 47.9954 24.9932C47.9954 32.3403 42.0192 38.3195 34.6692 38.3195Z" fill="#006298"/>
<path id="Fill 10" fill-rule="evenodd" clip-rule="evenodd" d="M17.1641 35.4302C17.0649 35.4302 16.9628 35.4243 16.8608 35.4097C11.6837 34.6835 7.77534 30.1918 7.76367 24.9622C7.76367 19.756 11.4883 15.3693 16.6158 14.5264C17.8437 14.3339 18.9316 15.1418 19.1299 16.3289C19.3253 17.5218 18.5174 18.6477 17.3274 18.8431C14.3203 19.336 12.1387 21.9085 12.1387 24.9564C12.1445 28.0189 14.4341 30.6527 17.4645 31.0756C18.6633 31.2418 19.4945 32.3472 19.3283 33.546C19.1737 34.6397 18.2374 35.4302 17.1641 35.4302Z" fill="#006298"/>
<path id="Fill 12" fill-rule="evenodd" clip-rule="evenodd" d="M8.49268 54.0505C8.2331 54.0505 7.9706 54.0038 7.71393 53.9076C3.54018 52.3151 2.91602 49.4188 2.91602 47.8351C2.91602 45.2392 4.4006 41.9171 11.4706 40.8584C12.6752 40.7067 13.7777 41.5001 13.9585 42.6959C14.1364 43.8946 13.311 45.0059 12.1181 45.1867C8.9156 45.6651 7.29102 46.5576 7.29102 47.8351C7.29102 48.2346 7.29101 49.063 9.27143 49.8184C10.4002 50.2471 10.9689 51.513 10.5373 52.6417C10.2048 53.5138 9.37351 54.0505 8.49268 54.0505Z" fill="#006298"/>
</g>
</g>
</svg>
