<svg width="26" height="24" viewBox="0 0 26 24" fill="none" xmlns="http://www.w3.org/2000/svg">
<path fill-rule="evenodd" clip-rule="evenodd" d="M22.7012 12.0012C22.7012 13.0181 23.5362 13.8455 24.5624 13.8455C25.0799 13.8455 25.4999 14.2616 25.4999 14.7744V18.1198C25.4999 20.9487 23.1774 23.25 20.3224 23.25H5.67869C2.82369 23.25 0.499939 20.9487 0.499939 18.1198V14.7744C0.499939 14.2616 0.919939 13.8455 1.43744 13.8455C2.46494 13.8455 3.29994 13.0181 3.29994 12.0012C3.29994 11.0104 2.49869 10.2648 1.43744 10.2648C1.18869 10.2648 0.951189 10.1669 0.774939 9.99227C0.598689 9.81763 0.499939 9.58106 0.499939 9.33582L0.502439 5.88143C0.502439 3.05252 2.82494 0.75 5.67994 0.75H20.3199C23.1749 0.75 25.4987 3.05252 25.4987 5.88143L25.4999 9.22806C25.4999 9.4733 25.4012 9.71111 25.2262 9.88451C25.0499 10.0591 24.8124 10.157 24.5624 10.157C23.5362 10.157 22.7012 10.9844 22.7012 12.0012ZM15.815 12.8101L17.2888 11.3882C17.545 11.1429 17.6338 10.7813 17.5225 10.4469C17.4125 10.1125 17.125 9.87464 16.7775 9.82634L14.7413 9.53156L13.83 7.70342C13.6738 7.38882 13.3563 7.19312 13.0025 7.19188H13C12.6475 7.19188 12.33 7.38758 12.1713 7.70218L11.26 9.53156L9.22754 9.8251C8.87629 9.87464 8.58879 10.1125 8.47754 10.4469C8.36754 10.7813 8.45629 11.1429 8.71129 11.3882L10.185 12.8101L9.83754 14.8203C9.77754 15.1671 9.91879 15.5114 10.2063 15.7183C10.3688 15.8334 10.5575 15.8929 10.7488 15.8929C10.895 15.8929 11.0425 15.857 11.1775 15.7864L13 14.8376L14.8188 15.7839C15.1338 15.9511 15.5075 15.9251 15.7938 15.717C16.0825 15.5114 16.2238 15.1671 16.1638 14.8203L15.815 12.8101Z" fill="#006298"/>
</svg>
