<svg width="15" height="15" viewBox="0 0 15 15" fill="none" xmlns="http://www.w3.org/2000/svg">
<path d="M13.0031 5.76143C13.8193 5.76143 14.4795 6.4216 14.4783 7.2366C14.4783 7.6447 14.3235 8.01799 14.0474 8.29406C13.7833 8.55813 13.4232 8.72617 13.0019 8.71297L8.74208 8.72617L8.72887 12.986C8.72887 13.3941 8.57404 13.7674 8.29797 14.0435C8.0339 14.3076 7.64861 14.4744 7.2405 14.4744C6.4255 14.4756 5.76534 13.8154 5.75334 12.9872L5.76534 8.72617L1.49108 8.72497C0.676075 8.72617 0.00390783 8.054 0.00390788 7.2378C0.00270766 6.4204 0.662872 5.76023 1.49228 5.74943L5.76414 5.74823L5.75334 1.48837C5.76414 0.658965 6.4243 -0.00119859 7.24171 1.63397e-06C8.05791 1.57665e-06 8.73007 0.672168 8.72888 1.48717L8.73007 5.76143H13.0031Z" fill="#006298"/>
</svg>
