<svg width="20" height="20" viewBox="0 0 20 20" fill="none" xmlns="http://www.w3.org/2000/svg">
<path fill-rule="evenodd" clip-rule="evenodd" d="M12.7023 3.94667C12.7023 5.79749 14.2049 7.29788 16.0584 7.29788C16.2625 7.29688 16.4661 7.27729 16.6666 7.23935V13.8833C16.6666 16.6784 15.0179 18.332 12.2187 18.332H6.12193C3.31538 18.332 1.66663 16.6784 1.66663 13.8833V7.79545C1.66663 5.00032 3.31538 3.33203 6.12193 3.33203H12.7609C12.7215 3.53453 12.7019 3.74038 12.7023 3.94667ZM10.9584 12.4125L13.3399 9.33935V9.32471C13.5438 9.05075 13.4918 8.66444 13.2227 8.45398C13.0924 8.35343 12.9269 8.30991 12.764 8.33335C12.601 8.35679 12.4545 8.4452 12.358 8.57837L10.3502 11.1613L8.06392 9.3613C7.93339 9.25961 7.76734 9.21471 7.60326 9.23674C7.43918 9.25877 7.2909 9.34587 7.19191 9.47837L4.72977 12.654C4.64322 12.7619 4.59663 12.8963 4.59787 13.0345C4.58358 13.3138 4.75998 13.5676 5.02706 13.6519C5.29415 13.7362 5.58456 13.6298 5.73368 13.393L7.79279 10.7296L10.0791 12.5223C10.2091 12.6271 10.3762 12.6746 10.5421 12.6539C10.7079 12.6332 10.8582 12.5461 10.9584 12.4125Z" fill="#006298"/>
<ellipse opacity="0.4" cx="16.25" cy="3.74935" rx="2.08333" ry="2.08333" fill="#9FB5C5"/>
</svg>
