<svg width="636" height="900" viewBox="0 0 636 900" fill="none" xmlns="http://www.w3.org/2000/svg">
<g clip-path="url(#clip0)">
<rect width="636" height="900" fill="url(#paint0_linear)"/>
<circle cx="146.417" cy="166.417" r="3.41667" fill="white" fill-opacity="0.17"/>
<circle cx="234.111" cy="166.417" r="3.41667" fill="white" fill-opacity="0.17"/>
<circle cx="158.945" cy="166.417" r="3.41667" fill="white" fill-opacity="0.17"/>
<circle cx="246.639" cy="166.417" r="3.41667" fill="white" fill-opacity="0.17"/>
<circle cx="171.472" cy="166.417" r="3.41667" fill="white" fill-opacity="0.17"/>
<circle cx="259.167" cy="166.417" r="3.41667" fill="white" fill-opacity="0.17"/>
<circle cx="184" cy="166.417" r="3.41667" fill="white" fill-opacity="0.17"/>
<circle cx="271.694" cy="166.417" r="3.41667" fill="white" fill-opacity="0.17"/>
<circle cx="196.528" cy="166.417" r="3.41667" fill="white" fill-opacity="0.17"/>
<circle cx="284.222" cy="166.417" r="3.41667" fill="white" fill-opacity="0.17"/>
<circle cx="209.056" cy="166.417" r="3.41667" fill="white" fill-opacity="0.17"/>
<circle cx="296.75" cy="166.417" r="3.41667" fill="white" fill-opacity="0.17"/>
<circle cx="221.583" cy="166.417" r="3.41667" fill="white" fill-opacity="0.17"/>
<circle cx="309.278" cy="166.417" r="3.41667" fill="white" fill-opacity="0.17"/>
<circle cx="146.417" cy="178.944" r="3.41667" fill="white" fill-opacity="0.17"/>
<circle cx="234.111" cy="178.944" r="3.41667" fill="white" fill-opacity="0.17"/>
<circle cx="158.945" cy="178.944" r="3.41667" fill="white" fill-opacity="0.17"/>
<circle cx="246.639" cy="178.944" r="3.41667" fill="white" fill-opacity="0.17"/>
<circle cx="171.472" cy="178.944" r="3.41667" fill="white" fill-opacity="0.17"/>
<circle cx="259.167" cy="178.944" r="3.41667" fill="white" fill-opacity="0.17"/>
<circle cx="184" cy="178.944" r="3.41667" fill="white" fill-opacity="0.17"/>
<circle cx="271.694" cy="178.944" r="3.41667" fill="white" fill-opacity="0.17"/>
<circle cx="196.528" cy="178.944" r="3.41667" fill="white" fill-opacity="0.17"/>
<circle cx="284.222" cy="178.944" r="3.41667" fill="white" fill-opacity="0.17"/>
<circle cx="209.056" cy="178.944" r="3.41667" fill="white" fill-opacity="0.17"/>
<circle cx="296.75" cy="178.944" r="3.41667" fill="white" fill-opacity="0.17"/>
<circle cx="221.583" cy="178.944" r="3.41667" fill="white" fill-opacity="0.17"/>
<circle cx="309.278" cy="178.944" r="3.41667" fill="white" fill-opacity="0.17"/>
<circle cx="146.417" cy="191.472" r="3.41667" fill="white" fill-opacity="0.17"/>
<circle cx="234.111" cy="191.472" r="3.41667" fill="white" fill-opacity="0.17"/>
<circle cx="158.945" cy="191.472" r="3.41667" fill="white" fill-opacity="0.17"/>
<circle cx="246.639" cy="191.472" r="3.41667" fill="white" fill-opacity="0.17"/>
<circle cx="171.472" cy="191.472" r="3.41667" fill="white" fill-opacity="0.17"/>
<circle cx="259.167" cy="191.472" r="3.41667" fill="white" fill-opacity="0.17"/>
<circle cx="184" cy="191.472" r="3.41667" fill="white" fill-opacity="0.17"/>
<circle cx="271.694" cy="191.472" r="3.41667" fill="white" fill-opacity="0.17"/>
<circle cx="196.528" cy="191.472" r="3.41667" fill="white" fill-opacity="0.17"/>
<circle cx="284.222" cy="191.472" r="3.41667" fill="white" fill-opacity="0.17"/>
<circle cx="209.056" cy="191.472" r="3.41667" fill="white" fill-opacity="0.17"/>
<circle cx="296.75" cy="191.472" r="3.41667" fill="white" fill-opacity="0.17"/>
<circle cx="221.583" cy="191.472" r="3.41667" fill="white" fill-opacity="0.17"/>
<circle cx="309.278" cy="191.472" r="3.41667" fill="white" fill-opacity="0.17"/>
<circle cx="146.417" cy="204" r="3.41667" fill="white" fill-opacity="0.17"/>
<circle cx="234.111" cy="204" r="3.41667" fill="white" fill-opacity="0.17"/>
<circle cx="158.945" cy="204" r="3.41667" fill="white" fill-opacity="0.17"/>
<circle cx="246.639" cy="204" r="3.41667" fill="white" fill-opacity="0.17"/>
<circle cx="171.472" cy="204" r="3.41667" fill="white" fill-opacity="0.17"/>
<circle cx="259.167" cy="204" r="3.41667" fill="white" fill-opacity="0.17"/>
<circle cx="184" cy="204" r="3.41667" fill="white" fill-opacity="0.17"/>
<circle cx="271.694" cy="204" r="3.41667" fill="white" fill-opacity="0.17"/>
<circle cx="196.528" cy="204" r="3.41667" fill="white" fill-opacity="0.17"/>
<circle cx="284.222" cy="204" r="3.41667" fill="white" fill-opacity="0.17"/>
<circle cx="209.056" cy="204" r="3.41667" fill="white" fill-opacity="0.17"/>
<circle cx="296.75" cy="204" r="3.41667" fill="white" fill-opacity="0.17"/>
<circle cx="221.583" cy="204" r="3.41667" fill="white" fill-opacity="0.17"/>
<circle cx="309.278" cy="204" r="3.41667" fill="white" fill-opacity="0.17"/>
<circle cx="146.417" cy="216.528" r="3.41667" fill="white" fill-opacity="0.17"/>
<circle cx="234.111" cy="216.528" r="3.41667" fill="white" fill-opacity="0.17"/>
<circle cx="158.945" cy="216.528" r="3.41667" fill="white" fill-opacity="0.17"/>
<circle cx="246.639" cy="216.528" r="3.41667" fill="white" fill-opacity="0.17"/>
<circle cx="171.472" cy="216.528" r="3.41667" fill="white" fill-opacity="0.17"/>
<circle cx="259.167" cy="216.528" r="3.41667" fill="white" fill-opacity="0.17"/>
<circle cx="184" cy="216.528" r="3.41667" fill="white" fill-opacity="0.17"/>
<circle cx="271.694" cy="216.528" r="3.41667" fill="white" fill-opacity="0.17"/>
<circle cx="196.528" cy="216.528" r="3.41667" fill="white" fill-opacity="0.17"/>
<circle cx="284.222" cy="216.528" r="3.41667" fill="white" fill-opacity="0.17"/>
<circle cx="209.056" cy="216.528" r="3.41667" fill="white" fill-opacity="0.17"/>
<circle cx="296.75" cy="216.528" r="3.41667" fill="white" fill-opacity="0.17"/>
<circle cx="221.583" cy="216.528" r="3.41667" fill="white" fill-opacity="0.17"/>
<circle cx="309.278" cy="216.528" r="3.41667" fill="white" fill-opacity="0.17"/>
<circle cx="146.417" cy="229.056" r="3.41667" fill="white" fill-opacity="0.17"/>
<circle cx="234.111" cy="229.056" r="3.41667" fill="white" fill-opacity="0.17"/>
<circle cx="158.945" cy="229.056" r="3.41667" fill="white" fill-opacity="0.17"/>
<circle cx="246.639" cy="229.056" r="3.41667" fill="white" fill-opacity="0.17"/>
<circle cx="171.472" cy="229.056" r="3.41667" fill="white" fill-opacity="0.17"/>
<circle cx="259.167" cy="229.056" r="3.41667" fill="white" fill-opacity="0.17"/>
<circle cx="184" cy="229.056" r="3.41667" fill="white" fill-opacity="0.17"/>
<circle cx="271.694" cy="229.056" r="3.41667" fill="white" fill-opacity="0.17"/>
<circle cx="196.528" cy="229.056" r="3.41667" fill="white" fill-opacity="0.17"/>
<circle cx="284.222" cy="229.056" r="3.41667" fill="white" fill-opacity="0.17"/>
<circle cx="209.056" cy="229.056" r="3.41667" fill="white" fill-opacity="0.17"/>
<circle cx="296.75" cy="229.056" r="3.41667" fill="white" fill-opacity="0.17"/>
<circle cx="221.583" cy="229.056" r="3.41667" fill="white" fill-opacity="0.17"/>
<circle cx="309.278" cy="229.056" r="3.41667" fill="white" fill-opacity="0.17"/>
<circle cx="146.417" cy="241.583" r="3.41667" fill="white" fill-opacity="0.17"/>
<circle cx="234.111" cy="241.583" r="3.41667" fill="white" fill-opacity="0.17"/>
<circle cx="158.945" cy="241.583" r="3.41667" fill="white" fill-opacity="0.17"/>
<circle cx="246.639" cy="241.583" r="3.41667" fill="white" fill-opacity="0.17"/>
<circle cx="171.472" cy="241.583" r="3.41667" fill="white" fill-opacity="0.17"/>
<circle cx="259.167" cy="241.583" r="3.41667" fill="white" fill-opacity="0.17"/>
<circle cx="184" cy="241.583" r="3.41667" fill="white" fill-opacity="0.17"/>
<circle cx="271.694" cy="241.583" r="3.41667" fill="white" fill-opacity="0.17"/>
<circle cx="196.528" cy="241.583" r="3.41667" fill="white" fill-opacity="0.17"/>
<circle cx="284.222" cy="241.583" r="3.41667" fill="white" fill-opacity="0.17"/>
<circle cx="209.056" cy="241.583" r="3.41667" fill="white" fill-opacity="0.17"/>
<circle cx="296.75" cy="241.583" r="3.41667" fill="white" fill-opacity="0.17"/>
<circle cx="221.583" cy="241.583" r="3.41667" fill="white" fill-opacity="0.17"/>
<circle cx="309.278" cy="241.583" r="3.41667" fill="white" fill-opacity="0.17"/>
<circle cx="523.417" cy="683.417" r="3.41667" fill="white" fill-opacity="0.17"/>
<circle cx="611.111" cy="683.417" r="3.41667" fill="white" fill-opacity="0.17"/>
<circle cx="535.945" cy="683.417" r="3.41667" fill="white" fill-opacity="0.17"/>
<circle cx="623.639" cy="683.417" r="3.41667" fill="white" fill-opacity="0.17"/>
<circle cx="548.472" cy="683.417" r="3.41667" fill="white" fill-opacity="0.17"/>
<circle cx="636.167" cy="683.417" r="3.41667" fill="white" fill-opacity="0.17"/>
<circle cx="561" cy="683.417" r="3.41667" fill="white" fill-opacity="0.17"/>
<circle cx="573.528" cy="683.417" r="3.41667" fill="white" fill-opacity="0.17"/>
<circle cx="586.056" cy="683.417" r="3.41667" fill="white" fill-opacity="0.17"/>
<circle cx="598.583" cy="683.417" r="3.41667" fill="white" fill-opacity="0.17"/>
<circle cx="523.417" cy="695.944" r="3.41667" fill="white" fill-opacity="0.17"/>
<circle cx="611.111" cy="695.944" r="3.41667" fill="white" fill-opacity="0.17"/>
<circle cx="535.945" cy="695.944" r="3.41667" fill="white" fill-opacity="0.17"/>
<circle cx="623.639" cy="695.944" r="3.41667" fill="white" fill-opacity="0.17"/>
<circle cx="548.472" cy="695.944" r="3.41667" fill="white" fill-opacity="0.17"/>
<circle cx="636.167" cy="695.944" r="3.41667" fill="white" fill-opacity="0.17"/>
<circle cx="561" cy="695.944" r="3.41667" fill="white" fill-opacity="0.17"/>
<circle cx="573.528" cy="695.944" r="3.41667" fill="white" fill-opacity="0.17"/>
<circle cx="586.056" cy="695.944" r="3.41667" fill="white" fill-opacity="0.17"/>
<circle cx="598.583" cy="695.944" r="3.41667" fill="white" fill-opacity="0.17"/>
<circle cx="523.417" cy="708.472" r="3.41667" fill="white" fill-opacity="0.17"/>
<circle cx="611.111" cy="708.472" r="3.41667" fill="white" fill-opacity="0.17"/>
<circle cx="535.945" cy="708.472" r="3.41667" fill="white" fill-opacity="0.17"/>
<circle cx="623.639" cy="708.472" r="3.41667" fill="white" fill-opacity="0.17"/>
<circle cx="548.472" cy="708.472" r="3.41667" fill="white" fill-opacity="0.17"/>
<circle cx="636.167" cy="708.472" r="3.41667" fill="white" fill-opacity="0.17"/>
<circle cx="561" cy="708.472" r="3.41667" fill="white" fill-opacity="0.17"/>
<circle cx="573.528" cy="708.472" r="3.41667" fill="white" fill-opacity="0.17"/>
<circle cx="586.056" cy="708.472" r="3.41667" fill="white" fill-opacity="0.17"/>
<circle cx="598.583" cy="708.472" r="3.41667" fill="white" fill-opacity="0.17"/>
<circle cx="523.417" cy="721" r="3.41667" fill="white" fill-opacity="0.17"/>
<circle cx="611.111" cy="721" r="3.41667" fill="white" fill-opacity="0.17"/>
<circle cx="535.945" cy="721" r="3.41667" fill="white" fill-opacity="0.17"/>
<circle cx="623.639" cy="721" r="3.41667" fill="white" fill-opacity="0.17"/>
<circle cx="548.472" cy="721" r="3.41667" fill="white" fill-opacity="0.17"/>
<circle cx="636.167" cy="721" r="3.41667" fill="white" fill-opacity="0.17"/>
<circle cx="561" cy="721" r="3.41667" fill="white" fill-opacity="0.17"/>
<circle cx="573.528" cy="721" r="3.41667" fill="white" fill-opacity="0.17"/>
<circle cx="586.056" cy="721" r="3.41667" fill="white" fill-opacity="0.17"/>
<circle cx="598.583" cy="721" r="3.41667" fill="white" fill-opacity="0.17"/>
<circle cx="523.417" cy="733.528" r="3.41667" fill="white" fill-opacity="0.17"/>
<circle cx="611.111" cy="733.528" r="3.41667" fill="white" fill-opacity="0.17"/>
<circle cx="535.945" cy="733.528" r="3.41667" fill="white" fill-opacity="0.17"/>
<circle cx="623.639" cy="733.528" r="3.41667" fill="white" fill-opacity="0.17"/>
<circle cx="548.472" cy="733.528" r="3.41667" fill="white" fill-opacity="0.17"/>
<circle cx="636.167" cy="733.528" r="3.41667" fill="white" fill-opacity="0.17"/>
<circle cx="561" cy="733.528" r="3.41667" fill="white" fill-opacity="0.17"/>
<circle cx="573.528" cy="733.528" r="3.41667" fill="white" fill-opacity="0.17"/>
<circle cx="586.056" cy="733.528" r="3.41667" fill="white" fill-opacity="0.17"/>
<circle cx="598.583" cy="733.528" r="3.41667" fill="white" fill-opacity="0.17"/>
<circle cx="523.417" cy="746.056" r="3.41667" fill="white" fill-opacity="0.17"/>
<circle cx="611.111" cy="746.056" r="3.41667" fill="white" fill-opacity="0.17"/>
<circle cx="535.945" cy="746.056" r="3.41667" fill="white" fill-opacity="0.17"/>
<circle cx="623.639" cy="746.056" r="3.41667" fill="white" fill-opacity="0.17"/>
<circle cx="548.472" cy="746.056" r="3.41667" fill="white" fill-opacity="0.17"/>
<circle cx="636.167" cy="746.056" r="3.41667" fill="white" fill-opacity="0.17"/>
<circle cx="561" cy="746.056" r="3.41667" fill="white" fill-opacity="0.17"/>
<circle cx="573.528" cy="746.056" r="3.41667" fill="white" fill-opacity="0.17"/>
<circle cx="586.056" cy="746.056" r="3.41667" fill="white" fill-opacity="0.17"/>
<circle cx="598.583" cy="746.056" r="3.41667" fill="white" fill-opacity="0.17"/>
<circle cx="523.417" cy="758.583" r="3.41667" fill="white" fill-opacity="0.17"/>
<circle cx="611.111" cy="758.583" r="3.41667" fill="white" fill-opacity="0.17"/>
<circle cx="535.945" cy="758.583" r="3.41667" fill="white" fill-opacity="0.17"/>
<circle cx="623.639" cy="758.583" r="3.41667" fill="white" fill-opacity="0.17"/>
<circle cx="548.472" cy="758.583" r="3.41667" fill="white" fill-opacity="0.17"/>
<circle cx="636.167" cy="758.583" r="3.41667" fill="white" fill-opacity="0.17"/>
<circle cx="561" cy="758.583" r="3.41667" fill="white" fill-opacity="0.17"/>
<circle cx="573.528" cy="758.583" r="3.41667" fill="white" fill-opacity="0.17"/>
<circle cx="586.056" cy="758.583" r="3.41667" fill="white" fill-opacity="0.17"/>
<circle cx="598.583" cy="758.583" r="3.41667" fill="white" fill-opacity="0.17"/>
</g>
<defs>
<linearGradient id="paint0_linear" x1="318" y1="0" x2="318" y2="900" gradientUnits="userSpaceOnUse">
<stop stop-color="#0E4770"/>
<stop offset="1" stop-color="#093555"/>
</linearGradient>
<clipPath id="clip0">
<rect width="636" height="900" fill="white"/>
</clipPath>
</defs>
</svg>
