<svg width="143" height="148" viewBox="0 0 143 148" fill="none" xmlns="http://www.w3.org/2000/svg">
<path d="M142.957 74.2323C142.957 98.2307 142.94 122.229 143 146.227C143 147.673 142.752 148 141.262 147.991C94.7825 147.94 48.2946 147.94 1.80677 148C0.145569 148 0.00856287 147.51 0.00856287 146.081C0.0428144 98.0156 0.0513772 49.95 0 1.87581C0 0.361395 0.274012 0 1.84102 0C48.2518 0.0516279 94.6711 0.0516279 141.082 0C142.777 0 143 0.490465 142.991 2.02209C142.949 26.0893 142.957 50.1565 142.957 74.2323Z" fill="white"/>
<path d="M30.6894 13.3464C31.8882 11.6943 33.5322 11.2383 35.5188 11.2383C58.0734 11.2813 80.628 11.2641 103.174 11.2641C106.925 11.2641 108.192 12.5032 108.466 16.3408C108.492 16.6248 108.534 16.2634 108.526 16.5474C108.32 24.7046 109.254 32.8274 109.108 40.976C109.065 43.4799 108.218 45.3987 105.769 46.3625C101.59 46.7497 97.3941 46.5948 93.2155 46.6206C77.1601 46.7153 61.1132 46.6808 45.0579 46.6464C41.6498 46.6378 38.2418 46.5174 34.8338 46.5346C33.8234 46.5432 32.8472 46.4399 31.9481 45.9236C30.0728 44.6932 29.6961 42.826 29.5847 40.735C29.2765 34.686 30.1927 28.6713 30.1156 22.6308C30.0814 20.3506 30.1328 18.0704 30.0985 15.7901C30.0985 14.9039 30.2013 14.0864 30.6894 13.3464Z" fill="#006298"/>
<path d="M30.6894 13.3457C30.3897 14.4471 30.2698 15.5657 30.2783 16.7101C30.2955 24.6952 30.3126 32.6718 30.227 40.6569C30.2098 42.5671 30.638 44.159 32.0423 45.4497C32.6331 46.0606 33.4038 46.0434 34.183 46.1725C36.4436 46.5511 38.6785 45.9832 40.922 46.1466C41.3929 46.1811 42.0266 45.9315 42.2749 46.4736C42.5232 47.0243 42.2235 47.6008 41.8382 48.0397C40.8021 49.2529 39.3892 49.9671 37.8993 49.7606C36.5635 49.5713 35.947 50.0187 35.4503 51.0685C31.0747 51.1029 29.9016 52.2732 29.9016 56.6443C29.9016 77.9322 29.9016 99.2201 29.893 120.508C29.893 121.007 29.893 121.506 29.893 122.005C29.8844 122.435 29.9016 122.917 29.482 123.15C28.9853 123.425 28.7199 122.943 28.4373 122.668C24.3443 118.796 20.7479 114.519 17.6823 109.761C14.5312 104.865 12.2535 99.5901 10.4296 94.109C9.17085 90.3229 8.7427 86.339 8.2118 82.4153C7.09007 74.1118 8.40875 66.0062 10.6437 58.0211C12.2449 52.2904 14.7967 46.9555 18.0677 42.0422C21.0904 37.5076 24.5326 33.2311 28.797 29.7462C29.6789 29.0234 29.9358 28.2662 29.9273 27.1906C29.8759 23.3357 29.9101 19.4722 29.9101 15.6173C29.9016 14.7655 29.7389 13.8534 30.6894 13.3457Z" fill="#DCE4F3"/>
<path d="M105.82 45.8119C107.73 44.7191 108.457 43.1101 108.44 40.8729C108.372 32.6984 108.449 24.524 108.466 16.3496C109.219 18.7159 108.646 21.1424 108.808 23.5345C108.86 24.2487 108.894 24.9715 108.8 25.6771C108.449 28.3187 109.356 30.1515 111.352 32.1047C121.285 41.8624 127.219 53.8745 129.18 67.6247C130.721 78.4064 129.351 88.9384 125.309 99.1866C122.74 105.709 119.067 111.414 114.785 116.826C114.443 117.265 113.938 117.575 113.509 117.936C112.876 116.766 113.766 116.017 114.366 115.312C116.772 112.515 118.63 109.314 119.752 105.898C120.942 102.267 122.192 98.3778 119.88 94.5745C119.538 94.0152 119.324 93.3096 119.589 92.7159C120.677 90.3152 119.375 88.448 118.33 86.5119C117.825 85.5654 117.2 84.6964 116.566 83.8359C115.094 81.8224 114.374 79.7057 115.496 77.2447C116.155 75.7905 116.19 74.3364 115.051 73.0371C114.914 72.8822 114.743 72.6757 114.734 72.4864C114.623 68.7778 112.559 65.8952 110.59 63.0729C110.221 63.5719 110.367 64.4668 110.093 65.2326C109.853 65.9124 109.922 66.8675 108.817 66.9019C108.817 63.331 108.834 59.7687 108.8 56.1978C108.766 52.8075 106.993 51.0522 103.679 51.0436C101.83 51.035 99.9887 51.035 98.1391 51.035C98.2847 50.1057 97.8737 49.4775 97.1629 48.901C96.4694 48.3417 95.5531 47.6447 95.9128 46.6552C96.281 45.6398 97.3856 46.2078 98.1562 46.1389C100.717 45.9066 103.303 46.5605 105.82 45.8119Z" fill="#DCE4F3"/>
<path d="M108.834 66.9276C110.153 65.2497 109.271 62.7974 110.983 61.1797C111.763 61.696 111.12 62.7199 111.557 63.3825C113.347 66.1102 114.571 68.9755 115.505 72.1936C116.147 74.4222 116.712 76.1776 115.787 78.2341C114.957 80.0755 115.702 81.6588 116.695 83.0097C117.971 84.7478 118.938 86.6236 120.026 88.4564C120.719 89.6181 120.976 90.642 120.394 91.8467C119.837 92.9911 120.069 93.9462 120.728 95.0304C121.781 96.7513 121.584 98.6013 121.499 100.658C121.302 105.459 118.844 109.125 116.832 113.083C115.924 114.864 113.938 115.871 113.527 117.962C112.362 119.201 111.215 120.457 110.024 121.662C109.382 122.316 108.894 122.221 108.851 121.206C108.834 120.776 108.843 120.354 108.843 119.924C108.843 104.547 108.843 89.1792 108.851 73.8027C109.493 71.8064 109.493 69.8016 108.851 67.8053C108.834 67.4955 108.834 67.2115 108.834 66.9276Z" fill="#D7DFEE"/>
<path d="M105.82 45.8106C104.972 46.8088 103.842 46.2667 102.84 46.3269C101.29 46.4215 99.7318 46.3097 98.1819 46.3699C97.5311 46.3957 96.5549 45.9569 96.2895 46.7829C96.0668 47.4971 97.0858 47.8413 97.4369 48.4264C97.9507 49.2697 99.1067 49.1492 99.6204 49.9064C99.4577 50.7841 98.4644 50.4485 98.1647 51.0508C77.2628 51.0508 56.3522 51.0508 35.4503 51.0508C35.4931 50.4227 35.4503 49.7688 35.6044 49.1664C35.7243 48.676 35.9983 47.8757 36.6662 48.7878C37.0686 49.3471 37.6167 49.4504 38.1561 49.3041C39.5604 48.9169 41.1018 48.7104 41.8382 47.1529C41.958 46.9034 42.0608 46.4818 41.7183 46.456C40.254 46.3183 38.7727 46.1376 37.3341 46.5592C36.5035 46.8001 32.7786 46.1118 32.0422 45.4492C33.1297 45.7934 34.2172 45.9741 35.3732 45.9655C58.0049 45.9483 80.6365 45.9483 103.268 45.9483C104.125 45.9483 104.972 45.8622 105.82 45.8106Z" fill="#D7DFEE"/>
<path d="M55.0678 70.3511C59.6061 70.3511 64.153 70.4371 68.6913 70.3167C70.8321 70.2564 70.8834 71.4353 70.9006 73.0271C70.9177 74.619 70.6522 75.5483 68.717 75.5397C59.6404 75.4622 50.5552 75.4536 41.47 75.5397C39.3293 75.5569 39.2779 74.4211 39.2608 72.8378C39.2436 71.2374 39.5091 70.2822 41.4443 70.3253C45.9826 70.4285 50.5209 70.3511 55.0678 70.3511Z" fill="#DDE6E7"/>
<path d="M55.0849 130.791C50.5466 130.791 46.0083 130.705 41.47 130.825C39.3293 130.885 39.2864 129.707 39.2608 128.123C39.2436 126.523 39.5091 125.602 41.4443 125.619C50.5209 125.697 59.5976 125.705 68.6828 125.619C70.8235 125.602 70.8663 126.729 70.8835 128.321C70.9006 129.922 70.6351 130.868 68.6999 130.825C64.1616 130.722 59.6233 130.791 55.0849 130.791Z" fill="#DEE7E8"/>
<path d="M54.8623 102.938C50.3839 102.938 45.9056 102.878 41.4272 102.964C39.6804 102.999 39.2608 102.241 39.2608 100.641C39.2522 98.9888 39.6118 98.1627 41.5042 98.18C50.6751 98.2574 59.8459 98.2488 69.0168 98.18C70.6009 98.1713 70.9691 98.8081 70.8835 100.219C70.7978 101.579 71.1061 102.999 68.9483 102.964C64.2472 102.887 59.5548 102.938 54.8623 102.938Z" fill="#DDE6E7"/>
<path d="M49.0396 90.8656C46.8475 90.8656 44.6468 90.857 42.4547 90.8656C40.7079 90.8742 39.4577 90.074 39.4491 88.3015C39.4406 86.4773 40.7678 85.7717 42.4804 85.7717C46.8732 85.7717 51.2659 85.7631 55.6501 85.7803C57.3969 85.7889 58.5872 86.6063 58.5272 88.4391C58.4673 90.1687 57.2514 90.857 55.6244 90.8656C53.4323 90.8656 51.2317 90.8656 49.0396 90.8656Z" fill="#006298"/>
<path d="M49.0738 63.3385C46.8817 63.3385 44.6811 63.3557 42.489 63.3299C40.8021 63.3127 39.4663 62.6243 39.4491 60.7915C39.432 58.9501 40.7421 58.2617 42.4547 58.2617C46.8475 58.2617 51.2402 58.2617 55.6244 58.2617C57.2514 58.2617 58.4758 58.8985 58.5272 60.6624C58.5786 62.4952 57.4055 63.3213 55.6587 63.3385C53.4666 63.3557 51.2659 63.3385 49.0738 63.3385Z" fill="#006298"/>
<path d="M49.0995 118.399C46.8989 118.399 44.6897 118.39 42.489 118.399C40.7679 118.399 39.4406 117.694 39.4577 115.869C39.4749 114.08 40.7507 113.314 42.4976 113.322C46.8304 113.331 51.1718 113.331 55.5046 113.322C57.2428 113.322 58.5101 114.037 58.5187 115.878C58.5273 117.737 57.2343 118.416 55.5046 118.408C53.3638 118.39 51.2317 118.399 49.0995 118.399Z" fill="#006298"/>
<path d="M108.834 67.7871C110.144 69.7834 110.144 71.7883 108.834 73.7845C108.834 71.7797 108.834 69.7834 108.834 67.7871Z" fill="#DCE4F3"/>
<path d="M55.2648 33.7734C59.178 33.7734 63.0827 33.7648 66.9959 33.7734C69.7703 33.782 70.8492 34.5048 70.815 36.3375C70.7807 38.0843 69.7361 38.7899 67.0987 38.7899C59.0667 38.7985 51.0347 38.7985 43.0028 38.7899C40.4767 38.7899 39.3379 37.9638 39.3807 36.2257C39.4149 34.5564 40.5024 33.782 42.9086 33.782C47.0188 33.7647 51.1461 33.7734 55.2648 33.7734Z" fill="#FEFEFE"/>
<path d="M49.1937 21.4939C51.3944 21.4939 53.595 21.4939 55.7957 21.4939C57.4911 21.4939 58.5444 22.2511 58.5444 24.0237C58.5358 25.7704 57.5254 26.5965 55.8214 26.5965C51.2745 26.5965 46.7276 26.6051 42.1807 26.5965C40.511 26.5879 39.3978 25.7962 39.3807 24.0667C39.3721 22.3286 40.4853 21.5283 42.1465 21.5025C44.5013 21.4767 46.8475 21.4939 49.1937 21.4939Z" fill="#DDE6E7"/>
</svg>
