<svg width="126" height="126" viewBox="0 0 126 126" fill="none" xmlns="http://www.w3.org/2000/svg">
<g clip-path="url(#clip0)">
<path d="M111.067 41.0535C111.067 60.5886 110.899 80.1326 111.199 99.6676C111.261 103.607 109.245 105.589 106.964 107.891C103.242 111.644 98.8567 114.511 94.489 117.415C92.1902 118.946 89.9091 120.026 87.0002 120.008C70.7054 119.911 54.4105 119.946 38.1157 119.973C35.4632 119.982 33.4916 118.38 31.2635 117.388C30.9099 117.229 30.4855 116.839 30.7242 116.335C30.9541 115.848 31.4846 115.999 31.9001 115.999C35.6401 115.99 39.3888 116.007 43.1288 115.981C43.898 115.972 44.7645 116.264 45.4187 115.565C46.8334 112.688 46.3029 111.821 42.9962 111.776C39.6276 111.732 36.259 111.874 32.8992 111.732C30.6535 111.635 28.8586 112.077 27.7977 114.228C26.1708 114.671 25.4193 113.29 24.429 112.52C21.1931 110.015 18.0632 107.395 15.5964 104.076C14.8537 103.075 14.562 102.049 14.562 100.818C14.6062 81.8232 14.5885 62.8457 14.615 43.8594C14.615 42.7796 14.8891 41.6997 15.0394 40.6198C15.6937 38.6105 17.4443 38.8141 19.0092 38.6636C28.5492 38.4689 38.0803 38.7876 47.6203 38.6725C49.0879 38.6548 50.5556 38.7168 52.0233 38.6194C59.3618 38.5574 66.7002 38.5486 74.0386 38.6105C82.9066 38.761 91.7746 38.6725 100.634 38.584C102.614 38.5663 104.595 38.522 106.566 38.6548C107.751 38.6813 108.936 38.6636 110.015 39.2655C110.634 39.6993 111.297 40.1153 111.067 41.0535Z" fill="#FEFEFE"/>
<path d="M7.10858 34.4419C9.04487 29.9896 11.883 26.1038 14.9863 22.457C17.3824 19.6423 20.1851 17.1727 22.8022 14.5527C23.2178 14.1367 23.6333 13.7207 24.2876 13.7295C25.8967 13.1453 27.3291 12.1894 28.5403 11.0564C29.8842 9.80836 31.4227 9.25072 33.1114 9.21531C36.4181 9.15335 39.6806 8.62227 42.9962 8.63112C55.0383 8.67538 67.0715 8.71078 79.1136 8.61342C83.5255 8.57801 87.9021 9.00288 92.3051 9.13565C95.3643 9.22416 97.4686 11.3131 99.8735 12.8355C103.03 14.836 105.364 17.8012 108.432 19.8901C111.482 22.1738 113.313 25.4931 115.505 28.476C117.052 30.5826 118.14 33.0256 119.44 35.3182C118.538 35.9112 117.919 35.1854 117.265 34.7959C112.11 31.751 106.584 29.7683 100.802 28.2105C94.8073 26.5995 88.7332 25.8294 82.5972 25.2364C80.7316 25.0505 78.8838 24.4663 76.9917 24.245C76.3463 24.006 75.9749 23.4484 75.5328 22.9704C74.7371 22.103 73.7822 21.5985 72.6063 22.0499C71.395 22.519 71.1475 23.5635 71.1917 24.7407C71.2182 25.3692 71.5276 26.0507 70.9264 26.5995C70.7761 26.6084 70.5374 26.6172 70.5109 26.5375C69.7859 24.1123 67.2749 24.0414 65.6481 22.8022C63.4907 20.5097 62.1292 20.7045 59.406 23.7051C57.9118 23.9352 56.5236 24.2981 56.0374 26.0242C55.9578 26.2897 55.5599 26.272 55.277 26.2366C54.4901 25.7055 54.9322 24.9266 54.8791 24.245C54.7553 22.6872 53.8358 21.7755 52.377 21.864C50.927 21.9525 50.1313 22.7314 50.0694 24.2185C50.0428 24.9089 50.4142 25.679 49.7245 26.2632C49.0703 26.4844 48.5221 26.3605 48.3187 25.6613C47.9828 24.5283 47.1517 24.4132 46.2322 24.6345C41.0864 25.8737 35.7462 25.7409 30.5916 26.9093C24.0842 28.3875 17.6653 30.1401 11.6177 33.061C10.2119 33.7426 8.85035 34.7782 7.10858 34.4419Z" fill="#E5EDFB"/>
<path d="M7.10855 34.4411C13.0412 31.7857 18.965 29.2276 25.322 27.5813C31.2989 26.0323 37.2934 25.2357 43.3852 24.7577C44.7114 24.6515 45.7724 23.6601 47.187 23.8371C48.1949 23.9611 49.194 23.8371 48.858 25.3596C48.6547 26.2713 49.3885 25.988 49.8306 26.0765C51.5901 27.2803 53.3584 26.5634 55.1178 26.0765C55.3212 26.0057 55.6925 25.9261 55.6925 25.8641C55.6306 22.9343 57.7172 23.4211 59.5032 23.43C60.3697 24.0938 59.8126 25.3684 60.6172 26.0588C60.8913 26.3244 61.1831 26.5634 61.4925 26.7847C62.6773 27.776 63.8267 27.0768 64.9938 26.7315C65.2148 26.7315 65.427 26.767 65.648 26.8201C69.1758 28.0504 72.8981 27.7583 76.5231 28.0416C88.0524 28.9533 99.2634 31.0776 109.855 35.8928C114.064 37.8135 117.928 40.3362 121.535 43.2306C122.393 43.9122 122.994 44.753 123.241 45.9303C123.463 46.9659 123.489 48.1254 124.276 48.9929C124.276 49.4354 124.276 49.878 124.285 50.3206C123.012 50.5507 122.525 49.4532 121.818 48.7981C118.794 46.0011 115.532 43.5404 111.977 41.4692C111.818 41.3364 111.659 41.2036 111.509 41.062C111.173 40.5132 110.757 40.0529 110.183 39.7431C109.175 39.4953 108.167 39.1678 107.106 39.3006C106.16 38.4597 105.055 37.8666 103.879 37.4683C98.5384 35.6538 93.1185 34.2199 87.5749 33.078C79.0517 31.3254 70.4401 30.8475 61.8285 30.7766C55.6306 30.7235 49.362 30.9714 43.2437 32.0778C36.6303 33.2728 29.9815 34.3969 23.6068 36.6717C21.8031 37.3179 20.1144 38.1676 18.5583 39.2917C17.1878 39.2121 16.0208 39.6723 15.0394 40.6194C14.7476 40.9115 14.4558 41.2125 14.1641 41.5046C9.38966 43.1686 6.00337 46.6827 2.62592 50.2055C2.25458 50.595 2.18385 51.3562 1.37927 51.1969C2.2369 45.2487 4.20855 39.69 7.10855 34.4411Z" fill="#E3EBF9"/>
<path d="M108.423 19.8985C106.54 18.5708 104.25 18.084 102.871 15.6853C102.101 14.3487 99.5905 13.7468 98.22 12.4014C94.4712 8.71919 89.6084 9.54237 85.2584 9.445C70.2898 9.1175 55.3123 9.26797 40.3348 9.35649C37.1431 9.37419 33.9513 9.94068 30.7595 10.1797C29.9638 10.2416 29.6632 10.7373 29.1857 11.1887C27.8064 12.5076 26.4183 13.8619 24.2875 13.7202C28.7436 9.56892 34.0927 6.84269 39.6364 4.58557C48.2126 1.10696 57.2221 -0.495144 66.4526 0.115604C77.1066 0.823718 87.0975 3.91286 96.213 9.64859C100.758 12.5253 105.01 15.703 108.423 19.8985Z" fill="#E7EFFD"/>
<path d="M124.276 48.9836C123.781 48.7446 123.427 48.3728 123.418 47.8063C123.392 45.2925 121.703 43.956 119.899 42.646C114.435 38.6805 108.565 35.6179 102.11 33.5024C97.0972 31.8561 91.9603 31.0594 86.8587 29.9353C80.3425 28.5014 73.7026 28.8554 67.1776 27.8641C66.3553 27.7402 65.5507 27.7756 65.2059 26.8285C64.8257 25.4122 65.8602 24.1288 65.5684 22.7214C65.6303 22.6417 65.701 22.5621 65.7629 22.4824C66.8239 22.8719 67.7434 23.6508 69.0078 23.4472C69.8654 23.3145 70.1218 23.9341 70.0953 24.6864C70.0687 25.4476 70.1748 26.1469 70.9794 26.501C71.4126 26.4125 71.837 26.4479 72.2526 26.5806C74.7724 27.3684 75.63 25.4299 76.7087 23.8544C84.1709 24.9254 91.7127 25.2087 99.0865 27.1648C103.322 28.2978 107.504 29.5282 111.58 31.0595C113.878 31.918 115.947 33.4051 118.096 34.6531C118.538 34.9098 118.883 35.3081 119.44 35.3081C121.562 39.6984 123.171 44.2569 124.276 48.9836Z" fill="#E3EBF9"/>
<path d="M88.5121 120.495C72.9511 127.718 53.3407 127.904 37.983 120.69C39.9458 120.274 80.8112 120.097 88.5121 120.495Z" fill="#F3F4F7"/>
<path d="M1.37927 51.1965C3.96098 46.9478 8.11648 44.4163 11.9979 41.6016C12.4842 41.2475 13.4125 40.5836 14.1641 41.5042C14.1641 44.1508 14.1552 46.7885 14.1552 49.4351C13.5009 50.2494 12.6168 50.7893 11.7769 51.347C7.5241 54.1529 4.98659 58.4901 1.88323 62.3227C1.24664 63.1105 0.963716 64.0222 1.11402 64.9782C1.52073 67.6425 1.3439 70.3687 1.92744 73.0153C1.93628 74.4138 2.90884 75.8389 1.83018 77.2108C0.45091 74.3872 0.56585 71.2804 0.291764 68.2798C-0.238726 62.5352 -0.123786 56.8083 1.37927 51.1965Z" fill="#E2EAF8"/>
<path d="M14.1552 63.9783C14.1552 67.5012 14.1552 71.0329 14.1552 74.5558C11.2994 78.7514 9.54883 83.4072 8.40827 88.3286C8.13419 89.5058 7.97504 90.7716 7.10858 91.7452C5.55247 89.6297 4.96009 87.0894 4.0229 84.6995C2.01588 80.9022 4.33235 77.7246 5.71162 74.5646C7.08205 71.4401 8.85035 68.4306 11.0519 65.7663C11.8122 64.8458 12.4488 63.3941 14.1552 63.9783Z" fill="#DCE3F1"/>
<path d="M122.534 82.4965C121.862 85.6387 120.828 88.6305 118.998 91.3125C118.281 91.1001 117.954 90.5247 117.777 89.8874C116.398 84.6739 114.727 79.5755 111.951 74.9108C111.801 74.663 111.739 74.3709 111.73 74.0699C111.73 71.025 111.73 67.9801 111.73 64.9352C112.508 63.4305 113.259 64.4307 113.825 65.0503C115.302 66.679 116.584 68.4847 117.601 70.4143C119.652 74.2647 121.836 78.0796 122.534 82.4965Z" fill="#DCE3F1"/>
<path d="M1.3881 72.7945C0.742676 69.7319 0.282919 66.5631 0.654262 63.5182C0.919506 61.3673 3.28902 59.9687 4.41189 58.048C6.14482 55.0828 8.74422 53.0558 11.3525 50.9668C12.2366 50.2587 13.0765 49.6745 14.1641 49.4355C14.1641 51.79 14.1641 54.1357 14.1641 56.4901C12.1659 58.7915 9.90245 60.8362 8.16068 63.3854C6.47196 65.8549 4.78324 68.2891 3.4747 70.9888C3.04146 71.8474 2.74969 72.9626 1.3881 72.7945Z" fill="#DFE7F5"/>
<path d="M1.38812 72.7936C3.51892 70.988 3.97868 68.1378 5.63203 66.0135C8.25796 62.6322 10.2296 58.6845 14.1641 56.4805C14.1641 58.9766 14.1641 61.4727 14.1641 63.9688C11.5293 64.8008 10.4418 67.2615 9.30125 69.2885C7.82472 71.9085 6.136 74.4312 5.10155 77.3787C4.24392 79.8305 3.35093 82.0876 4.03173 84.69C2.73203 82.362 2.35184 79.7597 1.8302 77.2017C1.67989 75.7323 1.52959 74.263 1.38812 72.7936Z" fill="#DEE5F3"/>
<path d="M122.534 82.496C120.943 79.7255 120.103 76.6275 118.732 73.7419C117.247 70.5997 115.169 67.9265 113.268 65.1029C112.976 64.6692 112.517 64.4214 111.96 64.4214C111.482 62.2793 111.871 60.1107 111.739 57.9598C112.366 56.3577 113.206 57.3402 113.834 57.8802C116.46 60.1461 118.723 62.8016 120.492 65.7402C122.03 68.2983 123.79 70.7855 124.736 73.68C124.4 76.716 124.081 79.7609 122.534 82.496Z" fill="#DEE6F4"/>
<path d="M124.727 73.672C122.799 71.5919 121.906 68.8745 120.341 66.582C117.99 63.1211 115.726 59.5362 111.951 57.3588C111.473 55.6328 111.862 53.8713 111.73 52.1276C112.145 50.7733 113.021 51.2956 113.79 51.6673C114.851 52.1807 115.691 53.0127 116.504 53.8536C120.182 57.642 123.445 61.7225 125.505 66.6528C125.134 68.2372 125.673 69.8924 125.16 71.468C125.063 72.2203 125.443 73.0524 124.727 73.672Z" fill="#DFE7F5"/>
<path d="M27.8153 114.218C27.7446 112.271 28.5934 111.147 30.6181 111.147C35.2157 111.129 39.8132 111.164 44.4108 111.129C45.7724 111.12 46.7803 111.74 47.0721 112.944C47.3639 114.147 46.8953 115.254 45.4364 115.564C40.6443 115.564 35.8523 115.519 31.069 115.572C29.7339 115.581 28.6464 115.28 27.8153 114.218Z" fill="#DDE1E7"/>
<path d="M125.169 71.4751C125.169 69.7136 125.169 67.9433 125.169 66.1819C125.116 65.6774 124.966 65.164 125.036 64.6506C125.77 58.8795 122.976 54.7105 118.821 51.2319C116.814 49.5501 115.072 47.4966 112.552 46.4875C112.145 46.3193 111.801 46.0272 111.747 45.5227C111.862 44.0357 111.5 42.5221 111.96 41.0527C114.497 41.7254 116.159 43.7878 118.317 45.0713C120.633 46.4432 122.163 48.7181 124.294 50.3113C126.194 57.1004 126.38 63.9868 125.531 70.944C125.496 71.1299 125.293 71.298 125.169 71.4751Z" fill="#E2EAF8"/>
<path d="M7.10858 91.7461C8.15188 85.9042 9.75219 80.257 13.1208 75.2648C13.386 74.8753 13.6601 74.5832 14.1464 74.5566C14.1464 77.6458 14.1464 80.7261 14.1464 83.8152C12.8998 87.0194 11.8299 90.2768 11.1933 93.658C11.0077 94.6671 10.9016 95.7204 9.74334 96.163C8.51438 94.8972 7.89547 93.2686 7.10858 91.7461Z" fill="#D9E0EE"/>
<path d="M117.238 94.3823C116.009 97.1351 114.267 99.5515 112.393 101.879C111.173 101.561 111.774 100.561 111.774 99.9144C111.721 93.8423 111.748 87.7703 111.739 81.6982C112.879 80.22 113.33 81.4857 113.702 82.2824C114.948 84.9289 115.841 87.7171 116.442 90.5762C116.708 91.8419 117.45 93.0191 117.238 94.3823Z" fill="#D9E0ED"/>
<path d="M117.238 94.3838C115.655 92.41 115.965 89.8253 115.045 87.6302C114.32 85.8865 113.781 84.0631 113.144 82.2839C112.941 81.7351 112.685 81.1864 111.96 81.1686C111.606 78.9646 111.606 76.7606 111.96 74.5566C113.525 76.3977 114.745 78.4513 115.532 80.7349C116.734 84.2401 117.857 87.7807 119.006 91.3035C118.67 92.4808 118.343 93.658 117.238 94.3838Z" fill="#DAE1EE"/>
<path d="M9.7522 96.1622C10.6275 93.0996 11.5205 90.037 12.387 86.9656C12.7229 85.7706 13.0324 84.5668 14.1641 83.8145C14.1641 89.8511 14.1641 95.8789 14.1641 102.447C12.2013 100.278 10.6806 98.437 9.7522 96.1622Z" fill="#D7DFEC"/>
<path d="M111.951 74.5554C111.951 76.7594 111.951 78.9634 111.951 81.1674C111.951 87.3103 111.942 93.462 111.96 99.6049C111.96 100.375 111.668 101.234 112.384 101.88C112.066 102.19 111.686 102.278 111.597 101.765C111.482 101.127 111.509 100.455 111.509 99.7996C111.509 80.2203 111.509 60.6409 111.5 41.0527C111.65 41.0527 111.792 41.0527 111.942 41.0527C111.942 42.6725 111.942 44.2835 111.942 45.9033C112.959 47.8152 112.959 49.7271 111.942 51.6302C111.942 53.5421 111.942 55.454 111.942 57.3571C111.942 59.7115 111.942 62.0572 111.942 64.4116C111.951 67.7929 111.951 71.1741 111.951 74.5554Z" fill="#E3EBF9"/>
<path d="M110.183 39.7344C111.022 39.7698 111.465 40.2124 111.509 41.0532C111.358 41.0532 111.217 41.0532 111.067 41.0444C110.775 40.6107 110.483 40.1769 110.183 39.7344Z" fill="#E3EBF9"/>
<path d="M96.0893 90.4271C97.6896 90.8077 98.3969 91.8433 98.2908 93.4632C98.1494 95.499 98.5826 97.5437 97.9725 99.5706C97.5658 100.898 96.8231 101.465 95.435 101.456C74.1182 101.438 52.8014 101.438 31.4846 101.456C30.1053 101.456 28.9648 100.81 28.841 99.6238C28.558 96.9418 28.5227 94.2244 28.8852 91.5247C28.9382 91.1352 29.3361 90.79 29.5837 90.4183C30.344 90.0111 31.1663 90.2147 31.962 90.2147C44.8706 90.197 57.7792 90.2058 70.6789 90.197C72.12 89.7367 73.5877 89.6836 75.0731 89.958C79.6972 92.4541 84.3213 92.7727 88.9454 89.958C91.3414 89.9049 93.7109 90.2324 96.0893 90.4271Z" fill="#F3F4F7"/>
<path d="M18.5671 39.2923C19.5662 36.8227 22.0153 36.4864 24.0665 35.8579C29.3361 34.2381 34.7294 33.1317 40.158 32.0784C45.5602 31.0339 50.9712 31.0339 56.3468 30.3789C62.0054 29.6885 67.5755 30.4055 73.1722 30.5648C77.867 30.6976 82.5264 31.5119 87.1859 32.3351C92.9329 33.353 98.4853 34.9905 103.994 36.7785C105.196 37.1679 106.947 37.3892 107.115 39.3011C96.0981 39.3011 85.0905 39.3011 74.074 39.3011C74.5426 37.8407 75.8246 38.239 76.806 38.2301C82.3054 38.1593 87.796 38.2124 93.7905 38.1947C72.9157 32.8485 52.5273 32.7776 31.6614 38.1947C37.8593 38.2036 43.5885 38.1682 49.309 38.2301C50.2904 38.239 51.5724 37.8407 52.041 39.3011C40.883 39.2923 29.7251 39.2923 18.5671 39.2923Z" fill="#E2EAF8"/>
<path d="M27.8595 71.8036C26.94 68.7853 27.3025 65.6873 27.5236 62.6512C27.6474 61.0137 28.9294 59.9693 30.7419 59.9161C31.2547 59.8984 31.7675 59.8984 32.2803 59.8984C53.0136 59.8984 73.7557 59.8984 94.489 59.8984C98.3174 59.8984 99.2899 60.8278 99.2103 64.7225C99.1661 67.1123 99.6789 69.5642 98.7329 71.901C98.503 72.2816 98.2643 72.7507 97.8487 72.8392C94.6393 73.5119 91.4298 74.5475 88.1408 73.1933C88.1938 72.0514 89.1399 72.2639 89.7676 72.2727C90.6341 72.2727 91.5094 72.3347 92.2256 72.3789C90.9259 72.0691 89.2813 72.7153 87.9728 71.5646C88.3265 70.1572 89.5112 70.5555 90.4396 70.4228C92.1902 70.1749 94.0381 70.945 95.7003 69.8917C96.6728 67.7408 96.5844 65.581 95.8506 63.4036C95.1167 62.722 94.2061 62.8548 93.3396 62.8548C73.2606 62.8637 53.1904 62.8371 33.1114 62.8548C32.3864 62.8548 31.6437 62.784 30.9717 63.1735C29.5129 65.3952 30.2202 67.7408 30.5916 70.0599C30.7596 70.3962 31.0248 70.6087 31.3696 70.7414C36.144 70.9981 40.9184 70.8034 45.684 70.8476C54.1276 70.9185 62.5624 70.7414 70.9972 70.9362C71.7575 72.5294 73.4551 71.9364 74.6575 72.5029C74.7194 72.7419 74.6841 72.972 74.578 73.1933C74.2243 73.6358 73.7203 73.7598 73.1987 73.8306C59.0346 73.0871 44.8617 73.6004 30.6977 73.45C29.4422 73.4323 28.4254 73.0074 27.8595 71.8036Z" fill="#006298"/>
<path d="M52.041 39.2926C51.316 38.5314 50.3788 38.8677 49.5388 38.8677C43.0227 38.8412 36.5153 38.85 29.8754 38.85C35.808 32.1938 85.2673 31.8928 95.4703 38.3632C94.8603 39.1687 93.9938 38.8323 93.2776 38.8323C87.6368 38.8589 81.9871 38.8412 76.3462 38.8589C75.577 38.8589 74.7105 38.5668 74.0651 39.2838C66.7267 39.2926 59.3794 39.2926 52.041 39.2926Z" fill="#E1E8F6"/>
<path d="M27.8596 71.8027C29.0178 72.98 30.4147 73.3163 32.0504 73.3163C44.959 73.2809 57.8676 73.2986 70.7761 73.3163C71.7222 73.3163 72.6682 73.4491 73.6054 73.5199C73.8088 75.2105 72.7831 76.6622 72.8097 78.3882C72.8804 82.6103 75.0112 85.5136 78.3887 87.4875C83.1188 90.2491 88.7951 87.1777 89.4936 81.6809C90.1744 79.6894 90.024 77.742 89.3698 75.7593C88.5829 73.3606 88.6801 73.2986 91.3856 73.6527C94.0823 79.4858 92.5439 84.5222 88.3884 89.1781C89.467 89.6826 90.7933 89.063 91.6862 89.9924C93.1451 90.196 94.7012 89.5321 96.0893 90.435C93.596 90.435 91.0939 90.435 88.6006 90.435C88.0347 90.7625 87.4423 91.1077 86.7792 91.0811C82.9774 90.9484 79.1225 91.8158 75.3914 90.435C73.9237 90.435 72.456 90.435 70.9883 90.435C70.8469 90.3376 70.7938 90.2402 70.8469 90.1429C70.8911 90.0455 70.9441 89.9924 70.9883 89.9924C72.3499 89.0099 73.9856 89.6295 75.6566 89.2489C74.4807 87.6202 72.792 86.6023 71.899 84.9205C70.5816 82.4421 69.945 79.7513 70.502 77.0605C70.9353 74.9184 70.2545 74.0775 68.3447 73.7412C55.9755 73.7235 43.6062 73.7146 31.237 73.6792C29.8135 73.6615 28.1602 73.9094 27.8596 71.8027Z" fill="#F8F8F8"/>
<path d="M37.5498 85.586C35.2068 85.586 32.8549 85.586 30.512 85.586C28.9824 85.586 27.8065 84.9753 27.8949 83.3289C27.9656 81.9215 29.0177 81.178 30.4677 81.178C35.1626 81.178 39.8486 81.1691 44.5434 81.1868C46.0907 81.1957 47.1428 82.01 47.1163 83.5502C47.0897 84.993 46.1349 85.6745 44.5876 85.6126C42.2446 85.5152 39.9016 85.586 37.5498 85.586Z" fill="#DDE1E7"/>
<path d="M37.5233 56.4814C35.251 56.4814 32.9876 56.4726 30.7153 56.4814C29.1062 56.4903 27.886 55.8176 27.8949 54.1447C27.9037 52.5071 29.1946 52.0557 30.68 52.0646C35.2156 52.0823 39.7513 52.0823 44.287 52.0646C45.8696 52.0557 47.2047 52.5603 47.1074 54.3305C47.0279 55.8441 45.8519 56.508 44.3224 56.4903C42.0589 56.4637 39.7867 56.4814 37.5233 56.4814Z" fill="#DDE1E7"/>
<path d="M68.3359 73.7323C68.7779 73.7146 69.22 73.7411 69.6532 73.6703C71.4215 73.4048 71.5365 73.9624 71.2005 75.6796C70.1926 80.8134 71.5984 85.2391 75.9484 88.4699C76.3462 88.762 77.0712 88.9302 76.9121 89.5144C76.7087 90.2667 75.9219 89.9481 75.3825 89.9658C73.9148 90.0012 72.4471 89.9835 70.9795 89.9835C71.3154 89.3196 71.6779 88.6115 71.2093 87.9034C68.2916 83.5751 67.2837 78.8661 68.3359 73.7323Z" fill="#FCFCFC"/>
<path d="M91.6862 89.9847C90.4484 89.9847 89.2106 89.9847 87.9817 89.9758C87.628 89.9758 87.1771 90.0112 87.0975 89.5598C87.0621 89.3474 87.2567 89.011 87.4512 88.8517C92.2963 84.9748 92.9417 79.9914 91.2972 74.3885C91.2353 74.1849 91.2707 73.9548 91.2619 73.7335C91.9957 73.2998 92.7295 73.2998 93.4634 73.7335C94.3122 78.2566 94.2503 82.7 92.1106 86.9044C91.589 87.9223 91.1823 88.8694 91.6862 89.9847Z" fill="#FBFBFB"/>
<path d="M93.4545 73.7411C92.7207 73.7411 91.9868 73.7411 91.253 73.7411C90.6252 73.7323 89.971 73.511 89.3079 73.9536C90.1743 76.4408 91.3414 78.9369 89.9179 81.61C89.6881 81.6897 89.4847 81.6454 89.3167 81.4684C88.3265 79.6096 89.467 77.4056 88.2646 75.2282C88.2823 75.2813 87.9817 75.6884 88.2381 75.5557C88.3265 75.5114 88.3707 75.5645 88.4326 75.6707C88.6713 76.0779 88.6359 76.5116 88.5387 76.9453C88.3088 77.4853 88.1054 78.1668 87.3804 78.0252C86.8234 77.919 86.7881 77.2728 86.6908 76.7683C86.6112 75.9097 86.6289 75.0511 86.6554 74.2014C86.6996 72.7852 86.6201 71.4663 85.0021 70.8644C84.6661 70.7405 84.4804 70.3864 84.7987 70.0058C87.1063 69.0764 89.4316 70.3156 91.7481 69.9527C93.3484 70.0147 95.0283 69.5102 96.4871 70.59C94.3829 71.6699 92.1283 70.7582 89.971 71.0857C89.3256 71.1831 88.2646 70.5281 88.185 71.9089C88.4326 72.1921 88.4237 72.4842 88.2381 72.794C91.81 73.4402 95.3908 74.1837 98.7152 71.9089C98.5207 73.4048 97.3536 73.573 96.2131 73.6792C95.3024 73.75 94.374 73.7234 93.4545 73.7411Z" fill="#F1F1F2"/>
<path d="M70.9794 89.9841C70.9794 90.1345 70.9794 90.2762 70.9794 90.4266C57.1779 90.4266 43.3763 90.4266 29.5748 90.4266C30.2998 89.6654 31.237 90.0018 32.0769 90.0018C45.0474 89.9752 58.0178 89.9841 70.9794 89.9841Z" fill="#FCFCFC"/>
<path d="M55.1178 26.0683C52.6687 27.9448 51.4751 27.9448 49.8306 26.0683C49.0525 23.1031 49.7952 21.4921 52.041 21.2266C54.8172 20.9168 56.0108 22.7933 55.1178 26.0683Z" fill="#FEFEFE"/>
<path d="M76.7087 23.8643C76.1163 27.2898 74.2242 28.1661 70.9883 26.5109C70.8733 26.0949 70.7142 25.6877 70.6434 25.2629C70.3782 23.6431 70.5639 22.1649 72.3145 21.4745C73.9855 20.8106 75.2587 21.4922 76.2136 22.9084C76.4169 23.2005 76.5407 23.5457 76.7087 23.8643Z" fill="#FDFEFE"/>
<path d="M60.458 26.5105C58.9992 25.8377 59.7154 24.4835 59.5032 23.4213C59.7949 21.7572 60.7587 20.8544 62.4651 20.7836C63.8885 20.7305 65.3209 20.6508 65.7541 22.4919L65.6922 22.545C65.2236 22.784 64.8611 22.483 64.4632 22.3237C61.8904 21.2881 60.5465 22.2441 60.626 25.0411C60.6526 25.5368 60.8294 26.059 60.458 26.5105Z" fill="#E2EAF8"/>
<path d="M60.4581 26.5101C60.3431 25.5984 59.6889 24.8018 59.9099 23.8016C60.1575 22.6597 60.7498 21.8277 61.8373 21.3763C63.4376 20.7124 64.5959 21.5356 65.7011 22.5358C66.6029 24.0936 65.7453 25.4391 65.1971 26.8287C65.0556 26.8553 64.923 26.8996 64.7992 26.9792C63.6322 27.6608 62.4651 28.121 61.2892 26.9969C61.0151 26.8376 60.741 26.6694 60.4581 26.5101Z" fill="#006298"/>
<path d="M61.298 26.9982C62.4739 27.5912 63.641 27.3611 64.808 26.9805C63.641 28.14 62.4739 28.3967 61.298 26.9982Z" fill="#E2EAF8"/>
<path d="M111.951 51.639C111.951 49.7271 111.951 47.8152 111.951 45.9121C115.205 46.1777 116.831 48.9481 119.051 50.7184C121.146 52.3914 122.897 54.5422 124.577 56.6489C125.823 58.2067 125.142 60.3134 125.514 62.1545C125.77 63.4114 126.044 64.9161 125.16 66.1907C123.745 65.2259 123.454 63.5176 122.561 62.2076C120.456 59.1184 118.158 56.2152 115.461 53.6306C114.471 52.6746 113.498 51.6301 111.951 51.639Z" fill="#E1E9F7"/>
<path d="M75.3914 90.4258C79.7944 90.4258 84.1975 90.4258 88.6094 90.4258C87.5219 92.6829 85.2054 92.3288 83.446 92.4174C80.6609 92.5501 77.6106 92.8865 75.3914 90.4258Z" fill="#F1F2F5"/>
<path d="M30.0169 70.59C29.3891 67.9435 29.3272 65.3057 30.0522 62.668C30.6535 62.2697 31.3342 62.4467 31.9797 62.4467C45.6309 62.4379 59.2822 62.429 72.9334 62.4556C73.6054 62.4556 74.5603 62.0396 74.9051 62.8716C75.2057 63.5974 74.5249 64.2613 74.0033 64.7481C72.2084 66.4122 71.9344 68.9348 70.4932 70.7936C69.724 71.1388 68.9106 71.0237 68.1148 71.0237C56.338 71.0326 44.5611 71.0326 32.7931 71.0237C31.8471 71.0237 30.8833 71.13 30.0169 70.59Z" fill="#FEFEFE"/>
<path d="M70.5462 70.5736C70.723 67.4048 72.5709 65.1123 75.0554 62.6693C59.7242 62.6693 44.8882 62.6693 30.061 62.6693C30.5296 61.8373 31.3431 62.1028 32.0327 62.1028C52.8721 62.0851 73.7115 62.0851 94.5508 62.1028C95.435 62.1028 96.549 61.7665 96.9115 63.0942C95.2758 63.7315 93.6048 63.1915 91.9514 63.2269C88.9807 63.2977 86.0011 63.3774 83.0304 63.1561C83.8968 63.28 84.666 63.6695 85.3026 64.2183C86.9118 65.608 88.6182 66.8295 90.4395 67.9359C91.3414 68.4758 92.3581 69.1839 91.6862 70.5648C89.299 70.9365 86.9648 69.9806 84.5776 70.2461C84.4804 70.255 84.392 70.255 84.2947 70.2638C83.7288 70.2196 83.1542 70.1753 82.5883 70.0691C82.3938 70.0248 82.2081 69.9629 82.0136 69.8921C80.9261 69.5646 80.6874 68.7148 80.5105 67.7058C80.3602 66.8649 80.4929 65.6522 79.0163 65.8293C78.9014 65.9709 78.7953 66.1036 78.698 66.263C78.4505 66.8914 78.5566 67.6438 78.0084 68.1483C76.3108 68.6883 75.0554 69.9009 73.7115 70.9808C72.6151 71.2198 71.5364 71.2463 70.5462 70.5736Z" fill="#FCFCFC"/>
<path d="M91.6862 70.5641C91.642 69.378 90.8462 68.6079 89.9179 68.2538C86.8587 67.0766 85.1789 63.9078 81.9429 62.8987C86.9914 62.9341 91.9603 62.1198 96.9115 63.0934C96.9822 65.5984 97.4597 68.1388 96.496 70.5906C94.8956 70.5818 93.2953 70.5729 91.6862 70.5641Z" fill="#FEFEFE"/>
<path d="M89.4847 81.6107C89.635 81.6107 89.7765 81.6107 89.9268 81.6107C90.1301 84.9389 88.0789 86.8065 85.4972 88.2139C82.5441 89.8249 79.6264 89.3115 77.0801 87.3907C73.8176 84.9123 71.899 81.7081 72.235 77.3355C72.3499 75.8396 73.0395 74.742 73.6054 73.5117C73.8972 73.2639 74.1889 73.0249 74.4895 72.777C75.4179 72.6354 75.4267 73.5117 75.8246 73.9631C76.2755 74.8483 76.6999 75.7511 76.6911 76.7779C76.6203 77.2293 76.4877 77.6276 75.9926 77.7604C75.3295 77.7338 75.1792 77.0523 74.7106 76.7336C73.7203 78.9553 74.9493 80.8849 75.4267 82.8942C77.3365 87.789 83.6139 88.8955 86.9118 84.9123C87.1417 84.6291 87.3539 84.337 87.6191 84.0803C88.4591 83.5226 88.7951 82.6021 89.2548 81.7701C89.3255 81.7258 89.4051 81.6638 89.4847 81.6107Z" fill="#F3F3F3"/>
<path d="M71.8548 71.4929C58.8932 71.4841 45.9316 71.4841 32.9699 71.4575C32.1212 71.4575 31.2016 71.7408 30.4324 71.0946C31.1574 70.5635 31.9974 70.8291 32.7754 70.8291C45.8343 70.8114 58.8932 70.7848 71.952 70.8556C73.6938 70.8645 75.4002 69.9351 77.1508 70.6963C77.646 72.0417 77.4868 72.2011 75.5328 72.3427C74.4277 71.5726 72.8981 72.564 71.8548 71.4929Z" fill="#006298"/>
<path d="M77.5575 71.0865C61.855 71.0865 46.1437 71.0865 30.4412 71.0954C30.2998 70.9272 30.1672 70.759 30.0257 70.5909C43.5355 70.5909 57.0364 70.582 70.5462 70.582C71.7221 70.582 72.8892 70.582 74.0651 70.5732C75.2853 69.8208 76.4789 69.6438 77.6283 70.7059C77.6017 70.8298 77.5752 70.9626 77.5575 71.0865Z" fill="#CDDFF6"/>
<path d="M75.3295 71.8381C76.1429 71.8027 77.142 72.2984 77.5487 71.0857L77.6017 70.9264C77.5929 69.9085 77.1862 68.8463 77.9642 67.9258C78.2029 67.2442 77.584 66.3237 78.5478 65.8457C79.5734 68.2798 79.0694 70.7937 78.8837 73.2809C78.8395 73.9359 78.3532 74.3165 77.6459 74.0598C76.859 73.7766 76.0987 73.7943 75.3295 74.1041C75.0465 73.6615 74.7636 73.2189 74.4807 72.7764C74.4365 72.6436 74.4099 72.5108 74.3834 72.3692C74.4099 71.6788 74.8078 71.6434 75.3295 71.8381Z" fill="#C4D7EF"/>
<path d="M88.2469 72.7945C88.2292 72.5024 88.2115 72.2015 88.1938 71.9094C90.3335 71.0508 92.3493 72.4581 94.4801 71.8297C94.4801 72.1483 94.489 72.4758 94.489 72.7945C92.4112 72.7945 90.3246 72.7945 88.2469 72.7945Z" fill="#006298"/>
<path d="M75.3294 71.8389C75.02 72.016 74.7017 72.193 74.3922 72.37C73.2517 73.025 72.0581 72.8303 70.8557 72.6444C70.6169 71.6973 71.7133 72.0248 71.8547 71.4849C73.013 71.6265 74.2331 71.1042 75.3294 71.8389Z" fill="#006298"/>
<path d="M75.3383 74.1048C75.9219 70.5996 77.2569 73.9631 78.5566 73.7241C78.5566 71.1484 78.5566 68.5018 78.5566 65.8464L78.5213 65.8198C80.5283 64.6691 80.6255 66.3066 80.599 67.4485C80.5636 68.8559 81.1207 69.5374 82.3761 69.8384L82.3231 69.803C83.0127 70.3163 83.9588 69.5109 84.5954 70.2632L84.5688 70.2544C87.3627 70.3341 87.5042 72.1928 87.3009 74.3083C87.2213 75.0873 87.2566 75.8839 87.239 76.6628C86.5405 78.2649 86.8323 80.3362 84.9932 81.4072C84.4185 81.4249 83.9676 80.4866 83.2957 81.177C83.0481 81.3718 82.774 81.5134 82.4734 81.6019C81.4566 81.8055 80.4487 81.832 79.4319 81.5931C78.8572 81.3895 78.5566 80.9558 78.424 80.3804C78.3798 79.0704 77.2569 78.4331 76.6469 77.4683C76.5231 77.2027 76.4258 76.9372 76.302 76.6717C75.9838 75.8131 75.6566 74.9633 75.3383 74.1048Z" fill="#242A38"/>
<path d="M82.8359 81.017C82.942 80.8931 83.0569 80.778 83.163 80.6541C83.8792 80.1849 84.2947 80.8134 84.7987 81.1055C86.01 79.8397 86.0807 77.9455 87.2478 76.6444C87.3008 76.9896 87.3627 77.3348 87.4158 77.68C87.9286 77.5826 87.9463 77.0869 88.1673 76.7506C89.3521 76.848 89.2018 77.8039 89.246 78.5474C89.3432 80.1761 89.1487 81.7693 88.4856 83.2829C88.2999 83.6104 87.9728 83.8052 87.7518 84.0884C84.2329 88.5318 79.9536 88.6912 76.0987 84.5221C75.6478 84.0353 75.3118 83.4777 74.9493 82.9289C74.0298 80.5921 73.0749 78.2465 74.4984 75.6973C75.356 76.131 75.409 77.0161 75.8334 77.6357C75.356 80.5301 76.7441 83.1236 79.6176 84.708C79.8033 84.7877 79.9889 84.8762 80.1658 84.9736C83.7731 86.3013 86.2399 84.6726 87.5042 79.7158C86.8853 80.955 86.9472 82.0083 86.1161 82.5837C85.9127 82.681 85.7094 82.7253 85.4883 82.7342C84.9313 82.6633 84.3655 82.6456 83.7996 82.6368C82.3408 82.6456 80.8908 82.7076 79.4408 82.5925C79.0517 82.5394 78.6981 82.4066 78.3886 82.1588C77.8935 81.4418 77.8758 80.7072 78.2825 79.946C78.477 79.7158 78.6981 79.6804 78.9545 79.8309C79.1313 80.2469 78.8307 80.8134 79.3524 81.132C80.5194 81.4596 81.6953 81.7074 82.8359 81.017Z" fill="#EBEBEB"/>
<path d="M88.1584 83.3714C88.4502 82.1764 88.8216 80.9903 88.9984 79.7777C89.1575 78.6978 89.1398 77.5648 88.1584 76.7594C88.1584 76.184 88.1584 75.6175 88.1584 74.5996C90.2804 76.9364 89.1664 79.3971 89.4758 81.6011C89.078 82.1941 89.131 83.0527 88.4149 83.4599C88.3353 83.4333 88.2469 83.4068 88.1584 83.3714Z" fill="#F0F0F0"/>
<path d="M77.9642 67.9258C77.8846 68.9348 78.4151 70.0147 77.6017 70.9264C76.4788 70.236 75.2322 70.7582 74.0563 70.5724C74.7194 68.7313 76.1075 67.9789 77.9642 67.9258Z" fill="#F4F4F4"/>
<path d="M82.3762 69.8301C80.7316 69.892 80.1393 69.06 80.2807 67.4756C80.3868 66.263 80.1835 65.2185 78.5213 65.8115C78.5036 65.2008 78.7335 64.8113 79.4054 64.9529C80.1658 65.1211 80.5902 65.6079 80.8112 66.3869C81.1649 67.6084 80.9704 69.0954 82.3762 69.8301Z" fill="#F1F1F2"/>
<path d="M84.6042 70.2537C83.9322 69.6784 82.9066 70.8468 82.3319 69.7935C83.1188 69.7935 84.003 69.2801 84.6042 70.2537Z" fill="#F1F1F2"/>
<path d="M74.9493 82.9297C75.5947 83.505 76.3462 84.0007 76.8767 84.6734C79.3789 87.7803 85.0462 87.9485 87.4953 83.9122C87.6368 83.6821 87.9374 83.5493 88.1585 83.3723C88.4325 83.6644 88.406 83.9565 88.1585 84.2574C85.2584 89.3381 78.5654 88.692 75.7362 84.8593C75.2852 84.2486 74.8609 83.7175 74.9493 82.9297Z" fill="#F0F0F0"/>
<path d="M79.7944 85.1328C77.3454 84.6194 74.631 80.8399 74.967 78.4411C75.0377 77.91 75.356 77.7065 75.8335 77.6445C76.2225 77.4321 76.249 77.0514 76.3109 76.6797C76.4435 76.8656 76.5761 77.0515 76.6999 77.2373C76.974 77.8658 77.8493 78.1844 77.6548 79.0607C76.5496 80.1672 77.195 81.1497 77.8405 82.1587C78.4771 83.1501 79.6618 83.7962 79.7944 85.1328Z" fill="#E6E6E6"/>
<path d="M88.1584 84.2481C88.1584 83.956 88.1584 83.6639 88.1584 83.363C88.6005 82.7788 89.0426 82.1858 89.4758 81.6016C89.467 82.6991 89.1841 83.6639 88.1584 84.2481Z" fill="#F1F1F2"/>
<path d="M82.0137 77.2104C81.0057 76.9271 81.0057 76.9271 81.0411 75.4312C81.0676 74.3425 81.0676 74.3425 82.0225 74.1035C82.7652 75.1391 82.7652 76.1747 82.0137 77.2104Z" fill="#C7C8CB"/>
<path d="M85.5237 77.2125C84.9225 78.08 84.3301 77.6905 83.7466 77.1948C83.7378 77.0974 83.7201 77.0001 83.7112 76.9027C83.614 76.23 83.7731 75.5396 83.5344 74.8934C83.4195 74.7695 83.3045 74.6368 83.1807 74.5217C83.057 74.4066 82.9509 74.2739 82.8801 74.1145C83.499 72.5567 84.3301 73.964 85.0551 73.964C85.0551 74.0614 85.064 74.1499 85.064 74.2473C85.1259 75.0882 84.9756 75.9379 85.1789 76.7788C85.2762 76.947 85.3911 77.0886 85.5237 77.2125Z" fill="#585D68"/>
<path d="M77.5929 78.9634C77.3542 78.3526 76.6557 77.9809 76.6999 77.2285C77.5575 78.0074 78.6096 78.6182 78.9456 79.8397C78.7865 79.8397 78.6273 79.8397 78.4682 79.8485C77.9819 79.7512 77.6901 79.4502 77.5929 78.9634Z" fill="#E0E1E2"/>
<path d="M82.8359 81.0176C81.7042 82.0001 80.5371 81.8054 79.3524 81.1327C80.5106 81.0972 81.6688 81.0618 82.8359 81.0176Z" fill="#E0E1E2"/>
<path d="M85.5237 77.2114C85.3734 77.2114 85.2231 77.2025 85.0728 77.2025C84.7722 76.1846 84.6838 75.1755 85.117 74.1665L85.1612 74.0426L85.0551 73.9629C86.0365 74.9277 85.3734 76.1315 85.5237 77.2114Z" fill="#E8E9EA"/>
<path d="M83.331 74.07C83.4813 74.0169 83.6228 74.0257 83.7554 74.1142C84.0472 75.141 84.171 76.1589 83.6847 77.168L83.7554 77.1857C83.6051 77.168 83.4637 77.1503 83.3133 77.1237C82.4999 76.1058 82.5883 75.0879 83.331 74.07Z" fill="#CECFD2"/>
<path d="M83.331 74.0684C83.3221 75.0863 83.3221 76.113 83.3133 77.131L83.1276 77.1841L82.9331 77.1752C82.2081 76.1661 82.3054 75.1394 82.8447 74.0949L82.8801 74.1126C83.0304 74.1038 83.1807 74.0861 83.331 74.0684Z" fill="#E1E1E3"/>
<path d="M82.8447 74.0957C82.8713 75.1225 82.8978 76.1492 82.9332 77.176C82.7652 77.1849 82.5972 77.1849 82.4292 77.1937C82.1109 76.1669 82.1109 75.1402 82.4292 74.1223C82.5618 74.1134 82.7033 74.1046 82.8447 74.0957Z" fill="#313644"/>
<path d="M82.4292 74.1212C82.4292 75.148 82.4292 76.1747 82.4292 77.1927C82.2877 77.2015 82.1551 77.2015 82.0136 77.2104C82.0136 76.1747 82.0224 75.1391 82.0224 74.1035C82.1551 74.1035 82.2877 74.1124 82.4292 74.1212Z" fill="#5E616B"/>
<path d="M84.7987 81.1142C84.2505 80.9637 83.7112 80.8132 83.163 80.6627C84.3124 78.6092 84.2505 80.9637 84.7987 81.1142Z" fill="#E0E1E2"/>
<path d="M77.5929 78.9634C78.0085 79.1316 78.3002 79.4237 78.4682 79.8485C78.4682 80.5832 78.4682 81.3179 78.4682 82.0437C80.3338 83.7343 82.2877 84.3805 84.5069 82.6544C84.781 82.442 85.1435 82.2915 85.5237 82.4863C85.6652 82.4863 85.8155 82.4863 85.9569 82.4863C86.1161 84.6372 84.4627 85.124 82.9597 85.4957C81.9518 85.7436 80.7847 85.7878 79.7856 85.1328C78.4417 83.7786 77.0005 82.504 76.417 80.5744C76.0987 79.4945 76.3728 78.9014 77.5929 78.9634Z" fill="#E2E2E2"/>
<path d="M79.7944 85.1344C82.2612 85.1963 84.7987 85.4353 85.9658 82.4878C86.3106 81.3902 86.6377 80.2749 87.0356 79.1951C87.1063 78.9915 87.4512 78.7879 87.6899 78.7613C88.0701 78.7171 88.0966 79.0977 88.132 79.3721C88.6182 82.8684 84.171 86.8427 80.7493 85.9664C80.2896 85.8425 79.9978 85.5415 79.7944 85.1344Z" fill="#E6E6E6"/>
<path d="M85.5237 82.4875C82.6856 84.665 80.988 84.842 79.0075 83.1691C78.645 82.8681 78.4859 82.4963 78.4682 82.0449C78.7688 82.0538 79.0606 82.0626 79.3612 82.0626C80.9703 82.9655 82.5795 82.9743 84.1887 82.0626C84.6749 82.0715 85.1966 81.9741 85.5237 82.4875Z" fill="#DDDDDD"/>
<path d="M84.1887 82.0625C82.3054 83.8682 81.2444 83.8682 79.3612 82.0625C80.9704 82.0625 82.5795 82.0625 84.1887 82.0625Z" fill="#DADADA"/>
<path d="M85.117 74.1758C85.0993 75.1848 85.0905 76.1939 85.0728 77.2118C84.4185 76.1851 84.2947 75.176 85.117 74.1758Z" fill="#BBBDC1"/>
<path d="M83.6847 77.1768C83.7112 76.1589 83.7289 75.141 83.7554 74.123C84.4185 75.1498 84.5335 76.1766 83.6847 77.1768Z" fill="#646671"/>
</g>
<defs>
<clipPath id="clip0">
<rect width="126" height="126" fill="white"/>
</clipPath>
</defs>
</svg>
