<svg width="32" height="26" viewBox="0 0 32 26" fill="none" xmlns="http://www.w3.org/2000/svg">
<path d="M18.7745 1.37549V5.00549" stroke="#2B304D" stroke-width="2" stroke-linecap="round" stroke-linejoin="round"/>
<path d="M18.7745 21.6401V24.6761" stroke="#2B304D" stroke-width="2" stroke-linecap="round" stroke-linejoin="round"/>
<path d="M18.7745 16.4869V9.25537" stroke="#2B304D" stroke-width="2" stroke-linecap="round" stroke-linejoin="round"/>
<path fill-rule="evenodd" clip-rule="evenodd" d="M26.0532 25C28.7863 25 31 22.8138 31 20.1147V16.226C29.1915 16.226 27.735 14.7876 27.735 13.0015C27.735 11.2155 29.1915 9.77559 31 9.77559L30.9984 5.88528C30.9984 3.18617 28.7832 1 26.0516 1H5.94837C3.21683 1 1.00156 3.18617 1.00156 5.88528L1 9.90228C2.80851 9.90228 4.26502 11.2155 4.26502 13.0015C4.26502 14.7876 2.80851 16.226 1 16.226V20.1147C1 22.8138 3.2137 25 5.94681 25H26.0532Z" stroke="#2B304D" stroke-width="2" stroke-linecap="round" stroke-linejoin="round"/>
</svg>
