<svg width="18" height="19" viewBox="0 0 18 19" fill="none" xmlns="http://www.w3.org/2000/svg">
<path d="M14.9884 7.03516C14.9884 7.03516 14.5004 13.088 14.2173 15.6376C14.0825 16.8553 13.3303 17.5689 12.0982 17.5914C9.75345 17.6336 7.40603 17.6363 5.0622 17.5869C3.8768 17.5626 3.13717 16.8401 3.00506 15.6439C2.72017 13.0718 2.23486 7.03516 2.23486 7.03516" stroke="#006298" stroke-width="2" stroke-linecap="round" stroke-linejoin="round"/>
<path d="M16.2403 4.1349H1" stroke="#006298" stroke-width="2" stroke-linecap="round" stroke-linejoin="round"/>
<path d="M13.2962 4.13559C12.5907 4.13559 11.9832 3.63681 11.8448 2.9457L11.6264 1.85287C11.4916 1.3487 11.035 1 10.5147 1H6.71046C6.1901 1 5.73356 1.3487 5.59875 1.85287L5.38037 2.9457C5.24197 3.63681 4.63444 4.13559 3.92896 4.13559" stroke="#006298" stroke-width="2" stroke-linecap="round" stroke-linejoin="round"/>
</svg>
