<svg width="30" height="30" viewBox="0 0 30 30" fill="none" xmlns="http://www.w3.org/2000/svg">
<g id="Iconly/Bulk/Discount">
<path id="Fill 1" d="M14.9991 27.4977C14.0378 27.4977 13.0778 27.1327 12.3441 26.404L11.4316 25.4915C11.0778 25.139 10.6041 24.944 10.1016 24.9427H8.81783C6.74283 24.9427 5.05408 23.254 5.05408 21.179V19.894C5.05283 19.3927 4.85783 18.919 4.50408 18.5627L3.60658 17.6665C2.13658 16.2052 2.13033 13.8165 3.59283 12.3452L4.50533 11.4315C4.85783 11.0777 5.05283 10.604 5.05408 10.1015V8.819C5.05408 6.74275 6.74283 5.054 8.81783 5.054H10.1028C10.6041 5.054 11.0766 4.859 11.4328 4.50275L12.3316 3.6065C13.7928 2.1365 16.1803 2.129 17.6528 3.59275L18.5653 4.50525C18.9203 4.859 19.3928 5.054 19.8941 5.054H21.1791C23.2541 5.054 24.9428 6.74275 24.9428 8.819V10.1027C24.9441 10.604 25.1391 11.0777 25.4928 11.434L26.3903 12.3315C27.1016 13.039 27.4953 13.9815 27.4991 14.9877C27.5016 15.9877 27.1166 16.929 26.4153 17.6402C26.4028 17.6527 26.3916 17.6665 26.3791 17.6777L25.4916 18.5652C25.1391 18.919 24.9441 19.3927 24.9428 19.8952V21.179C24.9428 23.254 23.2541 24.9427 21.1791 24.9427H19.8941C19.3928 24.944 18.9191 25.139 18.5641 25.4927L17.6653 26.3902C16.9328 27.1277 15.9653 27.4977 14.9991 27.4977Z" fill="#006298"/>
<path id="Combined Shape" fill-rule="evenodd" clip-rule="evenodd" d="M12.5537 12.5636C12.3474 12.7699 12.0799 12.8811 11.7837 12.8811C11.5062 12.8811 11.2337 12.7674 11.0149 12.5624C10.8074 12.3561 10.6899 12.0736 10.6899 11.7874C10.6899 11.5149 10.8049 11.2349 11.0074 11.0186C11.1187 10.9061 11.2512 10.8211 11.3837 10.7761C11.7612 10.6036 12.2624 10.7049 12.5599 11.0174C12.6662 11.1236 12.7474 11.2399 12.8012 11.3611C12.8599 11.4911 12.8899 11.6386 12.8899 11.7874C12.8899 12.0849 12.7712 12.3611 12.5537 12.5636ZM18.9883 11.0121C18.562 10.5871 17.8683 10.5871 17.442 11.0121L11.017 17.4371C10.5908 17.8633 10.5908 18.5571 11.017 18.9846C11.2245 19.1908 11.4983 19.3046 11.7908 19.3046C12.0833 19.3046 12.357 19.1908 12.5633 18.9846L18.9883 12.5596C19.4145 12.1321 19.4145 11.4396 18.9883 11.0121ZM18.6324 17.2049C18.2274 17.0349 17.7474 17.1274 17.4274 17.4474C17.3612 17.5249 17.2674 17.6449 17.2037 17.7861C17.1362 17.9386 17.1274 18.1024 17.1274 18.2124C17.1274 18.3224 17.1362 18.4849 17.2037 18.6374C17.2662 18.7774 17.3412 18.8911 17.4399 18.9899C17.6662 19.1999 17.9287 19.3061 18.2212 19.3061C18.4987 19.3061 18.7712 19.1936 18.9949 18.9849C19.1937 18.7861 19.3024 18.5111 19.3024 18.2124C19.3024 17.9124 19.1937 17.6386 18.9937 17.4386C18.8837 17.3299 18.7512 17.2449 18.6324 17.2049Z" fill="#D9E1E8"/>
</g>
</svg>
