<svg width="70" height="70" viewBox="0 0 70 70" fill="none" xmlns="http://www.w3.org/2000/svg">
<g id="Iconly/Light-Outline/Document">
<g id="Document">
<path id="Fill 1" fill-rule="evenodd" clip-rule="evenodd" d="M45.8376 49.5039H24.7793C23.5718 49.5039 22.5918 48.5239 22.5918 47.3164C22.5918 46.1089 23.5718 45.1289 24.7793 45.1289H45.8376C47.0451 45.1289 48.0251 46.1089 48.0251 47.3164C48.0251 48.5239 47.0451 49.5039 45.8376 49.5039Z" fill="#006298"/>
<path id="Fill 3" fill-rule="evenodd" clip-rule="evenodd" d="M45.8376 37.2959H24.7793C23.5718 37.2959 22.5918 36.3159 22.5918 35.1084C22.5918 33.9009 23.5718 32.9209 24.7793 32.9209H45.8376C47.0451 32.9209 48.0251 33.9009 48.0251 35.1084C48.0251 36.3159 47.0451 37.2959 45.8376 37.2959Z" fill="#006298"/>
<path id="Fill 5" fill-rule="evenodd" clip-rule="evenodd" d="M32.8147 25.1113H24.7793C23.5718 25.1113 22.5918 24.1313 22.5918 22.9238C22.5918 21.7163 23.5718 20.7363 24.7793 20.7363H32.8147C34.0222 20.7363 35.0022 21.7163 35.0022 22.9238C35.0022 24.1313 34.0222 25.1113 32.8147 25.1113Z" fill="#006298"/>
<g id="Group 9">
<mask id="mask0" mask-type="alpha" maskUnits="userSpaceOnUse" x="8" y="5" width="54" height="59">
<path id="Clip 8" fill-rule="evenodd" clip-rule="evenodd" d="M8.75 5.83301H61.7304V63.9033H8.75V5.83301Z" fill="white"/>
</mask>
<g mask="url(#mask0)">
<path id="Fill 7" fill-rule="evenodd" clip-rule="evenodd" d="M46.4012 10.208L23.975 10.2197C17.185 10.2605 13.125 14.4605 13.125 21.4576V48.2793C13.125 55.323 17.2229 59.5288 24.08 59.5288L46.5062 59.5201C53.2962 59.4793 57.3562 55.2734 57.3562 48.2793V21.4576C57.3562 14.4138 53.2612 10.208 46.4012 10.208ZM24.0829 63.9038C14.9129 63.9038 8.75 57.6243 8.75 48.2793V21.4576C8.75 12.028 14.7204 5.90009 23.9604 5.84467L46.3983 5.83301H46.4012C55.5712 5.83301 61.7312 12.1126 61.7312 21.4576V48.2793C61.7312 57.7059 55.7608 63.8368 46.5208 63.8951L24.0829 63.9038Z" fill="#006298"/>
</g>
</g>
</g>
</g>
</svg>
