<svg width="70" height="70" viewBox="0 0 70 70" fill="none" xmlns="http://www.w3.org/2000/svg">
<g id="Iconly/Light-Outline/Edit Square">
<g id="Edit Square">
<path id="Fill 1" fill-rule="evenodd" clip-rule="evenodd" d="M48.3502 65.2421H22.6136C12.5773 65.2421 5.83398 58.1983 5.83398 47.7158V23.4667C5.83398 12.9842 12.5773 5.94043 22.6136 5.94043H33.519C34.7265 5.94043 35.7065 6.92043 35.7065 8.12793C35.7065 9.33543 34.7265 10.3154 33.519 10.3154H22.6136C15.0769 10.3154 10.209 15.4779 10.209 23.4667V47.7158C10.209 55.7046 15.0769 60.8671 22.6136 60.8671H48.3502C55.8869 60.8671 60.7577 55.7046 60.7577 47.7158V35.9675C60.7577 34.76 61.7377 33.78 62.9452 33.78C64.1527 33.78 65.1327 34.76 65.1327 35.9675V47.7158C65.1327 58.1983 58.3865 65.2421 48.3502 65.2421Z" fill="#006298"/>
<path id="Fill 3" fill-rule="evenodd" clip-rule="evenodd" d="M25.8631 44.9985H34.546C35.6544 44.9985 36.6927 44.5697 37.4773 43.7852L59.3785 21.8839C60.2769 20.9856 60.7727 19.7897 60.7727 18.5181C60.7727 17.2435 60.2769 16.0447 59.3785 15.1464L55.8289 11.5968C53.971 9.74474 50.9494 9.74474 49.0885 11.5968L27.2923 33.3931C26.5369 34.1485 26.1081 35.1518 26.0819 36.2164L25.8631 44.9985ZM34.5456 49.373H23.6198C23.0306 49.373 22.4648 49.1338 22.0536 48.7109C21.6423 48.2909 21.4177 47.7222 21.4323 47.1301L21.7065 36.108C21.7619 33.9147 22.6456 31.8526 24.1973 30.298H24.2002L45.9965 8.50176C49.5606 4.94342 55.3561 4.94342 58.9202 8.50176L62.4698 12.0513C64.1994 13.778 65.1502 16.0734 65.1473 18.5176C65.1473 20.9618 64.1965 23.2543 62.4698 24.978L40.5686 46.8793C38.9615 48.4863 36.8206 49.373 34.5456 49.373Z" fill="#006298"/>
<path id="Fill 5" fill-rule="evenodd" clip-rule="evenodd" d="M57.5511 28.9222C56.9911 28.9222 56.4311 28.7093 56.0053 28.2806L42.6878 14.9631C41.8332 14.1085 41.8332 12.7231 42.6878 11.8685C43.5424 11.0139 44.9249 11.0139 45.7795 11.8685L59.097 25.1889C59.9516 26.0435 59.9516 27.426 59.097 28.2806C58.6711 28.7093 58.1111 28.9222 57.5511 28.9222Z" fill="#006298"/>
</g>
</g>
</svg>
