<svg width="172" height="152" viewBox="0 0 172 152" fill="none" xmlns="http://www.w3.org/2000/svg">
<circle cx="93.478" cy="75.3134" r="71.103" fill="#F0F0F0"/>
<path d="M104.525 58.5385L171.216 77.3592L164.26 151.415L84.4766 131.367L104.525 58.5385Z" fill="#D2D2D2"/>
<path d="M170.806 76.9501L100.842 58.9476C97.4323 63.8574 88.6493 76.5409 80.7937 87.997C72.9381 99.4531 59.2453 113.5 53.3809 119.092L135.21 143.232C136.71 142.414 143.066 136.44 156.486 119.092C169.906 101.744 171.624 83.7692 170.806 76.9501Z" fill="#F3F3F3" stroke="#CCCCCC" stroke-width="0.818293"/>
<circle cx="106.98" cy="78.1775" r="3.27317" fill="#C4C4C4"/>
<circle cx="97.1599" cy="95.3617" r="3.27317" fill="#C4C4C4"/>
<circle cx="87.3415" cy="110.909" r="3.27317" fill="#C4C4C4"/>
<circle cx="41.2168" cy="41.018" r="29.8586" transform="rotate(25.8347 41.2168 41.018)" fill="#F0F0F0" stroke="#D2D2D2" stroke-width="0.818293"/>
<rect width="16.3659" height="2.45488" transform="matrix(1 0 0 -1 31.8047 49.6101)" fill="#C4C4C4"/>
<circle cx="24.0319" cy="36.1082" r="4.50061" fill="#C4C4C4"/>
<circle cx="55.9459" cy="36.1082" r="4.50061" fill="#C4C4C4"/>
<rect x="105.523" y="98.1864" width="39.2781" height="1.63659" rx="0.818293" transform="rotate(15.5 105.523 98.1864)" fill="#C4C4C4"/>
<rect x="96.957" y="114.769" width="35.5522" height="1.63659" rx="0.818293" transform="rotate(15.5 96.957 114.769)" fill="#C4C4C4"/>
<rect x="116.305" y="80.6696" width="39.2781" height="1.63659" rx="0.818293" transform="rotate(14.5 116.305 80.6696)" fill="#C4C4C4"/>
</svg>
