<svg width="50" height="59" viewBox="0 0 50 59" fill="none" xmlns="http://www.w3.org/2000/svg">
<path fill-rule="evenodd" clip-rule="evenodd" d="M0 5.88525C0 4.32439 0.618197 2.82744 1.71859 1.72374C2.81899 0.620052 4.31146 0 5.86765 0H34.2279L48.8971 14.7131V52.9673C48.8971 54.5281 48.2788 56.0251 47.1785 57.1288C46.0781 58.2324 44.5856 58.8525 43.0294 58.8525H5.86765C4.31146 58.8525 2.81899 58.2324 1.71859 57.1288C0.618197 56.0251 0 54.5281 0 52.9673V5.88525Z" fill="url(#paint0_linear)"/>
<path d="M39.1532 14.6988C38.5162 14.6988 37.8853 14.5729 37.2969 14.3283C36.7084 14.0838 36.1735 13.7253 35.7232 13.2734C35.2728 12.8216 34.9156 12.2851 34.6719 11.6948C34.4282 11.1044 34.3029 10.4717 34.3032 9.83273V0.0859375L48.8915 14.6988H39.1532Z" fill="#254A80"/>
<path d="M19.3564 50.6363C19.3564 50.8708 19.3344 51.0965 19.2903 51.3148C19.2461 51.5345 19.1726 51.7322 19.0726 51.9062C18.9707 52.0744 18.828 52.2139 18.6579 52.3119C18.4653 52.4204 18.2464 52.4735 18.0255 52.4653C17.8078 52.4712 17.5923 52.4182 17.402 52.3119C17.2342 52.2024 17.0894 52.0611 16.9755 51.8959C16.8636 51.7139 16.7826 51.5145 16.7358 51.3059C16.6853 51.0903 16.6595 50.8696 16.6594 50.6481C16.6594 50.4135 16.6814 50.1908 16.7255 49.9799C16.777 49.7616 16.8535 49.5669 16.955 49.4002C17.063 49.2331 17.2092 49.094 17.3814 48.9946C17.5782 48.8871 17.8001 48.8341 18.0241 48.8412C18.2785 48.8412 18.4903 48.8928 18.6564 48.9946C18.822 49.0949 18.9608 49.2341 19.0608 49.4002C19.1697 49.561 19.2461 49.7498 19.2903 49.9696C19.3344 50.1805 19.355 50.4032 19.355 50.6363H19.3564ZM19.377 52.7603V53.483H20.8505V45.667H19.3005V48.5137H19.28C19.1073 48.2382 18.8563 48.0209 18.5594 47.8898C18.2638 47.7441 17.9386 47.6689 17.6094 47.67C17.2485 47.6643 16.8911 47.7423 16.5653 47.8981C16.2395 48.054 15.9541 48.2833 15.7314 48.5683C15.5216 48.852 15.3632 49.1706 15.2638 49.5094C15.1608 49.8589 15.1108 50.2247 15.1108 50.6038C15.1108 50.9976 15.1608 51.3782 15.2638 51.7425C15.3726 52.1068 15.5285 52.4328 15.7329 52.716C15.9432 52.9933 16.2094 53.2175 16.5285 53.3842C16.8491 53.5465 17.2197 53.6246 17.6417 53.6246C18.0138 53.6246 18.3447 53.5597 18.6358 53.4284C18.9344 53.2898 19.1741 53.0671 19.3564 52.7603H19.377ZM23.3976 50.6584C23.3976 50.4327 23.4197 50.21 23.4623 49.9917C23.5064 49.7719 23.58 49.5787 23.6814 49.4105C23.7898 49.244 23.936 49.1055 24.1079 49.0064C24.3061 48.8905 24.533 48.8332 24.7623 48.8412C25.0241 48.8412 25.2417 48.8958 25.4167 49.0064C25.5976 49.1082 25.7403 49.2424 25.8432 49.4105C25.9505 49.5787 26.027 49.7719 26.0711 49.9917C26.1592 50.4323 26.1592 50.886 26.0711 51.3266C26.0298 51.532 25.952 51.7284 25.8417 51.9062C25.7375 52.0766 25.5904 52.2164 25.4153 52.3119C25.2151 52.4203 24.9897 52.4732 24.7623 52.4653C24.5339 52.4737 24.3075 52.4207 24.1064 52.3119C23.9344 52.2123 23.7882 52.0734 23.68 51.9062C23.5764 51.7261 23.5029 51.5304 23.4623 51.3266C23.4182 51.1083 23.3976 50.8841 23.3976 50.6584ZM21.8476 50.6584C21.8476 51.1112 21.9167 51.5198 22.055 51.8841C22.1932 52.2499 22.3903 52.5626 22.6432 52.8266C22.8991 53.0818 23.205 53.278 23.5608 53.4166C23.9182 53.5553 24.3182 53.6246 24.7623 53.6246C25.205 53.6246 25.605 53.5553 25.9623 53.4181C26.3255 53.278 26.6358 53.0818 26.8888 52.8266C27.1486 52.5569 27.35 52.2359 27.48 51.8841C27.6167 51.5198 27.6858 51.1112 27.6858 50.6599C27.6858 50.207 27.6167 49.7985 27.48 49.4327C27.3536 49.0799 27.1525 48.7587 26.8903 48.4916C26.6291 48.2248 26.3122 48.0192 25.9623 47.8898C25.5804 47.7388 25.1728 47.6641 24.7623 47.67C24.3182 47.67 23.9182 47.7438 23.5608 47.8898C23.2138 48.023 22.8997 48.2298 22.6398 48.4962C22.3798 48.7624 22.1804 49.0819 22.055 49.4327C21.9125 49.8253 21.8426 50.2407 21.8491 50.6584H21.8476ZM32.5358 49.8162H34.0535C34.0445 49.4993 33.962 49.1891 33.8123 48.9099C33.6627 48.6309 33.4503 48.3906 33.1917 48.2084C32.943 48.0209 32.661 47.8829 32.3608 47.8013C32.0483 47.7128 31.7251 47.6686 31.4005 47.67C30.9432 47.67 30.5344 47.7467 30.1785 47.9001C29.8226 48.0535 29.5197 48.2689 29.2726 48.5462C29.0183 48.8279 28.8251 49.1594 28.705 49.5197C28.5782 49.9122 28.5155 50.3225 28.5197 50.7351C28.5197 51.1584 28.5888 51.5493 28.727 51.9062C28.8653 52.2573 29.0579 52.5597 29.305 52.8148C29.5535 53.07 29.8505 53.2721 30.2005 53.4166C30.5564 53.5553 30.9461 53.6246 31.3682 53.6246C32.1182 53.6246 32.7329 53.4284 33.2123 53.0346C33.6932 52.6408 33.9844 52.067 34.0858 51.3162H32.5888C32.5539 51.6307 32.4201 51.9257 32.2064 52.1585C32.0108 52.3635 31.727 52.4653 31.3564 52.4653C31.1408 52.4722 30.928 52.4153 30.7447 52.3015C30.5801 52.1949 30.4417 52.0523 30.3402 51.8841C30.2438 51.702 30.1744 51.5067 30.1344 51.3044C30.0477 50.8895 30.0477 50.4612 30.1344 50.0463C30.177 49.8265 30.2491 49.6303 30.352 49.4548C30.4548 49.2788 30.5967 49.1288 30.7667 49.0167C30.9508 48.8949 31.1683 48.8335 31.3888 48.8412C32.0505 48.8412 32.4329 49.1657 32.5344 49.8147L32.5358 49.8162Z" fill="white"/>
<path fill-rule="evenodd" clip-rule="evenodd" d="M11.736 20.8435V18.3936H33.7389V20.845H11.736V20.8435ZM26.4051 23.2965H11.736V25.7479H26.4051V23.2965ZM11.736 30.6508H33.7389V28.2023H11.736V30.6538V30.6508Z" fill="white" fill-opacity="0.4"/>
<defs>
<linearGradient id="paint0_linear" x1="0" y1="0" x2="0" y2="58.8525" gradientUnits="userSpaceOnUse">
<stop stop-color="#5E7FB0"/>
<stop offset="1" stop-color="#2C5898"/>
</linearGradient>
</defs>
</svg>
