<svg width="50" height="59" viewBox="0 0 50 59" fill="none" xmlns="http://www.w3.org/2000/svg">
<path d="M0 4.425C0 3.25142 0.464809 2.1259 1.29218 1.29605C2.11954 0.466203 3.24169 0 4.41177 0H34.3132L49.0191 14.75V54.575C49.0191 55.7485 48.5543 56.8741 47.7269 57.7039C46.8996 58.5338 45.7774 59 44.6074 59H4.41177C3.24169 59 2.11954 58.5338 1.29218 57.7039C0.464809 56.8741 0 55.7485 0 54.575V4.425Z" fill="#F5F5F5"/>
<path d="M0.5 4.425C0.5 3.38354 0.912493 2.38504 1.64626 1.64908C2.37997 0.91316 3.37478 0.5 4.41177 0.5H34.1057L48.5191 14.9567V54.575C48.5191 55.6164 48.1066 56.6149 47.3728 57.3509C46.6391 58.0868 45.6443 58.5 44.6074 58.5H4.41177C3.3748 58.5 2.37998 58.0868 1.64626 57.3509C0.912495 56.6149 0.5 55.6164 0.5 54.575V4.425Z" stroke="#006298" stroke-opacity="0.12"/>
<path d="M0 41.2998H49.0191V54.5748C49.0191 55.7483 48.5543 56.8739 47.7269 57.7037C46.8996 58.5336 45.7774 58.9998 44.6074 58.9998H4.41177C3.24169 58.9998 2.11954 58.5336 1.29218 57.7037C0.464809 56.8739 0 55.7483 0 54.5748V41.2998Z" fill="#D93831"/>
<path d="M38.0365 14.7356C37.0691 14.7356 36.1415 14.3502 35.4575 13.6642C34.7735 12.9782 34.3894 12.0478 34.3894 11.0776V0.0859375L49.0159 14.7356H38.0365Z" fill="#DBDBDB"/>
<path d="M20.2773 52.3505C20.0851 52.3556 19.8948 52.3121 19.7239 52.2236C19.5531 52.1353 19.4073 52.0049 19.3 51.845C19.2017 51.6792 19.1304 51.4986 19.0887 51.3104C19.0057 50.8996 19.0057 50.4766 19.0887 50.0658C19.1238 49.8772 19.1916 49.6963 19.2891 49.5313C19.3912 49.3649 19.5354 49.2286 19.7072 49.1363C19.8788 49.0439 20.0717 48.9988 20.2664 49.0056C20.4601 49.0043 20.651 49.0528 20.8206 49.1468C20.9901 49.2407 21.1328 49.377 21.2348 49.5422C21.3387 49.7052 21.4103 49.8866 21.4462 50.0766C21.4931 50.2778 21.5184 50.4841 21.5184 50.6926C21.5184 50.9027 21.4967 51.1076 21.4569 51.3088C21.4214 51.4995 21.3497 51.6814 21.2456 51.845C21.142 52.0066 20.9984 52.1385 20.8285 52.2274C20.6588 52.3164 20.4688 52.3596 20.2773 52.3524V52.3505ZM17.647 48.0637V55.1209H19.0778V52.6441H19.0976C19.2729 52.9015 19.4951 53.0971 19.7642 53.2312C20.0388 53.358 20.3369 53.4231 20.6603 53.4231C20.9906 53.4344 21.3188 53.366 21.617 53.2235C21.9154 53.0809 22.1753 52.8686 22.3747 52.6043C22.5698 52.3543 22.7142 52.068 22.8082 51.7454C22.9938 51.0671 22.9938 50.3511 22.8082 49.6726C22.7232 49.3471 22.576 49.0413 22.3747 48.7721C22.1775 48.5146 21.9257 48.3041 21.6376 48.156C21.3094 47.9933 20.9467 47.9129 20.5809 47.9222C20.2556 47.9222 19.9612 47.9876 19.692 48.1144C19.4151 48.2501 19.1839 48.4643 19.0272 48.7304H19.0073V48.0637H17.647ZM27.5088 50.6619C27.5088 50.8793 27.4889 51.0877 27.4473 51.2889C27.4113 51.4812 27.3435 51.6661 27.2467 51.836C27.1464 52.0012 27.0035 52.1361 26.8331 52.2267C26.6628 52.3173 26.4712 52.3599 26.2785 52.3505C26.0779 52.3559 25.8794 52.3072 25.7041 52.2093C25.5491 52.1083 25.4153 51.9777 25.3103 51.8252C25.2072 51.6569 25.1328 51.4725 25.0898 51.2798C25.0425 51.0809 25.0184 50.8771 25.0176 50.6726C25.0176 50.457 25.0392 50.2524 25.0789 50.0567C25.1204 49.8677 25.1917 49.6866 25.2904 49.5202C25.3901 49.3658 25.5251 49.2373 25.6842 49.1453C25.8661 49.0459 26.0714 48.997 26.2785 49.004C26.5134 49.004 26.7085 49.0512 26.8638 49.1453C27.1695 49.3565 27.38 49.68 27.4491 50.0458C27.4889 50.2414 27.5088 50.4462 27.5088 50.6619ZM27.5269 52.6242V53.2909H28.8889V46.0723H27.4582V48.7015H27.4384C27.2785 48.4469 27.0463 48.246 26.7717 48.125C26.4991 47.9908 26.1992 47.9213 25.8956 47.9222C25.5622 47.9166 25.232 47.9887 24.9311 48.1327C24.6303 48.2767 24.3667 48.4888 24.1613 48.7522C23.9667 49.0142 23.82 49.3086 23.7278 49.6219C23.5423 50.2967 23.5423 51.0091 23.7278 51.6839C23.8289 52.0208 23.9734 52.3217 24.1613 52.5844C24.3564 52.8399 24.602 53.0464 24.8966 53.2005C25.1928 53.349 25.536 53.4231 25.9263 53.4231C26.2695 53.4231 26.5748 53.3617 26.8439 53.2421C27.1238 53.1098 27.3559 52.894 27.5088 52.6242H27.5269ZM30.2835 49.0257V53.2909H31.7142V49.0239H32.7025V48.0637H31.7142V47.752C31.7142 47.5346 31.7559 47.3841 31.8353 47.2953C31.9238 47.2011 32.0648 47.154 32.2598 47.154C32.4406 47.154 32.6157 47.1649 32.7838 47.1849V46.1122L32.4116 46.0941C32.2838 46.0801 32.1554 46.0729 32.0269 46.0723C31.4434 46.0723 31.0061 46.2208 30.7172 46.5179C30.5723 46.6693 30.4594 46.8486 30.3848 47.0447C30.3104 47.2408 30.276 47.4498 30.2835 47.6594V48.0637H29.4273V49.0239H30.2835V49.0257Z" fill="white"/>
<path fill-rule="evenodd" clip-rule="evenodd" d="M27.0441 13.1368C26.7868 12.2031 26.1574 11.7385 25.6265 11.8063C24.9853 11.8904 24.303 12.2724 24.0294 12.8757C23.3147 14.4864 24.6588 19.0176 25.0412 20.3067L25.1074 20.5309C23.5515 25.2421 18.2265 34.5537 15.6177 35.1835C15.5632 34.5685 15.8912 32.7882 19.3324 30.5683C19.5088 30.3765 19.7147 30.145 19.8103 29.993C16.9015 31.4179 13.1339 33.7056 15.3985 35.4166C15.5235 35.514 15.7132 35.5936 15.9324 35.6762C17.6677 36.3208 20.0971 34.213 22.5397 29.4325C25.2309 28.5416 27.4015 27.872 30.4735 27.4059C33.8309 29.6921 36.0853 30.1582 37.6147 29.5697C38.0382 29.4045 38.7059 28.8706 38.8971 28.1729C38.9927 27.844 39.1294 27.31 38.8706 26.8852C38.003 25.4677 34.4882 25.953 32.4 26.2406C32.028 26.2923 31.7015 26.338 31.4427 26.3645C28.753 24.7361 26.8956 21.8319 26.1441 19.7359C26.2603 19.2904 26.3765 18.8642 26.4882 18.4556C27.0544 16.3906 27.5015 14.7592 27.0471 13.1368H27.0441ZM38.8971 28.1729C37.6544 29.7069 34.7471 28.639 32.4265 27.1728C34.5691 26.9398 36.7794 26.8041 37.7368 27.105C38.953 27.4885 38.9103 28.0903 38.8985 28.1729H38.8971ZM25.8838 18.7919C25.4353 17.19 24.8059 13.6294 25.8162 12.4789C27.5015 13.4465 26.8618 15.5439 26.2132 17.6753C26.1 18.0485 25.9868 18.4217 25.8838 18.7919ZM22.7044 28.8853C25.2294 27.8853 26.9912 27.2127 29.5853 26.7348C27.6735 25.009 26.5118 23.1328 25.5559 21.2153C24.875 23.6815 23.453 27.4192 22.703 28.8853H22.7044Z" fill="#CFCFCF"/>
</svg>
