<svg width="30" height="30" viewBox="0 0 30 30" fill="none" xmlns="http://www.w3.org/2000/svg">
<g id="Iconly/Bulk/Folder">
<g id="Folder">
<path id="Folder 2" opacity="0.4" d="M21.1054 6.39356H17.4266C16.5101 6.39961 15.64 5.99194 15.0592 5.28438L13.8478 3.60953C13.2767 2.89577 12.4066 2.48618 11.4915 2.50036H8.89076C4.22274 2.50036 2.50001 5.24002 2.50001 9.89855V14.9342C2.4942 15.488 27.4946 15.4873 27.4962 14.9342V13.4701C27.5184 8.81156 25.8401 6.39356 21.1054 6.39356Z" fill="#006298"/>
<path id="Folder_2" fill-rule="evenodd" clip-rule="evenodd" d="M26.0402 8.17936C26.4401 8.64696 26.7491 9.18485 26.9515 9.76548C27.3498 10.9588 27.5341 12.2129 27.4961 13.4701V20.0364C27.4945 20.5895 27.4537 21.1418 27.3739 21.6891C27.2219 22.655 26.8821 23.5819 26.3736 24.4177C26.1399 24.8214 25.8561 25.194 25.5289 25.5268C24.0479 26.8861 22.0812 27.5936 20.0718 27.4901H9.91327C7.90062 27.5929 5.93077 26.8856 4.44501 25.5268C4.12176 25.1934 3.84171 24.8207 3.61144 24.4177C3.10594 23.5825 2.77336 22.6547 2.63337 21.6891C2.54436 21.1427 2.49976 20.59 2.5 20.0364V13.4701C2.49978 12.9217 2.52947 12.3737 2.58892 11.8285C2.60142 11.7329 2.62017 11.6388 2.63873 11.5457C2.66966 11.3904 2.70006 11.2379 2.70006 11.0854C2.81288 10.4275 3.0187 9.78889 3.31135 9.18871C4.17827 7.33639 5.95656 6.39359 8.86852 6.39359H21.0943C22.7253 6.26745 24.3441 6.75844 25.6289 7.76896C25.7769 7.89444 25.9144 8.03169 26.0402 8.17936ZM8.71295 19.4264H21.2944H21.3166C21.5927 19.4384 21.862 19.3396 22.0646 19.152C22.2672 18.9644 22.386 18.7038 22.3947 18.4281C22.4103 18.1859 22.3306 17.9471 22.1724 17.7626C21.9905 17.5147 21.7023 17.3668 21.3944 17.3633H8.71295C8.14209 17.3633 7.67932 17.8252 7.67932 18.3949C7.67932 18.9646 8.14209 19.4264 8.71295 19.4264Z" fill="#006298"/>
</g>
</g>
</svg>
