<svg width="24" height="26" viewBox="0 0 24 26" fill="none" xmlns="http://www.w3.org/2000/svg">
<path d="M17.2387 0.5H6.7625C2.9625 0.5 0.75 2.725 0.75 6.5375V19.45C0.75 23.325 2.9625 25.5 6.7625 25.5H17.2387C21.1 25.5 23.25 23.325 23.25 19.45V6.5375C23.25 2.725 21.1 0.5 17.2387 0.5" fill="#006298"/>
<path fill-rule="evenodd" clip-rule="evenodd" d="M7.09922 6.3125V6.325C6.56047 6.325 6.12422 6.7625 6.12422 7.3C6.12422 7.8375 6.56047 8.275 7.09922 8.275H10.8355C11.3742 8.275 11.8117 7.8375 11.8117 7.28625C11.8117 6.75 11.3742 6.3125 10.8355 6.3125H7.09922ZM16.8992 13.925H7.09922C6.56047 13.925 6.12422 13.4875 6.12422 12.95C6.12422 12.4125 6.56047 11.9737 7.09922 11.9737H16.8992C17.4367 11.9737 17.8742 12.4125 17.8742 12.95C17.8742 13.4875 17.4367 13.925 16.8992 13.925ZM16.8996 19.6375H7.09958C6.72458 19.6875 6.36208 19.5 6.16208 19.1875C5.96208 18.8625 5.96208 18.45 6.16208 18.1375C6.36208 17.8125 6.72458 17.6375 7.09958 17.675H16.8996C17.3983 17.725 17.7746 18.15 17.7746 18.6625C17.7746 19.1613 17.3983 19.5875 16.8996 19.6375Z" fill="white"/>
</svg>
