<svg width="87" height="82" viewBox="0 0 87 82" fill="none" xmlns="http://www.w3.org/2000/svg">
<path d="M42.9188 6.33807C44.4719 6.37623 45.9757 6.7058 47.4935 6.99373C49.2826 7.33371 51.0117 7.87143 52.7056 8.48893C54.7095 9.22092 56.6359 10.1437 58.4812 11.2261C60.1505 12.2044 61.7423 13.2937 63.2461 14.5009C64.0878 15.174 64.8837 15.899 65.7007 16.5998C65.8662 17.0924 65.6937 17.5295 65.4753 17.9597C65.1971 18.2684 64.8766 18.1956 64.6195 17.9736C64.1688 17.5781 63.7603 17.6683 63.3165 17.9562C62.7636 18.317 62.1544 18.5772 61.5874 18.9068C61.2598 19.0941 61.2845 19.2502 61.5662 19.4445C61.7881 19.6006 62.017 19.7289 62.2917 19.7671C63.0031 20.0446 63.6405 19.8573 64.2427 19.4653C64.9083 19.2433 65.4788 18.8512 66.0846 18.5182C66.479 18.3517 66.7889 17.9597 67.289 18.0533C67.2503 18.546 67.6869 18.768 67.944 19.0559C69.3985 20.7003 70.6487 22.48 71.7827 24.3498C72.9836 26.3307 73.9626 28.4122 74.7479 30.5735C75.2093 31.8397 75.646 33.1198 75.9031 34.452C75.9524 34.7121 75.8467 35.1388 76.3186 35.2082C76.4137 35.3227 76.382 35.4441 76.3257 35.5551C75.9242 36.3392 75.484 37.0989 75.005 37.8378C74.8536 38.0668 74.6423 38.1743 74.3676 38.0148C73.9591 37.7546 73.8112 37.3279 73.6562 36.9081C73.5506 36.6965 73.5928 36.4224 73.3639 36.2698C72.2933 36.3218 71.2544 36.5577 70.212 36.7728C69.976 36.8804 70.0923 37.0677 70.124 37.2203C70.1873 37.5221 70.3141 37.8101 70.4057 38.105C70.6064 38.6947 70.9163 39.2185 71.3953 39.6314C71.434 39.6591 71.4692 39.6938 71.5045 39.725C71.9623 40.0477 72.4342 39.9991 72.9131 39.7805C73.0399 39.7042 73.1667 39.6314 73.2935 39.5585C74.181 38.8716 75.1459 38.2784 75.9348 37.4666C76.0615 37.3348 76.1813 37.1579 76.4172 37.196C76.6144 38.2749 76.7835 39.3573 76.8539 40.457C76.9244 41.5567 76.9807 42.6565 76.9666 43.7597C76.9596 44.1655 76.8927 44.5575 76.861 44.9565C76.8117 45.574 76.9032 45.6365 77.509 45.5046C78.2168 45.352 78.9247 45.1889 79.6396 45.0606C79.8861 45.0155 80.1678 44.9322 80.3968 45.1473C79.7664 45.404 79.0832 45.4526 78.4281 45.6018C77.1392 45.8897 75.8362 46.136 74.5331 46.3615C73.8992 46.4725 73.6034 46.816 73.4625 47.3745C73.2618 48.1793 73.1526 48.998 73.128 49.8237C73.0117 50.8853 72.9202 51.9468 72.9272 53.0153C72.9308 53.4281 73.0892 53.5392 73.4837 53.442C73.8957 53.3414 74.3218 53.2963 74.7374 53.1992C74.9769 53.1437 75.2269 53.0847 75.4523 53.2616C74.6986 55.8184 73.6668 58.2606 72.3814 60.5988C71.3213 62.5312 70.0747 64.349 68.6695 66.0558C67.701 67.2284 66.6833 68.3558 65.5845 69.4105C64.0737 70.8571 62.4502 72.1615 60.7175 73.341C57.96 75.2178 55.0053 76.7165 51.8428 77.7884C49.5749 78.5551 47.2505 79.1171 44.8558 79.4363C42.7463 79.7173 40.6438 79.8421 38.5238 79.8317C36.9003 79.8213 35.3014 79.5785 33.699 79.3842C32.2164 79.2038 30.769 78.8326 29.3321 78.4441C27.2896 77.889 25.3104 77.164 23.4157 76.2169C23.0459 76.033 22.6797 75.7694 22.2218 75.8075C22.1972 75.7798 22.1831 75.752 22.1866 75.7208C22.1866 75.6861 22.1901 75.6722 22.1972 75.6722C22.2359 75.6029 22.2923 75.5543 22.3662 75.5196C22.6092 75.4537 22.8522 75.3774 23.0635 75.2282C23.2995 75.0305 23.5777 74.916 23.87 74.8223C26.55 73.9516 29.223 73.06 31.903 72.1823C32.1037 72.1164 32.308 72.0678 32.5158 72.0366C32.5862 72.0227 32.5052 71.929 32.5334 71.995C32.5404 72.0158 32.5298 72.0262 32.4911 72.0297C31.8854 72.0886 31.3289 71.8874 30.7725 71.707C29.5294 71.3115 28.3425 70.7773 27.1733 70.2049C27.029 70.1355 26.8881 70.0592 26.7261 70.028C25.7611 69.5943 24.8948 68.9976 23.9756 68.4842C23.8665 68.4252 23.7855 68.3246 23.8242 68.1824C24.1658 68.0991 24.4335 67.9326 24.599 67.603C24.7222 67.3602 24.9371 67.2457 25.2223 67.3324C25.49 67.4122 25.659 67.3047 25.8034 67.0861C26.145 66.5623 26.6697 66.2605 27.2297 66.0315C27.6171 65.8719 27.9657 65.6846 28.2087 65.3342C28.3496 65.1261 28.5186 64.9491 28.7687 64.8624C28.8356 64.8381 28.9271 64.8173 28.9518 64.7583C29.2441 64.1166 29.8639 63.9813 30.452 63.7627C30.8641 63.6101 31.2268 63.5719 31.6248 63.78C32.0298 63.9917 32.4348 64.2172 32.8785 64.3559C33.8082 64.7514 34.6006 65.3793 35.4986 65.8303C35.717 65.9413 35.9318 66.0697 36.1396 66.2015C37.594 66.9612 39.045 67.721 40.6192 68.2171C41.4785 68.5813 42.3835 68.6195 43.2992 68.564C43.426 68.557 43.5457 68.5224 43.6584 68.4634C45.3629 67.5926 47.24 67.1902 49.0219 66.5207C50.3003 66.0419 51.6104 65.643 52.9134 65.1642C51.5505 64.8069 50.325 64.1686 49.0994 63.5337C47.3632 62.5589 45.6834 61.5008 44.0528 60.3664C43.8486 60.2242 43.6478 60.0785 43.4189 59.9744C42.8872 59.7142 42.4152 59.3708 41.968 58.9961C40.7424 57.9762 39.4324 57.0673 38.1681 56.0959C36.8193 54.9962 35.4212 53.9624 34.0759 52.8627C33.773 52.6164 33.4983 52.3388 33.1814 52.1064C33.0475 52.0058 32.882 51.8913 32.9771 51.6728C33.1109 51.5583 33.2729 51.5756 33.4349 51.5791C34.0195 51.5895 34.4492 51.3085 34.6499 50.75C34.7379 50.5002 34.8577 50.2955 35.1112 50.2053C35.9565 49.9 36.4741 49.2166 37.0799 48.6199C37.8617 47.8532 38.64 47.0692 39.7071 46.6737C39.9219 46.6564 40.0839 46.7674 40.2318 46.8957C42.1476 48.5575 44.0881 50.1914 46.0179 51.8358C46.6659 52.3874 47.3139 52.939 48.0218 53.4212C49.8038 54.854 51.6773 56.1653 53.5332 57.4974C53.5755 57.5217 53.6178 57.5529 53.6565 57.5807C54.1531 57.9727 54.6531 58.3543 55.1884 58.6943C55.2871 58.7637 55.3751 58.8435 55.4631 58.9233C55.6533 59.0967 55.8787 59.2216 56.097 59.3569C56.4703 59.6552 56.9387 59.8218 57.2733 60.1721C57.5022 60.3699 57.7417 60.5503 57.9988 60.7099C58.122 60.7792 58.2453 60.8486 58.358 60.9388C58.5446 61.0915 58.7454 61.2198 58.939 61.3655C59.506 61.7402 60.1047 62.0559 60.7598 62.2467C61.2246 62.382 61.3056 62.3265 61.4289 61.8547C61.5627 61.3343 61.4113 60.8833 61.1049 60.4635C60.0589 58.6145 58.8017 56.9077 57.4458 55.2703C55.6533 53.1055 53.8326 50.9616 51.9168 48.9009C51.1209 48.0475 50.3144 47.201 49.5678 46.3025C49.3283 46.0146 49.0431 45.7752 48.7226 45.5809C48.6944 45.5358 48.6803 45.4873 48.6803 45.4352C49.272 44.4708 49.6171 43.3919 50.1313 42.3893C50.3144 42.1292 50.4342 41.8377 50.5785 41.5602C50.5997 41.5151 50.6278 41.4735 50.656 41.4353C50.7476 41.307 50.8251 41.1682 50.9131 41.0329C51.3498 40.3634 51.3533 40.3564 50.6771 39.9679C49.8953 39.5169 49.1065 39.0694 48.3282 38.6115C48.0077 38.4241 47.7753 38.438 47.564 38.7537C47.3773 39.0312 47.1519 39.281 46.997 39.5828C46.6483 40.2315 46.3173 40.8837 46.0637 41.5741C45.9968 41.7545 45.9299 41.9349 45.782 42.0702C45.6446 42.143 45.5249 42.0875 45.4052 42.0285C44.6938 41.3902 44.0493 40.6825 43.3837 39.9991C41.3763 37.9454 39.3443 35.9159 37.2454 33.9559C35.4845 32.3115 33.7272 30.6602 31.8995 29.0852C29.5751 27.0835 27.2508 25.0749 24.7363 23.3056C24.2574 22.9691 23.7749 22.6361 23.2572 22.3551C21.9331 21.5294 21.2252 21.7861 20.711 23.2848C20.0947 24.8667 19.4679 26.4417 18.8551 28.0271C18.4677 28.4018 18.3409 28.9117 18.1648 29.387C17.2985 31.7391 16.4603 34.0981 15.52 36.4224C15.4743 36.5369 15.439 36.6549 15.439 36.7832C15.5271 37.1509 15.3757 37.477 15.2524 37.8066C13.9529 41.2688 12.7449 44.7657 11.4454 48.2314C11.3609 48.4603 11.3081 48.7066 11.1285 48.894C10.9313 49.057 10.8115 49.2652 10.727 49.5045C9.85011 51.9989 8.89573 54.4654 8.01179 56.9597C7.95896 57.1089 7.90261 57.2581 7.89557 57.4176C7.96248 57.7715 7.90614 58.108 7.77583 58.4376C7.50818 59.121 7.28632 59.8183 7.00458 60.4948C6.93767 60.6544 6.94471 60.8937 6.67002 60.8903C6.70524 60.6093 6.57846 60.3768 6.45167 60.1444C5.47969 58.3439 4.64152 56.474 4.01466 54.5348C3.3068 52.3492 2.74685 50.1255 2.4792 47.8359C2.25381 45.9175 2.1059 43.9921 2.16929 42.0632C2.25029 39.6453 2.5285 37.255 3.06028 34.8856C3.58854 32.5301 4.34922 30.2543 5.3353 28.0618C6.49041 25.4912 7.96248 23.0905 9.68459 20.8287C11.0757 19.0074 12.6287 17.3422 14.3121 15.8019C16.3265 13.9598 18.5381 12.3709 20.9399 11.0353C23.0389 9.86618 25.2082 8.85666 27.5009 8.11426C27.6769 8.05529 27.9692 8.02407 27.8249 7.69797C28.1982 7.54533 28.4059 7.86102 28.6736 7.99285C29.2617 8.28078 29.2547 8.29466 29.4589 7.70491C29.6068 7.08393 29.6808 6.46642 29.4801 5.84198C29.4307 5.69281 29.4061 5.53323 29.5188 5.39099C29.9062 5.783 29.885 6.28256 29.8569 6.76824C29.8322 7.22617 29.9625 7.33024 30.445 7.2331C32.3678 6.84456 34.2801 6.36582 36.2593 6.33113C36.453 6.32766 36.6397 6.24787 36.8334 6.23746C37.8053 6.17155 37.7913 6.17502 37.8124 5.18978C37.8194 4.90878 37.6786 4.59309 37.9286 4.33984C38.0836 4.51677 38.0589 4.73533 38.0624 4.94347C38.066 5.55751 38.0624 6.17502 38.0659 6.78905C38.0659 7.59043 38.066 7.59736 38.8407 7.78123C39.9219 8.04141 40.9573 8.41955 41.9328 8.94686C41.9645 8.9642 41.9926 8.98155 42.0208 9.00236C42.8907 9.6164 42.8907 9.6164 42.1265 10.3415C42.0877 10.3761 42.049 10.4039 42.0067 10.4316C41.6968 10.6259 41.4116 10.8549 41.1228 11.0804C39.6085 12.1107 37.9709 12.9329 36.3615 13.7967C34.4069 14.8444 32.396 15.8019 30.6035 17.1236C30.3006 17.3387 30.0048 17.5573 29.7301 17.8105C29.0328 18.4558 28.6313 19.2016 28.7123 20.1834C28.7651 20.846 28.7264 21.5155 28.7229 22.1816C28.7299 22.584 28.7053 22.9865 28.737 23.3889C28.7651 23.7289 28.8849 24.0341 29.1384 24.2804C29.7442 25.0055 30.5612 25.4218 31.4029 25.8103C31.7269 25.9803 32.0509 26.1434 32.4066 26.2474C33.0722 26.4972 33.7307 26.7678 34.4175 26.9621C34.907 27.0974 34.9739 27.0488 34.9774 26.5354C34.9845 25.852 34.9704 25.1651 34.9845 24.4817C34.9915 24.1278 34.8401 23.9439 34.4985 23.8364C33.4807 23.5138 32.4629 23.1877 31.4909 22.7471C31.1423 22.5147 30.7514 22.362 30.3816 22.1608C29.3004 21.4219 29.3004 21.4219 30.1844 20.447C30.2337 20.3881 30.2936 20.343 30.3605 20.3048C30.7162 20.1314 31.0366 19.9059 31.343 19.6596C33.3152 18.4072 35.4176 17.3873 37.4743 16.2806C39.2633 15.3197 41.07 14.3795 42.5596 12.9676C43.1407 12.4472 43.4858 11.8297 43.4612 11.0249C43.433 10.109 43.4401 9.19317 43.4612 8.27731C43.4753 7.69797 43.4119 7.15331 43.0492 6.67457C42.9365 6.58438 42.8766 6.46989 42.9188 6.33807Z" fill="#E5F1FE"/>
<path d="M22.2149 75.6936C22.2114 75.7318 22.2079 75.7699 22.2079 75.8081C21.3591 75.7457 20.6513 76.2105 19.8871 76.4395C18.3093 76.9147 16.7809 77.5774 15.1821 77.9381C14.4284 78.1081 13.7699 78.6042 12.9634 78.5452C12.9634 78.3336 13.1853 78.3475 13.3191 78.1983C11.0194 77.8063 9.01559 76.7066 6.92722 75.8185C6.09258 75.5548 5.45515 74.9373 4.63459 74.6286C4.10986 74.4308 3.59569 74.2019 3.05687 74.0319C2.68357 73.7474 2.30675 73.796 1.92993 74.025C2.19406 73.2132 2.43001 72.3875 2.72936 71.5862C3.1907 70.3511 3.59922 69.0988 4.1803 67.9089C4.33173 67.5966 4.22256 67.1977 4.50429 66.9271C5.0572 66.8438 5.48332 67.1491 5.9341 67.3781C7.62099 68.4327 9.29028 69.5151 10.9455 70.6148C11.3012 70.8507 11.6498 71.0935 12.0337 71.2878C12.4845 71.6208 12.9916 71.8637 13.4741 72.1412C15.2666 73.2028 17.0767 74.2331 19.0524 74.9477C19.6934 75.1802 20.3554 75.3294 21.0105 75.5063C21.3979 75.6485 21.8451 75.423 22.2149 75.6936Z" fill="#EAE8EA"/>
<path d="M75.4453 53.265C74.6776 53.3067 73.9451 53.5461 73.1914 53.664C72.9555 53.7022 72.7583 53.7403 72.7583 53.4108C72.7547 52.2 72.7935 50.9962 72.9731 49.7959C73.1492 49.1194 73.114 48.4083 73.3041 47.7318C73.3816 47.4542 73.4661 47.1906 73.7197 47.0171C73.9028 46.8922 74.0895 46.7986 74.3149 46.9235C74.3853 46.9616 74.4874 47.0865 74.5367 47.0033C74.8854 46.41 75.3925 46.8159 75.8257 46.7951C75.8785 46.7916 75.9419 46.8263 75.9841 46.7986C76.8716 46.2088 78.0408 46.4551 78.9177 45.8411C78.9917 45.7891 79.0621 45.7405 79.129 45.6815C79.2452 45.5809 79.3579 45.3797 79.5199 45.4942C79.7066 45.626 79.6326 45.855 79.534 46.025C79.4072 46.247 79.3262 46.4725 79.3403 46.7257C79.2452 47.2634 79.2488 47.815 79.1537 48.3527C79.122 48.5262 79.1185 48.7031 78.9882 48.8454C78.8015 49.8896 78.8297 50.9511 78.8086 52.0058C78.798 52.4116 78.6853 52.5816 78.2627 52.6718C77.3259 52.8661 76.361 52.9563 75.4453 53.265Z" fill="#08ACEE"/>
<path d="M6.96587 75.7031C7.83221 75.9737 8.60346 76.4455 9.43106 76.7959C10.7235 77.344 12.023 77.854 13.4176 78.0899C13.4986 78.1038 13.5726 78.1454 13.6747 78.1836C13.4775 78.4333 13.157 78.3709 12.9598 78.5444C12.8189 78.5027 12.7415 78.6033 12.6464 78.6692C12.3259 78.7872 12.0054 78.8982 11.6709 78.9676C10.0438 79.4845 8.41681 80.0049 6.78979 80.5218C5.3318 80.9832 3.87382 81.448 2.41232 81.9025C1.93689 82.0516 1.4685 82.0516 1.0459 81.729C1.94393 80.8028 3.02509 80.0742 3.9196 79.1445C4.17669 78.8774 4.43377 78.6033 4.65916 78.3189C5.38815 77.4099 6.24392 76.612 6.96587 75.7031Z" fill="#029FFC"/>
<path d="M6.96582 75.7035C7.00103 75.811 7.0926 75.9012 6.95173 76.0261C5.93396 76.9246 5.16271 78.0452 4.2365 79.0235C3.52512 79.7728 2.76443 80.4874 1.90866 81.0841C1.61284 81.2888 1.50014 81.7294 1.05289 81.7329C0.218245 81.32 -0.172664 80.477 0.0773767 79.6132C0.140767 79.3981 0.225288 79.1865 0.299244 78.9749C0.750021 77.7433 1.19023 76.5118 1.58818 75.2629C1.59523 75.1519 1.56705 75.0305 1.67623 74.9438C1.87696 74.7703 1.89105 74.5136 1.97205 74.2881C2.19039 73.6845 2.19744 73.6775 2.85247 73.844C2.93699 73.8649 3.03208 73.8371 3.10251 73.91C4.49711 74.2707 5.69801 75.0548 6.96582 75.7035Z" fill="#0190F5"/>
<path d="M71.3355 6.35228C70.5854 5.74865 69.8353 5.14503 69.0851 4.53793C68.9724 4.4512 68.8034 4.43385 68.7471 4.27774C68.49 3.4278 68.3984 2.55705 68.4301 1.67242C68.4407 1.37407 68.5287 1.12083 68.7787 0.936962C69.1873 0.624739 69.5289 0.891863 69.8458 1.09307C70.8812 1.75568 71.7651 2.60562 72.6984 3.38964C73.0893 3.71921 73.5366 3.98633 73.8535 4.39916C74.0014 4.70444 73.7514 4.85709 73.5859 5.01667C73.0506 5.52663 72.3462 5.83191 71.8638 6.41126C71.6877 6.62635 71.5116 6.38004 71.3355 6.35228Z" fill="#EB8801"/>
<path d="M41.9363 9.09267C40.746 8.52026 39.5169 8.05539 38.2174 7.79174C37.904 7.72929 37.8934 7.53155 37.8969 7.28525C37.904 6.30001 37.8969 5.31824 37.8969 4.33301C39.3021 4.54116 40.6298 4.96439 41.8553 5.68597C42.6864 6.06758 43.0069 6.69896 42.8731 7.59747C42.8167 7.99295 42.8766 8.40578 42.859 8.81167C42.8343 9.42223 42.697 9.50202 42.1723 9.21409C42.0948 9.17246 42.0208 9.12389 41.9363 9.09267Z" fill="#DB5111"/>
<path d="M84.6864 28.3283C85.5985 29.6084 86.1796 31.062 86.9226 32.4323C87.0529 32.6751 87.0283 32.807 86.7395 32.8972C85.9577 33.14 85.1829 33.4002 84.4117 33.6673C84.1581 33.754 84.0172 33.6881 83.9045 33.4522C83.5981 32.8 83.2777 32.1582 82.9607 31.5095C82.841 31.121 82.6262 30.774 82.3796 30.4618C82.1472 30.1635 82.1824 29.9068 82.4149 29.6639C82.8656 29.1921 83.2777 28.6891 83.7707 28.2555C84.1581 27.912 84.3342 27.9328 84.6864 28.3283Z" fill="#DB5012"/>
<path d="M81.6646 14.3587C82.8796 14.1124 84.0277 14.4385 85.1722 14.7716C85.3941 14.834 85.3272 15.0109 85.2603 15.1636C84.6827 16.468 84.0981 17.7724 83.5276 19.0802C83.4043 19.3612 83.2142 19.2953 82.9993 19.2294C82.1083 18.9553 81.2033 18.7472 80.263 18.8131C79.7312 18.8513 79.2065 18.9484 78.6782 19.0178C78.8614 18.5217 79.3473 18.6986 79.696 18.5737C80.2419 18.6535 80.5412 18.3864 80.7595 17.9181C81.1681 17.0473 81.5378 16.1592 81.9675 15.2954C82.2774 14.6571 82.2492 14.6467 81.6646 14.3587Z" fill="#FECD71"/>
<path d="M53.551 4.12096C53.065 3.73588 52.8114 3.18082 52.4663 2.69514C52.0578 2.11926 51.7056 1.50176 51.0576 1.07852C51.4274 0.814867 51.8359 0.745485 52.2092 0.599781C52.5896 0.450608 52.9875 0.339596 53.3679 0.186954C54.1884 -0.146084 54.5406 -0.0593552 55.0547 0.651818C55.2484 0.918942 55.414 1.20688 55.5901 1.48441C55.8964 1.97703 56.393 2.30313 56.7346 2.76799C57.0269 3.16694 57.0234 3.28489 56.555 3.43754C55.7837 3.69078 55.0195 3.97525 54.2448 4.21809C53.9701 4.30135 53.7658 4.27013 53.551 4.12096Z" fill="#0262E7"/>
<path d="M69.1308 12.9154C69.0146 14.0185 68.8315 15.1078 68.4793 16.1659C68.349 16.5094 68.1095 16.7453 67.7679 16.8979C67.2819 17.113 66.7889 17.3142 66.31 17.5467C66.1163 17.6403 65.8944 17.7201 65.7078 17.5571C65.5458 17.4148 65.6584 17.2275 65.7042 17.0644C66.074 15.7011 66.1233 14.303 66.1832 12.9049C67.0249 12.4713 67.7996 11.9024 68.7118 11.5971C69.0041 11.4999 69.2048 11.5485 69.1731 11.9232C69.1449 12.2527 69.2154 12.5858 69.1308 12.9154Z" fill="#DB8603"/>
<path d="M84.6864 28.329C84.3553 28.0411 84.0771 28.0827 83.7813 28.4123C83.3622 28.8806 82.9009 29.3108 82.4712 29.7722C82.2846 29.9734 82.2846 30.1885 82.4571 30.4383C82.6825 30.7644 82.9783 31.0697 82.9607 31.5102C82.5839 31.0662 82.4008 30.5007 81.9641 30.0914C81.626 29.7757 81.2844 29.5918 80.816 29.7028C80.5096 29.7861 80.3265 30.0254 80.1152 30.2336C79.8581 30.4868 79.682 30.4001 79.5588 30.1156C79.4073 29.7687 79.3616 29.4149 79.5165 29.0576C79.5165 28.9743 79.52 28.8876 79.6151 28.8459C79.9849 28.4817 80.161 27.9821 80.4885 27.5866C80.7245 27.1322 81.1013 26.8096 81.5204 26.5355C82.0275 26.2025 82.5874 26.1851 83.0981 26.48C83.8376 26.8998 84.3412 27.5589 84.6864 28.329Z" fill="#D95A30"/>
<path d="M5.88828 67.4649C5.43398 67.2637 4.98321 67.0556 4.50073 66.9307C4.62399 66.5005 4.75077 66.0703 4.93038 65.6575C5.58894 64.0999 6.15241 62.5075 6.64193 60.8909C7.10327 59.9404 7.40261 58.9343 7.74422 57.9422C7.79704 57.7895 7.73013 57.5987 7.71956 57.4287C7.76535 57.3663 7.83226 57.3281 7.90269 57.3559C8.46969 57.5883 8.97329 57.9144 9.39941 58.3481C9.4628 58.4105 9.48041 58.5042 9.43463 58.5944C9.09303 58.6811 8.92751 58.9205 8.79368 59.2327C7.78648 61.5431 6.9307 63.9125 5.88828 66.2091C5.67698 66.6636 5.82137 67.0452 5.88828 67.4649Z" fill="#2894F1"/>
<path d="M79.5199 29.0537C79.5622 29.3625 79.5904 29.6712 79.6502 29.9765C79.7136 30.2922 79.8474 30.4136 80.1327 30.1222C80.3193 29.9314 80.4743 29.6539 80.8194 29.7024C79.932 30.3789 79.4319 31.3225 78.9494 32.2869C78.1253 33.9348 77.4421 35.652 76.4138 37.1992C75.5862 38.0839 74.5614 38.7326 73.6281 39.4889C73.533 39.5652 73.4485 39.6623 73.3076 39.6589C73.3041 39.1905 73.7549 39.0483 73.9873 38.7499C74.1528 38.5349 74.4275 38.3857 74.3395 38.0526C74.3395 38.0006 74.3606 37.9624 74.4064 37.9347C74.5895 38.018 74.7515 38.018 74.8642 37.8272C75.3678 36.9668 75.9454 36.1446 76.3152 35.2114C76.8716 34.3545 77.2449 33.404 77.7098 32.502C78.3049 31.3433 78.7768 30.1326 79.5199 29.0537Z" fill="#D87D64"/>
<path d="M68.8844 4.31572C68.9513 4.38858 69.0218 4.4649 69.0887 4.53775C68.7788 4.51 68.8069 4.7008 68.8351 4.90548C68.9126 5.48482 69.0182 6.0607 69.0112 6.65045C68.6449 6.35558 68.2928 6.45271 67.9089 6.64699C67.3877 6.91064 66.9052 7.25062 66.3312 7.41713C66.0811 7.48999 66.0248 7.6912 66.06 7.92363C66.0988 8.18381 66.1551 8.444 66.1551 8.70765C66.1586 8.85336 66.1657 8.99559 66.1586 9.1413C66.1164 9.44311 66.2537 9.77615 66.0001 10.0433C65.8029 9.55412 65.8875 9.03722 65.8558 8.5342C65.7607 6.9037 65.4578 5.29055 65.4578 3.65312C65.4578 3.41375 65.3979 3.15703 65.567 2.93848C65.8276 3.22642 65.7114 3.5768 65.7184 3.89943C65.7255 4.29144 65.8839 4.36082 66.2185 4.21165C66.789 3.9584 67.3349 3.65312 67.9019 3.39987C68.4512 3.15703 68.5675 3.22295 68.6837 3.79535C68.7189 3.97922 68.6872 4.19084 68.8844 4.31572Z" fill="#FEEE71"/>
<path d="M79.7418 18.7022C79.3861 18.8063 78.9741 18.7299 78.6747 19.0179C78.2275 19.1358 77.8542 19.4064 77.3752 19.6527C77.6323 18.8063 78.0444 18.109 78.3472 17.37C78.5339 16.9156 78.7522 16.4715 78.96 16.024C79.4249 15.011 80.2806 14.5739 81.3512 14.4629C81.5696 14.56 81.5625 14.7404 81.4886 14.9104C80.9357 16.1836 80.4215 17.481 79.7418 18.7022Z" fill="#F89138"/>
<path d="M78.9952 48.8455C78.9775 48.0962 79.1184 47.3607 79.2135 46.6253C79.3825 46.0355 79.939 46.0633 80.3721 46.0043C80.7842 45.9488 80.9004 45.8135 80.8229 45.4492C81.7033 46.0355 82.0661 46.9375 82.3267 47.8915C82.3866 48.1135 82.2281 48.1829 82.0238 48.2245C81.0131 48.4223 80.0059 48.6339 78.9952 48.8455Z" fill="#51DAFE"/>
<path d="M69.1309 12.9151C69.1238 12.6029 69.1027 12.2872 69.1203 11.975C69.1379 11.6523 68.99 11.6176 68.74 11.7286C68.3737 11.8952 67.9722 12.0201 67.6553 12.2525C67.2186 12.5716 66.7361 12.752 66.229 12.9012C66.1128 12.7382 66.1938 12.5508 66.1691 12.3774C66.2079 11.9368 66.1163 11.5066 66.0635 11.073C66.0776 10.681 66.2607 10.4347 66.6516 10.2994C67.3419 10.06 67.9476 9.63675 68.6167 9.34535C69.0781 9.14414 69.1344 9.1823 69.1872 9.70267C69.2717 10.7712 69.307 11.8431 69.1309 12.9151Z" fill="#EAA605"/>
<path d="M68.8843 4.31546C68.5885 4.23567 68.5991 3.96855 68.5956 3.7604C68.585 3.29901 68.3631 3.31982 68.0462 3.47593C67.4721 3.7604 66.9051 4.04834 66.3241 4.3224C65.6268 4.6485 65.5845 4.62075 65.5775 3.88529C65.5739 3.5696 65.5704 3.25391 65.5669 2.93822C65.5739 2.7266 65.6655 2.55661 65.8522 2.45947C66.8277 1.94604 67.8067 1.44302 68.7822 0.936523C68.3737 1.83503 68.6484 2.74741 68.7399 3.65633C68.7611 3.88182 68.8315 4.09691 68.8843 4.31546Z" fill="#FCD731"/>
<path d="M80.8229 45.4456C80.844 45.6503 81.2138 45.7197 81.0659 45.966C80.9356 46.1776 80.6714 46.0458 80.4777 46.0978C80.034 46.2123 79.5234 46.188 79.2134 46.6216C79.0867 46.2088 79.629 45.9625 79.4811 45.4664C79.1008 46.1845 78.2485 46.07 77.766 46.5661C77.7308 46.6008 77.6005 46.5592 77.516 46.5384C77.0159 46.4239 76.5687 46.5106 76.1989 46.8853C76.0615 47.0241 75.9312 47.0934 75.7446 46.9235C75.4945 46.698 75.1318 47.0588 74.8536 46.7882C74.8113 46.7465 74.7057 46.9477 74.6951 47.0726C74.6881 47.1732 74.7057 47.2981 74.5648 47.3293C74.4204 47.3606 74.4028 47.2391 74.357 47.1455C74.2232 46.8714 74.0471 46.9304 73.8429 47.0761C73.2583 47.4924 73.29 48.1411 73.2054 48.7378C73.1561 49.0986 73.1456 49.4594 72.9695 49.7924C73.0117 48.8072 73.128 47.8324 73.4625 46.8957C73.5858 46.5488 73.8006 46.3615 74.1845 46.2886C76.0404 45.9278 77.8893 45.5358 79.7417 45.1681C79.9495 45.1264 80.1678 45.1542 80.3827 45.1473C80.5341 45.2479 80.6785 45.3485 80.8229 45.4456Z" fill="#32ABED"/>
<path d="M29.5117 7.8226C29.3391 8.48867 29.3427 8.47826 28.7193 8.16951C28.4094 8.01687 28.1418 7.7775 27.7931 7.69771C27.4656 7.41671 27.0747 7.23631 26.6873 7.05939C26.3351 6.8998 26.2506 6.69859 26.4056 6.35168C26.4971 6.14353 26.5394 5.91457 26.6028 5.69601C26.631 5.67173 26.6556 5.64398 26.6591 5.60929C26.7296 4.83567 26.9021 4.72465 27.5924 5.10626C28.1523 5.41154 28.6841 5.7654 29.2335 6.0915C29.5716 6.29271 29.7617 6.62921 29.6138 7.04204C29.5223 7.30222 29.6244 7.57282 29.5117 7.8226Z" fill="#0B88DA"/>
<path d="M69.1837 9.69586C69.1238 9.39058 69.0217 9.26222 68.6731 9.44955C67.9476 9.84156 67.201 10.2093 66.4438 10.5319C66.1938 10.6395 66.2677 10.8441 66.1586 10.9829C65.9613 10.6499 66.1057 10.2891 66.067 9.94217C66.0353 9.65423 66.1128 9.35935 66.0177 9.07488C66.0177 8.93959 66.0177 8.80082 66.0142 8.66553C66.0776 8.56145 66.1198 8.42963 66.2466 8.388C67.046 8.12781 67.7363 7.63519 68.5251 7.35419C69.0323 7.1738 69.0534 7.19461 69.0675 7.72539C69.071 7.89538 69.0076 8.07577 69.1203 8.23535C69.1274 8.72103 69.2577 9.20671 69.1837 9.69586Z" fill="#F9CC02"/>
<path d="M76.199 9.19299C75.2904 9.09585 74.5614 8.60671 73.8184 8.14878C74.403 7.68392 75.058 7.33353 75.7306 7.0109C76.0582 6.85479 76.3575 6.6744 76.5265 6.33789C77.4281 6.82357 78.3402 7.28843 79.3263 7.59372C79.2559 7.69085 79.1432 7.72901 79.0445 7.69779C78.5163 7.53821 78.1219 7.79146 77.7169 8.06899C77.2626 8.37774 76.7695 8.63446 76.273 8.86342C75.9948 8.99178 76.2871 9.10279 76.199 9.19299Z" fill="#FEEC67"/>
<path d="M41.9362 9.09224C42.711 9.28651 42.711 9.28651 42.711 8.44351C42.711 8.2874 42.7075 8.12782 42.711 7.97171C42.7462 7.09402 42.873 6.18163 41.8552 5.68555C42.2778 5.78962 42.549 6.14 42.9188 6.33428C43.4682 6.90321 43.6337 7.5797 43.5985 8.35678C43.5562 9.30039 43.609 10.2509 43.5985 11.1945C43.5914 12.0271 43.1759 12.6481 42.5032 13.1234C42.4081 12.9673 42.5103 12.8458 42.5983 12.7522C42.9117 12.4053 42.8519 12.0584 42.6511 11.6906C42.5067 11.4304 42.3729 11.1598 42.3412 10.8615C42.313 10.6013 42.0841 10.5007 41.9433 10.3307C41.9609 10.2995 41.9714 10.2648 41.9926 10.244C42.6089 9.63343 42.6089 9.63343 41.9362 9.09224Z" fill="#D95C32"/>
<path d="M71.3354 6.35254C71.582 6.40111 71.7721 6.39417 71.9588 6.14786C72.2335 5.7836 72.635 5.54423 73.0223 5.30139C73.378 5.07936 73.7267 4.83306 73.8535 4.39941C74.2761 4.6596 74.667 4.95795 75.0156 5.30833C75.2762 5.53382 75.3643 5.75932 75.0015 5.96746C74.2937 6.37335 73.5612 6.74455 72.9449 7.28921C72.8639 7.36206 72.7441 7.35512 72.6455 7.29267C72.1419 7.07412 71.751 6.69598 71.3354 6.35254Z" fill="#EFB303"/>
<path d="M29.5119 7.82335C29.5119 7.64642 29.4662 7.46256 29.5155 7.29951C29.7092 6.62302 29.3746 6.26917 28.797 5.99511C28.3392 5.77655 27.9272 5.46433 27.4799 5.22496C26.8707 4.90233 26.839 4.92662 26.7016 5.58228C26.6911 5.62738 26.6382 5.66207 26.603 5.70023C26.6065 4.98906 26.7228 4.26401 26.4128 3.5459C27.4694 4.14606 28.6491 4.4895 29.4873 5.39148C29.7408 6.19979 29.8254 7.0081 29.5119 7.82335Z" fill="#3991DA"/>
<path d="M79.7417 18.7027C79.865 17.9672 80.3087 17.3601 80.5693 16.6767C80.7947 16.0904 81.0694 15.5215 81.337 14.9525C81.418 14.7826 81.4673 14.6299 81.3511 14.4634C81.4215 14.3281 81.5483 14.3663 81.6645 14.3628C82.4851 14.401 82.5097 14.4114 82.1857 15.1468C81.7561 16.1216 81.2701 17.0757 80.8405 18.0505C80.6221 18.5466 80.3122 18.8172 79.7417 18.7027Z" fill="#FEB44E"/>
<path d="M66.2149 12.3466C66.2184 12.5305 66.2254 12.7143 66.2289 12.8982C66.2043 14.3379 66.1444 15.7741 65.7535 17.1722C65.669 17.4705 65.7465 17.6266 66.0388 17.5052C66.7607 17.1999 67.4615 16.8565 68.1623 16.5061C68.2926 16.4402 68.3772 16.2806 68.4828 16.1627C68.3525 16.9571 67.7996 17.4913 67.2854 18.0464C66.8981 18.2303 66.5107 18.4176 66.1198 18.6015C65.831 18.6778 65.6126 18.8825 65.3415 19.0004C65.1513 19.0837 65.0104 19.1045 64.9435 18.8686C64.9118 18.6188 65.0351 18.4176 65.1548 18.2129C65.2182 18.1366 65.2992 18.0742 65.345 17.984C65.514 17.533 65.6584 17.075 65.6972 16.5928C66.0317 15.4099 66.0458 14.1922 66.0916 12.978C66.0986 12.7698 66.1022 12.5617 66.1057 12.3501C66.1409 12.3154 66.1761 12.3119 66.2149 12.3466Z" fill="#D78C30"/>
<path d="M69.1204 8.23637C68.8915 7.98312 69.0887 7.65355 68.9478 7.35174C67.923 7.68478 67.0144 8.28494 66.0107 8.67001C65.7853 7.85129 65.8699 7.25807 66.8982 7.02217C67.349 6.9181 67.7786 6.58506 68.2224 6.36304C68.5921 6.17917 68.8915 6.18264 69.0077 6.65444C69.0464 7.17828 69.1943 7.69865 69.1204 8.23637Z" fill="#FEE646"/>
<path d="M53.5508 4.12154C54.2023 4.3054 54.7517 3.95155 55.3328 3.7885C55.7589 3.67055 56.1674 3.49709 56.583 3.35486C56.8576 3.26119 56.8964 3.16406 56.6921 2.91775C56.3047 2.45635 55.7941 2.08516 55.5898 1.48846C55.8962 1.99149 56.3047 1.90129 56.759 1.71049C57.1006 1.56478 57.4669 1.47459 57.8191 1.3497C58.0374 1.27338 58.1501 1.29072 58.1395 1.56478C58.1008 2.53267 57.6395 3.16059 56.7062 3.47975C55.8821 3.76075 55.0545 4.03134 54.2305 4.31581C53.9487 4.40948 53.7093 4.41988 53.5508 4.12154Z" fill="#3490DF"/>
<path d="M76.199 9.19361C76.0053 9.07219 75.8538 8.96118 76.1638 8.78425C76.8575 8.39224 77.5795 8.03839 78.2345 7.57699C78.5902 7.32722 78.96 7.67066 79.3262 7.59087C79.5728 7.60475 79.8193 7.61862 80.2419 7.64638C79.1678 8.21532 78.231 8.7114 77.2907 9.20749C76.928 9.25259 76.5617 9.27687 76.199 9.19361Z" fill="#FCD320"/>
<path d="M72.6455 7.29587C73.0047 7.25771 73.1421 6.92467 73.4062 6.75122C73.864 6.4494 74.343 6.18922 74.8325 5.93944C75.1318 5.7868 75.241 5.60293 75.0191 5.31152C75.4135 5.4607 75.6777 5.77292 75.9841 6.0331C76.1848 6.33492 75.97 6.51531 75.7516 6.62286C74.9698 7.00099 74.2303 7.44158 73.5189 7.93419C73.1984 7.75727 72.8885 7.56993 72.6455 7.29587Z" fill="#FCD406"/>
<path d="M73.519 7.93082C73.9804 7.24046 74.7692 7.01844 75.4489 6.64724C75.7131 6.50154 76.0159 6.41828 75.9878 6.0332C76.1674 6.13381 76.347 6.23788 76.5301 6.33849C76.6111 6.48072 76.6005 6.63683 76.4667 6.71315C75.6039 7.21965 74.7411 7.73308 73.8254 8.14938C73.7163 8.07652 73.6177 8.00367 73.519 7.93082Z" fill="#FEE339"/>
<path d="M1.58484 75.2627C1.31719 76.5532 0.85937 77.7848 0.295898 78.9747C0.623416 77.7015 1.06715 76.47 1.58484 75.2627Z" fill="#4E9EF0"/>
<path d="M66.2149 12.347L66.1621 12.3574H66.1093C66.0705 11.5873 66.0353 10.8171 65.9966 10.047C66.0036 9.72436 66.0071 9.40173 66.0142 9.0791C66.2361 9.70355 66.0318 10.3557 66.1551 10.9871C66.1762 11.4381 66.1938 11.8926 66.2149 12.347Z" fill="#FEE646"/>
<path d="M3.09196 73.9098C2.26083 73.8508 2.25731 73.8474 1.9298 74.6626C1.87697 74.7979 1.84175 74.9263 1.66919 74.9471C1.75723 74.6418 1.84175 74.333 1.9298 74.0277C2.26083 73.608 2.49327 73.5837 3.09196 73.9098Z" fill="#4E9EF0"/>
<path d="M80.4884 27.583C80.27 28.0513 80.0728 28.5335 79.615 28.8423C79.8721 28.3983 80.0799 27.923 80.4884 27.583Z" fill="#D87D64"/>
<path d="M4.93038 65.6562C4.87755 66.1107 4.70499 66.5235 4.50073 66.9294C4.52538 66.468 4.63104 66.0309 4.93038 65.6562Z" fill="#EAE8EA"/>
<path d="M11.6743 78.9722C11.9737 78.7918 12.2977 78.6912 12.6498 78.6738C12.3646 78.9028 12.0371 78.9965 11.6743 78.9722Z" fill="#EAE8EA"/>
<path d="M76.2024 9.19336C76.5651 9.19683 76.9279 9.20377 77.2906 9.20724C76.9243 9.35641 76.5616 9.36335 76.2024 9.19336Z" fill="#FEEC67"/>
<path d="M15.2419 36.8114C15.6716 35.6423 16.0942 34.4732 16.5309 33.3076C17.1331 31.6944 17.7388 30.0847 18.3481 28.4751C18.422 28.2808 18.4643 28.0588 18.7249 28.0102C18.9468 27.9998 19.07 28.1836 19.2426 28.2704C20.0315 28.8983 20.7147 29.6407 21.493 30.2755C22.2431 30.9243 22.8664 31.7014 23.6764 32.2876C27.2439 35.788 31.0438 39.0351 34.8191 42.3134C35.2487 42.7748 35.7594 43.1426 36.2383 43.5519C36.2806 43.5762 36.3193 43.6074 36.3545 43.6352C36.5834 43.8399 36.7806 44.0758 37.0518 44.2319C37.1117 44.2735 37.168 44.3186 37.2244 44.3672C37.8688 45.0124 38.5873 45.5744 39.2634 46.185C39.443 46.3446 39.6649 46.4764 39.7177 46.7401C38.2985 47.4686 37.2526 48.6307 36.1608 49.7339C35.8861 50.0115 35.5516 50.1502 35.2135 50.2994C35.0444 50.3722 34.8825 50.4347 34.8085 50.6081C34.3577 51.6211 34.2274 51.7079 33.1533 51.7009C33.0829 51.7009 33.0124 51.7079 32.9385 51.7113C32.9138 51.7044 32.8927 51.6975 32.868 51.6905C32.5194 51.4373 32.2236 51.1146 31.8186 50.9377C30.9135 50.3237 30.1352 49.557 29.2618 48.9048C27.582 47.4547 25.8669 46.0462 24.2152 44.5649C22.7889 43.2848 21.3134 42.0602 19.8976 40.7697C18.3833 39.3994 16.8831 38.0256 15.2419 36.8114Z" fill="#EDE8E2"/>
<path d="M9.43117 58.5724C8.9663 58.0347 8.38875 57.667 7.72314 57.4241C7.94501 56.4285 8.37466 55.4987 8.70922 54.5413C9.31847 52.7998 9.97351 51.0756 10.6109 49.341C10.6955 49.1086 10.7483 48.8553 11.0688 48.8311C11.759 48.9351 12.2732 49.3792 12.8226 49.74C13.0268 49.8753 13.2205 50.0314 13.4389 50.1459C16.3196 52.3037 19.137 54.5413 22.0318 56.6852C22.3065 56.9662 22.627 57.1952 22.951 57.4102C22.9932 57.4345 23.0355 57.4657 23.0742 57.497C24.8632 58.8048 26.6452 60.1196 28.4871 61.3581C29.7725 62.274 31.1037 63.1343 32.4279 63.9947C32.6145 64.1161 32.8575 64.1993 32.8822 64.4734C32.3785 64.404 31.9876 64.0849 31.5439 63.8837C31.1565 63.7067 30.8079 63.6512 30.4592 63.9288C30.3324 64.0294 30.1775 64.1855 30.0437 64.1265C29.5682 63.9253 29.4415 64.2757 29.2971 64.5601C29.1773 64.796 29.0259 64.9626 28.7618 65.0007C28.554 65.0319 28.4765 65.1846 28.3744 65.3303C28.149 65.646 27.8919 65.9235 27.501 66.0657C26.8002 66.3225 26.1487 66.6486 25.7824 67.3493C25.6979 67.5124 25.5253 67.6026 25.3281 67.495C24.9372 67.2834 24.7435 67.4812 24.5991 67.8177C24.4477 68.168 24.1906 68.3242 23.7997 68.1993C23.3172 68.2617 23.032 67.8836 22.6798 67.6824C22.0952 67.3493 21.5141 67.0093 20.9647 66.6139C19.7004 65.8056 18.4291 65.0111 17.2212 64.1265C17.0204 63.9808 16.8267 63.8316 16.5908 63.7414C15.5871 63.0094 14.5764 62.2948 13.5586 61.5836C12.2802 60.6886 11.03 59.7554 9.70938 58.9158C9.57204 58.8395 9.39947 58.7805 9.43117 58.5724Z" fill="#EAE8E8"/>
<path d="M32.8714 64.4773C31.4979 63.5545 30.1245 62.6317 28.751 61.7055C28.6348 61.6292 28.5327 61.532 28.4235 61.4453C28.2228 61.2406 27.9762 61.0984 27.7332 60.9527C27.4198 60.7653 27.4762 60.5711 27.6945 60.3629C27.8495 60.2172 28.0467 60.127 28.2368 60.0264C29.6948 59.2597 31.1387 58.4653 32.4453 57.4558C32.7587 57.2129 33.1179 57.043 33.4842 56.9181C34.1885 56.6787 34.8119 56.3075 35.3894 55.8635C35.7557 55.5825 36.1571 55.4298 36.5903 55.3188C36.9601 55.2217 37.2947 55.2702 37.5693 55.5651C37.7525 55.7629 37.9955 55.8773 38.2138 56.0265C39.3901 56.8973 40.5804 57.7541 41.7426 58.6492C42.299 59.0793 42.8519 59.506 43.4647 59.8564C43.7534 60.2519 43.6443 60.5399 43.278 60.8451C42.7357 61.2961 42.0842 61.5702 41.4679 61.8547C40.4184 62.3403 39.4534 62.9682 38.3688 63.4019C37.7384 63.6551 37.0622 64.0333 36.5797 64.5918C36.4142 64.7861 36.1818 64.8 35.9529 64.8416C35.4493 64.9318 35.3929 65.1226 35.7381 65.5077C35.8789 65.6638 36.0621 65.7921 36.1571 65.9864C36.2135 66.0939 36.3191 66.2535 36.0656 66.2847C35.1288 65.8476 34.266 65.2787 33.3856 64.7479C33.2165 64.6542 33.044 64.5675 32.8714 64.4773Z" fill="#019EFA"/>
<path d="M38.2139 56.0303C37.9744 56.0372 37.823 55.8637 37.6574 55.7458C37.0904 55.3399 36.2945 55.2983 35.7698 55.7527C34.9563 56.457 33.9878 56.8871 33.0123 57.2861C32.4488 57.515 32.1319 58.0319 31.586 58.2852C30.3957 58.8333 29.4131 59.7492 28.1629 60.2036C28.0502 60.2453 27.9516 60.332 27.8495 60.4014C27.5924 60.5748 27.4938 60.7309 27.8425 60.9391C28.0608 61.0709 28.339 61.1611 28.4271 61.4491C27.2543 60.7795 26.2154 59.9226 25.1131 59.156C24.3736 58.6425 23.6199 58.143 22.9543 57.5324C23.0846 57.4526 23.3699 57.5116 23.2466 57.1994C23.2079 57.1057 23.2643 56.9808 23.3453 56.9079C24.0531 56.2904 24.4616 55.4162 25.2188 54.8369C25.5956 54.5455 25.8668 54.1465 26.1591 53.7649C26.7824 52.9531 27.5748 52.2801 28.2087 51.4822C28.6243 50.9618 29.1807 50.5941 29.5892 50.0737C29.8111 49.7927 29.79 49.5811 29.554 49.3348C29.4202 49.1961 29.1913 49.0781 29.304 48.8145C30.1527 49.4979 31.0014 50.1813 31.8502 50.8647C32.2375 51.118 32.5897 51.4128 32.9348 51.7147H32.9278C34.0301 52.7589 35.2697 53.6435 36.446 54.6044C37.0341 55.0797 37.6786 55.4891 38.2139 56.0303Z" fill="#1C9FF9"/>
<path d="M34.7451 42.407C32.854 40.8737 31.0685 39.2258 29.2407 37.6196C27.3848 35.9891 25.5711 34.317 23.7962 32.5998C23.7222 32.5269 23.6588 32.4402 23.5919 32.3604C23.5285 32.2321 23.4334 32.1349 23.3172 32.0482C22.8171 31.677 22.8136 31.6388 23.2257 31.2156C23.7081 30.723 24.2399 30.2859 24.7717 29.8488C25.0112 29.6545 25.2366 29.7239 25.4584 29.8696C25.9796 30.213 26.4058 30.6536 26.8284 31.1115C28.0046 32.3812 29.3323 33.4983 30.5649 34.7125C30.6001 34.7472 30.66 34.7576 30.7093 34.7819C31.6918 35.5659 32.5335 36.4887 33.4069 37.3837C33.5407 37.5225 33.6534 37.6821 33.8224 37.7827C34.2134 38.1296 34.5867 38.4904 34.9353 38.8789C36.0059 40.0307 37.1328 41.1235 38.2598 42.2232C39.1473 43.1113 40.0453 43.989 40.9433 44.8667C41.542 45.4356 42.0773 46.067 42.7429 46.5665C43.5282 47.2777 44.2537 48.0479 45.0214 48.7799C45.6166 49.3453 46.1519 49.9767 46.8175 50.4763C47.3141 50.9064 47.7578 51.3886 48.2332 51.8396C48.4304 52.0443 48.6206 52.2525 48.8742 52.3947C49.4905 52.9428 50.1349 53.4562 50.7019 54.0564C50.8992 54.2611 51.0893 54.4692 51.3429 54.6115C51.6669 54.9063 52.0437 55.1388 52.3466 55.4579C54.3504 57.189 56.3895 58.875 58.5518 60.4153C58.8018 60.6894 59.1505 60.8524 59.3829 61.1404C59.5097 61.3 59.7597 61.47 59.4674 61.7024C59.228 61.744 59.1153 61.5116 58.9216 61.4595C58.7208 61.2722 58.5272 61.0814 58.2419 61.0224C58.1433 60.9565 58.0447 60.8941 57.9426 60.8282C57.7277 60.5853 57.4847 60.3841 57.1678 60.2835C56.8403 59.9331 56.3296 59.8291 56.0091 59.4648C55.8577 59.2393 55.6182 59.1248 55.3893 58.9965C55.3083 58.9444 55.2273 58.8889 55.1463 58.8369C54.6603 58.372 54.0969 58.0078 53.5404 57.6331H53.5439C52.3853 56.3322 50.9942 55.2741 49.7123 54.1015C47.5817 52.1484 45.4793 50.164 43.3064 48.2525C41.7216 46.8579 40.1298 45.4703 38.5662 44.0514C38.1858 43.7045 37.7949 43.368 37.404 43.035C36.8441 42.5597 36.6398 42.6013 36.2489 43.198C36.1996 43.2743 36.1397 43.3368 36.0587 43.3784C35.5481 43.1564 35.217 42.688 34.7451 42.407Z" fill="#008FF3"/>
<path d="M21.0174 66.541C21.933 67.11 22.824 67.7171 23.789 68.2097C24.7257 68.8341 25.7294 69.3545 26.7155 69.8957C27.0923 70.2183 27.1029 70.3779 26.7507 70.6797C26.631 70.7838 26.5007 70.8844 26.3563 70.9468C25.0497 71.5019 24.0003 72.4386 22.8346 73.2053C22.1725 73.6389 21.6302 74.246 20.8695 74.5374C20.6863 74.6068 20.5349 74.7594 20.5737 74.9884C20.6194 75.2416 20.8448 75.2139 21.0315 75.2659C21.5492 75.4116 22.0563 75.2971 22.5669 75.2312C22.736 75.2069 22.9578 75.0821 23.0635 75.3561C22.8311 75.5365 22.581 75.6579 22.2746 75.6163C21.8309 75.6579 21.3872 75.6822 20.9434 75.6059C19.7883 75.4359 18.7107 75.0127 17.6612 74.5339C16.1891 73.8609 14.7452 73.1255 13.3964 72.2304C13.1816 72.0223 13.1781 71.8245 13.5126 71.8245C14.2663 71.828 14.7276 71.3735 15.2629 70.9434C16.4004 70.0379 17.3196 68.8966 18.5628 68.0952C19.1227 67.7344 19.6158 67.2557 20.144 66.8359C20.3976 66.6312 20.6582 66.4439 21.0174 66.541Z" fill="#019CFB"/>
<path d="M36.0622 66.2921C36.2242 65.9591 35.865 65.9071 35.7452 65.7301C35.5868 65.4942 35.1888 65.3624 35.3438 64.9981C35.4705 64.6998 35.7981 64.6963 36.0904 64.7067C36.2418 64.7102 36.3686 64.6651 36.4742 64.5541C36.9215 64.0858 38.2492 63.2775 38.8091 63.104C38.9922 63.0485 39.1507 62.9201 39.3233 62.8299C40.2601 62.3373 41.2144 61.8725 42.123 61.3278C42.4189 61.1509 42.7569 61.0711 43.0563 60.856C43.4507 60.5785 43.5845 60.294 43.4578 59.8604C45.2926 61.0884 47.1415 62.2957 49.0467 63.4093C49.3531 63.8186 49.3038 64.2107 48.8777 64.5298C48.5607 64.7692 48.1909 64.8975 47.793 64.9392C47.5781 64.96 47.3739 64.9981 47.1908 65.123C46.7963 65.3971 46.4935 65.7752 45.9159 65.8099C45.6271 65.8273 45.4088 66.2609 45.0848 66.4274C44.7502 66.5974 44.4297 66.7778 44.0564 66.8472C43.8628 66.8854 43.6655 66.9478 43.5317 67.09C43.2394 67.4023 42.8767 67.5584 42.4576 67.6174C42.197 67.6555 41.9681 67.7839 41.8554 68.0128C41.6194 68.495 41.2637 68.554 40.8059 68.3771C40.7249 68.3459 40.6298 68.3563 40.5524 68.3042C38.9465 67.8775 37.499 67.09 36.0622 66.2921Z" fill="#0EB5FE"/>
<path d="M41.9434 10.3345C42.2815 10.2894 42.4259 10.4872 42.4752 10.7751C42.5069 10.9624 42.4963 11.1637 42.6161 11.3267C43.0809 11.9581 43.0739 12.5583 42.5034 13.1272C41.6159 14.0708 40.5101 14.7265 39.3972 15.3544C36.7313 16.8635 33.9633 18.1887 31.3361 19.7637C30.998 19.9545 30.667 20.1591 30.3641 20.3985C30.3253 20.4332 30.2866 20.4679 30.2479 20.5026C29.9344 20.6448 29.8112 20.4124 29.7372 20.2077C29.5576 19.6943 29.4449 19.16 29.209 18.6605C29.0892 18.4107 29.2336 18.2025 29.4097 17.9979C29.7513 17.6093 30.2127 17.3595 30.5613 16.9849C31.6495 16.1106 32.8997 15.4966 34.1147 14.8305C36.4425 13.5539 38.8302 12.3917 41.0806 10.9798C41.3905 10.7925 41.6899 10.5947 41.9434 10.3345Z" fill="#DB4D0B"/>
<path d="M13.3931 50.2468C12.5972 49.8097 11.8964 49.2165 11.0618 48.8349C12.3859 45.1923 13.7101 41.5532 15.0202 37.9071C15.1434 37.5602 15.4392 37.2306 15.2385 36.8143C15.3935 36.7623 15.5238 36.8351 15.6365 36.9219C17.1261 38.1256 18.5841 39.3676 19.9646 40.6963C19.7075 40.8593 19.5631 40.6512 19.4188 40.5159C19.1088 40.221 18.7567 39.9782 18.4432 39.6902C18.1932 39.4613 17.9784 39.4821 17.8939 39.8221C17.6086 40.9634 17.0064 41.9833 16.4394 42.979C15.9041 43.9191 15.5484 44.9252 15.0307 45.8653C14.5729 46.6909 14.2595 47.5929 13.784 48.4151C13.46 48.9702 13.4389 49.6154 13.3931 50.2468Z" fill="#2194F2"/>
<path d="M23.0635 75.3569C22.7818 75.1973 22.486 75.35 22.2465 75.4193C21.7112 75.5755 21.2217 75.3812 20.711 75.3777C20.5103 75.3777 20.4399 75.2181 20.4047 75.0655C20.3624 74.892 20.3483 74.7047 20.5279 74.5868C20.7216 74.4619 20.9153 74.3231 21.1266 74.2468C21.352 74.1635 21.5527 74.049 21.7182 73.8999C22.5036 73.1887 23.465 72.7065 24.2609 72.0196C24.9582 71.416 25.8386 71.1488 26.5923 70.6493C26.9515 70.4099 27.0008 70.2018 26.7191 69.8965C27.1804 69.9936 27.5607 70.2607 27.9798 70.4515C29.4695 71.1384 30.9838 71.7455 32.6425 72.082C32.3925 72.1653 32.1425 72.2486 31.8889 72.3318C31.6353 72.4151 31.3818 72.5053 31.1282 72.5885C28.6912 73.3864 26.2542 74.1913 23.8137 74.9788C23.5319 75.0655 23.3206 75.2494 23.0635 75.3569Z" fill="#17B5FE"/>
<path d="M58.492 60.4803C57.115 59.5818 55.8472 58.5375 54.5723 57.5072C53.9138 56.9764 53.2693 56.4248 52.6213 55.8836C52.4875 55.7692 52.3361 55.6686 52.2656 55.4986C52.3044 55.2557 52.4628 55.3563 52.5755 55.4118C52.7657 55.502 52.9488 55.6165 53.1355 55.7137C53.7518 56.0328 54.5829 55.7726 54.9139 55.1586C54.9492 55.0962 54.8858 55.1551 54.9351 55.1135C55.4739 54.6556 55.6852 54.1074 55.4352 53.424C55.8085 53.3408 55.9071 53.6807 56.062 53.8681C57.1115 55.1551 58.1609 56.4422 59.1259 57.7951C59.6894 58.5861 60.2176 59.4014 60.7318 60.2235C60.8234 60.3727 60.9114 60.619 61.1685 60.3901C61.5805 60.8827 61.6932 61.4239 61.5101 62.0483C61.4009 62.4195 61.2037 62.5409 60.848 62.4334C60.1155 62.2114 59.4182 61.9095 58.8195 61.4239C58.8442 61.3857 58.8759 61.3788 58.9146 61.3996C59.0977 61.4828 59.2773 61.5661 59.4605 61.6494C59.7739 61.6736 60.0275 61.8506 60.3057 61.9581C60.5275 62.0448 60.7564 62.1871 61.1157 61.9651C60.0768 61.632 59.2703 61.077 58.492 60.4803Z" fill="#5FAAF6"/>
<path d="M40.5559 68.3077C40.6087 68.3042 40.6721 68.2834 40.7144 68.3008C41.2673 68.5263 41.5913 68.2591 41.8343 67.8047C41.8765 67.7284 41.9435 67.6104 41.9998 67.6104C42.8661 67.5931 43.4085 66.868 44.1903 66.6529C44.7784 66.4933 45.3595 66.254 45.7011 65.692C45.7504 65.6122 45.8279 65.5255 45.9089 65.5601C46.3561 65.7509 46.5498 65.4665 46.828 65.1924C47.0816 64.9461 47.4303 64.8004 47.8599 64.7796C48.846 64.731 49.2791 64.1725 49.0502 63.4023C50.0257 63.7909 50.9062 64.3806 51.9169 64.6894C52.3712 64.8282 52.822 64.9669 53.2798 65.1057C53.2199 65.2826 53.0861 65.2896 52.9769 65.3277C50.1596 66.2748 47.3211 67.1768 44.5284 68.1967C43.7184 68.4916 42.9683 68.8454 42.0878 68.6997C41.5631 68.6199 41.0243 68.5956 40.5559 68.3077Z" fill="#21B8FE"/>
<path d="M45.6552 42.0667C46.0919 41.2341 46.3489 40.3147 46.8983 39.5342C47.1096 39.1561 47.3632 39.1491 47.7189 39.385C48.5852 39.9644 49.4727 40.509 50.3461 41.071C50.5222 41.1855 50.7159 41.3 50.6736 41.5602C50.4412 41.7926 50.3637 42.1014 50.2263 42.3824C49.8777 43.1907 49.5255 43.9955 49.1804 44.8073C49.0747 45.0536 48.9339 45.2721 48.7226 45.4421C48.5817 45.7301 48.381 45.6225 48.1943 45.5115C47.2575 44.946 46.3067 44.4049 45.384 43.822C45.1762 43.6902 45.053 43.5098 45.0811 43.2531C45.2255 42.8368 45.3277 42.3997 45.6552 42.0667Z" fill="#DD4B0E"/>
<path d="M40.8834 44.9354C39.9502 44.0924 39.0521 43.2112 38.1964 42.2884C38.221 42.2052 38.2703 42.1532 38.3584 42.1427C38.8549 42.3717 39.1965 42.7845 39.5804 43.1488C39.7494 43.3084 39.9044 43.4784 40.1192 43.5755C40.4538 43.7281 40.732 43.6588 40.8658 43.3118C41.0806 42.7602 41.4046 42.2815 41.8026 41.8444C41.947 41.6848 42.0421 41.4871 42.0385 41.2651C42.0315 40.7863 42.0667 40.3145 42.2745 39.8705C42.3555 39.6935 42.3062 39.5131 42.1759 39.3778C41.4328 38.5938 40.7742 37.73 39.9009 37.0709C38.781 36.0128 37.6751 34.9408 36.5517 33.8862C35.7629 33.1473 34.9705 32.4118 34.1675 31.6868C33.192 30.8646 32.2729 29.9834 31.3114 29.1439C29.7865 27.8187 28.2511 26.5073 26.6452 25.2793C26.5325 25.1925 26.4268 25.0989 26.3212 25.0052C25.3246 24.2455 24.3279 23.4892 23.1975 22.9272C22.4755 22.5664 22.4509 22.5768 21.9226 23.0521C21.7113 22.9203 21.6233 22.7086 21.5775 22.4866C21.4753 22.0079 21.743 21.7581 22.2325 21.8483C22.6234 21.9211 22.9615 22.1085 23.3066 22.2819C24.6343 22.9862 25.8105 23.9055 26.9798 24.8283C31.6108 28.4917 35.9284 32.502 40.1544 36.606C41.947 38.3475 43.7149 40.1133 45.4123 41.945C45.518 42.063 45.6729 42.1809 45.4475 42.3301C45.1975 42.3578 45.0637 42.174 44.9158 42.0317C44.634 41.7646 44.3382 41.5079 44.0036 41.3102C43.5599 41.0465 43.1936 41.22 43.2007 41.7299C43.2113 42.4723 42.8556 42.9788 42.3097 43.4124C42.1125 43.5686 41.9822 43.7871 41.8695 44.0022C41.6335 44.4254 41.3166 44.7342 40.8834 44.9354Z" fill="#3795F1"/>
<path d="M59.3863 34.4724C58.4425 35.0344 57.3931 35.3327 56.3577 35.6623C56.09 35.7456 55.9175 35.6554 55.8153 35.3882C55.2519 33.9416 54.6814 32.4984 54.1038 31.0553C53.9594 30.698 54.1637 30.5765 54.4419 30.4794C55.2167 30.2054 55.9879 29.9313 56.7627 29.6572C57.3332 30.0701 57.3402 30.7604 57.6149 31.3189C57.9882 32.0717 58.2207 32.887 58.601 33.6363C58.7841 34.0006 59.0659 34.2504 59.3863 34.4724Z" fill="#028BE5"/>
<path d="M62.1404 51.0239C62.4714 50.3717 62.8095 49.7958 62.9257 49.1297C63.13 47.9571 63.0736 46.8193 62.5102 45.7438C62.3306 45.4073 62.3376 45.2408 62.7884 45.2304C63.3941 45.2165 63.9998 45.168 64.602 45.1159C64.8732 45.0916 65.0282 45.1888 65.1409 45.4316C65.9473 47.1662 65.9262 48.8626 64.919 50.5174C64.8274 50.6665 64.7394 50.8261 64.5281 50.84C63.7568 50.899 62.9856 50.9614 62.1404 51.0239Z" fill="#D88B24"/>
<path d="M59.3865 34.4724C59.14 34.4863 58.9533 34.4134 58.8019 34.1949C58.4074 33.6294 58.2349 32.9599 57.9179 32.3701C57.5059 31.5965 57.3932 30.7153 56.9001 29.9903C56.8297 29.8827 56.7663 29.7856 56.7593 29.6573C57.1889 29.4491 57.6186 29.2375 58.0482 29.0293C58.2243 30.3684 58.8582 31.5514 59.3653 32.7795C59.5273 33.1715 59.8654 33.3033 60.2845 33.2582C60.3197 33.2548 60.3549 33.2548 60.3902 33.2478C61.658 33.109 61.8763 32.776 61.4678 31.5861C61.1086 30.535 60.6437 29.5254 60.2422 28.4916C60.1789 28.3286 60.0838 28.1759 60.0802 27.9921C60.6648 27.7007 61.26 27.4439 61.9186 27.3711C61.7038 27.7007 61.7566 28.0094 61.9045 28.3702C62.3729 29.522 62.8307 30.6807 63.3413 31.8151C63.4611 32.0822 63.6125 32.2938 63.852 32.4534C62.2567 32.8905 60.8163 33.6745 59.3865 34.4724Z" fill="#0386E5"/>
<path d="M60.0801 27.9961C60.64 28.7038 60.7738 29.5988 61.1612 30.3863C61.4148 30.9032 61.5803 31.4687 61.7564 32.0203C61.9818 32.7419 61.8233 33.0125 61.0873 33.2345C61.0521 33.2449 61.0204 33.2622 60.9887 33.2727C59.7737 33.6022 59.3652 33.3906 58.9285 32.2215C58.6291 31.4132 58.3263 30.6084 58.0058 29.8105C57.8931 29.5329 57.8614 29.2831 58.0516 29.0334C58.696 28.6309 59.3722 28.2806 60.0801 27.9961Z" fill="#045FE6"/>
<path d="M39.7071 46.7432C38.8372 45.9696 37.9639 45.1959 37.094 44.4189C37.4145 44.3703 37.7209 44.3772 37.992 44.0824C38.1787 43.8777 38.4921 44.0997 38.7105 44.2593C39.2739 44.6652 39.8127 45.1023 40.3269 45.5602C42.5808 47.5619 44.8629 49.5358 47.0357 51.6243C47.1872 51.77 47.3562 51.9087 47.4583 52.0995C47.5147 52.2036 47.6133 52.3181 47.5147 52.436C47.4231 52.5505 47.2858 52.5158 47.166 52.4777C47.0146 52.4291 46.8667 52.3632 46.7329 52.2695C47.0534 52.5193 47.3738 52.7656 47.6873 53.0223C47.8422 53.1472 48.0641 53.2547 47.9584 53.5253C46.666 52.6407 45.5038 51.5965 44.317 50.5835C42.8977 49.3763 41.4856 48.1586 40.0734 46.9444C39.9642 46.8577 39.862 46.7571 39.7071 46.7432Z" fill="#1C9DF8"/>
<path d="M45.3947 42.2857C45.5708 42.1782 45.4018 42.0637 45.4018 41.9492C45.4863 41.9874 45.5708 42.0255 45.6554 42.0637C45.6025 42.5043 45.3173 42.8547 45.1658 43.2536C45.0989 43.3785 45.1024 43.5311 45.0109 43.6491C44.9651 43.7254 44.9052 43.7913 44.8594 43.8676C44.6974 44.1174 44.2748 44.2666 44.3382 44.5511C44.3981 44.8113 44.8066 44.891 45.0637 45.0402C46.0005 45.5849 46.9443 46.1087 47.8881 46.6395C47.8212 46.8754 47.6134 46.865 47.4549 46.8234C46.5745 46.577 46.1413 47.1876 45.7082 47.7288C45.4476 48.0514 45.2504 48.433 45.113 48.8355C45.0672 48.8806 45.0179 48.8805 44.9686 48.8424C44.1798 48.1382 43.4261 47.4027 42.7112 46.6221C42.1653 46.1677 42.1583 45.9804 42.5422 45.3767C42.9225 44.78 43.4437 44.2874 43.8346 43.6977C43.9438 43.5346 44.0459 43.382 44.0741 43.1773C44.215 42.1712 44.4826 41.9943 45.3947 42.2857Z" fill="#519DF3"/>
<path d="M23.2959 22.289C22.9191 22.2613 22.6339 21.9733 22.2535 21.9421C22.0809 21.9282 21.9119 21.8172 21.7781 22.008C21.6583 22.178 21.6302 22.3688 21.7112 22.5527C21.7851 22.7227 21.8978 22.8788 21.9929 23.0418C22.2711 23.1528 22.3451 23.4304 22.4719 23.6489C23.148 24.7868 23.9087 25.8622 24.7469 26.8856C26.5958 29.2342 28.5714 31.4753 30.5647 33.7094C32.0368 35.3607 33.5053 37.0086 35.0302 38.6148C35.1183 38.7119 35.2134 38.8021 35.2274 38.9409C35.0866 39.1802 34.9774 39.0172 34.8647 38.9096C34.4808 38.587 34.1111 38.247 33.7976 37.855C32.9454 36.9184 32.0297 36.0476 31.1282 35.1595C30.9803 35.0138 30.8535 34.8334 30.6387 34.7675C30.4344 34.6565 30.2795 34.4969 30.1703 34.2957C30.0188 33.9522 29.7265 33.7302 29.4413 33.5047C29.3392 33.4319 29.2511 33.3451 29.1772 33.2445C27.765 31.6626 26.3422 30.0946 24.9476 28.4953C23.6129 26.9619 22.3204 25.3939 21.2357 23.6732C21.0773 23.42 20.9223 23.2118 20.5842 23.25C20.8413 22.1919 21.4259 21.6438 22.2042 21.779C22.6092 21.8484 23.0001 21.9837 23.2959 22.289Z" fill="#5FAFF7"/>
<path d="M31.4207 22.6152C32.516 23.0246 33.6042 23.4548 34.7346 23.7739C35.0058 23.8502 35.1044 23.9925 35.1009 24.2631C35.0903 25.1408 35.0903 26.0185 35.1009 26.8961C35.1044 27.198 35.0269 27.3159 34.6959 27.2084C33.8859 26.9447 33.0618 26.7192 32.2941 26.3446C32.1286 26.2197 32.0687 26.0462 32.0335 25.8485C31.8609 24.8979 31.6144 23.9647 31.2446 23.0662C31.1038 22.7262 31.1214 22.7124 31.4207 22.6152Z" fill="#D8480E"/>
<path d="M53.5192 21.3703C52.6775 20.9089 51.9697 20.3123 51.4978 19.4693C50.9942 18.4563 50.9906 18.4528 51.9204 17.7937C52.2232 17.5786 52.5437 17.3982 52.8043 17.1206C53.1565 16.7495 53.3572 17.079 53.5545 17.3323C54.0334 17.9185 54.5617 18.4632 55.1674 18.9246C55.5829 19.164 55.5583 19.4935 55.3083 19.8092C54.9983 20.2012 54.773 20.6349 54.5053 21.0512C54.1707 21.5785 54.1074 21.5993 53.5192 21.3703Z" fill="#0245E7"/>
<path d="M47.9585 53.5293C47.7683 53.0956 47.3175 52.9395 46.9935 52.6516C46.7963 52.4747 46.592 52.3116 46.4617 52.0271C46.7787 52.1728 47.0992 52.3185 47.5359 52.5163C47.1414 51.6837 46.497 51.2466 45.9581 50.7436C44.5037 49.3767 42.9893 48.0689 41.4961 46.7402C40.584 45.9284 39.6754 45.1201 38.6894 44.395C38.221 44.0516 38.0871 44.0308 37.7913 44.4852C37.6716 44.6691 37.5835 44.7038 37.4321 44.5407C37.3441 44.4471 37.2349 44.3881 37.0975 44.4193C37.0694 44.3916 37.0377 44.3673 37.0095 44.3395C36.7736 44.1036 36.5623 43.84 36.2664 43.67C36.1995 43.559 35.9812 43.5416 36.0586 43.3439C36.5622 42.3344 36.8334 42.317 37.7068 43.1045C39.3338 44.572 40.9925 46.0012 42.6372 47.4513C43.4049 48.1278 44.1797 48.8008 44.9333 49.4981C46.9196 51.3368 48.8706 53.217 50.892 55.0175C51.614 55.6628 52.343 56.3081 53.0861 56.9325C53.2903 57.106 53.396 57.3939 53.5474 57.6298C52.7092 57.1961 52.0049 56.5752 51.2477 56.0271C50.1313 55.2222 48.9868 54.4486 47.9585 53.5293Z" fill="#0796F7"/>
<path d="M63.8553 32.4574C63.5207 32.4817 63.4151 32.3291 63.2742 32.0134C62.7143 30.7437 62.2177 29.4497 61.6683 28.18C61.4887 27.7637 61.4958 27.5451 61.9219 27.3786L61.9289 27.3752C62.3163 27.396 62.6755 27.1046 63.077 27.278C63.5243 28.062 63.7602 28.9293 64.1053 29.7515C64.4082 30.4662 64.6653 31.1982 64.9541 31.9163C65.0632 32.1834 65.0632 32.3464 64.7005 32.3568C64.4188 32.3638 64.1405 32.4228 63.8553 32.4574Z" fill="#035FE5"/>
<path d="M61.1683 60.3846C61.1331 60.506 61.2528 60.7038 61.0521 60.7384C60.9006 60.7627 60.8232 60.5997 60.7492 60.4817C60.073 59.4132 59.3863 58.3586 58.6327 57.3387C57.7241 56.1141 56.7732 54.9207 55.7942 53.7481C55.692 53.6267 55.5864 53.5122 55.4807 53.3943C55.273 53.3527 55.1462 53.1965 55.0229 53.0508C53.3959 51.1012 51.6632 49.2417 49.9622 47.3545C49.6312 46.9868 49.2579 46.6572 48.9128 46.3034C48.7402 46.1264 48.5606 45.946 48.6416 45.6616C48.6663 45.613 48.705 45.5818 48.7578 45.5714C49.0325 45.502 49.1382 45.731 49.2755 45.8732C51.1244 47.8471 52.9627 49.8349 54.7341 51.8783C56.4844 53.8938 58.2065 55.9337 59.7561 58.1054C60.2773 58.8339 60.7034 59.6249 61.1683 60.3846Z" fill="#2EA1F5"/>
<path d="M42.3836 25.2719C42.7851 25.1471 43.1936 25.036 43.5845 24.8938C43.8662 24.7897 44.0423 24.814 44.1797 25.1124C44.5811 25.9901 44.9967 26.8643 45.4263 27.7281C45.5672 28.0126 45.5461 28.1791 45.215 28.2762C44.8629 28.3803 44.5177 28.5156 44.1444 28.5537C43.9085 28.6474 43.7535 28.5607 43.6091 28.3595C43.021 27.5477 42.6125 26.6318 42.0878 25.7888C41.8835 25.4627 42.0526 25.3136 42.3836 25.2719Z" fill="#F3BD03"/>
<path d="M20.5844 23.25C20.8697 22.9309 21.0211 23.0627 21.2078 23.3784C22.148 24.9742 23.3278 26.4035 24.5322 27.805C26.0923 29.6228 27.7018 31.4025 29.2865 33.196C29.1597 33.2966 29.04 33.2481 28.952 33.1579C28.1631 32.3496 27.2439 31.6592 26.6171 30.7017C26.3036 30.1154 25.7613 29.7165 25.3211 29.2412C24.0603 27.8779 22.877 26.4555 21.7043 25.0193C21.0951 24.27 20.9718 24.2977 20.4682 25.106C20.1794 25.5709 20.0033 26.0912 19.7709 26.5839C19.6793 26.7747 19.6089 26.9793 19.4716 27.1424C19.1757 27.4962 19.0243 27.8779 19.1969 28.3358C18.982 28.3115 18.8729 28.1276 18.7214 28.0097C19.2849 26.4035 19.9118 24.8181 20.5844 23.25Z" fill="#3EA2F6"/>
<path d="M42.3837 25.2727C42.1371 25.3802 42.0421 25.519 42.2181 25.7792C42.7922 26.6187 43.1901 27.5623 43.7818 28.3914C43.8874 28.5406 44.0072 28.5302 44.141 28.5545C43.8769 28.6655 43.5916 28.7002 43.3099 28.7175C42.3132 28.7765 42.0244 28.6065 41.6159 27.7219C41.2955 27.0385 40.9855 26.3481 40.6651 25.6647C40.5101 25.3386 40.5594 25.2068 40.9503 25.3039C41.4293 25.4219 41.9047 25.2657 42.3837 25.2727Z" fill="#E79B12"/>
<path d="M50.6738 41.5599C50.1033 40.984 49.3708 40.6301 48.7122 40.1722C48.3812 39.9432 48.0149 39.7594 47.6909 39.52C47.4021 39.3049 47.1556 39.2321 46.895 39.5339C47.0288 39.1002 47.3705 38.7984 47.617 38.4411C47.7508 38.2468 47.9234 38.2503 48.1276 38.3683C49.1243 38.9511 50.1244 39.5304 51.1281 40.0994C51.4028 40.2555 51.4627 40.4428 51.276 40.6995C51.0753 40.9875 50.8745 41.2719 50.6738 41.5599Z" fill="#F1853F"/>
<path d="M31.4206 22.615C31.3009 22.6393 31.2128 22.6914 31.2833 22.8267C31.8362 23.9368 32.0369 25.1475 32.294 26.3409C31.9418 26.2646 31.6178 26.1293 31.3255 25.9246C30.924 25.713 30.8395 25.3522 30.7409 24.9359C30.5331 24.0547 30.1281 23.2534 29.378 22.6705C29.2371 22.4728 29.0822 22.2855 29.0435 22.0357C29.4132 21.6055 29.5259 21.5812 29.9697 21.8553C30.107 21.9386 30.2479 22.0114 30.3923 22.0808C30.755 22.2196 31.1001 22.393 31.4206 22.615Z" fill="#B53C27"/>
<path d="M53.5193 21.3701C53.963 21.5123 54.2095 21.3493 54.4279 20.9365C54.6427 20.5271 54.8399 20.0969 55.1956 19.757C55.4633 19.5037 55.421 19.1915 55.1674 18.9209C55.7696 19.1672 56.3261 19.5211 56.9776 19.6494C57.2488 19.7015 57.1783 19.8367 57.0551 19.979C56.5233 20.5896 55.988 21.2001 55.4562 21.8107C55.3259 21.9599 55.178 22.0119 54.9808 21.9633C54.4666 21.835 53.956 21.6927 53.5193 21.3701Z" fill="#0479F6"/>
<path d="M30.3922 22.0805C30.276 22.0459 30.1281 22.0459 30.0471 21.973C29.6773 21.6504 29.3744 21.7822 29.0856 22.0805C28.9413 22.2713 28.7687 22.3373 28.5504 22.195C28.5363 21.3208 28.5187 20.45 28.5151 19.5758C28.5151 19.0763 28.7617 18.6634 29.0751 18.3026C29.5118 17.7996 29.9626 17.3035 30.5683 16.9844C30.3499 17.4527 29.8287 17.6192 29.5153 18.0008C29.3251 18.2333 29.1983 18.4588 29.3639 18.7085C29.6421 19.1352 29.709 19.6209 29.8287 20.0893C29.8886 20.3217 30.0083 20.4639 30.2513 20.4951C30.1457 20.7484 29.9062 20.8802 29.7125 21.0502C29.4519 21.2792 29.4871 21.4318 29.7583 21.6157C29.9731 21.7649 30.2302 21.8585 30.3922 22.0805Z" fill="#D7562F"/>
<path d="M73.7443 36.8838C73.9521 37.2446 74.0577 37.6643 74.4099 37.9349C74.3888 37.9453 74.3712 37.9592 74.3535 37.9731C73.445 38.32 72.6526 38.9028 71.751 39.2671C71.5256 39.3573 71.4975 39.5897 71.3672 39.7458C70.7896 39.3642 70.5114 38.7918 70.3071 38.1639C71.0185 38.0668 71.6489 37.7407 72.2652 37.418C72.7406 37.1683 73.2372 37.0226 73.7443 36.8838Z" fill="#FEAE3B"/>
<path d="M65.3487 17.9872C65.3627 18.0843 65.317 18.1537 65.243 18.2057C64.1971 18.681 63.2497 19.3297 62.2425 19.8778C62.1721 19.8709 62.0911 19.8813 62.0347 19.8501C61.6861 19.6766 61.1931 19.5379 61.1297 19.1701C61.0698 18.8128 61.6016 18.7781 61.8727 18.6151C62.482 18.2473 63.1265 17.9386 63.7463 17.5917C63.9787 17.4599 64.1372 17.4633 64.3626 17.6368C64.6373 17.8519 64.9049 18.1988 65.3487 17.9872Z" fill="#FEED6A"/>
<path d="M29.3991 22.6191C30.0929 22.8446 30.2654 23.5003 30.5648 24.0345C30.7655 24.3919 30.9627 24.7735 30.9205 25.2245C30.8923 25.5297 31.1987 25.6859 31.3255 25.9287C30.4697 25.5783 29.6738 25.1412 29.0751 24.4162C28.5856 23.7431 28.6947 23.1256 29.3991 22.6191Z" fill="#8A3437"/>
<path d="M71.3673 39.7462C71.2616 39.375 71.4835 39.2258 71.7899 39.1009C72.4414 38.8338 73.0577 38.4973 73.6458 38.1122C73.8641 37.97 74.1001 37.9214 74.3537 37.9734C74.6037 38.1677 74.5931 38.3342 74.3607 38.5667C74.0015 38.924 73.5859 39.2327 73.3077 39.6629C73.195 39.7358 73.0823 39.8086 72.9696 39.8815C72.4203 40.0757 71.885 40.1174 71.3778 39.76L71.3673 39.7462Z" fill="#F77615"/>
<path d="M70.0676 36.6758C71.1488 36.3705 72.2687 36.2665 73.3674 36.0583C73.4414 36.0444 73.5013 36.0861 73.5365 36.1555C73.6245 36.884 73.6245 36.8874 72.9272 37.0505C72.2475 37.2101 71.589 37.439 70.9163 37.6229C70.6804 37.6853 70.3846 37.8761 70.2191 37.6402C70.0359 37.3731 69.8739 37.0331 70.0676 36.6758Z" fill="#EE6806"/>
<path d="M53.5544 17.3315C53.1846 16.9256 52.9486 17.0643 52.6563 17.4668C52.4274 17.7825 51.9978 17.9212 51.6702 18.1467C51.223 18.4555 51.1068 18.7295 51.4202 19.1736C51.4765 19.2534 51.473 19.3713 51.4977 19.4719C51.2019 19.1944 51.0927 18.8232 50.9448 18.4659C50.8638 18.2716 50.9272 18.1259 51.0469 17.9837C51.554 17.3974 52.0682 16.8146 52.5718 16.2213C52.7901 15.9646 52.9064 15.9854 53.0367 16.3011C53.1846 16.6515 53.3818 16.988 53.5544 17.3315Z" fill="#196EE5"/>
<path d="M62.2424 19.8783C62.2495 19.41 62.7319 19.4274 62.9749 19.299C63.4997 19.018 64.0103 18.7162 64.4998 18.3866C64.7323 18.2305 64.9612 18.1368 65.2394 18.2097C65.169 18.4074 65.0985 18.6052 65.0281 18.8029C64.8837 19.1533 64.602 19.3753 64.2815 19.5557C63.6722 20.0796 62.989 20.1663 62.2424 19.8783Z" fill="#FCD525"/>
<path d="M70.0677 36.6756C69.9902 36.8526 70.0747 37.0226 70.0994 37.1925C70.1628 37.595 70.3389 37.6921 70.765 37.5291C71.4588 37.2689 72.1807 37.0677 72.9097 36.9185C73.3851 36.8213 73.5929 36.6236 73.5331 36.1553C73.6739 36.3773 73.695 36.634 73.7408 36.8838C73.6669 36.9532 73.6 37.0677 73.5119 37.0885C72.5857 37.2827 71.825 37.8482 70.9552 38.1639C70.7227 38.2472 70.522 38.3027 70.3037 38.1639C70.1064 37.7892 70.0219 37.3833 69.9268 36.9809C69.8987 36.8491 69.8353 36.693 70.0677 36.6756Z" fill="#FB9414"/>
<path d="M48.7648 45.5707C48.7366 45.5881 48.7225 45.6124 48.726 45.6436C48.6732 45.7338 48.6274 45.8275 48.5253 45.8795C48.3668 45.9593 48.2083 45.9281 48.071 45.8379C47.1553 45.2412 46.1798 44.7347 45.2748 44.1241C45.0987 44.0062 44.8557 43.8952 44.9578 43.5968C44.9895 43.4615 45.0353 43.3332 45.1621 43.2568C45.1762 43.4615 45.2572 43.6211 45.4438 43.7321C46.3841 44.2837 47.3209 44.8353 48.2541 45.4008C48.4161 45.5014 48.5464 45.5985 48.719 45.4424C48.7331 45.484 48.7507 45.5291 48.7648 45.5707Z" fill="#AF382E"/>
<path d="M29.3993 22.6188C29.2619 22.8547 29.1739 23.1149 28.9943 23.3334C28.6984 23.6977 28.9379 24.0585 29.0752 24.4123C28.5893 24.0446 28.5083 23.5242 28.5153 22.9726C28.5188 22.7124 28.5364 22.4523 28.5435 22.1955C28.7231 22.1574 28.8992 22.1192 29.0788 22.0811C29.2866 22.2059 29.364 22.4002 29.3993 22.6188Z" fill="#9E435C"/>
<path d="M64.2849 19.5522C64.4997 19.2711 64.7533 19.0214 65.0315 18.7993C65.0879 19.1254 65.2675 18.9381 65.4119 18.8895C65.6549 18.8098 65.8168 18.5426 66.1197 18.6051C65.5457 18.9901 64.9681 19.3752 64.2849 19.5522Z" fill="#DCA863"/>
<path d="M53.5439 57.6299C54.1708 57.9109 54.7343 58.2751 55.1498 58.8337C54.5899 58.4625 54.0194 58.1052 53.5439 57.6299Z" fill="#0796F7"/>
<path d="M71.3777 39.7568C71.8919 40.017 72.4272 39.9997 72.9695 39.8783C72.3497 40.2182 71.8566 40.1801 71.3777 39.7568Z" fill="#FEAE3B"/>
<path d="M30.364 20.4015C30.607 20.0719 30.9275 19.8533 31.336 19.7666C31.0472 20.0268 30.7549 20.2835 30.364 20.4015Z" fill="#D7562F"/>
<path d="M41.9505 10.335C41.7638 10.6819 41.4715 10.89 41.0876 10.9802C41.3271 10.7027 41.6053 10.4772 41.9505 10.335Z" fill="#D95C32"/>
<path d="M20.9399 75.6025C21.3837 75.606 21.8274 75.6095 22.2747 75.613C22.2711 75.6476 22.2535 75.6719 22.2148 75.6893C21.7922 75.6407 21.3555 75.7621 20.9399 75.6025Z" fill="#17B5FE"/>
<path d="M63.077 27.2745C62.6861 27.2294 62.3199 27.448 61.929 27.3717C62.3058 27.2572 62.672 27.0421 63.077 27.2745Z" fill="#0386E5"/>
<path d="M57.1641 60.2803C57.5409 60.3011 57.7909 60.4919 57.9388 60.8249C57.6817 60.6445 57.4247 60.4607 57.1641 60.2803Z" fill="#0796F7"/>
<path d="M50.2263 42.3818C50.2651 42.0487 50.3566 41.7434 50.6736 41.5596C50.5785 41.8614 50.4411 42.1424 50.2263 42.3818Z" fill="#F1853F"/>
<path d="M55.3892 58.9926C55.7237 58.9822 55.8998 59.1764 56.009 59.4609C55.7801 59.3291 55.5441 59.2146 55.3892 58.9926Z" fill="#0796F7"/>
<path d="M58.9109 61.3931C58.8792 61.4 58.8475 61.4104 58.8158 61.4173C58.6221 61.2855 58.4285 61.1502 58.2383 61.0184C58.5764 60.9455 58.7384 61.1814 58.9109 61.3931Z" fill="#0796F7"/>
<path d="M9.43116 58.5734C11.8717 60.2108 14.2665 61.9107 16.6295 63.6557C16.7246 63.7112 16.8021 63.7736 16.7563 63.902C16.3795 64.2766 15.8125 64.3668 15.4427 64.7762C15.2455 64.9947 14.999 65.1786 14.8194 65.4249C14.2453 66.2124 13.5445 66.9028 12.9916 67.7007C12.5866 68.2835 12.1358 68.8143 11.6674 69.345C11.2977 69.7648 11.3329 70.1395 11.685 70.587C11.8506 70.7986 12.0583 70.9617 12.2802 71.1143C12.3753 71.2149 12.5232 71.3398 12.4105 71.4647C12.2696 71.6243 12.1323 71.4092 11.9879 71.3814C11.1991 71.0519 10.5616 70.4829 9.84672 70.0319C8.51552 69.1924 7.20193 68.3216 5.88481 67.4648C5.50799 67.0866 5.53264 66.705 5.74042 66.2228C6.57154 64.3044 7.37449 62.3755 8.14574 60.4363C8.35352 59.9159 8.60709 59.4129 8.79021 58.8821C8.89939 58.563 9.08604 58.4068 9.43116 58.5734Z" fill="#0091F5"/>
<path d="M11.9915 71.3771C12.1218 71.3182 12.2415 71.5055 12.3542 71.398C12.3718 71.3806 12.2697 71.2384 12.2239 71.1517C11.7062 70.7319 11.7415 70.7007 12.0866 70.1838C12.8931 68.973 13.9672 67.9496 14.6222 66.6348C14.6609 66.555 14.7067 66.4579 14.7842 66.4302C15.2596 66.2671 15.4146 65.8265 15.7139 65.5004C16.1718 65.0009 16.3338 64.366 16.7282 63.8561C16.693 63.7867 16.6613 63.7208 16.6261 63.6514C17.2529 63.8769 17.7002 64.366 18.246 64.7129C19.1828 65.3027 20.0949 65.9271 21.0176 66.5377C20.2886 66.7007 19.8202 67.2697 19.2603 67.679C18.3799 68.3278 17.4854 68.9869 16.7388 69.7709C16.2175 70.3191 15.6048 70.7562 15.08 71.2939C14.7067 71.672 14.2067 72.071 13.527 71.9218C13.2065 71.8524 13.3755 72.0918 13.3931 72.2236C12.8931 71.9981 12.4212 71.7241 11.9915 71.3771Z" fill="#139EF9"/>
<path d="M13.3931 50.2473C13.1078 49.4182 13.4917 48.7105 13.8333 47.9993C14.4426 46.74 15.1575 45.5258 15.566 44.1763C15.6399 43.93 15.8512 43.7774 15.9639 43.5588C16.6049 42.2891 17.3832 41.0818 17.7776 39.6976C17.9114 39.2293 18.1509 39.2467 18.4855 39.5242C18.9679 39.9266 19.3729 40.4227 19.9611 40.6933C21.4824 42.0185 23.0073 43.3437 24.5287 44.6655C26.117 46.0462 27.7088 47.4269 29.3006 48.8076C29.3323 48.87 29.3499 48.9429 29.3922 48.9915C30.093 49.7963 29.9768 50.3063 28.9766 50.7573C28.9273 50.7781 28.8639 50.7954 28.8428 50.837C28.2194 51.9055 27.1559 52.6098 26.4515 53.5985C25.9127 54.3547 25.2295 54.9618 24.5956 55.621C24.3491 55.8777 24.1061 56.1309 23.9652 56.464C23.9194 56.575 23.8455 56.7311 23.7539 56.7589C23.2221 56.9115 23.3384 57.2792 23.4335 57.6608C23.2257 57.7198 23.1306 57.4492 22.9475 57.5221V57.5186C22.6411 57.248 22.3171 57.0052 21.9755 56.7831C20.3696 55.673 18.8588 54.4415 17.3057 53.262C16.0907 52.3392 14.8757 51.4199 13.6607 50.4971C13.5657 50.4242 13.4847 50.3305 13.3931 50.2473Z" fill="#008FF4"/>
<path d="M26.7157 30.657C27.5046 31.5694 28.2758 32.506 29.2865 33.1999C29.357 33.2693 29.4274 33.3421 29.5014 33.4115C29.7162 33.7237 30.0472 33.9353 30.2585 34.2545C30.3642 34.4314 30.5086 34.5736 30.6846 34.6777C30.748 34.7436 30.7551 34.813 30.6882 34.8859C30.505 34.8928 30.4029 34.7645 30.2867 34.6534C29.2126 33.63 28.1314 32.6205 27.0714 31.5833C26.5678 31.0906 26.1698 30.5078 25.5747 30.0985C25.2331 29.8626 25.0605 29.7516 24.659 30.1227C24.2118 30.5321 23.7469 30.938 23.282 31.3369C23.0144 31.5694 22.9193 31.7567 23.3173 31.9475C23.4793 32.0238 23.6096 32.1522 23.5955 32.3603C22.8101 31.7671 22.1304 31.0629 21.4472 30.3656C21.1127 30.0499 20.7852 29.7273 20.4576 29.4046C20.2956 29.2451 20.2428 29.0751 20.3907 28.8912C20.838 28.3361 21.1162 27.6805 21.5106 27.0942C21.6198 26.9311 21.7536 26.7958 21.9086 26.671C22.4051 26.272 22.6904 26.2581 23.0954 26.7161C24.2752 28.0517 25.4831 29.363 26.7157 30.657Z" fill="#1895F4"/>
<path d="M26.7156 30.6573C25.7577 29.8872 25.004 28.9228 24.1588 28.0486C23.8031 27.6808 23.4792 27.2853 23.1235 26.9176C22.5424 26.3244 22.1656 26.3591 21.6866 27.039C21.2429 27.6669 20.9858 28.4128 20.447 28.9887C20.285 29.1621 20.4751 29.3044 20.5914 29.4362C20.8696 29.7519 21.2499 29.9774 21.4471 30.3659C20.6407 29.7519 19.9328 29.0338 19.2003 28.34C18.9538 28.0728 18.8305 27.8092 19.1017 27.4727C19.5806 26.8725 19.8201 26.1475 20.1335 25.4606C20.3448 24.9992 20.5878 24.3713 21.0351 24.3088C21.4084 24.2568 21.7394 24.8604 22.0388 25.2316C23.0671 26.5048 24.1271 27.7502 25.2294 28.9644C25.7295 29.5125 26.374 29.96 26.7156 30.6573Z" fill="#369CF3"/>
<path d="M36.0552 43.3474C36.1256 43.4549 36.1925 43.5659 36.263 43.6735C35.6925 43.3265 35.2029 42.886 34.7451 42.4072C35.2875 42.5772 35.5938 43.0698 36.0552 43.3474Z" fill="#1C9DF8"/>
<path d="M32.935 51.7113C32.5265 51.4858 32.1638 51.2013 31.8503 50.8613C32.3117 51.0209 32.6709 51.3088 32.935 51.7113Z" fill="#E5F1FE"/>
<path d="M36.2629 43.6689C36.6433 43.7487 36.8475 44.0193 37.006 44.3385C36.7032 44.172 36.4461 43.9604 36.2629 43.6689Z" fill="#1C9DF8"/>
<path d="M21.979 56.7861C22.391 56.918 22.7186 57.1573 22.951 57.5216C22.5742 57.3446 22.2572 57.0914 21.979 56.7861Z" fill="#1C9FF9"/>
<path d="M48.5184 45.7927C48.5853 45.7442 48.6558 45.6921 48.7227 45.6436C48.698 45.8552 48.7931 46.0078 48.941 46.1535C50.7512 47.9505 52.4205 49.8724 54.1109 51.7805C54.5793 52.3078 55.023 52.8559 55.4808 53.3971C55.7696 54.0285 55.9351 54.6321 55.104 55.0102C55.0934 55.5722 54.5898 55.6832 54.2271 55.8949C53.6143 56.2556 53.1142 55.8706 52.6106 55.5826C52.5015 55.5202 52.431 55.3259 52.2655 55.4994C51.9415 55.2184 51.5506 55.0102 51.283 54.6598C51.054 54.5037 50.8885 54.2748 50.6491 54.1291C50.0363 53.5671 49.4235 53.0016 48.8107 52.4396C48.5853 52.2835 48.4198 52.0545 48.1803 51.9088C47.712 51.4509 47.2436 50.9964 46.7752 50.5385C46.1765 50.0008 45.5849 49.4561 45.0672 48.8421C45.046 48.1934 45.4686 47.7424 45.8595 47.3261C46.0497 47.1249 46.1976 46.8369 46.497 46.7329C46.7681 46.6357 47.0358 46.5733 47.3211 46.6774C47.5007 46.7433 47.6979 46.8092 47.8493 46.6114C47.8775 46.1778 48.3036 46.0668 48.5184 45.7927Z" fill="#76B0F7"/>
<path d="M45.3946 42.2853C45.0953 42.431 44.7642 42.0529 44.4402 42.4068C44.1514 42.7259 44.324 43.0902 44.1902 43.3816C44.0106 43.7701 43.7324 44.1205 43.4471 44.4501C43.1935 44.7415 42.9717 45.0537 42.7287 45.3486C42.3554 45.803 42.2532 46.1881 42.7075 46.6252C41.9715 46.1951 41.4644 45.5255 40.8833 44.9358C41.4609 44.464 41.7496 43.7528 42.2814 43.2532C42.7111 42.8473 43.0879 42.4623 43.0315 41.8239C43.0034 41.5048 43.102 41.203 43.4013 41.0677C43.7042 40.9324 43.9859 41.0989 44.2219 41.2966C44.6198 41.6227 45.0072 41.9558 45.3946 42.2853Z" fill="#3A95F3"/>
<path d="M34.8647 38.9102C34.9739 38.9171 35.076 39.0732 35.1887 38.9206C35.3402 38.8269 35.4212 38.9483 35.4987 39.035C36.3579 39.9786 37.3264 40.8216 38.1751 41.7757C38.2456 41.904 38.3794 42.0116 38.309 42.1815C38.2702 42.2197 38.235 42.2544 38.1963 42.2926C37.256 41.4322 36.3227 40.5615 35.4951 39.5936C35.2944 39.3542 34.907 39.2813 34.8647 38.9102Z" fill="#3EA2F6"/>
<path d="M58.4917 60.4814C59.0446 60.7937 59.601 61.099 60.1434 61.4285C60.3758 61.5708 60.6258 61.6471 60.8794 61.7338C61.0238 61.7824 61.3161 61.6783 61.2457 61.9697C61.1858 62.2229 60.9604 62.327 60.6963 62.2403C60.2561 62.0946 59.8264 61.9281 59.4566 61.6436C59.5376 61.2516 59.1925 61.1267 58.9777 60.9394C58.8051 60.7937 58.6079 60.6792 58.4917 60.4814Z" fill="#0796F7"/>
<path d="M30.6881 34.883C30.6881 34.8136 30.6846 34.7442 30.6846 34.6748C31.7693 35.6878 32.8997 36.6592 33.7977 37.8525C33.5266 37.8248 33.4561 37.5819 33.2977 37.4258C32.4349 36.569 31.5615 35.7294 30.6881 34.883Z" fill="#3EA2F6"/>
<path d="M45.0743 48.8389C45.6694 49.3801 46.2716 49.9143 46.7823 50.5353C46.0498 50.1051 45.5391 49.439 44.9651 48.8458C45.0003 48.8458 45.039 48.8423 45.0743 48.8389Z" fill="#1C9DF8"/>
<path d="M50.656 54.1289C50.9589 54.1983 51.1314 54.4238 51.2899 54.6597C50.973 54.6007 50.8215 54.3544 50.656 54.1289Z" fill="#0796F7"/>
<path d="M48.1873 51.9082C48.4936 51.9741 48.6592 52.2031 48.8176 52.439C48.5042 52.3765 48.3528 52.1337 48.1873 51.9082Z" fill="#0796F7"/>
<path d="M34.9776 38.698C33.752 37.5219 32.6427 36.2383 31.5052 34.986C30.5437 33.9279 29.5929 32.8559 28.6596 31.7701C27.3038 30.1882 25.8951 28.6479 24.6731 26.9549C24.497 26.726 24.4829 26.4623 24.5568 26.2056C24.7012 25.6852 25.0534 25.2793 25.4232 24.9116C25.7049 24.6306 26.0782 24.7035 26.3952 24.9463C28.1314 26.2334 29.7654 27.6384 31.3925 29.0572C32.3504 29.8968 33.2871 30.7571 34.231 31.6105C34.7522 32.1864 35.3262 32.7206 35.5798 33.4838C35.6185 33.5983 35.7382 33.6989 35.703 33.8204C35.5058 34.4934 35.8545 35.0554 36.0763 35.6382C36.2101 35.9955 36.2383 36.2973 36.0834 36.6893C35.9108 37.1195 35.7277 37.6087 36.0094 38.1117C36.1468 38.358 36.1468 38.6737 35.9038 38.8957C35.6537 39.1247 35.4459 38.8992 35.2311 38.7916C35.1501 38.75 35.0691 38.7049 34.9776 38.698Z" fill="#0271EB"/>
<path d="M34.9774 38.6979C35.1077 38.514 35.231 38.6632 35.3437 38.7152C35.5092 38.795 35.6606 39.0101 35.8508 38.802C36.0198 38.6146 36.0269 38.2989 35.9036 38.1602C35.4388 37.6433 35.724 37.0015 35.9248 36.6754C36.2382 36.1654 35.9987 35.8359 35.8473 35.489C35.6923 35.1351 35.6923 34.7327 35.4528 34.417C35.4317 34.3892 35.4176 34.3476 35.4247 34.3198C35.6571 33.2791 35.0021 32.6096 34.3893 31.9227C34.3048 31.829 34.2273 31.7388 34.2273 31.6035C36.1854 33.3381 38.1188 35.0969 39.9183 36.9946C40.3093 37.3935 40.3198 37.8133 40.2564 38.3787C40.1578 39.2668 39.8831 40.0266 39.3901 40.7482C39.3021 40.8765 39.3232 41.0534 39.2985 41.2096C39.1682 41.9658 38.8266 42.1497 38.0941 41.8583C37.1256 40.8765 36.1537 39.8948 35.1852 38.9165C35.1183 38.8471 35.0478 38.7742 34.9774 38.6979Z" fill="#0C83F0"/>
<path d="M38.0942 41.8618C39.0381 41.8652 39.0345 41.8652 39.1719 40.9112C39.2141 40.6268 39.355 40.3874 39.5417 40.1723C39.9185 39.7456 40.1615 39.2807 39.9748 38.691C39.9537 38.6285 39.9431 38.5279 39.9748 38.4932C40.4714 37.9729 40.077 37.4907 39.9185 36.998C40.5841 37.3346 40.9961 37.9451 41.5068 38.4447C41.5948 38.5314 41.6406 38.6598 41.7357 38.7326C42.3449 39.1975 42.3731 39.6866 42.2745 40.4776C42.1548 41.4247 41.7357 42.0942 41.2532 42.8089C41.1863 42.9095 41.1088 43.017 41.0877 43.1315C40.9116 44.0716 40.0805 43.9329 39.5804 43.357C39.1965 42.9129 38.7211 42.5799 38.3055 42.1809C38.2386 42.0734 38.1682 41.9693 38.0942 41.8618Z" fill="#238DF2"/>
<path d="M26.395 24.9425C25.8386 24.7725 25.5041 24.894 25.1554 25.449C24.842 25.9451 24.5778 26.3683 24.6765 26.9546C23.6129 25.7612 22.7536 24.436 21.9929 23.0414C22.0493 22.5419 22.2007 22.4343 22.6761 22.5835C23.5636 22.8645 24.3278 23.3883 25.0638 23.9226C25.5111 24.2522 26.0253 24.5124 26.395 24.9425Z" fill="#186CE7"/>
<path d="M48.5184 45.7931C48.4022 46.1469 48.0359 46.303 47.8599 46.6118C47.6979 46.6291 47.5499 46.6222 47.3985 46.532C46.2857 45.8902 45.1693 45.2554 44.0142 44.5962C44.3382 44.2563 44.6481 43.9267 44.958 43.6006C45.2468 44.1556 45.8454 44.3152 46.3244 44.6275C46.9125 45.0091 47.5182 45.3698 48.1134 45.741C48.2437 45.8208 48.3775 45.8416 48.5184 45.7931Z" fill="#6A2954"/>
<path d="M30.2584 34.2512C29.9661 34.0049 29.628 33.8002 29.5012 33.4082C29.8041 33.6476 30.1422 33.8523 30.2584 34.2512Z" fill="#3EA2F6"/>
<path d="M16.7282 63.8604C16.6577 64.4154 16.376 64.8976 16.052 65.3174C15.8829 65.5359 15.6822 65.7129 15.5942 65.9869C15.5625 66.0841 15.5273 66.2367 15.4568 66.2575C14.3933 66.5975 14.2665 67.718 13.615 68.4084C13.1043 68.9496 12.6676 69.5844 12.2274 70.1985C11.9422 70.5974 11.8647 70.8264 12.2204 71.1525C11.1709 70.6044 10.9491 69.7301 11.7555 69.0259C12.4845 68.391 12.8543 67.4856 13.5199 66.8126C14.2524 66.0737 14.7314 65.1335 15.5766 64.4779C15.9428 64.1969 16.3865 64.1344 16.7282 63.8604Z" fill="#019CFB"/>
</svg>
