<svg width="14" height="18" viewBox="0 0 14 18" fill="none" xmlns="http://www.w3.org/2000/svg">
<path opacity="0.4" d="M6.99269 14.5178L1.58291 17.2199C1.17438 17.4417 0.664776 17.2936 0.436277 16.8868C0.369544 16.7589 0.334255 16.6167 0.333374 16.4722V10.4238C0.333374 11.0235 0.671485 11.3936 1.56086 11.8082L6.99269 14.5178Z" fill="#CFDBE6"/>
<path fill-rule="evenodd" clip-rule="evenodd" d="M4.41276 0.666016H9.55792C11.8144 0.666016 13.6447 1.55439 13.6667 3.82716V16.4717C13.6658 16.6139 13.6305 16.7536 13.5638 16.8789C13.4567 17.0832 13.2717 17.2349 13.0513 17.2991C12.8309 17.3634 12.594 17.3346 12.3951 17.2194L6.99269 14.5173L1.56086 11.8077C0.671485 11.3932 0.333374 11.023 0.333374 10.4234V3.82716C0.333374 1.55439 2.16358 0.666016 4.41276 0.666016ZM3.85389 7.0179H10.1236C10.4849 7.0179 10.7778 6.72291 10.7778 6.35902C10.7778 5.99513 10.4849 5.70014 10.1236 5.70014H3.85389C3.4926 5.70014 3.19972 5.99513 3.19972 6.35902C3.19972 6.72291 3.4926 7.0179 3.85389 7.0179Z" fill="#0074B3"/>
</svg>
