<svg width="20" height="26" viewBox="0 0 20 26" fill="none" xmlns="http://www.w3.org/2000/svg">
<path opacity="0.4" d="M9.98879 21.2776L1.87413 25.3308C1.26133 25.6635 0.49692 25.4414 0.154172 24.8311C0.054072 24.6393 0.0011388 24.426 -0.000183105 24.2093V15.1367C-0.000183105 16.0362 0.506983 16.5914 1.84105 17.2133L9.98879 21.2776Z" fill="#CFDBE6"/>
<path fill-rule="evenodd" clip-rule="evenodd" d="M6.11889 0.5H13.8366C17.2214 0.5 19.9667 1.83257 19.9998 5.24171V24.2086C19.9985 24.4218 19.9455 24.6314 19.8455 24.8193C19.6847 25.1258 19.4072 25.3534 19.0767 25.4497C18.7461 25.546 18.3908 25.5029 18.0924 25.3301L9.98879 21.2769L1.84105 17.2126C0.506983 16.5907 -0.000183105 16.0355 -0.000183105 15.136V5.24171C-0.000183105 1.83257 2.74513 0.5 6.11889 0.5ZM5.28052 10.0279H14.6852C15.2271 10.0279 15.6664 9.58537 15.6664 9.03953C15.6664 8.4937 15.2271 8.05121 14.6852 8.05121H5.28052C4.73859 8.05121 4.29927 8.4937 4.29927 9.03953C4.29927 9.58537 4.73859 10.0279 5.28052 10.0279Z" fill="#006298"/>
</svg>
