<svg width="13" height="13" viewBox="0 0 13 13" fill="none" xmlns="http://www.w3.org/2000/svg">
<circle cx="6.5" cy="6.5" r="6" stroke="black" stroke-opacity="0.7"/>
<path d="M7.29304 2C7.73 2 7.94848 2.3648 7.94848 2.7828C7.94848 3.3048 7.56891 3.7876 7.07489 3.7876C6.66109 3.7876 6.41978 3.4876 6.4312 2.9916C6.4312 2.5744 6.71848 2 7.29304 2ZM5.94859 10C5.60359 10 5.35087 9.7392 5.59217 8.5904L5.98804 6.5536C6.05685 6.228 6.06826 6.0972 5.98804 6.0972C5.88467 6.0972 5.43728 6.322 5.17217 6.544L5 6.192C5.8387 5.3176 6.80359 4.8052 7.21772 4.8052C7.56239 4.8052 7.61978 5.3144 7.44761 6.0972L6.99402 8.238C6.9138 8.616 6.94804 8.7464 7.02859 8.7464C7.13196 8.7464 7.47109 8.5896 7.80435 8.2636L8 8.5892C7.18413 9.608 6.29293 10 5.94859 10Z" fill="black" fill-opacity="0.7"/>
</svg>
