<svg width="20" height="20" viewBox="0 0 20 20" fill="none" xmlns="http://www.w3.org/2000/svg">
<path fill-rule="evenodd" clip-rule="evenodd" d="M7.10965 2.44666C8.93036 1.38874 11.1683 1.40723 12.9719 2.49509C14.7578 3.60511 15.8433 5.58616 15.8332 7.71722C15.7916 9.8343 14.6277 11.8243 13.1729 13.3628C12.3332 14.2547 11.3938 15.0434 10.374 15.7127C10.269 15.7734 10.1539 15.8141 10.0345 15.8327C9.91963 15.8278 9.80772 15.7938 9.70892 15.7339C8.15198 14.7282 6.78607 13.4444 5.6769 11.9443C4.74878 10.6922 4.22149 9.17936 4.16663 7.61136C4.16542 5.47622 5.28893 3.50457 7.10965 2.44666ZM8.16187 8.495C8.46813 9.25005 9.19105 9.74255 9.99307 9.74256C10.5185 9.74633 11.0236 9.53587 11.3957 9.15808C11.7679 8.78029 11.9763 8.26655 11.9744 7.73133C11.9772 6.91438 11.4963 6.17628 10.7561 5.86166C10.016 5.54705 9.1626 5.71798 8.59449 6.29464C8.02639 6.8713 7.8556 7.73995 8.16187 8.495Z" fill="black" fill-opacity="0.29"/>
<ellipse cx="9.99992" cy="17.4993" rx="4.16667" ry="0.833334" fill="#D9E1E8"/>
</svg>
