<svg width="12" height="18" viewBox="0 0 12 18" fill="none" xmlns="http://www.w3.org/2000/svg">
<path fill-rule="evenodd" clip-rule="evenodd" d="M3.10965 1.44861C4.93036 0.390697 7.16832 0.409188 8.97194 1.49705C10.7578 2.60706 11.8433 4.58812 11.8332 6.71917C11.7916 8.83625 10.6277 10.8263 9.17285 12.3647C8.33315 13.2566 7.3938 14.0453 6.374 14.7147C6.26897 14.7754 6.15392 14.8161 6.03453 14.8346C5.91963 14.8297 5.80772 14.7958 5.70892 14.7358C4.15198 13.7301 2.78607 12.4463 1.6769 10.9463C0.748783 9.69411 0.221489 8.18131 0.166627 6.61332C0.165422 4.47817 1.28893 2.50653 3.10965 1.44861ZM4.16187 7.49695C4.46813 8.252 5.19105 8.7445 5.99307 8.74451C6.51848 8.74828 7.02355 8.53783 7.39574 8.16003C7.76792 7.78224 7.9763 7.2685 7.97444 6.73329C7.97724 5.91633 7.49628 5.17823 6.75612 4.86362C6.01596 4.549 5.1626 4.71993 4.59449 5.29659C4.02639 5.87326 3.8556 6.74191 4.16187 7.49695Z" fill="#0074B3"/>
<ellipse cx="5.99992" cy="16.5013" rx="4.16667" ry="0.833334" fill="#D9E1E8"/>
</svg>
