<svg width="18" height="26" viewBox="0 0 18 26" fill="none" xmlns="http://www.w3.org/2000/svg">
<path fill-rule="evenodd" clip-rule="evenodd" d="M4.66422 1.67096C7.3953 0.0840931 10.7522 0.111829 13.4577 1.74362C16.1365 3.40864 17.7647 6.38022 17.7495 9.5768C17.6871 12.7524 15.9413 15.7375 13.759 18.0451C12.4995 19.383 11.0905 20.566 9.56075 21.57C9.4032 21.6611 9.23063 21.7221 9.05155 21.75C8.87919 21.7427 8.71134 21.6917 8.56314 21.6018C6.22773 20.0932 4.17886 18.1675 2.51511 15.9175C1.12293 14.0392 0.331989 11.77 0.249696 9.41802C0.247889 6.21531 1.93315 3.25784 4.66422 1.67096ZM6.2429 10.7435C6.7023 11.876 7.78667 12.6148 8.9897 12.6148C9.77782 12.6205 10.5354 12.3048 11.0937 11.7381C11.652 11.1714 11.9645 10.4008 11.9618 9.59797C11.966 8.37254 11.2445 7.26539 10.1343 6.79347C9.02403 6.32154 7.744 6.57794 6.89184 7.44293C6.03968 8.30793 5.78349 9.6109 6.2429 10.7435Z" fill="#006298"/>
<ellipse cx="8.99939" cy="24.25" rx="6.25" ry="1.25" fill="#D9E1E8"/>
</svg>
