<svg width="26" height="24" viewBox="0 0 26 24" fill="none" xmlns="http://www.w3.org/2000/svg">
<path d="M25.4996 16.925C25.4996 20.4125 22.6996 23.2375 19.2121 23.25H19.1996H6.81207C3.33707 23.25 0.499573 20.4375 0.499573 16.95V16.9375C0.499573 16.9375 0.507073 11.405 0.517073 8.6225C0.518323 8.1 1.11832 7.8075 1.52707 8.1325C4.49707 10.4888 9.80832 14.785 9.87457 14.8413C10.7621 15.5525 11.8871 15.9538 13.0371 15.9538C14.1871 15.9538 15.3121 15.5525 16.1996 14.8275C16.2658 14.7838 21.4583 10.6162 24.4733 8.22125C24.8833 7.895 25.4858 8.1875 25.4871 8.70875C25.4996 11.47 25.4996 16.925 25.4996 16.925" fill="#006298"/>
<path d="M24.8449 4.0925C23.7624 2.0525 21.6324 0.75 19.2874 0.75H6.81242C4.46742 0.75 2.33742 2.0525 1.25492 4.0925C1.01242 4.54875 1.12742 5.1175 1.53117 5.44L10.8124 12.8638C11.4624 13.3888 12.2499 13.65 13.0374 13.65C13.0424 13.65 13.0462 13.65 13.0499 13.65C13.0537 13.65 13.0587 13.65 13.0624 13.65C13.8499 13.65 14.6374 13.3888 15.2874 12.8638L24.5687 5.44C24.9724 5.1175 25.0874 4.54875 24.8449 4.0925" fill="#D9E1E8"/>
</svg>
