<svg width="30" height="28" viewBox="0 0 30 28" fill="none" xmlns="http://www.w3.org/2000/svg">
<path fill-rule="evenodd" clip-rule="evenodd" d="M23.7858 26.6255C26.5953 26.6255 28.8738 24.3485 28.8753 21.539V21.536V17.486C27.0198 17.486 25.5168 15.983 25.5153 14.1275C25.5153 12.2735 27.0183 10.769 28.8738 10.769H28.8753V6.719C28.8783 3.908 26.6028 1.628 23.7933 1.625H23.7843H6.21631C3.40531 1.625 1.12681 3.902 1.12531 6.713V6.7145V10.8995C2.91631 10.8365 4.41781 12.2375 4.48081 14.0285C4.48231 14.0615 4.48381 14.0945 4.48381 14.1275C4.48531 15.98 2.98681 17.483 1.13431 17.486H1.12531V21.536C1.12381 24.3455 3.40231 26.6255 6.21181 26.6255H6.21331H23.7858Z" stroke="#352B4D" stroke-width="2" stroke-linecap="round" stroke-linejoin="round"/>
<path fill-rule="evenodd" clip-rule="evenodd" d="M15.5569 9.59455L16.4809 11.465C16.5709 11.648 16.7449 11.7755 16.9474 11.8055L19.0129 12.107C19.5244 12.182 19.7269 12.809 19.3579 13.1675L17.8639 14.6225C17.7169 14.765 17.6509 14.9705 17.6839 15.173L18.0364 17.228C18.1234 17.7365 17.5909 18.1235 17.1349 17.8835L15.2884 16.913C15.1069 16.817 14.8909 16.817 14.7094 16.913L12.8644 17.8835C12.4069 18.1235 11.8744 17.7365 11.9614 17.228L12.3139 15.173C12.3484 14.9705 12.2809 14.765 12.1339 14.6225L10.6414 13.1675C10.2724 12.809 10.4749 12.182 10.9849 12.107L13.0504 11.8055C13.2529 11.7755 13.4284 11.648 13.5184 11.465L14.4409 9.59455C14.6689 9.13255 15.3289 9.13255 15.5569 9.59455Z" stroke="#352B4D" stroke-width="2" stroke-linecap="round" stroke-linejoin="round"/>
</svg>
