<svg width="26" height="20" viewBox="0 0 26 20" fill="none" xmlns="http://www.w3.org/2000/svg">
<path d="M15.1877 7.12818V4.60337C14.6921 4.60337 14.2811 4.2041 14.2811 3.72262V0.716341C14.2811 0.315894 13.9547 0 13.5436 0H5.23851C2.62729 0 0.499634 2.06564 0.499634 4.60337V7.64371C0.499634 7.87975 0.596346 8.10287 0.765591 8.26728C0.934837 8.43051 1.16453 8.52446 1.40631 8.52446C2.32507 8.52446 3.02623 9.15859 3.02623 9.99237C3.02623 10.8625 2.31298 11.5554 1.4184 11.566C0.922748 11.566 0.499634 11.9065 0.499634 12.3997V15.4072C0.499634 17.9437 2.62729 19.9988 5.22642 19.9988H13.5436C13.9547 19.9988 14.2811 19.6806 14.2811 19.2825V16.7448C14.2811 16.2527 14.6921 15.864 15.1877 15.864V13.587C14.6921 13.587 14.2811 13.1865 14.2811 12.7062V8.00892C14.2811 7.52745 14.6921 7.12818 15.1877 7.12818Z" fill="#006298"/>
<path d="M22.9735 9.99354C22.9735 10.8625 23.6989 11.5554 24.5814 11.5671C25.077 11.5671 25.5001 11.9077 25.5001 12.3892V15.4072C25.5001 17.9449 23.3846 20 20.7733 20H16.8323C16.4334 20 16.0949 19.6818 16.0949 19.2825V16.7459C16.0949 16.2527 15.696 15.8652 15.1882 15.8652V13.5882C15.696 13.5882 16.0949 13.1877 16.0949 12.7074V8.0101C16.0949 7.52745 15.696 7.12935 15.1882 7.12935V4.60337C15.696 4.60337 16.0949 4.2041 16.0949 3.72262V0.717515C16.0949 0.317069 16.4334 0 16.8323 0H20.7733C23.3846 0 25.5001 2.05508 25.5001 4.59163V7.55094C25.5001 7.7858 25.4034 8.0101 25.2342 8.17333C25.0649 8.33774 24.8352 8.43168 24.5935 8.43168C23.6989 8.43168 22.9735 9.13745 22.9735 9.99354" fill="#D9E1E8"/>
</svg>
