<svg width="18" height="14" viewBox="0 0 18 14" fill="none" xmlns="http://www.w3.org/2000/svg">
<path d="M10.4587 5.08415V3.40094C10.1283 3.40094 9.85425 3.13476 9.85425 2.81378V0.809592C9.85425 0.542628 9.63664 0.332031 9.36263 0.332031H3.82588C2.08507 0.332031 0.666626 1.70913 0.666626 3.40094V5.42784C0.666626 5.5852 0.7311 5.73395 0.843931 5.84355C0.956761 5.95237 1.10989 6.015 1.27107 6.015C1.88358 6.015 2.35102 6.43776 2.35102 6.99361C2.35102 7.57373 1.87552 8.03563 1.27913 8.04268C0.948702 8.04268 0.666626 8.26971 0.666626 8.59853V10.6035C0.666626 12.2945 2.08507 13.6646 3.81782 13.6646H9.36263C9.63664 13.6646 9.85425 13.4524 9.85425 13.187V11.4952C9.85425 11.1672 10.1283 10.908 10.4587 10.908V9.39002C10.1283 9.39002 9.85425 9.12306 9.85425 8.80286V5.67131C9.85425 5.35033 10.1283 5.08415 10.4587 5.08415Z" fill="#D9E1E8"/>
<path d="M15.6489 6.99439C15.6489 7.57373 16.1325 8.03563 16.7208 8.04346C17.0513 8.04346 17.3333 8.2705 17.3333 8.59148V10.6035C17.3333 12.2953 15.923 13.6654 14.1821 13.6654H11.5548C11.2888 13.6654 11.0632 13.4532 11.0632 13.187V11.496C11.0632 11.1672 10.7972 10.9088 10.4587 10.9088V9.39081C10.7972 9.39081 11.0632 9.12384 11.0632 8.80364V5.6721C11.0632 5.35033 10.7972 5.08493 10.4587 5.08493V3.40094C10.7972 3.40094 11.0632 3.13476 11.0632 2.81378V0.810375C11.0632 0.54341 11.2888 0.332031 11.5548 0.332031H14.1821C15.923 0.332031 17.3333 1.70208 17.3333 3.39312V5.36599C17.3333 5.52257 17.2689 5.6721 17.156 5.78092C17.0432 5.89052 16.8901 5.95315 16.7289 5.95315C16.1325 5.95315 15.6489 6.42367 15.6489 6.99439Z" fill="#0074B3"/>
</svg>
