<svg width="70" height="70" viewBox="0 0 70 70" fill="none" xmlns="http://www.w3.org/2000/svg">
<g id="Iconly/Light-Outline/Setting">
<g id="Setting">
<g id="Group 3">
<mask id="mask0" mask-type="alpha" maskUnits="userSpaceOnUse" x="5" y="5" width="58" height="62">
<path id="Clip 2" fill-rule="evenodd" clip-rule="evenodd" d="M5.83398 5.83398H62.0815V66.2702H5.83398V5.83398Z" fill="white"/>
</mask>
<g mask="url(#mask0)">
<path id="Fill 1" fill-rule="evenodd" clip-rule="evenodd" d="M21.0059 50.8673C21.6738 50.8673 22.3418 50.9519 22.9951 51.1269C24.9668 51.6577 26.6788 52.9761 27.6938 54.7465C28.353 55.8577 28.7176 57.1557 28.7293 58.4798C28.7293 60.3757 30.2518 61.8952 32.1243 61.8952H35.7788C37.6426 61.8952 39.1651 60.3844 39.1738 58.5207C39.1622 56.4615 39.9672 54.5044 41.4401 53.0315C42.8926 51.579 44.9226 50.7069 46.9526 50.7652C48.2826 50.7973 49.563 51.1561 50.6918 51.7977C52.3163 52.7282 54.3901 52.174 55.3293 50.5698L57.2659 47.3411C57.6976 46.5973 57.823 45.664 57.5926 44.8036C57.3651 43.9432 56.7934 43.1965 56.0234 42.7561C54.2209 41.7177 52.9347 40.0436 52.4009 38.0369C51.873 36.0682 52.1618 33.9186 53.1913 32.1482C53.8622 30.9815 54.8451 29.9986 56.0234 29.3219C57.6043 28.3973 58.1584 26.3294 57.2397 24.7194C57.2018 24.6552 57.1668 24.5882 57.1376 24.5182L55.4284 21.5548C54.498 19.9361 52.4272 19.379 50.8026 20.3036C49.0468 21.3419 46.9584 21.6394 44.9518 21.1115C42.948 20.5923 41.268 19.3236 40.2209 17.5327C39.5501 16.4127 39.1855 15.109 39.1738 13.7819C39.2001 12.7844 38.8501 11.889 38.2143 11.2327C37.5813 10.5794 36.6918 10.209 35.7788 10.209H32.1243C31.2201 10.209 30.3743 10.5619 29.7355 11.1977C29.0997 11.8365 28.7526 12.6852 28.7584 13.5894C28.6972 17.8536 25.2118 21.2865 20.9913 21.2865C19.638 21.2719 18.3343 20.9073 17.2026 20.2307C15.613 19.3265 13.5363 19.8836 12.6059 21.5023L10.6313 24.7486C9.72718 26.3177 10.2813 28.3915 11.8913 29.3277C14.2801 30.7102 15.7705 33.2886 15.7705 36.0536C15.7705 38.8186 14.2801 41.394 11.8855 42.7794C10.2843 43.7069 9.73009 45.769 10.6576 47.3732L12.498 50.5465C12.953 51.3661 13.6968 51.9582 14.5572 52.2002C15.4147 52.4394 16.3597 52.3373 17.1472 51.8998C18.3051 51.2202 19.6526 50.8673 21.0059 50.8673ZM35.7803 66.2702H32.1257C27.8412 66.2702 24.3557 62.7877 24.3557 58.5032C24.3499 57.9752 24.1982 57.4269 23.9153 56.9515C23.4574 56.1523 22.7166 55.5807 21.862 55.3532C21.0132 55.1257 20.0828 55.2511 19.3187 55.6944C17.487 56.7152 15.3316 56.9632 13.3599 56.409C11.3912 55.8519 9.69075 54.4986 8.69325 52.7048L6.87033 49.5636C4.73825 45.8652 6.007 41.1257 9.6995 38.9907C10.7466 38.3869 11.397 37.2611 11.397 36.0536C11.397 34.8461 10.7466 33.7173 9.6995 33.1136C6.00408 30.9669 4.73825 26.2157 6.86742 22.5173L8.84492 19.2711C10.9478 15.6136 15.702 14.3244 19.4091 16.4536C19.9137 16.754 20.462 16.9057 21.0191 16.9115C22.8362 16.9115 24.3557 15.4123 24.3849 13.569C24.3732 11.5361 25.1753 9.58482 26.6366 8.1119C28.1037 6.6419 30.052 5.83398 32.1257 5.83398H35.7803C37.8687 5.83398 39.8987 6.69148 41.3541 8.1819C42.8066 9.68107 43.6087 11.7373 43.5474 13.8227C43.5532 14.2923 43.7078 14.8348 43.9878 15.3102C44.4516 16.0977 45.1837 16.6519 46.0528 16.8794C46.922 17.0952 47.832 16.9786 48.6049 16.5207C52.3382 14.3886 57.0895 15.6661 59.2216 19.3702L61.0387 22.5173C61.0853 22.6019 61.1262 22.6836 61.1612 22.7682C63.092 26.4169 61.8028 31.0107 58.2153 33.1077C57.6932 33.4082 57.2703 33.8282 56.9787 34.3357C56.5266 35.1202 56.4012 36.0536 56.6287 36.9111C56.862 37.7861 57.4191 38.5123 58.2037 38.9615C59.9741 39.9794 61.2953 41.6944 61.8232 43.6748C62.3512 45.6523 62.0624 47.799 61.0328 49.5694L59.0962 52.7952C56.9641 56.4586 52.2128 57.7273 48.5174 55.5923C48.0245 55.3094 47.4557 55.1548 46.8899 55.1402H46.8724C46.0295 55.1402 45.1632 55.499 44.5332 56.1261C43.8945 56.7648 43.5445 57.6165 43.5503 58.5206C43.5299 62.8052 40.0445 66.2702 35.7803 66.2702Z" fill="#006298"/>
</g>
</g>
<path id="Fill 4" fill-rule="evenodd" clip-rule="evenodd" d="M33.9676 30.5508C30.9343 30.5508 28.4668 33.0212 28.4668 36.0545C28.4668 39.0879 30.9343 41.5525 33.9676 41.5525C37.001 41.5525 39.4685 39.0879 39.4685 36.0545C39.4685 33.0212 37.001 30.5508 33.9676 30.5508ZM33.9676 45.9274C28.5222 45.9274 24.0918 41.4999 24.0918 36.0545C24.0918 30.6091 28.5222 26.1758 33.9676 26.1758C39.4131 26.1758 43.8435 30.6091 43.8435 36.0545C43.8435 41.4999 39.4131 45.9274 33.9676 45.9274Z" fill="#006298"/>
</g>
</g>
</svg>
