<svg width="87" height="82" viewBox="0 0 87 82" fill="none" xmlns="http://www.w3.org/2000/svg">
<path d="M42.9188 6.33807C44.4719 6.37623 45.9757 6.7058 47.4935 6.99373C49.2826 7.33371 51.0117 7.87143 52.7056 8.48893C54.7095 9.22092 56.6359 10.1437 58.4812 11.2261C60.1505 12.2044 61.7423 13.2937 63.2461 14.5009C64.0878 15.174 64.8837 15.899 65.7007 16.5998C65.8662 17.0924 65.6937 17.5295 65.4753 17.9597C65.1971 18.2684 64.8766 18.1956 64.6195 17.9736C64.1688 17.5781 63.7603 17.6683 63.3165 17.9562C62.7636 18.317 62.1544 18.5772 61.5874 18.9068C61.2598 19.0941 61.2845 19.2502 61.5662 19.4445C61.7881 19.6006 62.017 19.7289 62.2917 19.7671C63.0031 20.0446 63.6405 19.8573 64.2427 19.4653C64.9083 19.2433 65.4788 18.8512 66.0846 18.5182C66.479 18.3517 66.7889 17.9597 67.289 18.0533C67.2503 18.546 67.6869 18.768 67.944 19.0559C69.3985 20.7003 70.6487 22.48 71.7827 24.3498C72.9836 26.3307 73.9626 28.4122 74.7479 30.5735C75.2093 31.8397 75.646 33.1198 75.9031 34.452C75.9524 34.7121 75.8467 35.1388 76.3186 35.2082C76.4137 35.3227 76.382 35.4441 76.3257 35.5551C75.9242 36.3392 75.484 37.0989 75.005 37.8378C74.8536 38.0668 74.6423 38.1743 74.3676 38.0148C73.9591 37.7546 73.8112 37.3279 73.6562 36.9081C73.5506 36.6965 73.5928 36.4224 73.3639 36.2698C72.2933 36.3218 71.2544 36.5577 70.212 36.7728C69.976 36.8804 70.0923 37.0677 70.124 37.2203C70.1873 37.5221 70.3141 37.8101 70.4057 38.105C70.6064 38.6947 70.9163 39.2185 71.3953 39.6314C71.434 39.6591 71.4692 39.6938 71.5045 39.725C71.9623 40.0477 72.4342 39.9991 72.9131 39.7805C73.0399 39.7042 73.1667 39.6314 73.2935 39.5585C74.181 38.8716 75.1459 38.2784 75.9348 37.4666C76.0615 37.3348 76.1813 37.1579 76.4172 37.196C76.6144 38.2749 76.7835 39.3573 76.8539 40.457C76.9244 41.5567 76.9807 42.6565 76.9666 43.7597C76.9596 44.1655 76.8927 44.5575 76.861 44.9565C76.8117 45.574 76.9032 45.6365 77.509 45.5046C78.2168 45.352 78.9247 45.1889 79.6396 45.0606C79.8861 45.0155 80.1678 44.9322 80.3968 45.1473C79.7664 45.404 79.0832 45.4526 78.4281 45.6018C77.1392 45.8897 75.8362 46.136 74.5331 46.3615C73.8992 46.4725 73.6034 46.816 73.4625 47.3745C73.2618 48.1793 73.1526 48.998 73.128 49.8237C73.0117 50.8853 72.9202 51.9468 72.9272 53.0153C72.9308 53.4281 73.0892 53.5392 73.4837 53.442C73.8957 53.3414 74.3218 53.2963 74.7374 53.1992C74.9769 53.1437 75.2269 53.0847 75.4523 53.2616C74.6986 55.8184 73.6668 58.2606 72.3814 60.5988C71.3213 62.5312 70.0747 64.349 68.6695 66.0558C67.701 67.2284 66.6833 68.3558 65.5845 69.4105C64.0737 70.8571 62.4502 72.1615 60.7175 73.341C57.96 75.2178 55.0053 76.7165 51.8428 77.7884C49.5749 78.5551 47.2505 79.1171 44.8558 79.4363C42.7463 79.7173 40.6438 79.8421 38.5238 79.8317C36.9003 79.8213 35.3014 79.5785 33.699 79.3842C32.2164 79.2038 30.769 78.8326 29.3321 78.4441C27.2896 77.889 25.3104 77.164 23.4157 76.2169C23.0459 76.033 22.6797 75.7694 22.2218 75.8075C22.1972 75.7798 22.1831 75.752 22.1866 75.7208C22.1866 75.6861 22.1901 75.6722 22.1972 75.6722C22.2359 75.6029 22.2923 75.5543 22.3662 75.5196C22.6092 75.4537 22.8522 75.3774 23.0635 75.2282C23.2995 75.0305 23.5777 74.916 23.87 74.8223C26.55 73.9516 29.223 73.06 31.903 72.1823C32.1037 72.1164 32.308 72.0678 32.5158 72.0366C32.5862 72.0227 32.5052 71.929 32.5334 71.995C32.5404 72.0158 32.5298 72.0262 32.4911 72.0297C31.8854 72.0886 31.3289 71.8874 30.7725 71.707C29.5294 71.3115 28.3425 70.7773 27.1733 70.2049C27.029 70.1355 26.8881 70.0592 26.7261 70.028C25.7611 69.5943 24.8948 68.9976 23.9756 68.4842C23.8665 68.4252 23.7855 68.3246 23.8242 68.1824C24.1658 68.0991 24.4335 67.9326 24.599 67.603C24.7222 67.3602 24.9371 67.2457 25.2223 67.3324C25.49 67.4122 25.659 67.3047 25.8034 67.0861C26.145 66.5623 26.6697 66.2605 27.2297 66.0315C27.6171 65.8719 27.9657 65.6846 28.2087 65.3342C28.3496 65.1261 28.5186 64.9491 28.7687 64.8624C28.8356 64.8381 28.9271 64.8173 28.9518 64.7583C29.2441 64.1166 29.8639 63.9813 30.452 63.7627C30.8641 63.6101 31.2268 63.5719 31.6248 63.78C32.0298 63.9917 32.4348 64.2172 32.8785 64.3559C33.8082 64.7514 34.6006 65.3793 35.4986 65.8303C35.717 65.9413 35.9318 66.0697 36.1396 66.2015C37.594 66.9612 39.045 67.721 40.6192 68.2171C41.4785 68.5813 42.3835 68.6195 43.2992 68.564C43.426 68.557 43.5457 68.5224 43.6584 68.4634C45.3629 67.5926 47.24 67.1902 49.0219 66.5207C50.3003 66.0419 51.6104 65.643 52.9134 65.1642C51.5505 64.8069 50.325 64.1686 49.0994 63.5337C47.3632 62.5589 45.6834 61.5008 44.0528 60.3664C43.8486 60.2242 43.6478 60.0785 43.4189 59.9744C42.8872 59.7142 42.4152 59.3708 41.968 58.9961C40.7424 57.9762 39.4324 57.0673 38.1681 56.0959C36.8193 54.9962 35.4212 53.9624 34.0759 52.8627C33.773 52.6164 33.4983 52.3388 33.1814 52.1064C33.0475 52.0058 32.882 51.8913 32.9771 51.6728C33.1109 51.5583 33.2729 51.5756 33.4349 51.5791C34.0195 51.5895 34.4492 51.3085 34.6499 50.75C34.7379 50.5002 34.8577 50.2955 35.1112 50.2053C35.9565 49.9 36.4741 49.2166 37.0799 48.6199C37.8617 47.8532 38.64 47.0692 39.7071 46.6737C39.9219 46.6564 40.0839 46.7674 40.2318 46.8957C42.1476 48.5575 44.0881 50.1914 46.0179 51.8358C46.6659 52.3874 47.3139 52.939 48.0218 53.4212C49.8038 54.854 51.6773 56.1653 53.5332 57.4974C53.5755 57.5217 53.6178 57.5529 53.6565 57.5807C54.1531 57.9727 54.6531 58.3543 55.1884 58.6943C55.2871 58.7637 55.3751 58.8435 55.4631 58.9233C55.6533 59.0967 55.8787 59.2216 56.097 59.3569C56.4703 59.6552 56.9387 59.8218 57.2733 60.1721C57.5022 60.3699 57.7417 60.5503 57.9988 60.7099C58.122 60.7792 58.2453 60.8486 58.358 60.9388C58.5446 61.0915 58.7454 61.2198 58.939 61.3655C59.506 61.7402 60.1047 62.0559 60.7598 62.2467C61.2246 62.382 61.3056 62.3265 61.4289 61.8547C61.5627 61.3343 61.4113 60.8833 61.1049 60.4635C60.0589 58.6145 58.8017 56.9077 57.4458 55.2703C55.6533 53.1055 53.8326 50.9616 51.9168 48.9009C51.1209 48.0475 50.3144 47.201 49.5678 46.3025C49.3283 46.0146 49.0431 45.7752 48.7226 45.5809C48.6944 45.5358 48.6803 45.4873 48.6803 45.4352C49.272 44.4708 49.6171 43.3919 50.1313 42.3893C50.3144 42.1292 50.4342 41.8377 50.5785 41.5602C50.5997 41.5151 50.6278 41.4735 50.656 41.4353C50.7476 41.307 50.8251 41.1682 50.9131 41.0329C51.3498 40.3634 51.3533 40.3564 50.6771 39.9679C49.8953 39.5169 49.1065 39.0694 48.3282 38.6115C48.0077 38.4241 47.7753 38.438 47.564 38.7537C47.3773 39.0312 47.1519 39.281 46.997 39.5828C46.6483 40.2315 46.3173 40.8837 46.0637 41.5741C45.9968 41.7545 45.9299 41.9349 45.782 42.0702C45.6446 42.143 45.5249 42.0875 45.4052 42.0285C44.6938 41.3902 44.0493 40.6825 43.3837 39.9991C41.3763 37.9454 39.3443 35.9159 37.2454 33.9559C35.4845 32.3115 33.7272 30.6602 31.8995 29.0852C29.5751 27.0835 27.2508 25.0749 24.7363 23.3056C24.2574 22.9691 23.7749 22.6361 23.2572 22.3551C21.9331 21.5294 21.2252 21.7861 20.711 23.2848C20.0947 24.8667 19.4679 26.4417 18.8551 28.0271C18.4677 28.4018 18.3409 28.9117 18.1648 29.387C17.2985 31.7391 16.4603 34.0981 15.52 36.4224C15.4743 36.5369 15.439 36.6549 15.439 36.7832C15.5271 37.1509 15.3757 37.477 15.2524 37.8066C13.9529 41.2688 12.7449 44.7657 11.4454 48.2314C11.3609 48.4603 11.3081 48.7066 11.1285 48.894C10.9313 49.057 10.8115 49.2652 10.727 49.5045C9.85011 51.9989 8.89573 54.4654 8.01179 56.9597C7.95896 57.1089 7.90261 57.2581 7.89557 57.4176C7.96248 57.7715 7.90614 58.108 7.77583 58.4376C7.50818 59.121 7.28632 59.8183 7.00458 60.4948C6.93767 60.6544 6.94471 60.8937 6.67002 60.8903C6.70524 60.6093 6.57846 60.3768 6.45167 60.1444C5.47969 58.3439 4.64152 56.474 4.01466 54.5348C3.3068 52.3492 2.74685 50.1255 2.4792 47.8359C2.25381 45.9175 2.1059 43.9921 2.16929 42.0632C2.25029 39.6453 2.5285 37.255 3.06028 34.8856C3.58854 32.5301 4.34922 30.2543 5.3353 28.0618C6.49041 25.4912 7.96248 23.0905 9.68459 20.8287C11.0757 19.0074 12.6287 17.3422 14.3121 15.8019C16.3265 13.9598 18.5381 12.3709 20.9399 11.0353C23.0389 9.86618 25.2082 8.85666 27.5009 8.11426C27.6769 8.05529 27.9692 8.02407 27.8249 7.69797C28.1982 7.54533 28.4059 7.86102 28.6736 7.99285C29.2617 8.28078 29.2547 8.29466 29.4589 7.70491C29.6068 7.08393 29.6808 6.46642 29.4801 5.84198C29.4307 5.69281 29.4061 5.53323 29.5188 5.39099C29.9062 5.783 29.885 6.28256 29.8569 6.76824C29.8322 7.22617 29.9625 7.33024 30.445 7.2331C32.3678 6.84456 34.2801 6.36582 36.2593 6.33113C36.453 6.32766 36.6397 6.24787 36.8334 6.23746C37.8053 6.17155 37.7913 6.17502 37.8124 5.18978C37.8194 4.90878 37.6786 4.59309 37.9286 4.33984C38.0836 4.51677 38.0589 4.73533 38.0624 4.94347C38.066 5.55751 38.0624 6.17502 38.0659 6.78905C38.0659 7.59043 38.066 7.59736 38.8407 7.78123C39.9219 8.04141 40.9573 8.41955 41.9328 8.94686C41.9645 8.9642 41.9926 8.98155 42.0208 9.00236C42.8907 9.6164 42.8907 9.6164 42.1265 10.3415C42.0877 10.3761 42.049 10.4039 42.0067 10.4316C41.6968 10.6259 41.4116 10.8549 41.1228 11.0804C39.6085 12.1107 37.9709 12.9329 36.3615 13.7967C34.4069 14.8444 32.396 15.8019 30.6035 17.1236C30.3006 17.3387 30.0048 17.5573 29.7301 17.8105C29.0328 18.4558 28.6313 19.2016 28.7123 20.1834C28.7651 20.846 28.7264 21.5155 28.7229 22.1816C28.7299 22.584 28.7053 22.9865 28.737 23.3889C28.7651 23.7289 28.8849 24.0341 29.1384 24.2804C29.7442 25.0055 30.5612 25.4218 31.4029 25.8103C31.7269 25.9803 32.0509 26.1434 32.4066 26.2474C33.0722 26.4972 33.7307 26.7678 34.4175 26.9621C34.907 27.0974 34.9739 27.0488 34.9774 26.5354C34.9845 25.852 34.9704 25.1651 34.9845 24.4817C34.9915 24.1278 34.8401 23.9439 34.4985 23.8364C33.4807 23.5138 32.4629 23.1877 31.4909 22.7471C31.1423 22.5147 30.7514 22.362 30.3816 22.1608C29.3004 21.4219 29.3004 21.4219 30.1844 20.447C30.2337 20.3881 30.2936 20.343 30.3605 20.3048C30.7162 20.1314 31.0366 19.9059 31.343 19.6596C33.3152 18.4072 35.4176 17.3873 37.4743 16.2806C39.2633 15.3197 41.07 14.3795 42.5596 12.9676C43.1407 12.4472 43.4858 11.8297 43.4612 11.0249C43.433 10.109 43.4401 9.19317 43.4612 8.27731C43.4753 7.69797 43.4119 7.15331 43.0492 6.67457C42.9365 6.58438 42.8766 6.46989 42.9188 6.33807Z" fill="#E5F1FE"/>
<path d="M22.2149 75.6926C22.2114 75.7308 22.2079 75.769 22.2079 75.8071C21.3591 75.7447 20.6513 76.2095 19.8871 76.4385C18.3093 76.9138 16.7809 77.5764 15.1821 77.9372C14.4284 78.1072 13.7699 78.6032 12.9634 78.5443C12.9634 78.3327 13.1853 78.3465 13.3191 78.1974C11.0194 77.8053 9.01559 76.7056 6.92722 75.8175C6.09258 75.5539 5.45515 74.9364 4.63459 74.6276C4.10986 74.4299 3.59569 74.2009 3.05687 74.0309C2.68357 73.7464 2.30675 73.795 1.92993 74.024C2.19406 73.2122 2.43001 72.3866 2.72936 71.5852C3.1907 70.3502 3.59922 69.0978 4.1803 67.9079C4.33173 67.5957 4.22256 67.1967 4.50429 66.9261C5.0572 66.8429 5.48332 67.1482 5.9341 67.3771C7.62099 68.4317 9.29028 69.5141 10.9455 70.6138C11.3012 70.8497 11.6498 71.0926 12.0337 71.2868C12.4845 71.6199 12.9916 71.8627 13.4741 72.1402C15.2666 73.2018 17.0767 74.2321 19.0524 74.9468C19.6934 75.1792 20.3554 75.3284 21.0105 75.5053C21.3979 75.6475 21.8451 75.422 22.2149 75.6926Z" fill="#EAE8EA"/>
<path d="M75.4453 53.266C74.6776 53.3077 73.9451 53.547 73.1914 53.665C72.9555 53.7031 72.7583 53.7413 72.7583 53.4117C72.7547 52.201 72.7935 50.9972 72.9731 49.7969C73.1492 49.1204 73.114 48.4092 73.3041 47.7327C73.3816 47.4552 73.4661 47.1916 73.7197 47.0181C73.9028 46.8932 74.0895 46.7995 74.3149 46.9244C74.3853 46.9626 74.4874 47.0875 74.5367 47.0042C74.8854 46.411 75.3925 46.8169 75.8257 46.7961C75.8785 46.7926 75.9419 46.8273 75.9841 46.7995C76.8716 46.2098 78.0408 46.4561 78.9177 45.8421C78.9917 45.79 79.0621 45.7415 79.129 45.6825C79.2452 45.5819 79.3579 45.3807 79.5199 45.4952C79.7066 45.627 79.6326 45.8559 79.534 46.0259C79.4072 46.248 79.3262 46.4734 79.3403 46.7267C79.2452 47.2644 79.2488 47.816 79.1537 48.3537C79.122 48.5272 79.1185 48.7041 78.9882 48.8463C78.8015 49.8906 78.8297 50.9521 78.8086 52.0067C78.798 52.4126 78.6853 52.5826 78.2627 52.6728C77.3259 52.8671 76.361 52.9573 75.4453 53.266Z" fill="#08ACEE"/>
<path d="M6.96587 75.7031C7.83221 75.9737 8.60346 76.4455 9.43106 76.7959C10.7235 77.344 12.023 77.854 13.4176 78.0899C13.4986 78.1038 13.5726 78.1454 13.6747 78.1836C13.4775 78.4333 13.157 78.3709 12.9598 78.5444C12.8189 78.5027 12.7415 78.6033 12.6464 78.6692C12.3259 78.7872 12.0054 78.8982 11.6709 78.9676C10.0438 79.4845 8.41681 80.0049 6.78979 80.5218C5.3318 80.9832 3.87382 81.448 2.41232 81.9025C1.93689 82.0516 1.4685 82.0516 1.0459 81.729C1.94393 80.8028 3.02509 80.0742 3.9196 79.1445C4.17669 78.8774 4.43377 78.6033 4.65916 78.3189C5.38815 77.4099 6.24392 76.612 6.96587 75.7031Z" fill="#029FFC"/>
<path d="M6.96582 75.7045C7.00103 75.812 7.0926 75.9022 6.95173 76.0271C5.93396 76.9256 5.16271 78.0461 4.2365 79.0244C3.52512 79.7738 2.76443 80.4884 1.90866 81.0851C1.61284 81.2898 1.50014 81.7304 1.05289 81.7338C0.218245 81.321 -0.172664 80.478 0.0773767 79.6142C0.140767 79.3991 0.225288 79.1875 0.299244 78.9759C0.750021 77.7443 1.19023 76.5128 1.58818 75.2639C1.59523 75.1529 1.56705 75.0315 1.67623 74.9447C1.87696 74.7713 1.89105 74.5146 1.97205 74.2891C2.19039 73.6854 2.19744 73.6785 2.85247 73.845C2.93699 73.8658 3.03208 73.8381 3.10251 73.9109C4.49711 74.2717 5.69801 75.0557 6.96582 75.7045Z" fill="#0190F5"/>
<path d="M71.3355 6.35131C70.5854 5.74768 69.8353 5.14405 69.0851 4.53695C68.9724 4.45022 68.8034 4.43288 68.7471 4.27676C68.49 3.42683 68.3984 2.55607 68.4301 1.67144C68.4407 1.3731 68.5287 1.11985 68.7787 0.935985C69.1873 0.623763 69.5289 0.890887 69.8458 1.0921C70.8812 1.7547 71.7651 2.60464 72.6984 3.38867C73.0893 3.71823 73.5366 3.98536 73.8535 4.39818C74.0014 4.70347 73.7514 4.85611 73.5859 5.01569C73.0506 5.52565 72.3462 5.83094 71.8638 6.41028C71.6877 6.62537 71.5116 6.37906 71.3355 6.35131Z" fill="#EB8801"/>
<path d="M41.9363 9.09169C40.746 8.51928 39.5169 8.05442 38.2174 7.79076C37.904 7.72832 37.8934 7.53058 37.8969 7.28427C37.904 6.29903 37.8969 5.31727 37.8969 4.33203C39.3021 4.54018 40.6298 4.96341 41.8553 5.685C42.6864 6.0666 43.0069 6.69798 42.8731 7.59649C42.8167 7.99197 42.8766 8.4048 42.859 8.81069C42.8343 9.42126 42.697 9.50105 42.1723 9.21311C42.0948 9.17148 42.0208 9.12291 41.9363 9.09169Z" fill="#DB5111"/>
<path d="M84.6864 28.3283C85.5985 29.6084 86.1796 31.062 86.9226 32.4323C87.0529 32.6751 87.0283 32.807 86.7395 32.8972C85.9577 33.14 85.1829 33.4002 84.4117 33.6673C84.1581 33.754 84.0172 33.6881 83.9045 33.4522C83.5981 32.8 83.2777 32.1582 82.9607 31.5095C82.841 31.121 82.6262 30.774 82.3796 30.4618C82.1472 30.1635 82.1824 29.9068 82.4149 29.6639C82.8656 29.1921 83.2777 28.6891 83.7707 28.2555C84.1581 27.912 84.3342 27.9328 84.6864 28.3283Z" fill="#DB5012"/>
<path d="M81.6646 14.3597C82.8796 14.1134 84.0277 14.4395 85.1722 14.7725C85.3941 14.835 85.3272 15.0119 85.2603 15.1646C84.6827 16.4689 84.0981 17.7733 83.5276 19.0812C83.4043 19.3622 83.2142 19.2963 82.9993 19.2304C82.1083 18.9563 81.2033 18.7482 80.263 18.8141C79.7312 18.8522 79.2065 18.9494 78.6782 19.0188C78.8614 18.5227 79.3473 18.6996 79.696 18.5747C80.2419 18.6545 80.5412 18.3874 80.7595 17.919C81.1681 17.0483 81.5378 16.1602 81.9675 15.2964C82.2774 14.6581 82.2492 14.6477 81.6646 14.3597Z" fill="#FECD71"/>
<path d="M53.551 4.12096C53.065 3.73588 52.8114 3.18082 52.4663 2.69514C52.0578 2.11926 51.7056 1.50176 51.0576 1.07852C51.4274 0.814867 51.8359 0.745485 52.2092 0.599781C52.5896 0.450608 52.9875 0.339596 53.3679 0.186954C54.1884 -0.146084 54.5406 -0.0593552 55.0547 0.651818C55.2484 0.918942 55.414 1.20688 55.5901 1.48441C55.8964 1.97703 56.393 2.30313 56.7346 2.76799C57.0269 3.16694 57.0234 3.28489 56.555 3.43754C55.7837 3.69078 55.0195 3.97525 54.2448 4.21809C53.9701 4.30135 53.7658 4.27013 53.551 4.12096Z" fill="#0262E7"/>
<path d="M69.1308 12.9163C69.0146 14.0195 68.8315 15.1088 68.4793 16.1669C68.349 16.5104 68.1095 16.7463 67.7679 16.8989C67.2819 17.114 66.7889 17.3152 66.31 17.5476C66.1163 17.6413 65.8944 17.7211 65.7078 17.558C65.5458 17.4158 65.6584 17.2285 65.7042 17.0654C66.074 15.702 66.1233 14.304 66.1832 12.9059C67.0249 12.4723 67.7996 11.9033 68.7118 11.5981C69.0041 11.5009 69.2048 11.5495 69.1731 11.9242C69.1449 12.2537 69.2154 12.5868 69.1308 12.9163Z" fill="#DB8603"/>
<path d="M84.6864 28.329C84.3553 28.0411 84.0771 28.0827 83.7813 28.4123C83.3622 28.8806 82.9009 29.3108 82.4712 29.7722C82.2846 29.9734 82.2846 30.1885 82.4571 30.4383C82.6825 30.7644 82.9783 31.0697 82.9607 31.5102C82.5839 31.0662 82.4008 30.5007 81.9641 30.0914C81.626 29.7757 81.2844 29.5918 80.816 29.7028C80.5096 29.7861 80.3265 30.0254 80.1152 30.2336C79.8581 30.4868 79.682 30.4001 79.5588 30.1156C79.4073 29.7687 79.3616 29.4149 79.5165 29.0576C79.5165 28.9743 79.52 28.8876 79.6151 28.8459C79.9849 28.4817 80.161 27.9821 80.4885 27.5866C80.7245 27.1322 81.1013 26.8096 81.5204 26.5355C82.0275 26.2025 82.5874 26.1851 83.0981 26.48C83.8376 26.8998 84.3412 27.5589 84.6864 28.329Z" fill="#D95A30"/>
<path d="M5.88828 67.464C5.43398 67.2628 4.98321 67.0546 4.50073 66.9297C4.62399 66.4995 4.75077 66.0694 4.93038 65.6565C5.58894 64.0989 6.15241 62.5066 6.64193 60.89C7.10327 59.9394 7.40261 58.9334 7.74422 57.9412C7.79704 57.7885 7.73013 57.5977 7.71956 57.4277C7.76535 57.3653 7.83226 57.3271 7.90269 57.3549C8.46969 57.5873 8.97329 57.9134 9.39941 58.3471C9.4628 58.4095 9.48041 58.5032 9.43463 58.5934C9.09303 58.6801 8.92751 58.9195 8.79368 59.2317C7.78648 61.5422 6.9307 63.9116 5.88828 66.2081C5.67698 66.6626 5.82137 67.0442 5.88828 67.464Z" fill="#2894F1"/>
<path d="M79.5199 29.0547C79.5622 29.3634 79.5904 29.6722 79.6502 29.9775C79.7136 30.2932 79.8474 30.4146 80.1327 30.1232C80.3193 29.9324 80.4743 29.6548 80.8194 29.7034C79.932 30.3799 79.4319 31.3235 78.9494 32.2879C78.1253 33.9358 77.4421 35.653 76.4138 37.2002C75.5862 38.0848 74.5614 38.7336 73.6281 39.4898C73.533 39.5662 73.4485 39.6633 73.3076 39.6598C73.3041 39.1915 73.7549 39.0493 73.9873 38.7509C74.1528 38.5358 74.4275 38.3867 74.3395 38.0536C74.3395 38.0016 74.3606 37.9634 74.4064 37.9357C74.5895 38.0189 74.7515 38.0189 74.8642 37.8281C75.3678 36.9678 75.9454 36.1456 76.3152 35.2124C76.8716 34.3555 77.2449 33.405 77.7098 32.503C78.3049 31.3443 78.7768 30.1336 79.5199 29.0547Z" fill="#D87D64"/>
<path d="M68.8844 4.31475C68.9513 4.3876 69.0218 4.46392 69.0887 4.53677C68.7788 4.50902 68.8069 4.69982 68.8351 4.9045C68.9126 5.48385 69.0182 6.05972 69.0112 6.64948C68.6449 6.3546 68.2928 6.45174 67.9089 6.64601C67.3877 6.90966 66.9052 7.24964 66.3312 7.41616C66.0811 7.48901 66.0248 7.69022 66.06 7.92265C66.0988 8.18284 66.1551 8.44302 66.1551 8.70668C66.1586 8.85238 66.1657 8.99462 66.1586 9.14032C66.1164 9.44213 66.2537 9.77517 66.0001 10.0423C65.8029 9.55315 65.8875 9.03625 65.8558 8.53322C65.7607 6.90273 65.4578 5.28958 65.4578 3.65214C65.4578 3.41277 65.3979 3.15606 65.567 2.9375C65.8276 3.22544 65.7114 3.57582 65.7184 3.89845C65.7255 4.29046 65.8839 4.35985 66.2185 4.21067C66.789 3.95743 67.3349 3.65214 67.9019 3.3989C68.4512 3.15606 68.5675 3.22197 68.6837 3.79438C68.7189 3.97824 68.6872 4.18986 68.8844 4.31475Z" fill="#FEEE71"/>
<path d="M79.7418 18.7022C79.3861 18.8063 78.9741 18.7299 78.6747 19.0179C78.2275 19.1358 77.8542 19.4064 77.3752 19.6527C77.6323 18.8063 78.0444 18.109 78.3472 17.37C78.5339 16.9156 78.7522 16.4715 78.96 16.024C79.4249 15.011 80.2806 14.5739 81.3512 14.4629C81.5696 14.56 81.5625 14.7404 81.4886 14.9104C80.9357 16.1836 80.4215 17.481 79.7418 18.7022Z" fill="#F89138"/>
<path d="M78.9952 48.8455C78.9775 48.0962 79.1184 47.3607 79.2135 46.6253C79.3825 46.0355 79.939 46.0633 80.3721 46.0043C80.7842 45.9488 80.9004 45.8135 80.8229 45.4492C81.7033 46.0355 82.0661 46.9375 82.3267 47.8915C82.3866 48.1135 82.2281 48.1829 82.0238 48.2245C81.0131 48.4223 80.0059 48.6339 78.9952 48.8455Z" fill="#51DAFE"/>
<path d="M69.1309 12.9151C69.1238 12.6029 69.1027 12.2872 69.1203 11.975C69.1379 11.6523 68.99 11.6176 68.74 11.7286C68.3737 11.8952 67.9722 12.0201 67.6553 12.2525C67.2186 12.5716 66.7361 12.752 66.229 12.9012C66.1128 12.7382 66.1938 12.5508 66.1691 12.3774C66.2079 11.9368 66.1163 11.5066 66.0635 11.073C66.0776 10.681 66.2607 10.4347 66.6516 10.2994C67.3419 10.06 67.9476 9.63675 68.6167 9.34535C69.0781 9.14414 69.1344 9.1823 69.1872 9.70267C69.2717 10.7712 69.307 11.8431 69.1309 12.9151Z" fill="#EAA605"/>
<path d="M68.8843 4.31644C68.5885 4.23665 68.5991 3.96953 68.5956 3.76138C68.585 3.29998 68.3631 3.3208 68.0462 3.47691C67.4721 3.76138 66.9051 4.04932 66.3241 4.32338C65.6268 4.64948 65.5845 4.62172 65.5775 3.88627C65.5739 3.57057 65.5704 3.25488 65.5669 2.93919C65.5739 2.72757 65.6655 2.55759 65.8522 2.46045C66.8277 1.94702 67.8067 1.44399 68.7822 0.9375C68.3737 1.83601 68.6484 2.74839 68.7399 3.6573C68.7611 3.8828 68.8315 4.09788 68.8843 4.31644Z" fill="#FCD731"/>
<path d="M80.8229 45.4456C80.844 45.6503 81.2138 45.7197 81.0659 45.966C80.9356 46.1776 80.6714 46.0458 80.4777 46.0978C80.034 46.2123 79.5234 46.188 79.2134 46.6216C79.0867 46.2088 79.629 45.9625 79.4811 45.4664C79.1008 46.1845 78.2485 46.07 77.766 46.5661C77.7308 46.6008 77.6005 46.5592 77.516 46.5384C77.0159 46.4239 76.5687 46.5106 76.1989 46.8853C76.0615 47.0241 75.9312 47.0934 75.7446 46.9235C75.4945 46.698 75.1318 47.0588 74.8536 46.7882C74.8113 46.7465 74.7057 46.9477 74.6951 47.0726C74.6881 47.1732 74.7057 47.2981 74.5648 47.3293C74.4204 47.3606 74.4028 47.2391 74.357 47.1455C74.2232 46.8714 74.0471 46.9304 73.8429 47.0761C73.2583 47.4924 73.29 48.1411 73.2054 48.7378C73.1561 49.0986 73.1456 49.4594 72.9695 49.7924C73.0117 48.8072 73.128 47.8324 73.4625 46.8957C73.5858 46.5488 73.8006 46.3615 74.1845 46.2886C76.0404 45.9278 77.8893 45.5358 79.7417 45.1681C79.9495 45.1264 80.1678 45.1542 80.3827 45.1473C80.5341 45.2479 80.6785 45.3485 80.8229 45.4456Z" fill="#32ABED"/>
<path d="M29.5117 7.82357C29.3391 8.48965 29.3427 8.47924 28.7193 8.17049C28.4094 8.01784 28.1418 7.77847 27.7931 7.69868C27.4656 7.41768 27.0747 7.23729 26.6873 7.06036C26.3351 6.90078 26.2506 6.69957 26.4056 6.35266C26.4971 6.14451 26.5394 5.91555 26.6028 5.69699C26.631 5.67271 26.6556 5.64495 26.6591 5.61026C26.7296 4.83664 26.9021 4.72563 27.5924 5.10724C28.1523 5.41252 28.6841 5.76637 29.2335 6.09247C29.5716 6.29368 29.7617 6.63019 29.6138 7.04302C29.5223 7.3032 29.6244 7.57379 29.5117 7.82357Z" fill="#0B88DA"/>
<path d="M69.1837 9.69586C69.1238 9.39058 69.0217 9.26222 68.6731 9.44955C67.9476 9.84156 67.201 10.2093 66.4438 10.5319C66.1938 10.6395 66.2677 10.8441 66.1586 10.9829C65.9613 10.6499 66.1057 10.2891 66.067 9.94217C66.0353 9.65423 66.1128 9.35935 66.0177 9.07488C66.0177 8.93959 66.0177 8.80082 66.0142 8.66553C66.0776 8.56145 66.1198 8.42963 66.2466 8.388C67.046 8.12781 67.7363 7.63519 68.5251 7.35419C69.0323 7.1738 69.0534 7.19461 69.0675 7.72539C69.071 7.89538 69.0076 8.07577 69.1203 8.23535C69.1274 8.72103 69.2577 9.20671 69.1837 9.69586Z" fill="#F9CC02"/>
<path d="M76.199 9.19299C75.2904 9.09585 74.5614 8.60671 73.8184 8.14878C74.403 7.68392 75.058 7.33353 75.7306 7.0109C76.0582 6.85479 76.3575 6.6744 76.5265 6.33789C77.4281 6.82357 78.3402 7.28843 79.3263 7.59372C79.2559 7.69085 79.1432 7.72901 79.0445 7.69779C78.5163 7.53821 78.1219 7.79146 77.7169 8.06899C77.2626 8.37774 76.7695 8.63446 76.273 8.86342C75.9948 8.99178 76.2871 9.10279 76.199 9.19299Z" fill="#FEEC67"/>
<path d="M41.9362 9.09224C42.711 9.28651 42.711 9.28651 42.711 8.44351C42.711 8.2874 42.7075 8.12782 42.711 7.97171C42.7462 7.09402 42.873 6.18163 41.8552 5.68555C42.2778 5.78962 42.549 6.14 42.9188 6.33428C43.4682 6.90321 43.6337 7.5797 43.5985 8.35678C43.5562 9.30039 43.609 10.2509 43.5985 11.1945C43.5914 12.0271 43.1759 12.6481 42.5032 13.1234C42.4081 12.9673 42.5103 12.8458 42.5983 12.7522C42.9117 12.4053 42.8519 12.0584 42.6511 11.6906C42.5067 11.4304 42.3729 11.1598 42.3412 10.8615C42.313 10.6013 42.0841 10.5007 41.9433 10.3307C41.9609 10.2995 41.9714 10.2648 41.9926 10.244C42.6089 9.63343 42.6089 9.63343 41.9362 9.09224Z" fill="#D95C32"/>
<path d="M71.3354 6.35156C71.582 6.40013 71.7721 6.39319 71.9588 6.14688C72.2335 5.78262 72.635 5.54325 73.0223 5.30041C73.378 5.07839 73.7267 4.83208 73.8535 4.39844C74.2761 4.65862 74.667 4.95697 75.0156 5.30735C75.2762 5.53285 75.3643 5.75834 75.0015 5.96649C74.2937 6.37238 73.5612 6.74357 72.9449 7.28823C72.8639 7.36108 72.7441 7.35414 72.6455 7.2917C72.1419 7.07314 71.751 6.69501 71.3354 6.35156Z" fill="#EFB303"/>
<path d="M29.5119 7.82237C29.5119 7.64544 29.4662 7.46158 29.5155 7.29853C29.7092 6.62205 29.3746 6.2682 28.797 5.99413C28.3392 5.77558 27.9272 5.46336 27.4799 5.22398C26.8707 4.90135 26.839 4.92564 26.7016 5.58131C26.6911 5.6264 26.6382 5.6611 26.603 5.69926C26.6065 4.98808 26.7228 4.26303 26.4128 3.54492C27.4694 4.14508 28.6491 4.48853 29.4873 5.3905C29.7408 6.19881 29.8254 7.00712 29.5119 7.82237Z" fill="#3991DA"/>
<path d="M79.7417 18.7017C79.865 17.9663 80.3087 17.3592 80.5693 16.6757C80.7947 16.0894 81.0694 15.5205 81.337 14.9516C81.418 14.7816 81.4673 14.6289 81.3511 14.4624C81.4215 14.3271 81.5483 14.3653 81.6645 14.3618C82.4851 14.4 82.5097 14.4104 82.1857 15.1458C81.7561 16.1207 81.2701 17.0747 80.8405 18.0495C80.6221 18.5456 80.3122 18.8162 79.7417 18.7017Z" fill="#FEB44E"/>
<path d="M66.2149 12.3466C66.2184 12.5305 66.2254 12.7143 66.2289 12.8982C66.2043 14.3379 66.1444 15.7741 65.7535 17.1722C65.669 17.4705 65.7465 17.6266 66.0388 17.5052C66.7607 17.1999 67.4615 16.8565 68.1623 16.5061C68.2926 16.4402 68.3772 16.2806 68.4828 16.1627C68.3525 16.9571 67.7996 17.4913 67.2854 18.0464C66.8981 18.2303 66.5107 18.4176 66.1198 18.6015C65.831 18.6778 65.6126 18.8825 65.3415 19.0004C65.1513 19.0837 65.0104 19.1045 64.9435 18.8686C64.9118 18.6188 65.0351 18.4176 65.1548 18.2129C65.2182 18.1366 65.2992 18.0742 65.345 17.984C65.514 17.533 65.6584 17.075 65.6972 16.5928C66.0317 15.4099 66.0458 14.1922 66.0916 12.978C66.0986 12.7698 66.1022 12.5617 66.1057 12.3501C66.1409 12.3154 66.1761 12.3119 66.2149 12.3466Z" fill="#D78C30"/>
<path d="M69.1204 8.23637C68.8915 7.98312 69.0887 7.65355 68.9478 7.35174C67.923 7.68478 67.0144 8.28494 66.0107 8.67001C65.7853 7.85129 65.8699 7.25807 66.8982 7.02217C67.349 6.9181 67.7786 6.58506 68.2224 6.36304C68.5921 6.17917 68.8915 6.18264 69.0077 6.65444C69.0464 7.17828 69.1943 7.69865 69.1204 8.23637Z" fill="#FEE646"/>
<path d="M53.5508 4.12154C54.2023 4.3054 54.7517 3.95155 55.3328 3.7885C55.7589 3.67055 56.1674 3.49709 56.583 3.35486C56.8576 3.26119 56.8964 3.16406 56.6921 2.91775C56.3047 2.45635 55.7941 2.08516 55.5898 1.48846C55.8962 1.99149 56.3047 1.90129 56.759 1.71049C57.1006 1.56478 57.4669 1.47459 57.8191 1.3497C58.0374 1.27338 58.1501 1.29072 58.1395 1.56478C58.1008 2.53267 57.6395 3.16059 56.7062 3.47975C55.8821 3.76075 55.0545 4.03134 54.2305 4.31581C53.9487 4.40948 53.7093 4.41988 53.5508 4.12154Z" fill="#3490DF"/>
<path d="M76.199 9.19361C76.0053 9.07219 75.8538 8.96118 76.1638 8.78425C76.8575 8.39224 77.5795 8.03839 78.2345 7.57699C78.5902 7.32722 78.96 7.67066 79.3262 7.59087C79.5728 7.60475 79.8193 7.61862 80.2419 7.64638C79.1678 8.21532 78.231 8.7114 77.2907 9.20749C76.928 9.25259 76.5617 9.27687 76.199 9.19361Z" fill="#FCD320"/>
<path d="M72.6455 7.29489C73.0047 7.25673 73.1421 6.9237 73.4062 6.75024C73.864 6.44842 74.343 6.18824 74.8325 5.93846C75.1318 5.78582 75.241 5.60195 75.0191 5.31055C75.4135 5.45972 75.6777 5.77194 75.9841 6.03213C76.1848 6.33394 75.97 6.51434 75.7516 6.62188C74.9698 7.00002 74.2303 7.4406 73.5189 7.93322C73.1984 7.75629 72.8885 7.56896 72.6455 7.29489Z" fill="#FCD406"/>
<path d="M73.519 7.93082C73.9804 7.24046 74.7692 7.01844 75.4489 6.64724C75.7131 6.50154 76.0159 6.41828 75.9878 6.0332C76.1674 6.13381 76.347 6.23788 76.5301 6.33849C76.6111 6.48072 76.6005 6.63683 76.4667 6.71315C75.6039 7.21965 74.7411 7.73308 73.8254 8.14938C73.7163 8.07652 73.6177 8.00367 73.519 7.93082Z" fill="#FEE339"/>
<path d="M1.58484 75.2637C1.31719 76.5542 0.85937 77.7857 0.295898 78.9757C0.623416 77.7025 1.06715 76.4709 1.58484 75.2637Z" fill="#4E9EF0"/>
<path d="M66.2149 12.3461L66.1621 12.3565H66.1093C66.0705 11.5863 66.0353 10.8162 65.9966 10.046C66.0036 9.72338 66.0071 9.40076 66.0142 9.07812C66.2361 9.70257 66.0318 10.3548 66.1551 10.9862C66.1762 11.4371 66.1938 11.8916 66.2149 12.3461Z" fill="#FEE646"/>
<path d="M3.09196 73.9108C2.26083 73.8518 2.25731 73.8483 1.9298 74.6636C1.87697 74.7989 1.84175 74.9272 1.66919 74.9481C1.75723 74.6428 1.84175 74.334 1.9298 74.0287C2.26083 73.609 2.49327 73.5847 3.09196 73.9108Z" fill="#4E9EF0"/>
<path d="M80.4884 27.584C80.27 28.0523 80.0728 28.5345 79.615 28.8433C79.8721 28.3992 80.0799 27.924 80.4884 27.584Z" fill="#D87D64"/>
<path d="M4.93038 65.6562C4.87755 66.1107 4.70499 66.5235 4.50073 66.9294C4.52538 66.468 4.63104 66.0309 4.93038 65.6562Z" fill="#EAE8EA"/>
<path d="M11.6743 78.9722C11.9737 78.7918 12.2977 78.6912 12.6498 78.6738C12.3646 78.9028 12.0371 78.9965 11.6743 78.9722Z" fill="#EAE8EA"/>
<path d="M76.2024 9.19336C76.5651 9.19683 76.9279 9.20377 77.2906 9.20724C76.9243 9.35641 76.5616 9.36335 76.2024 9.19336Z" fill="#FEEC67"/>
<path d="M15.2419 36.8114C15.6716 35.6423 16.0942 34.4732 16.5309 33.3076C17.1331 31.6944 17.7388 30.0847 18.3481 28.4751C18.422 28.2808 18.4643 28.0588 18.7249 28.0102C18.9468 27.9998 19.07 28.1836 19.2426 28.2704C20.0315 28.8983 20.7147 29.6407 21.493 30.2755C22.2431 30.9243 22.8664 31.7014 23.6764 32.2876C27.2439 35.788 31.0438 39.0351 34.8191 42.3134C35.2487 42.7748 35.7594 43.1426 36.2383 43.5519C36.2806 43.5762 36.3193 43.6074 36.3545 43.6352C36.5834 43.8399 36.7806 44.0758 37.0518 44.2319C37.1117 44.2735 37.168 44.3186 37.2244 44.3672C37.8688 45.0124 38.5873 45.5744 39.2634 46.185C39.443 46.3446 39.6649 46.4764 39.7177 46.7401C38.2985 47.4686 37.2526 48.6307 36.1608 49.7339C35.8861 50.0115 35.5516 50.1502 35.2135 50.2994C35.0444 50.3722 34.8825 50.4347 34.8085 50.6081C34.3577 51.6211 34.2274 51.7079 33.1533 51.7009C33.0829 51.7009 33.0124 51.7079 32.9385 51.7113C32.9138 51.7044 32.8927 51.6975 32.868 51.6905C32.5194 51.4373 32.2236 51.1146 31.8186 50.9377C30.9135 50.3237 30.1352 49.557 29.2618 48.9048C27.582 47.4547 25.8669 46.0462 24.2152 44.5649C22.7889 43.2848 21.3134 42.0602 19.8976 40.7697C18.3833 39.3994 16.8831 38.0256 15.2419 36.8114Z" fill="#EDE8E2"/>
<path d="M9.43117 58.5734C8.9663 58.0357 8.38875 57.6679 7.72314 57.4251C7.94501 56.4294 8.37466 55.4997 8.70922 54.5422C9.31847 52.8007 9.97351 51.0766 10.6109 49.342C10.6955 49.1096 10.7483 48.8563 11.0688 48.832C11.759 48.9361 12.2732 49.3802 12.8226 49.7409C13.0268 49.8762 13.2205 50.0324 13.4389 50.1468C16.3196 52.3046 19.137 54.5422 22.0318 56.6862C22.3065 56.9672 22.627 57.1961 22.951 57.4112C22.9932 57.4355 23.0355 57.4667 23.0742 57.4979C24.8632 58.8058 26.6452 60.1206 28.4871 61.3591C29.7725 62.2749 31.1037 63.1353 32.4279 63.9956C32.6145 64.1171 32.8575 64.2003 32.8822 64.4744C32.3785 64.405 31.9876 64.0858 31.5439 63.8846C31.1565 63.7077 30.8079 63.6522 30.4592 63.9297C30.3324 64.0303 30.1775 64.1864 30.0437 64.1275C29.5682 63.9263 29.4415 64.2766 29.2971 64.5611C29.1773 64.797 29.0259 64.9635 28.7618 65.0017C28.554 65.0329 28.4765 65.1856 28.3744 65.3313C28.149 65.647 27.8919 65.9245 27.501 66.0667C26.8002 66.3234 26.1487 66.6495 25.7824 67.3503C25.6979 67.5133 25.5253 67.6035 25.3281 67.496C24.9372 67.2844 24.7435 67.4821 24.5991 67.8186C24.4477 68.169 24.1906 68.3251 23.7997 68.2002C23.3172 68.2627 23.032 67.8846 22.6798 67.6833C22.0952 67.3503 21.5141 67.0103 20.9647 66.6148C19.7004 65.8065 18.4291 65.0121 17.2212 64.1275C17.0204 63.9818 16.8267 63.8326 16.5908 63.7424C15.5871 63.0104 14.5764 62.2958 13.5586 61.5846C12.2802 60.6896 11.03 59.7564 9.70938 58.9168C9.57204 58.8405 9.39947 58.7815 9.43117 58.5734Z" fill="#EAE8E8"/>
<path d="M32.8714 64.4773C31.4979 63.5545 30.1245 62.6317 28.751 61.7055C28.6348 61.6292 28.5327 61.532 28.4235 61.4453C28.2228 61.2406 27.9762 61.0984 27.7332 60.9527C27.4198 60.7653 27.4762 60.5711 27.6945 60.3629C27.8495 60.2172 28.0467 60.127 28.2368 60.0264C29.6948 59.2597 31.1387 58.4653 32.4453 57.4558C32.7587 57.2129 33.1179 57.043 33.4842 56.9181C34.1885 56.6787 34.8119 56.3075 35.3894 55.8635C35.7557 55.5825 36.1571 55.4298 36.5903 55.3188C36.9601 55.2217 37.2947 55.2702 37.5693 55.5651C37.7525 55.7629 37.9955 55.8773 38.2138 56.0265C39.3901 56.8973 40.5804 57.7541 41.7426 58.6492C42.299 59.0793 42.8519 59.506 43.4647 59.8564C43.7534 60.2519 43.6443 60.5399 43.278 60.8451C42.7357 61.2961 42.0842 61.5702 41.4679 61.8547C40.4184 62.3403 39.4534 62.9682 38.3688 63.4019C37.7384 63.6551 37.0622 64.0333 36.5797 64.5918C36.4142 64.7861 36.1818 64.8 35.9529 64.8416C35.4493 64.9318 35.3929 65.1226 35.7381 65.5077C35.8789 65.6638 36.0621 65.7921 36.1571 65.9864C36.2135 66.0939 36.3191 66.2535 36.0656 66.2847C35.1288 65.8476 34.266 65.2787 33.3856 64.7479C33.2165 64.6542 33.044 64.5675 32.8714 64.4773Z" fill="#019EFA"/>
<path d="M38.2139 56.0303C37.9744 56.0372 37.823 55.8637 37.6574 55.7458C37.0904 55.3399 36.2945 55.2983 35.7698 55.7527C34.9563 56.457 33.9878 56.8871 33.0123 57.2861C32.4488 57.515 32.1319 58.0319 31.586 58.2852C30.3957 58.8333 29.4131 59.7492 28.1629 60.2036C28.0502 60.2453 27.9516 60.332 27.8495 60.4014C27.5924 60.5748 27.4938 60.7309 27.8425 60.9391C28.0608 61.0709 28.339 61.1611 28.4271 61.4491C27.2543 60.7795 26.2154 59.9226 25.1131 59.156C24.3736 58.6425 23.6199 58.143 22.9543 57.5324C23.0846 57.4526 23.3699 57.5116 23.2466 57.1994C23.2079 57.1057 23.2643 56.9808 23.3453 56.9079C24.0531 56.2904 24.4616 55.4162 25.2188 54.8369C25.5956 54.5455 25.8668 54.1465 26.1591 53.7649C26.7824 52.9531 27.5748 52.2801 28.2087 51.4822C28.6243 50.9618 29.1807 50.5941 29.5892 50.0737C29.8111 49.7927 29.79 49.5811 29.554 49.3348C29.4202 49.1961 29.1913 49.0781 29.304 48.8145C30.1527 49.4979 31.0014 50.1813 31.8502 50.8647C32.2375 51.118 32.5897 51.4128 32.9348 51.7147H32.9278C34.0301 52.7589 35.2697 53.6435 36.446 54.6044C37.0341 55.0797 37.6786 55.4891 38.2139 56.0303Z" fill="#1C9FF9"/>
<path d="M34.7451 42.4061C32.854 40.8727 31.0685 39.2249 29.2407 37.6187C27.3848 35.9882 25.5711 34.316 23.7962 32.5988C23.7222 32.526 23.6588 32.4392 23.5919 32.3594C23.5285 32.2311 23.4334 32.134 23.3172 32.0472C22.8171 31.676 22.8136 31.6379 23.2257 31.2146C23.7081 30.722 24.2399 30.2849 24.7717 29.8478C25.0112 29.6535 25.2366 29.7229 25.4584 29.8686C25.9796 30.212 26.4058 30.6526 26.8284 31.1106C28.0046 32.3803 29.3323 33.4973 30.5649 34.7115C30.6001 34.7462 30.66 34.7566 30.7093 34.7809C31.6918 35.5649 32.5335 36.4877 33.4069 37.3828C33.5407 37.5215 33.6534 37.6811 33.8224 37.7817C34.2134 38.1286 34.5867 38.4894 34.9353 38.878C36.0059 40.0297 37.1328 41.1225 38.2598 42.2222C39.1473 43.1103 40.0453 43.988 40.9433 44.8657C41.542 45.4346 42.0773 46.066 42.7429 46.5656C43.5282 47.2767 44.2537 48.0469 45.0214 48.7789C45.6166 49.3443 46.1519 49.9757 46.8175 50.4753C47.3141 50.9055 47.7578 51.3877 48.2332 51.8386C48.4304 52.0433 48.6206 52.2515 48.8742 52.3937C49.4905 52.9418 50.1349 53.4553 50.7019 54.0554C50.8992 54.2601 51.0893 54.4683 51.3429 54.6105C51.6669 54.9054 52.0437 55.1378 52.3466 55.457C54.3504 57.1881 56.3895 58.8741 58.5518 60.4144C58.8018 60.6884 59.1505 60.8515 59.3829 61.1394C59.5097 61.299 59.7597 61.469 59.4674 61.7014C59.228 61.743 59.1153 61.5106 58.9216 61.4586C58.7208 61.2712 58.5272 61.0804 58.2419 61.0215C58.1433 60.9555 58.0447 60.8931 57.9426 60.8272C57.7277 60.5843 57.4847 60.3831 57.1678 60.2825C56.8403 59.9321 56.3296 59.8281 56.0091 59.4638C55.8577 59.2383 55.6182 59.1238 55.3893 58.9955C55.3083 58.9434 55.2273 58.8879 55.1463 58.8359C54.6603 58.371 54.0969 58.0068 53.5404 57.6321H53.5439C52.3853 56.3312 50.9942 55.2731 49.7123 54.1005C47.5817 52.1474 45.4793 50.1631 43.3064 48.2516C41.7216 46.857 40.1298 45.4693 38.5662 44.0504C38.1858 43.7035 37.7949 43.367 37.404 43.034C36.8441 42.5587 36.6398 42.6003 36.2489 43.197C36.1996 43.2734 36.1397 43.3358 36.0587 43.3774C35.5481 43.1554 35.217 42.6871 34.7451 42.4061Z" fill="#008FF3"/>
<path d="M21.0174 66.542C21.933 67.111 22.824 67.7181 23.789 68.2107C24.7257 68.8351 25.7294 69.3555 26.7155 69.8967C27.0923 70.2193 27.1029 70.3789 26.7507 70.6807C26.631 70.7848 26.5007 70.8854 26.3563 70.9478C25.0497 71.5029 24.0003 72.4396 22.8346 73.2062C22.1725 73.6399 21.6302 74.247 20.8695 74.5384C20.6863 74.6078 20.5349 74.7604 20.5737 74.9894C20.6194 75.2426 20.8448 75.2149 21.0315 75.2669C21.5492 75.4126 22.0563 75.2981 22.5669 75.2322C22.736 75.2079 22.9578 75.083 23.0635 75.3571C22.8311 75.5375 22.581 75.6589 22.2746 75.6173C21.8309 75.6589 21.3872 75.6832 20.9434 75.6069C19.7883 75.4369 18.7107 75.0136 17.6612 74.5349C16.1891 73.8619 14.7452 73.1264 13.3964 72.2314C13.1816 72.0233 13.1781 71.8255 13.5126 71.8255C14.2663 71.829 14.7276 71.3745 15.2629 70.9444C16.4004 70.0389 17.3196 68.8976 18.5628 68.0962C19.1227 67.7354 19.6158 67.2567 20.144 66.8369C20.3976 66.6322 20.6582 66.4449 21.0174 66.542Z" fill="#019CFB"/>
<path d="M36.0622 66.2912C36.2242 65.9581 35.865 65.9061 35.7452 65.7292C35.5868 65.4933 35.1888 65.3614 35.3438 64.9972C35.4705 64.6988 35.7981 64.6954 36.0904 64.7058C36.2418 64.7092 36.3686 64.6641 36.4742 64.5531C36.9215 64.0848 38.2492 63.2765 38.8091 63.103C38.9922 63.0475 39.1507 62.9192 39.3233 62.829C40.2601 62.3363 41.2144 61.8715 42.123 61.3268C42.4189 61.1499 42.7569 61.0701 43.0563 60.855C43.4507 60.5775 43.5845 60.293 43.4578 59.8594C45.2926 61.0875 47.1415 62.2947 49.0467 63.4083C49.3531 63.8177 49.3038 64.2097 48.8777 64.5288C48.5607 64.7682 48.1909 64.8966 47.793 64.9382C47.5781 64.959 47.3739 64.9972 47.1908 65.1221C46.7963 65.3961 46.4935 65.7743 45.9159 65.809C45.6271 65.8263 45.4088 66.2599 45.0848 66.4265C44.7502 66.5964 44.4297 66.7768 44.0564 66.8462C43.8628 66.8844 43.6655 66.9468 43.5317 67.0891C43.2394 67.4013 42.8767 67.5574 42.4576 67.6164C42.197 67.6545 41.9681 67.7829 41.8554 68.0119C41.6194 68.4941 41.2637 68.553 40.8059 68.3761C40.7249 68.3449 40.6298 68.3553 40.5524 68.3033C38.9465 67.8766 37.499 67.0891 36.0622 66.2912Z" fill="#0EB5FE"/>
<path d="M41.9434 10.3345C42.2815 10.2894 42.4259 10.4872 42.4752 10.7751C42.5069 10.9624 42.4963 11.1637 42.6161 11.3267C43.0809 11.9581 43.0739 12.5583 42.5034 13.1272C41.6159 14.0708 40.5101 14.7265 39.3972 15.3544C36.7313 16.8635 33.9633 18.1887 31.3361 19.7637C30.998 19.9545 30.667 20.1591 30.3641 20.3985C30.3253 20.4332 30.2866 20.4679 30.2479 20.5026C29.9344 20.6448 29.8112 20.4124 29.7372 20.2077C29.5576 19.6943 29.4449 19.16 29.209 18.6605C29.0892 18.4107 29.2336 18.2025 29.4097 17.9979C29.7513 17.6093 30.2127 17.3595 30.5613 16.9849C31.6495 16.1106 32.8997 15.4966 34.1147 14.8305C36.4425 13.5539 38.8302 12.3917 41.0806 10.9798C41.3905 10.7925 41.6899 10.5947 41.9434 10.3345Z" fill="#DB4D0B"/>
<path d="M13.3931 50.2468C12.5972 49.8097 11.8964 49.2165 11.0618 48.8349C12.3859 45.1923 13.7101 41.5532 15.0202 37.9071C15.1434 37.5602 15.4392 37.2306 15.2385 36.8143C15.3935 36.7623 15.5238 36.8351 15.6365 36.9219C17.1261 38.1256 18.5841 39.3676 19.9646 40.6963C19.7075 40.8593 19.5631 40.6512 19.4188 40.5159C19.1088 40.221 18.7567 39.9782 18.4432 39.6902C18.1932 39.4613 17.9784 39.4821 17.8939 39.8221C17.6086 40.9634 17.0064 41.9833 16.4394 42.979C15.9041 43.9191 15.5484 44.9252 15.0307 45.8653C14.5729 46.6909 14.2595 47.5929 13.784 48.4151C13.46 48.9702 13.4389 49.6154 13.3931 50.2468Z" fill="#2194F2"/>
<path d="M23.0635 75.3569C22.7818 75.1973 22.486 75.35 22.2465 75.4193C21.7112 75.5755 21.2217 75.3812 20.711 75.3777C20.5103 75.3777 20.4399 75.2181 20.4047 75.0655C20.3624 74.892 20.3483 74.7047 20.5279 74.5868C20.7216 74.4619 20.9153 74.3231 21.1266 74.2468C21.352 74.1635 21.5527 74.049 21.7182 73.8999C22.5036 73.1887 23.465 72.7065 24.2609 72.0196C24.9582 71.416 25.8386 71.1488 26.5923 70.6493C26.9515 70.4099 27.0008 70.2018 26.7191 69.8965C27.1804 69.9936 27.5607 70.2607 27.9798 70.4515C29.4695 71.1384 30.9838 71.7455 32.6425 72.082C32.3925 72.1653 32.1425 72.2486 31.8889 72.3318C31.6353 72.4151 31.3818 72.5053 31.1282 72.5885C28.6912 73.3864 26.2542 74.1913 23.8137 74.9788C23.5319 75.0655 23.3206 75.2494 23.0635 75.3569Z" fill="#17B5FE"/>
<path d="M58.492 60.4812C57.115 59.5827 55.8472 58.5385 54.5723 57.5082C53.9138 56.9774 53.2693 56.4258 52.6213 55.8846C52.4875 55.7701 52.3361 55.6695 52.2656 55.4996C52.3044 55.2567 52.4628 55.3573 52.5755 55.4128C52.7657 55.503 52.9488 55.6175 53.1355 55.7146C53.7518 56.0338 54.5829 55.7736 54.9139 55.1596C54.9492 55.0971 54.8858 55.1561 54.9351 55.1145C55.4739 54.6565 55.6852 54.1084 55.4352 53.425C55.8085 53.3417 55.9071 53.6817 56.062 53.8691C57.1115 55.1561 58.1609 56.4432 59.1259 57.7961C59.6894 58.5871 60.2176 59.4023 60.7318 60.2245C60.8234 60.3737 60.9114 60.62 61.1685 60.391C61.5805 60.8837 61.6932 61.4248 61.5101 62.0493C61.4009 62.4205 61.2037 62.5419 60.848 62.4344C60.1155 62.2123 59.4182 61.9105 58.8195 61.4248C58.8442 61.3867 58.8759 61.3797 58.9146 61.4006C59.0977 61.4838 59.2773 61.5671 59.4605 61.6503C59.7739 61.6746 60.0275 61.8516 60.3057 61.9591C60.5275 62.0458 60.7564 62.1881 61.1157 61.966C60.0768 61.633 59.2703 61.0779 58.492 60.4812Z" fill="#5FAAF6"/>
<path d="M40.5559 68.3077C40.6087 68.3042 40.6721 68.2834 40.7144 68.3008C41.2673 68.5263 41.5913 68.2591 41.8343 67.8047C41.8765 67.7284 41.9435 67.6104 41.9998 67.6104C42.8661 67.5931 43.4085 66.868 44.1903 66.6529C44.7784 66.4933 45.3595 66.254 45.7011 65.692C45.7504 65.6122 45.8279 65.5255 45.9089 65.5601C46.3561 65.7509 46.5498 65.4665 46.828 65.1924C47.0816 64.9461 47.4303 64.8004 47.8599 64.7796C48.846 64.731 49.2791 64.1725 49.0502 63.4023C50.0257 63.7909 50.9062 64.3806 51.9169 64.6894C52.3712 64.8282 52.822 64.9669 53.2798 65.1057C53.2199 65.2826 53.0861 65.2896 52.9769 65.3277C50.1596 66.2748 47.3211 67.1768 44.5284 68.1967C43.7184 68.4916 42.9683 68.8454 42.0878 68.6997C41.5631 68.6199 41.0243 68.5956 40.5559 68.3077Z" fill="#21B8FE"/>
<path d="M45.6552 42.0676C46.0919 41.235 46.3489 40.3157 46.8983 39.5352C47.1096 39.157 47.3632 39.1501 47.7189 39.386C48.5852 39.9653 49.4727 40.51 50.3461 41.072C50.5222 41.1865 50.7159 41.301 50.6736 41.5611C50.4412 41.7936 50.3637 42.1023 50.2263 42.3833C49.8777 43.1916 49.5255 43.9965 49.1804 44.8083C49.0747 45.0546 48.9339 45.2731 48.7226 45.4431C48.5817 45.731 48.381 45.6235 48.1943 45.5125C47.2575 44.947 46.3067 44.4058 45.384 43.823C45.1762 43.6912 45.053 43.5108 45.0811 43.2541C45.2255 42.8378 45.3277 42.4007 45.6552 42.0676Z" fill="#DD4B0E"/>
<path d="M40.8834 44.9354C39.9502 44.0924 39.0521 43.2112 38.1964 42.2884C38.221 42.2052 38.2703 42.1532 38.3584 42.1427C38.8549 42.3717 39.1965 42.7845 39.5804 43.1488C39.7494 43.3084 39.9044 43.4784 40.1192 43.5755C40.4538 43.7281 40.732 43.6588 40.8658 43.3118C41.0806 42.7602 41.4046 42.2815 41.8026 41.8444C41.947 41.6848 42.0421 41.4871 42.0385 41.2651C42.0315 40.7863 42.0667 40.3145 42.2745 39.8705C42.3555 39.6935 42.3062 39.5131 42.1759 39.3778C41.4328 38.5938 40.7742 37.73 39.9009 37.0709C38.781 36.0128 37.6751 34.9408 36.5517 33.8862C35.7629 33.1473 34.9705 32.4118 34.1675 31.6868C33.192 30.8646 32.2729 29.9834 31.3114 29.1439C29.7865 27.8187 28.2511 26.5073 26.6452 25.2793C26.5325 25.1925 26.4268 25.0989 26.3212 25.0052C25.3246 24.2455 24.3279 23.4892 23.1975 22.9272C22.4755 22.5664 22.4509 22.5768 21.9226 23.0521C21.7113 22.9203 21.6233 22.7086 21.5775 22.4866C21.4753 22.0079 21.743 21.7581 22.2325 21.8483C22.6234 21.9211 22.9615 22.1085 23.3066 22.2819C24.6343 22.9862 25.8105 23.9055 26.9798 24.8283C31.6108 28.4917 35.9284 32.502 40.1544 36.606C41.947 38.3475 43.7149 40.1133 45.4123 41.945C45.518 42.063 45.6729 42.1809 45.4475 42.3301C45.1975 42.3578 45.0637 42.174 44.9158 42.0317C44.634 41.7646 44.3382 41.5079 44.0036 41.3102C43.5599 41.0465 43.1936 41.22 43.2007 41.7299C43.2113 42.4723 42.8556 42.9788 42.3097 43.4124C42.1125 43.5686 41.9822 43.7871 41.8695 44.0022C41.6335 44.4254 41.3166 44.7342 40.8834 44.9354Z" fill="#3795F1"/>
<path d="M59.3863 34.4734C58.4425 35.0354 57.3931 35.3337 56.3577 35.6633C56.09 35.7465 55.9175 35.6563 55.8153 35.3892C55.2519 33.9426 54.6814 32.4994 54.1038 31.0563C53.9594 30.6989 54.1637 30.5775 54.4419 30.4804C55.2167 30.2063 55.9879 29.9323 56.7627 29.6582C57.3332 30.071 57.3402 30.7614 57.6149 31.3199C57.9882 32.0727 58.2207 32.888 58.601 33.6373C58.7841 34.0016 59.0659 34.2513 59.3863 34.4734Z" fill="#028BE5"/>
<path d="M62.1404 51.0248C62.4714 50.3727 62.8095 49.7968 62.9257 49.1307C63.13 47.9581 63.0736 46.8202 62.5102 45.7448C62.3306 45.4083 62.3376 45.2418 62.7884 45.2314C63.3941 45.2175 63.9998 45.1689 64.602 45.1169C64.8732 45.0926 65.0282 45.1898 65.1409 45.4326C65.9473 47.1672 65.9262 48.8636 64.919 50.5184C64.8274 50.6675 64.7394 50.8271 64.5281 50.841C63.7568 50.9 62.9856 50.9624 62.1404 51.0248Z" fill="#D88B24"/>
<path d="M59.3865 34.4724C59.14 34.4863 58.9533 34.4134 58.8019 34.1949C58.4074 33.6294 58.2349 32.9599 57.9179 32.3701C57.5059 31.5965 57.3932 30.7153 56.9001 29.9903C56.8297 29.8827 56.7663 29.7856 56.7593 29.6573C57.1889 29.4491 57.6186 29.2375 58.0482 29.0293C58.2243 30.3684 58.8582 31.5514 59.3653 32.7795C59.5273 33.1715 59.8654 33.3033 60.2845 33.2582C60.3197 33.2548 60.3549 33.2548 60.3902 33.2478C61.658 33.109 61.8763 32.776 61.4678 31.5861C61.1086 30.535 60.6437 29.5254 60.2422 28.4916C60.1789 28.3286 60.0838 28.1759 60.0802 27.9921C60.6648 27.7007 61.26 27.4439 61.9186 27.3711C61.7038 27.7007 61.7566 28.0094 61.9045 28.3702C62.3729 29.522 62.8307 30.6807 63.3413 31.8151C63.4611 32.0822 63.6125 32.2938 63.852 32.4534C62.2567 32.8905 60.8163 33.6745 59.3865 34.4724Z" fill="#0386E5"/>
<path d="M60.0801 27.9961C60.64 28.7038 60.7738 29.5988 61.1612 30.3863C61.4148 30.9032 61.5803 31.4687 61.7564 32.0203C61.9818 32.7419 61.8233 33.0125 61.0873 33.2345C61.0521 33.2449 61.0204 33.2622 60.9887 33.2727C59.7737 33.6022 59.3652 33.3906 58.9285 32.2215C58.6291 31.4132 58.3263 30.6084 58.0058 29.8105C57.8931 29.5329 57.8614 29.2831 58.0516 29.0334C58.696 28.6309 59.3722 28.2806 60.0801 27.9961Z" fill="#045FE6"/>
<path d="M39.7071 46.7432C38.8372 45.9696 37.9639 45.1959 37.094 44.4189C37.4145 44.3703 37.7209 44.3772 37.992 44.0824C38.1787 43.8777 38.4921 44.0997 38.7105 44.2593C39.2739 44.6652 39.8127 45.1023 40.3269 45.5602C42.5808 47.5619 44.8629 49.5358 47.0357 51.6243C47.1872 51.77 47.3562 51.9087 47.4583 52.0995C47.5147 52.2036 47.6133 52.3181 47.5147 52.436C47.4231 52.5505 47.2858 52.5158 47.166 52.4777C47.0146 52.4291 46.8667 52.3632 46.7329 52.2695C47.0534 52.5193 47.3738 52.7656 47.6873 53.0223C47.8422 53.1472 48.0641 53.2547 47.9584 53.5253C46.666 52.6407 45.5038 51.5965 44.317 50.5835C42.8977 49.3763 41.4856 48.1586 40.0734 46.9444C39.9642 46.8577 39.862 46.7571 39.7071 46.7432Z" fill="#1C9DF8"/>
<path d="M45.3947 42.2857C45.5708 42.1782 45.4018 42.0637 45.4018 41.9492C45.4863 41.9874 45.5708 42.0255 45.6554 42.0637C45.6025 42.5043 45.3173 42.8547 45.1658 43.2536C45.0989 43.3785 45.1024 43.5311 45.0109 43.6491C44.9651 43.7254 44.9052 43.7913 44.8594 43.8676C44.6974 44.1174 44.2748 44.2666 44.3382 44.5511C44.3981 44.8113 44.8066 44.891 45.0637 45.0402C46.0005 45.5849 46.9443 46.1087 47.8881 46.6395C47.8212 46.8754 47.6134 46.865 47.4549 46.8234C46.5745 46.577 46.1413 47.1876 45.7082 47.7288C45.4476 48.0514 45.2504 48.433 45.113 48.8355C45.0672 48.8806 45.0179 48.8805 44.9686 48.8424C44.1798 48.1382 43.4261 47.4027 42.7112 46.6221C42.1653 46.1677 42.1583 45.9804 42.5422 45.3767C42.9225 44.78 43.4437 44.2874 43.8346 43.6977C43.9438 43.5346 44.0459 43.382 44.0741 43.1773C44.215 42.1712 44.4826 41.9943 45.3947 42.2857Z" fill="#519DF3"/>
<path d="M23.2959 22.29C22.9191 22.2622 22.6339 21.9743 22.2535 21.9431C22.0809 21.9292 21.9119 21.8182 21.7781 22.009C21.6583 22.179 21.6302 22.3698 21.7112 22.5536C21.7851 22.7236 21.8978 22.8797 21.9929 23.0428C22.2711 23.1538 22.3451 23.4313 22.4719 23.6499C23.148 24.7878 23.9087 25.8632 24.7469 26.8866C26.5958 29.2352 28.5714 31.4763 30.5647 33.7104C32.0368 35.3617 33.5053 37.0095 35.0302 38.6157C35.1183 38.7129 35.2134 38.8031 35.2274 38.9418C35.0866 39.1812 34.9774 39.0182 34.8647 38.9106C34.4808 38.588 34.1111 38.248 33.7976 37.856C32.9454 36.9193 32.0297 36.0486 31.1282 35.1605C30.9803 35.0148 30.8535 34.8344 30.6387 34.7685C30.4344 34.6575 30.2795 34.4979 30.1703 34.2967C30.0188 33.9532 29.7265 33.7312 29.4413 33.5057C29.3392 33.4329 29.2511 33.3461 29.1772 33.2455C27.765 31.6636 26.3422 30.0955 24.9476 28.4963C23.6129 26.9629 22.3204 25.3949 21.2357 23.6742C21.0773 23.4209 20.9223 23.2128 20.5842 23.2509C20.8413 22.1929 21.4259 21.6447 22.2042 21.78C22.6092 21.8494 23.0001 21.9847 23.2959 22.29Z" fill="#5FAFF7"/>
<path d="M31.4207 22.6152C32.516 23.0246 33.6042 23.4548 34.7346 23.7739C35.0058 23.8502 35.1044 23.9925 35.1009 24.2631C35.0903 25.1408 35.0903 26.0185 35.1009 26.8961C35.1044 27.198 35.0269 27.3159 34.6959 27.2084C33.8859 26.9447 33.0618 26.7192 32.2941 26.3446C32.1286 26.2197 32.0687 26.0462 32.0335 25.8485C31.8609 24.8979 31.6144 23.9647 31.2446 23.0662C31.1038 22.7262 31.1214 22.7124 31.4207 22.6152Z" fill="#D8480E"/>
<path d="M53.5192 21.3694C52.6775 20.908 51.9697 20.3113 51.4978 19.4683C50.9942 18.4553 50.9906 18.4518 51.9204 17.7927C52.2232 17.5776 52.5437 17.3972 52.8043 17.1197C53.1565 16.7485 53.3572 17.078 53.5545 17.3313C54.0334 17.9176 54.5617 18.4622 55.1674 18.9236C55.5829 19.163 55.5583 19.4926 55.3083 19.8083C54.9983 20.2003 54.773 20.6339 54.5053 21.0502C54.1707 21.5775 54.1074 21.5983 53.5192 21.3694Z" fill="#0245E7"/>
<path d="M47.9585 53.5293C47.7683 53.0956 47.3175 52.9395 46.9935 52.6516C46.7963 52.4747 46.592 52.3116 46.4617 52.0271C46.7787 52.1728 47.0992 52.3185 47.5359 52.5163C47.1414 51.6837 46.497 51.2466 45.9581 50.7436C44.5037 49.3767 42.9893 48.0689 41.4961 46.7402C40.584 45.9284 39.6754 45.1201 38.6894 44.395C38.221 44.0516 38.0871 44.0308 37.7913 44.4852C37.6716 44.6691 37.5835 44.7038 37.4321 44.5407C37.3441 44.4471 37.2349 44.3881 37.0975 44.4193C37.0694 44.3916 37.0377 44.3673 37.0095 44.3395C36.7736 44.1036 36.5623 43.84 36.2664 43.67C36.1995 43.559 35.9812 43.5416 36.0586 43.3439C36.5622 42.3344 36.8334 42.317 37.7068 43.1045C39.3338 44.572 40.9925 46.0012 42.6372 47.4513C43.4049 48.1278 44.1797 48.8008 44.9333 49.4981C46.9196 51.3368 48.8706 53.217 50.892 55.0175C51.614 55.6628 52.343 56.3081 53.0861 56.9325C53.2903 57.106 53.396 57.3939 53.5474 57.6298C52.7092 57.1961 52.0049 56.5752 51.2477 56.0271C50.1313 55.2222 48.9868 54.4486 47.9585 53.5293Z" fill="#0796F7"/>
<path d="M63.8553 32.4574C63.5207 32.4817 63.4151 32.3291 63.2742 32.0134C62.7143 30.7437 62.2177 29.4497 61.6683 28.18C61.4887 27.7637 61.4958 27.5451 61.9219 27.3786L61.9289 27.3752C62.3163 27.396 62.6755 27.1046 63.077 27.278C63.5243 28.062 63.7602 28.9293 64.1053 29.7515C64.4082 30.4662 64.6653 31.1982 64.9541 31.9163C65.0632 32.1834 65.0632 32.3464 64.7005 32.3568C64.4188 32.3638 64.1405 32.4228 63.8553 32.4574Z" fill="#035FE5"/>
<path d="M61.1683 60.3846C61.1331 60.506 61.2528 60.7038 61.0521 60.7384C60.9006 60.7627 60.8232 60.5997 60.7492 60.4817C60.073 59.4132 59.3863 58.3586 58.6327 57.3387C57.7241 56.1141 56.7732 54.9207 55.7942 53.7481C55.692 53.6267 55.5864 53.5122 55.4807 53.3943C55.273 53.3527 55.1462 53.1965 55.0229 53.0508C53.3959 51.1012 51.6632 49.2417 49.9622 47.3545C49.6312 46.9868 49.2579 46.6572 48.9128 46.3034C48.7402 46.1264 48.5606 45.946 48.6416 45.6616C48.6663 45.613 48.705 45.5818 48.7578 45.5714C49.0325 45.502 49.1382 45.731 49.2755 45.8732C51.1244 47.8471 52.9627 49.8349 54.7341 51.8783C56.4844 53.8938 58.2065 55.9337 59.7561 58.1054C60.2773 58.8339 60.7034 59.6249 61.1683 60.3846Z" fill="#2EA1F5"/>
<path d="M42.3836 25.2719C42.7851 25.1471 43.1936 25.036 43.5845 24.8938C43.8662 24.7897 44.0423 24.814 44.1797 25.1124C44.5811 25.9901 44.9967 26.8643 45.4263 27.7281C45.5672 28.0126 45.5461 28.1791 45.215 28.2762C44.8629 28.3803 44.5177 28.5156 44.1444 28.5537C43.9085 28.6474 43.7535 28.5607 43.6091 28.3595C43.021 27.5477 42.6125 26.6318 42.0878 25.7888C41.8835 25.4627 42.0526 25.3136 42.3836 25.2719Z" fill="#F3BD03"/>
<path d="M20.5844 23.25C20.8697 22.9309 21.0211 23.0627 21.2078 23.3784C22.148 24.9742 23.3278 26.4035 24.5322 27.805C26.0923 29.6228 27.7018 31.4025 29.2865 33.196C29.1597 33.2966 29.04 33.2481 28.952 33.1579C28.1631 32.3496 27.2439 31.6592 26.6171 30.7017C26.3036 30.1154 25.7613 29.7165 25.3211 29.2412C24.0603 27.8779 22.877 26.4555 21.7043 25.0193C21.0951 24.27 20.9718 24.2977 20.4682 25.106C20.1794 25.5709 20.0033 26.0912 19.7709 26.5839C19.6793 26.7747 19.6089 26.9793 19.4716 27.1424C19.1757 27.4962 19.0243 27.8779 19.1969 28.3358C18.982 28.3115 18.8729 28.1276 18.7214 28.0097C19.2849 26.4035 19.9118 24.8181 20.5844 23.25Z" fill="#3EA2F6"/>
<path d="M42.3837 25.2737C42.1371 25.3812 42.0421 25.52 42.2181 25.7802C42.7922 26.6197 43.1901 27.5633 43.7818 28.3924C43.8874 28.5416 44.0072 28.5312 44.141 28.5555C43.8769 28.6665 43.5916 28.7012 43.3099 28.7185C42.3132 28.7775 42.0244 28.6075 41.6159 27.7229C41.2955 27.0395 40.9855 26.3491 40.6651 25.6657C40.5101 25.3396 40.5594 25.2078 40.9503 25.3049C41.4293 25.4228 41.9047 25.2667 42.3837 25.2737Z" fill="#E79B12"/>
<path d="M50.6738 41.5608C50.1033 40.985 49.3708 40.6311 48.7122 40.1732C48.3812 39.9442 48.0149 39.7604 47.6909 39.521C47.4021 39.3059 47.1556 39.233 46.895 39.5349C47.0288 39.1012 47.3705 38.7994 47.617 38.4421C47.7508 38.2478 47.9234 38.2513 48.1276 38.3692C49.1243 38.952 50.1244 39.5314 51.1281 40.1003C51.4028 40.2564 51.4627 40.4438 51.276 40.7005C51.0753 40.9884 50.8745 41.2729 50.6738 41.5608Z" fill="#F1853F"/>
<path d="M31.4206 22.615C31.3009 22.6393 31.2128 22.6914 31.2833 22.8267C31.8362 23.9368 32.0369 25.1475 32.294 26.3409C31.9418 26.2646 31.6178 26.1293 31.3255 25.9246C30.924 25.713 30.8395 25.3522 30.7409 24.9359C30.5331 24.0547 30.1281 23.2534 29.378 22.6705C29.2371 22.4728 29.0822 22.2855 29.0435 22.0357C29.4132 21.6055 29.5259 21.5812 29.9697 21.8553C30.107 21.9386 30.2479 22.0114 30.3923 22.0808C30.755 22.2196 31.1001 22.393 31.4206 22.615Z" fill="#B53C27"/>
<path d="M53.5193 21.3691C53.963 21.5114 54.2095 21.3483 54.4279 20.9355C54.6427 20.5261 54.8399 20.096 55.1956 19.756C55.4633 19.5027 55.421 19.1905 55.1674 18.9199C55.7696 19.1662 56.3261 19.5201 56.9776 19.6484C57.2488 19.7005 57.1783 19.8358 57.0551 19.978C56.5233 20.5886 55.988 21.1991 55.4562 21.8097C55.3259 21.9589 55.178 22.0109 54.9808 21.9624C54.4666 21.834 53.956 21.6918 53.5193 21.3691Z" fill="#0479F6"/>
<path d="M30.3922 22.0805C30.276 22.0459 30.1281 22.0459 30.0471 21.973C29.6773 21.6504 29.3744 21.7822 29.0856 22.0805C28.9413 22.2713 28.7687 22.3373 28.5504 22.195C28.5363 21.3208 28.5187 20.45 28.5151 19.5758C28.5151 19.0763 28.7617 18.6634 29.0751 18.3026C29.5118 17.7996 29.9626 17.3035 30.5683 16.9844C30.3499 17.4527 29.8287 17.6192 29.5153 18.0008C29.3251 18.2333 29.1983 18.4588 29.3639 18.7085C29.6421 19.1352 29.709 19.6209 29.8287 20.0893C29.8886 20.3217 30.0083 20.4639 30.2513 20.4951C30.1457 20.7484 29.9062 20.8802 29.7125 21.0502C29.4519 21.2792 29.4871 21.4318 29.7583 21.6157C29.9731 21.7649 30.2302 21.8585 30.3922 22.0805Z" fill="#D7562F"/>
<path d="M73.7443 36.8848C73.9521 37.2456 74.0577 37.6653 74.4099 37.9359C74.3888 37.9463 74.3712 37.9602 74.3535 37.9741C73.445 38.321 72.6526 38.9038 71.751 39.2681C71.5256 39.3583 71.4975 39.5907 71.3672 39.7468C70.7896 39.3652 70.5114 38.7928 70.3071 38.1649C71.0185 38.0677 71.6489 37.7416 72.2652 37.419C72.7406 37.1692 73.2372 37.0235 73.7443 36.8848Z" fill="#FEAE3B"/>
<path d="M65.3487 17.9881C65.3627 18.0853 65.317 18.1547 65.243 18.2067C64.1971 18.682 63.2497 19.3307 62.2425 19.8788C62.1721 19.8719 62.0911 19.8823 62.0347 19.8511C61.6861 19.6776 61.1931 19.5388 61.1297 19.1711C61.0698 18.8138 61.6016 18.7791 61.8727 18.6161C62.482 18.2483 63.1265 17.9396 63.7463 17.5927C63.9787 17.4608 64.1372 17.4643 64.3626 17.6378C64.6373 17.8528 64.9049 18.1998 65.3487 17.9881Z" fill="#FEED6A"/>
<path d="M29.3991 22.6191C30.0929 22.8446 30.2654 23.5003 30.5648 24.0345C30.7655 24.3919 30.9627 24.7735 30.9205 25.2245C30.8923 25.5297 31.1987 25.6859 31.3255 25.9287C30.4697 25.5783 29.6738 25.1412 29.0751 24.4162C28.5856 23.7431 28.6947 23.1256 29.3991 22.6191Z" fill="#8A3437"/>
<path d="M71.3673 39.7462C71.2616 39.375 71.4835 39.2258 71.7899 39.1009C72.4414 38.8338 73.0577 38.4973 73.6458 38.1122C73.8641 37.97 74.1001 37.9214 74.3537 37.9734C74.6037 38.1677 74.5931 38.3342 74.3607 38.5667C74.0015 38.924 73.5859 39.2327 73.3077 39.6629C73.195 39.7358 73.0823 39.8086 72.9696 39.8815C72.4203 40.0757 71.885 40.1174 71.3778 39.76L71.3673 39.7462Z" fill="#F77615"/>
<path d="M70.0676 36.6749C71.1488 36.3696 72.2687 36.2655 73.3674 36.0573C73.4414 36.0435 73.5013 36.0851 73.5365 36.1545C73.6245 36.883 73.6245 36.8865 72.9272 37.0495C72.2475 37.2091 71.589 37.4381 70.9163 37.6219C70.6804 37.6844 70.3846 37.8752 70.2191 37.6393C70.0359 37.3721 69.8739 37.0322 70.0676 36.6749Z" fill="#EE6806"/>
<path d="M53.5544 17.3315C53.1846 16.9256 52.9486 17.0643 52.6563 17.4668C52.4274 17.7825 51.9978 17.9212 51.6702 18.1467C51.223 18.4555 51.1068 18.7295 51.4202 19.1736C51.4765 19.2534 51.473 19.3713 51.4977 19.4719C51.2019 19.1944 51.0927 18.8232 50.9448 18.4659C50.8638 18.2716 50.9272 18.1259 51.0469 17.9837C51.554 17.3974 52.0682 16.8146 52.5718 16.2213C52.7901 15.9646 52.9064 15.9854 53.0367 16.3011C53.1846 16.6515 53.3818 16.988 53.5544 17.3315Z" fill="#196EE5"/>
<path d="M62.2424 19.8774C62.2495 19.409 62.7319 19.4264 62.9749 19.298C63.4997 19.017 64.0103 18.7152 64.4998 18.3856C64.7323 18.2295 64.9612 18.1359 65.2394 18.2087C65.169 18.4065 65.0985 18.6042 65.0281 18.8019C64.8837 19.1523 64.602 19.3743 64.2815 19.5547C63.6722 20.0786 62.989 20.1653 62.2424 19.8774Z" fill="#FCD525"/>
<path d="M70.0677 36.6747C69.9902 36.8516 70.0747 37.0216 70.0994 37.1916C70.1628 37.594 70.3389 37.6911 70.765 37.5281C71.4588 37.2679 72.1807 37.0667 72.9097 36.9175C73.3851 36.8204 73.5929 36.6226 73.5331 36.1543C73.6739 36.3763 73.695 36.633 73.7408 36.8828C73.6669 36.9522 73.6 37.0667 73.5119 37.0875C72.5857 37.2818 71.825 37.8472 70.9552 38.1629C70.7227 38.2462 70.522 38.3017 70.3037 38.1629C70.1064 37.7883 70.0219 37.3824 69.9268 36.9799C69.8987 36.8481 69.8353 36.692 70.0677 36.6747Z" fill="#FB9414"/>
<path d="M48.7648 45.5717C48.7366 45.5891 48.7225 45.6134 48.726 45.6446C48.6732 45.7348 48.6274 45.8284 48.5253 45.8805C48.3668 45.9603 48.2083 45.929 48.071 45.8388C47.1553 45.2422 46.1798 44.7357 45.2748 44.1251C45.0987 44.0071 44.8557 43.8961 44.9578 43.5978C44.9895 43.4625 45.0353 43.3341 45.1621 43.2578C45.1762 43.4625 45.2572 43.6221 45.4438 43.7331C46.3841 44.2847 47.3209 44.8363 48.2541 45.4017C48.4161 45.5023 48.5464 45.5995 48.719 45.4434C48.7331 45.485 48.7507 45.5301 48.7648 45.5717Z" fill="#AF382E"/>
<path d="M29.3993 22.6197C29.2619 22.8556 29.1739 23.1158 28.9943 23.3344C28.6984 23.6987 28.9379 24.0594 29.0752 24.4133C28.5893 24.0456 28.5083 23.5252 28.5153 22.9736C28.5188 22.7134 28.5364 22.4532 28.5435 22.1965C28.7231 22.1584 28.8992 22.1202 29.0788 22.082C29.2866 22.2069 29.364 22.4012 29.3993 22.6197Z" fill="#9E435C"/>
<path d="M64.2849 19.5522C64.4997 19.2711 64.7533 19.0214 65.0315 18.7993C65.0879 19.1254 65.2675 18.9381 65.4119 18.8895C65.6549 18.8098 65.8168 18.5426 66.1197 18.6051C65.5457 18.9901 64.9681 19.3752 64.2849 19.5522Z" fill="#DCA863"/>
<path d="M53.5439 57.6289C54.1708 57.9099 54.7343 58.2742 55.1498 58.8327C54.5899 58.4615 54.0194 58.1042 53.5439 57.6289Z" fill="#0796F7"/>
<path d="M71.3777 39.7559C71.8919 40.016 72.4272 39.9987 72.9695 39.8773C72.3497 40.2173 71.8566 40.1791 71.3777 39.7559Z" fill="#FEAE3B"/>
<path d="M30.364 20.4024C30.607 20.0729 30.9275 19.8543 31.336 19.7676C31.0472 20.0278 30.7549 20.2845 30.364 20.4024Z" fill="#D7562F"/>
<path d="M41.9505 10.334C41.7638 10.6809 41.4715 10.889 41.0876 10.9792C41.3271 10.7017 41.6053 10.4762 41.9505 10.334Z" fill="#D95C32"/>
<path d="M20.9399 75.6035C21.3837 75.607 21.8274 75.6105 22.2747 75.6139C22.2711 75.6486 22.2535 75.6729 22.2148 75.6902C21.7922 75.6417 21.3555 75.7631 20.9399 75.6035Z" fill="#17B5FE"/>
<path d="M63.077 27.2755C62.6861 27.2304 62.3199 27.449 61.929 27.3726C62.3058 27.2582 62.672 27.0431 63.077 27.2755Z" fill="#0386E5"/>
<path d="M57.1641 60.2793C57.5409 60.3001 57.7909 60.4909 57.9388 60.824C57.6817 60.6436 57.4247 60.4597 57.1641 60.2793Z" fill="#0796F7"/>
<path d="M50.2263 42.3827C50.2651 42.0497 50.3566 41.7444 50.6736 41.5605C50.5785 41.8624 50.4411 42.1434 50.2263 42.3827Z" fill="#F1853F"/>
<path d="M55.3892 58.9926C55.7237 58.9822 55.8998 59.1764 56.009 59.4609C55.7801 59.3291 55.5441 59.2146 55.3892 58.9926Z" fill="#0796F7"/>
<path d="M58.9109 61.394C58.8792 61.401 58.8475 61.4114 58.8158 61.4183C58.6221 61.2865 58.4285 61.1512 58.2383 61.0194C58.5764 60.9465 58.7384 61.1824 58.9109 61.394Z" fill="#0796F7"/>
<path d="M9.43116 58.5734C11.8717 60.2108 14.2665 61.9107 16.6295 63.6557C16.7246 63.7112 16.8021 63.7736 16.7563 63.902C16.3795 64.2766 15.8125 64.3668 15.4427 64.7762C15.2455 64.9947 14.999 65.1786 14.8194 65.4249C14.2453 66.2124 13.5445 66.9028 12.9916 67.7007C12.5866 68.2835 12.1358 68.8143 11.6674 69.345C11.2977 69.7648 11.3329 70.1395 11.685 70.587C11.8506 70.7986 12.0583 70.9617 12.2802 71.1143C12.3753 71.2149 12.5232 71.3398 12.4105 71.4647C12.2696 71.6243 12.1323 71.4092 11.9879 71.3814C11.1991 71.0519 10.5616 70.4829 9.84672 70.0319C8.51552 69.1924 7.20193 68.3216 5.88481 67.4648C5.50799 67.0866 5.53264 66.705 5.74042 66.2228C6.57154 64.3044 7.37449 62.3755 8.14574 60.4363C8.35352 59.9159 8.60709 59.4129 8.79021 58.8821C8.89939 58.563 9.08604 58.4068 9.43116 58.5734Z" fill="#0091F5"/>
<path d="M11.9915 71.3781C12.1218 71.3191 12.2415 71.5065 12.3542 71.3989C12.3718 71.3816 12.2697 71.2394 12.2239 71.1526C11.7062 70.7329 11.7415 70.7016 12.0866 70.1847C12.8931 68.974 13.9672 67.9506 14.6222 66.6358C14.6609 66.556 14.7067 66.4589 14.7842 66.4311C15.2596 66.2681 15.4146 65.8275 15.7139 65.5014C16.1718 65.0018 16.3338 64.367 16.7282 63.857C16.693 63.7876 16.6613 63.7217 16.6261 63.6523C17.2529 63.8778 17.7002 64.367 18.246 64.7139C19.1828 65.3037 20.0949 65.9281 21.0176 66.5387C20.2886 66.7017 19.8202 67.2707 19.2603 67.68C18.3799 68.3287 17.4854 68.9879 16.7388 69.7719C16.2175 70.32 15.6048 70.7571 15.08 71.2949C14.7067 71.673 14.2067 72.072 13.527 71.9228C13.2065 71.8534 13.3755 72.0928 13.3931 72.2246C12.8931 71.9991 12.4212 71.725 11.9915 71.3781Z" fill="#139EF9"/>
<path d="M13.3931 50.2473C13.1078 49.4182 13.4917 48.7105 13.8333 47.9993C14.4426 46.74 15.1575 45.5258 15.566 44.1763C15.6399 43.93 15.8512 43.7774 15.9639 43.5588C16.6049 42.2891 17.3832 41.0818 17.7776 39.6976C17.9114 39.2293 18.1509 39.2467 18.4855 39.5242C18.9679 39.9266 19.3729 40.4227 19.9611 40.6933C21.4824 42.0185 23.0073 43.3437 24.5287 44.6655C26.117 46.0462 27.7088 47.4269 29.3006 48.8076C29.3323 48.87 29.3499 48.9429 29.3922 48.9915C30.093 49.7963 29.9768 50.3063 28.9766 50.7573C28.9273 50.7781 28.8639 50.7954 28.8428 50.837C28.2194 51.9055 27.1559 52.6098 26.4515 53.5985C25.9127 54.3547 25.2295 54.9618 24.5956 55.621C24.3491 55.8777 24.1061 56.1309 23.9652 56.464C23.9194 56.575 23.8455 56.7311 23.7539 56.7589C23.2221 56.9115 23.3384 57.2792 23.4335 57.6608C23.2257 57.7198 23.1306 57.4492 22.9475 57.5221V57.5186C22.6411 57.248 22.3171 57.0052 21.9755 56.7831C20.3696 55.673 18.8588 54.4415 17.3057 53.262C16.0907 52.3392 14.8757 51.4199 13.6607 50.4971C13.5657 50.4242 13.4847 50.3305 13.3931 50.2473Z" fill="#008FF4"/>
<path d="M26.7157 30.658C27.5046 31.5704 28.2758 32.507 29.2865 33.2008C29.357 33.2702 29.4274 33.3431 29.5014 33.4125C29.7162 33.7247 30.0472 33.9363 30.2585 34.2555C30.3642 34.4324 30.5086 34.5746 30.6846 34.6787C30.748 34.7446 30.7551 34.814 30.6882 34.8868C30.505 34.8938 30.4029 34.7654 30.2867 34.6544C29.2126 33.631 28.1314 32.6215 27.0714 31.5842C26.5678 31.0916 26.1698 30.5088 25.5747 30.0994C25.2331 29.8635 25.0605 29.7525 24.659 30.1237C24.2118 30.5331 23.7469 30.939 23.282 31.3379C23.0144 31.5704 22.9193 31.7577 23.3173 31.9485C23.4793 32.0248 23.6096 32.1532 23.5955 32.3613C22.8101 31.7681 22.1304 31.0639 21.4472 30.3666C21.1127 30.0509 20.7852 29.7282 20.4576 29.4056C20.2956 29.246 20.2428 29.076 20.3907 28.8922C20.838 28.3371 21.1162 27.6815 21.5106 27.0952C21.6198 26.9321 21.7536 26.7968 21.9086 26.6719C22.4051 26.273 22.6904 26.2591 23.0954 26.717C24.2752 28.0527 25.4831 29.364 26.7157 30.658Z" fill="#1895F4"/>
<path d="M26.7156 30.6564C25.7577 29.8862 25.004 28.9218 24.1588 28.0476C23.8031 27.6798 23.4792 27.2844 23.1235 26.9166C22.5424 26.3234 22.1656 26.3581 21.6866 27.0381C21.2429 27.666 20.9858 28.4118 20.447 28.9877C20.285 29.1612 20.4751 29.3034 20.5914 29.4352C20.8696 29.7509 21.2499 29.9764 21.4471 30.365C20.6407 29.7509 19.9328 29.0328 19.2003 28.339C18.9538 28.0719 18.8305 27.8082 19.1017 27.4717C19.5806 26.8715 19.8201 26.1465 20.1335 25.4596C20.3448 24.9982 20.5878 24.3703 21.0351 24.3078C21.4084 24.2558 21.7394 24.8594 22.0388 25.2306C23.0671 26.5038 24.1271 27.7492 25.2294 28.9634C25.7295 29.5116 26.374 29.9591 26.7156 30.6564Z" fill="#369CF3"/>
<path d="M36.0552 43.3464C36.1256 43.4539 36.1925 43.5649 36.263 43.6725C35.6925 43.3256 35.2029 42.885 34.7451 42.4062C35.2875 42.5762 35.5938 43.0689 36.0552 43.3464Z" fill="#1C9DF8"/>
<path d="M32.935 51.7113C32.5265 51.4858 32.1638 51.2013 31.8503 50.8613C32.3117 51.0209 32.6709 51.3088 32.935 51.7113Z" fill="#E5F1FE"/>
<path d="M36.2629 43.6699C36.6433 43.7497 36.8475 44.0203 37.006 44.3395C36.7032 44.1729 36.4461 43.9613 36.2629 43.6699Z" fill="#1C9DF8"/>
<path d="M21.979 56.7871C22.391 56.9189 22.7186 57.1583 22.951 57.5225C22.5742 57.3456 22.2572 57.0924 21.979 56.7871Z" fill="#1C9FF9"/>
<path d="M48.5184 45.7917C48.5853 45.7432 48.6558 45.6911 48.7227 45.6426C48.698 45.8542 48.7931 46.0068 48.941 46.1525C50.7512 47.9495 52.4205 49.8715 54.1109 51.7795C54.5793 52.3068 55.023 52.8549 55.4808 53.3961C55.7696 54.0275 55.9351 54.6311 55.104 55.0092C55.0934 55.5712 54.5898 55.6823 54.2271 55.8939C53.6143 56.2547 53.1142 55.8696 52.6106 55.5817C52.5015 55.5192 52.431 55.3249 52.2655 55.4984C51.9415 55.2174 51.5506 55.0092 51.283 54.6589C51.054 54.5028 50.8885 54.2738 50.6491 54.1281C50.0363 53.5661 49.4235 53.0006 48.8107 52.4386C48.5853 52.2825 48.4198 52.0535 48.1803 51.9078C47.712 51.4499 47.2436 50.9955 46.7752 50.5375C46.1765 49.9998 45.5849 49.4552 45.0672 48.8411C45.046 48.1924 45.4686 47.7414 45.8595 47.3251C46.0497 47.1239 46.1976 46.836 46.497 46.7319C46.7681 46.6348 47.0358 46.5723 47.3211 46.6764C47.5007 46.7423 47.6979 46.8082 47.8493 46.6105C47.8775 46.1768 48.3036 46.0658 48.5184 45.7917Z" fill="#76B0F7"/>
<path d="M45.3946 42.2863C45.0953 42.432 44.7642 42.0539 44.4402 42.4077C44.1514 42.7269 44.324 43.0912 44.1902 43.3826C44.0106 43.7711 43.7324 44.1215 43.4471 44.4511C43.1935 44.7425 42.9717 45.0547 42.7287 45.3496C42.3554 45.804 42.2532 46.1891 42.7075 46.6262C41.9715 46.196 41.4644 45.5265 40.8833 44.9367C41.4609 44.4649 41.7496 43.7538 42.2814 43.2542C42.7111 42.8483 43.0879 42.4632 43.0315 41.8249C43.0034 41.5058 43.102 41.2039 43.4013 41.0686C43.7042 40.9334 43.9859 41.0999 44.2219 41.2976C44.6198 41.6237 45.0072 41.9567 45.3946 42.2863Z" fill="#3A95F3"/>
<path d="M34.8647 38.9102C34.9739 38.9171 35.076 39.0732 35.1887 38.9206C35.3402 38.8269 35.4212 38.9483 35.4987 39.035C36.3579 39.9786 37.3264 40.8216 38.1751 41.7757C38.2456 41.904 38.3794 42.0116 38.309 42.1815C38.2702 42.2197 38.235 42.2544 38.1963 42.2926C37.256 41.4322 36.3227 40.5615 35.4951 39.5936C35.2944 39.3542 34.907 39.2813 34.8647 38.9102Z" fill="#3EA2F6"/>
<path d="M58.4917 60.4805C59.0446 60.7927 59.601 61.098 60.1434 61.4275C60.3758 61.5698 60.6258 61.6461 60.8794 61.7328C61.0238 61.7814 61.3161 61.6773 61.2457 61.9687C61.1858 62.222 60.9604 62.326 60.6963 62.2393C60.2561 62.0936 59.8264 61.9271 59.4566 61.6426C59.5376 61.2506 59.1925 61.1257 58.9777 60.9384C58.8051 60.7927 58.6079 60.6782 58.4917 60.4805Z" fill="#0796F7"/>
<path d="M30.6881 34.882C30.6881 34.8126 30.6846 34.7432 30.6846 34.6738C31.7693 35.6868 32.8997 36.6582 33.7977 37.8516C33.5266 37.8238 33.4561 37.581 33.2977 37.4249C32.4349 36.568 31.5615 35.7284 30.6881 34.882Z" fill="#3EA2F6"/>
<path d="M45.0743 48.8379C45.6694 49.3791 46.2716 49.9133 46.7823 50.5343C46.0498 50.1041 45.5391 49.4381 44.9651 48.8448C45.0003 48.8448 45.039 48.8414 45.0743 48.8379Z" fill="#1C9DF8"/>
<path d="M50.656 54.1289C50.9589 54.1983 51.1314 54.4238 51.2899 54.6597C50.973 54.6007 50.8215 54.3544 50.656 54.1289Z" fill="#0796F7"/>
<path d="M48.1873 51.9082C48.4936 51.9741 48.6592 52.2031 48.8176 52.439C48.5042 52.3765 48.3528 52.1337 48.1873 51.9082Z" fill="#0796F7"/>
<path d="M34.9776 38.698C33.752 37.5219 32.6427 36.2383 31.5052 34.986C30.5437 33.9279 29.5929 32.8559 28.6596 31.7701C27.3038 30.1882 25.8951 28.6479 24.6731 26.9549C24.497 26.726 24.4829 26.4623 24.5568 26.2056C24.7012 25.6852 25.0534 25.2793 25.4232 24.9116C25.7049 24.6306 26.0782 24.7035 26.3952 24.9463C28.1314 26.2334 29.7654 27.6384 31.3925 29.0572C32.3504 29.8968 33.2871 30.7571 34.231 31.6105C34.7522 32.1864 35.3262 32.7206 35.5798 33.4838C35.6185 33.5983 35.7382 33.6989 35.703 33.8204C35.5058 34.4934 35.8545 35.0554 36.0763 35.6382C36.2101 35.9955 36.2383 36.2973 36.0834 36.6893C35.9108 37.1195 35.7277 37.6087 36.0094 38.1117C36.1468 38.358 36.1468 38.6737 35.9038 38.8957C35.6537 39.1247 35.4459 38.8992 35.2311 38.7916C35.1501 38.75 35.0691 38.7049 34.9776 38.698Z" fill="#0271EB"/>
<path d="M34.9774 38.6979C35.1077 38.514 35.231 38.6632 35.3437 38.7152C35.5092 38.795 35.6606 39.0101 35.8508 38.802C36.0198 38.6146 36.0269 38.2989 35.9036 38.1602C35.4388 37.6433 35.724 37.0015 35.9248 36.6754C36.2382 36.1654 35.9987 35.8359 35.8473 35.489C35.6923 35.1351 35.6923 34.7327 35.4528 34.417C35.4317 34.3892 35.4176 34.3476 35.4247 34.3198C35.6571 33.2791 35.0021 32.6096 34.3893 31.9227C34.3048 31.829 34.2273 31.7388 34.2273 31.6035C36.1854 33.3381 38.1188 35.0969 39.9183 36.9946C40.3093 37.3935 40.3198 37.8133 40.2564 38.3787C40.1578 39.2668 39.8831 40.0266 39.3901 40.7482C39.3021 40.8765 39.3232 41.0534 39.2985 41.2096C39.1682 41.9658 38.8266 42.1497 38.0941 41.8583C37.1256 40.8765 36.1537 39.8948 35.1852 38.9165C35.1183 38.8471 35.0478 38.7742 34.9774 38.6979Z" fill="#0C83F0"/>
<path d="M38.0942 41.8618C39.0381 41.8652 39.0345 41.8652 39.1719 40.9112C39.2141 40.6268 39.355 40.3874 39.5417 40.1723C39.9185 39.7456 40.1615 39.2807 39.9748 38.691C39.9537 38.6285 39.9431 38.5279 39.9748 38.4932C40.4714 37.9729 40.077 37.4907 39.9185 36.998C40.5841 37.3346 40.9961 37.9451 41.5068 38.4447C41.5948 38.5314 41.6406 38.6598 41.7357 38.7326C42.3449 39.1975 42.3731 39.6866 42.2745 40.4776C42.1548 41.4247 41.7357 42.0942 41.2532 42.8089C41.1863 42.9095 41.1088 43.017 41.0877 43.1315C40.9116 44.0716 40.0805 43.9329 39.5804 43.357C39.1965 42.9129 38.7211 42.5799 38.3055 42.1809C38.2386 42.0734 38.1682 41.9693 38.0942 41.8618Z" fill="#238DF2"/>
<path d="M26.395 24.9425C25.8386 24.7725 25.5041 24.894 25.1554 25.449C24.842 25.9451 24.5778 26.3683 24.6765 26.9546C23.6129 25.7612 22.7536 24.436 21.9929 23.0414C22.0493 22.5419 22.2007 22.4343 22.6761 22.5835C23.5636 22.8645 24.3278 23.3883 25.0638 23.9226C25.5111 24.2522 26.0253 24.5124 26.395 24.9425Z" fill="#186CE7"/>
<path d="M48.5184 45.7921C48.4022 46.146 48.0359 46.3021 47.8599 46.6108C47.6979 46.6282 47.5499 46.6212 47.3985 46.531C46.2857 45.8892 45.1693 45.2544 44.0142 44.5953C44.3382 44.2553 44.6481 43.9257 44.958 43.5996C45.2468 44.1547 45.8454 44.3143 46.3244 44.6265C46.9125 45.0081 47.5182 45.3689 48.1134 45.7401C48.2437 45.8199 48.3775 45.8407 48.5184 45.7921Z" fill="#6A2954"/>
<path d="M30.2584 34.2512C29.9661 34.0049 29.628 33.8002 29.5012 33.4082C29.8041 33.6476 30.1422 33.8523 30.2584 34.2512Z" fill="#3EA2F6"/>
<path d="M16.7282 63.8594C16.6577 64.4144 16.376 64.8966 16.052 65.3164C15.8829 65.535 15.6822 65.7119 15.5942 65.986C15.5625 66.0831 15.5273 66.2357 15.4568 66.2566C14.3933 66.5965 14.2665 67.7171 13.615 68.4074C13.1043 68.9486 12.6676 69.5835 12.2274 70.1975C11.9422 70.5964 11.8647 70.8254 12.2204 71.1515C11.1709 70.6034 10.9491 69.7292 11.7555 69.0249C12.4845 68.3901 12.8543 67.4846 13.5199 66.8116C14.2524 66.0727 14.7314 65.1325 15.5766 64.4769C15.9428 64.1959 16.3865 64.1334 16.7282 63.8594Z" fill="#019CFB"/>
</svg>
