<svg width="40" height="40" viewBox="0 0 40 40" fill="none" xmlns="http://www.w3.org/2000/svg">
<g id="Iconly/Bulk/Tick Square">
<g id="Tick Square">
<path id="Fill 1" opacity="0.4" d="M27.234 3.33398H12.784C7.13399 3.33398 3.33398 7.30065 3.33398 13.2007V26.8173C3.33398 32.7007 7.13399 36.6673 12.784 36.6673H27.234C32.884 36.6673 36.6673 32.7007 36.6673 26.8173V13.2007C36.6673 7.30065 32.884 3.33398 27.234 3.33398Z" fill="#4EB14C"/>
<path id="Fill 4" d="M18.0216 25.4134C17.6483 25.4134 17.2749 25.2718 16.9899 24.9868L13.0349 21.0318C12.4649 20.4618 12.4649 19.5384 13.0349 18.9701C13.6049 18.4001 14.5266 18.3984 15.0966 18.9684L18.0216 21.8934L24.9016 15.0134C25.4716 14.4434 26.3933 14.4434 26.9633 15.0134C27.5333 15.5834 27.5333 16.5068 26.9633 17.0768L19.0533 24.9868C18.7683 25.2718 18.3949 25.4134 18.0216 25.4134Z" fill="#4EB14C"/>
</g>
</g>
</svg>
