<svg width="128" height="133" viewBox="0 0 128 133" fill="none" xmlns="http://www.w3.org/2000/svg">
<g clip-path="url(#clip0)">
<path d="M11.2035 13.4469C11.6349 13.6178 11.5251 13.9717 11.45 14.273C11.2786 14.9612 10.8232 15.408 10.1333 15.5534C9.39378 15.7108 8.72491 15.5384 8.28602 14.8787C7.69381 13.9882 7.11513 13.0856 6.57252 12.1636C6.21629 11.5579 5.75034 11.2805 5.03939 11.336C4.09395 11.4109 3.14401 11.4319 2.19558 11.4799C1.13741 11.5339 0.385878 11.0976 0.10781 10.2625C-0.185289 9.38541 0.12735 8.64328 1.04723 8.05706C1.88745 7.52182 2.72766 6.98359 3.58141 6.47234C4.08043 6.17398 4.33294 5.78267 4.30138 5.19046C4.25629 4.31939 4.3119 3.43782 4.20067 2.57724C4.05187 1.40631 4.36751 0.530741 5.46325 0C5.81347 0 6.16368 0 6.5139 0C7.47436 0.506752 7.83961 1.49627 8.40326 2.32386C8.55657 2.55025 8.72642 2.77215 8.83765 3.01952C9.30961 4.07501 10.0717 4.46032 11.238 4.27591C12.0933 4.13948 12.9801 4.18745 13.8534 4.18146C14.7357 4.17396 15.3219 4.61774 15.5789 5.43634C15.8194 6.20697 15.5519 6.97909 14.8379 7.44836C14.0473 7.96711 13.2492 8.47686 12.43 8.94763C11.8378 9.28796 11.3553 9.67027 11.3192 10.4124C11.3117 10.5593 11.199 10.6178 11.0742 10.6568C10.5015 10.6823 10.5722 10.282 10.6383 9.94464C10.7676 9.29546 11.1824 8.82918 11.728 8.48285C12.445 8.02708 13.156 7.5623 13.8804 7.11702C14.0503 7.01207 14.2247 6.91312 14.384 6.79318C14.7628 6.50982 14.9326 6.1455 14.7853 5.68222C14.6395 5.22495 14.3118 4.98806 13.8278 4.99556C12.8042 5.01355 11.7777 4.92659 10.7556 5.05853C9.88679 5.17097 9.17884 4.87712 8.6678 4.16197C8.18832 3.49179 7.7855 2.77065 7.34059 2.07798C7.23237 1.91007 7.13617 1.73465 7.02194 1.56973C6.5665 0.919051 6.09003 0.698659 5.59252 0.907057C5.10101 1.11246 4.8515 1.6462 4.96874 2.37034C5.13408 3.38984 5.0454 4.41234 5.05442 5.43334C5.06193 6.28793 4.51181 6.80517 3.85947 7.21447C3.07638 7.70623 2.29628 8.20249 1.51017 8.68825C0.997628 9.0061 0.760143 9.4184 0.92999 10.0046C1.09833 10.5848 1.5703 10.7617 2.10539 10.7183C3.10193 10.6388 4.09696 10.5773 5.098 10.5713C6.07199 10.5668 6.76942 10.9417 7.25491 11.7857C7.6397 12.4559 8.07409 13.0976 8.46939 13.7648C8.59715 13.9792 8.73393 14.1876 8.89627 14.3795C9.38627 14.9597 10.5526 14.8817 10.6714 14.0166C10.7075 13.7363 10.7766 13.4019 11.2035 13.4469Z" fill="#221B28"/>
<path d="M109.158 32.7725C110.251 31.6121 111.336 30.4457 112.436 29.2927C113.413 28.2702 114.104 28.2313 115.215 29.1458C116.756 30.4112 118.184 31.801 119.627 33.1743C119.854 33.4757 120.019 33.8085 120.157 34.1594C120.378 34.7186 120.296 35.2119 119.944 35.7081C119.262 36.6736 118.382 37.4623 117.584 38.3153C115.369 40.6842 113.17 43.071 110.962 45.4459C108.04 48.5883 105.122 51.7368 102.193 54.8717C100.251 56.9497 98.3658 59.0847 96.3201 61.0667C94.9599 62.3861 92.6587 62.7189 90.9572 61.8568C89.875 61.3081 88.9792 60.512 88.0908 59.7039C87.6144 59.2691 87.177 58.7728 86.5081 58.6124C84.9404 57.4355 83.4794 56.1281 82.0244 54.8208C81.0865 53.9782 80.0133 53.278 79.2182 52.278C78.8695 51.4444 78.0729 51.0456 77.4416 50.4954C76.3143 49.5119 75.1314 48.5913 74.0837 47.5193C73.2615 46.6798 73.1954 46.0785 73.9033 45.1445C75.1404 43.5148 76.5052 41.99 77.894 40.4908C78.9041 39.4008 79.6601 39.4308 80.813 40.3948C84.5256 43.4983 88.0968 46.7637 91.8094 49.8687C92.6557 50.5763 92.6887 50.6123 93.4358 49.8027C95.7009 47.3484 97.9795 44.9046 100.255 42.4608C101.919 40.6737 103.577 38.8776 105.256 37.1024C106.592 35.6916 107.964 34.3108 109.158 32.7725Z" fill="#006298"/>
<path d="M86.5502 58.5447C86.8568 58.3708 87.0507 58.5657 87.2686 58.7426C88.3133 59.5897 89.2392 60.5777 90.3695 61.3274C92.3625 62.6512 94.7795 62.4683 96.4268 60.7217C101.034 55.8431 105.605 50.9314 110.181 46.0243C113.21 42.7784 116.209 39.504 119.257 36.2761C120.052 35.435 120.465 34.6344 119.676 33.5969C119.573 33.4605 119.595 33.3196 119.628 33.1726C119.869 33.0212 120.018 33.1022 120.183 33.3226C120.937 34.3256 120.912 35.3001 120.054 36.2341C118.584 37.8323 117.105 39.4231 115.624 41.0123C109.652 47.4217 103.681 53.831 97.6969 60.2299C97.3467 60.6047 97.2039 60.9765 97.2054 61.4878C97.219 70.4444 97.2205 79.401 97.2099 88.3562C97.2069 90.827 95.764 92.6875 93.4688 93.1943C93.0359 93.2902 92.576 93.2872 92.1281 93.2872C70.819 93.2917 49.51 93.2932 28.2025 93.2887C25.1137 93.2887 23.1522 91.3247 23.1477 88.2467C23.1416 85.3531 23.1597 82.458 23.1341 79.5645C23.1296 79.0337 23.2829 78.8913 23.803 78.9093C24.9017 78.9483 26.0035 78.9048 27.1037 78.9303C27.5171 78.9393 27.7155 78.8358 27.6539 78.395C27.6298 78.2241 27.6494 78.0457 27.6494 77.8718C27.6494 57.2149 27.6478 36.558 27.6539 15.9011C27.6539 15.3358 27.5562 14.7541 27.8237 14.2129C28.0341 14.4708 28.3829 14.6147 28.461 14.9835C28.5407 15.4558 28.5121 15.9311 28.5121 16.4048C28.5136 36.6659 28.5136 56.9285 28.5136 77.1896C28.5136 78.6679 28.5136 78.6679 29.9836 78.6679C48.8456 78.6679 67.7077 78.6679 86.5682 78.6679C88.4004 78.6679 88.4004 78.6694 88.4019 80.4895C88.4035 82.9843 88.3869 85.4806 88.408 87.9753C88.4215 89.5481 88.8799 90.9229 90.2808 91.842C92.5534 93.3337 95.6888 92.0878 96.284 89.4431C96.4163 88.8584 96.487 88.2647 96.487 87.662C96.4855 79.3771 96.4855 71.0936 96.4855 62.8086C96.4855 62.6587 96.4839 62.5088 96.4779 62.3604C96.4629 61.9855 96.287 61.9376 95.997 62.125C95.2875 62.5808 94.4984 62.7892 93.6702 62.9091C92.4542 63.086 91.3344 62.8491 90.2868 62.2209C88.9896 61.4428 87.933 60.3693 86.8177 59.3723C86.5968 59.1744 86.2991 58.9285 86.5502 58.5447Z" fill="#221C29"/>
<path d="M11.2025 13.4468C10.959 13.5562 10.9334 13.7781 10.9004 14.006C10.8252 14.5308 10.5261 14.8651 10.003 14.9761C9.42735 15.099 8.96741 14.9176 8.65176 14.4153C8.10765 13.5502 7.55302 12.6912 7.03296 11.8141C6.59556 11.0765 5.98983 10.7076 5.12105 10.7631C4.17412 10.8231 3.22267 10.8426 2.27574 10.9085C1.56779 10.958 0.960551 10.8216 0.680979 10.0959C0.432973 9.44975 0.703525 8.95199 1.49414 8.46024C2.29828 7.95948 3.10092 7.45423 3.90657 6.95497C4.57544 6.54117 4.93768 5.97895 4.88357 5.16035C4.81743 4.16633 4.8039 3.16782 4.74378 2.17381C4.7032 1.48564 4.87605 0.905426 5.57047 0.667043C6.26489 0.428659 6.75789 0.752501 7.12314 1.3627C7.64621 2.23977 8.21437 3.08986 8.74946 3.95943C9.19137 4.67758 9.84069 4.92646 10.6554 4.88298C11.703 4.82751 12.7536 4.80652 13.8013 4.76304C14.4025 4.73905 14.8189 5.00292 15.0098 5.56515C15.2127 6.16486 15.0022 6.65212 14.4837 6.98645C13.5818 7.56667 12.6695 8.1304 11.7556 8.68962C11.2611 8.99247 10.9364 9.39578 10.8177 9.97449C10.7561 10.2758 10.7485 10.5187 11.0732 10.6597C11.1153 11.5862 11.1589 12.5173 11.2025 13.4468Z" fill="#006298"/>
<path d="M28.2461 14.6732C27.7155 14.8771 27.8763 14.4483 27.8237 14.2144C28.0176 12.5322 29.9866 10.8006 31.5333 10.7646C31.7994 10.6596 32.0774 10.7106 32.3495 10.7106C52.4049 10.7076 72.4589 10.7076 92.5144 10.7106C92.7865 10.7106 93.0645 10.6656 93.3321 10.7616C95.1628 11.2908 96.5682 12.2774 97.0882 14.2219C97.2385 14.7856 97.2115 15.3598 97.2115 15.9311C97.2145 25.3315 97.213 34.7319 97.213 44.1323C97.213 44.3992 97.213 44.6675 97.213 44.9344C97.2746 44.9839 97.3347 45.0318 97.3964 45.0813C97.5527 44.8744 97.6925 44.6525 97.8683 44.4636C101.367 40.699 104.868 36.9373 108.375 33.1816C108.579 32.9627 108.733 32.5939 109.158 32.7738C109.292 33.1352 109.024 33.3256 108.824 33.54C103.634 39.1112 98.4365 44.675 93.2614 50.2598C92.8421 50.7111 92.585 50.7486 92.1161 50.3422C88.668 47.3482 85.199 44.3767 81.7344 41.4021C81.2609 40.9958 80.7904 40.5865 80.2929 40.2102C79.5745 39.666 79.0664 39.6465 78.4216 40.2762C76.7577 41.8969 75.2501 43.663 73.8613 45.5236C73.3923 46.1518 73.5066 46.7425 74.1905 47.3797C75.2501 48.3647 76.3579 49.2988 77.4461 50.2523C77.9526 50.6961 78.4652 51.1339 78.9717 51.5776C79.1761 51.7576 79.4181 51.921 79.34 52.2553C79.0559 52.6226 78.7778 52.3768 78.5719 52.1968C76.8434 50.6856 74.9736 49.3317 73.4284 47.6196C72.6513 46.7575 72.6663 45.8085 73.454 44.7605C74.2491 43.702 75.1284 42.711 76.0077 41.723C76.5548 41.1083 77.0628 40.4576 77.6761 39.9014C78.8515 38.8369 79.7638 38.8069 80.9949 39.8144C83.6042 41.9508 86.1188 44.1953 88.665 46.4052C89.7593 47.3542 90.852 48.3047 91.9733 49.2223C92.6286 49.759 92.7308 49.7276 93.3035 49.0829C94.1663 48.1128 95.0801 47.1908 95.9549 46.2328C96.3127 45.8414 96.5231 45.4516 96.5231 44.9089C96.5141 35.2551 96.5306 25.5998 96.5081 15.9461C96.502 13.2894 95.2695 11.8875 92.6106 11.3508C92.2889 11.2623 91.9628 11.2953 91.6381 11.2953C72.1523 11.2938 52.668 11.2938 33.1822 11.2938C32.8831 11.2938 32.5825 11.2803 32.2848 11.3238C30.4376 11.5397 29.0698 12.3808 28.4821 14.2369C28.4355 14.3973 28.4204 14.5772 28.2461 14.6732Z" fill="#201A28"/>
<path d="M11.9168 91.4086C11.9168 86.6185 11.9168 81.8298 11.9168 77.0397C11.9168 76.8403 11.9213 76.6409 11.9198 76.4415C11.9183 76.2661 12.0145 76.1386 12.1693 76.1251C12.3602 76.1086 12.4999 76.2211 12.5045 76.437C12.509 76.6109 12.509 76.7863 12.509 76.9602C12.509 86.59 12.509 96.2183 12.509 105.848C12.509 105.923 12.515 105.998 12.5075 106.073C12.4864 106.328 12.6067 106.713 12.2084 106.716C11.7905 106.719 11.9198 106.322 11.9198 106.077C11.9153 101.187 11.9168 96.2977 11.9168 91.4086Z" fill="#231E2B"/>
<path d="M127.985 81.5482C127.987 82.7192 127.471 83.2679 126.315 83.3818C125.347 83.4778 124.379 83.5857 123.41 83.6517C122.801 83.6937 122.47 84.022 122.245 84.5438C121.86 85.4328 121.466 86.3189 121.059 87.1975C120.665 88.0461 119.941 88.4539 119.153 88.2979C118.323 88.133 117.817 87.5243 117.736 86.6143C117.644 85.5978 117.537 84.5828 117.441 83.5663C117.402 83.166 117.201 82.8706 116.875 82.6487C116.712 82.5393 116.494 82.4403 116.66 82.1899C116.846 81.9066 117.053 82.0805 117.234 82.2004C117.778 82.5587 117.987 83.094 118.039 83.7222C118.121 84.6892 118.244 85.6532 118.314 86.6203C118.36 87.2365 118.684 87.6023 119.251 87.7147C119.875 87.8392 120.302 87.5213 120.556 86.9561C120.951 86.0715 121.364 85.196 121.738 84.3024C122.059 83.5363 122.586 83.127 123.435 83.0745C124.405 83.0145 125.371 82.8871 126.339 82.7971C126.918 82.7447 127.357 82.4913 127.482 81.9051C127.618 81.2634 127.355 80.8016 126.735 80.5362C125.866 80.1644 125.006 79.7701 124.143 79.3818C123.924 79.2828 123.602 79.2034 123.768 78.872C123.906 78.5932 124.154 78.7656 124.354 78.8541C125.242 79.2484 126.127 79.6457 127.016 80.0385C127.701 80.3413 128.086 80.8286 127.985 81.5482Z" fill="#231D2A"/>
<path d="M112.758 79.7042C112.75 78.8121 113.319 78.1105 114.205 77.995C115.145 77.8721 116.09 77.7657 117.036 77.7192C117.847 77.6802 118.385 77.3833 118.683 76.5872C119.005 75.7281 119.412 74.9006 119.807 74.0715C120.213 73.2199 120.882 72.8795 121.742 73.0475C122.558 73.2064 123.045 73.7716 123.134 74.6667C123.224 75.5827 123.318 76.4988 123.397 77.4163C123.418 77.6637 123.571 78.034 123.152 78.0655C122.798 78.091 122.856 77.7477 122.833 77.5078C122.74 76.5662 122.633 75.6277 122.55 74.6847C122.495 74.0445 122.133 73.6682 121.533 73.5737C120.981 73.4867 120.563 73.7761 120.333 74.2739C119.94 75.1299 119.54 75.986 119.199 76.8631C118.838 77.7911 118.175 78.2229 117.207 78.2844C116.335 78.3399 115.466 78.4253 114.596 78.5018C114.04 78.5513 113.558 78.7312 113.392 79.3294C113.234 79.8976 113.406 80.3699 113.92 80.6757C114.135 80.8032 114.222 80.9561 114.084 81.154C113.921 81.3894 113.723 81.229 113.561 81.1285C113.034 80.8032 112.765 80.3249 112.758 79.7042Z" fill="#231D2B"/>
<path d="M93.3318 10.7619C92.9319 10.7694 92.5321 10.7814 92.1323 10.7814C72.1821 10.7829 52.2318 10.7829 32.2815 10.7814C32.032 10.7814 31.7825 10.7694 31.5315 10.7634C31.8276 10.567 32.1613 10.642 32.4784 10.642C52.4452 10.6375 72.412 10.6375 92.3788 10.6405C92.7005 10.642 93.0342 10.576 93.3318 10.7619Z" fill="#292430"/>
<path d="M112.942 48.359C112.778 48.6019 112.699 48.7579 112.586 48.8823C109.436 52.3576 106.284 55.8314 103.127 59.3022C102.965 59.4806 102.771 59.7565 102.519 59.4986C102.274 59.2482 102.561 59.0488 102.718 58.8749C105.583 55.713 108.451 52.5525 111.319 49.3935C111.638 49.0427 111.956 48.6934 112.275 48.3411C112.385 48.2196 112.512 48.1566 112.673 48.2196C112.763 48.2556 112.848 48.3096 112.942 48.359Z" fill="#241E2B"/>
<path d="M26.0064 108.025C26.0064 105.859 26.0034 103.691 26.011 101.524C26.0125 101.279 25.8952 100.878 26.3266 100.913C26.7084 100.943 26.6017 101.325 26.6017 101.578C26.6062 105.913 26.6062 110.247 26.6032 114.58C26.6032 114.842 26.6783 115.222 26.3056 115.232C25.9027 115.243 26.011 114.85 26.0094 114.6C26.0049 112.409 26.0064 110.217 26.0064 108.025Z" fill="#28232F"/>
<path d="M105.024 101.217C105.024 102.787 105.027 104.355 105.021 105.925C105.02 106.156 105.109 106.51 104.755 106.517C104.366 106.526 104.414 106.165 104.414 105.896C104.413 102.733 104.411 99.5695 104.416 96.406C104.416 96.1677 104.356 95.8393 104.71 95.8243C105.166 95.8063 105.015 96.2006 105.018 96.4345C105.03 98.0297 105.024 99.6235 105.024 101.217Z" fill="#2D2733"/>
<path d="M93.9376 104.082C93.9376 104.727 93.9406 105.373 93.9361 106.018C93.9346 106.241 93.9391 106.517 93.6384 106.523C93.3423 106.529 93.3168 106.268 93.3168 106.034C93.3168 104.694 93.3153 103.355 93.3183 102.014C93.3183 101.782 93.3529 101.529 93.658 101.545C93.9135 101.559 93.9346 101.797 93.9361 101.998C93.9406 102.692 93.9376 103.388 93.9376 104.082Z" fill="#342E38"/>
<path d="M89.884 92.7416C89.636 92.7416 89.388 92.7416 89.14 92.7416C68.9026 92.7416 48.6668 92.7416 28.4294 92.7416C26.0591 92.7416 24.5064 91.7026 23.8796 89.7236C23.7414 89.2858 23.7278 88.8405 23.7263 88.3937C23.7218 85.6486 23.7369 82.9049 23.7113 80.1597C23.7068 79.6455 23.83 79.4971 24.3636 79.4971C45.2503 79.5106 66.137 79.5106 87.0251 79.4971C87.5542 79.4971 87.694 79.6425 87.688 80.1627C87.6609 82.707 87.7331 85.2542 87.6579 87.797C87.5993 89.818 88.2035 91.4537 89.884 92.7416Z" fill="white"/>
<path d="M92.8179 11.2055C92.6436 11.213 92.4692 11.228 92.2949 11.228C72.3807 11.2295 52.468 11.2295 32.5538 11.228C32.3795 11.228 32.2051 11.2145 32.0308 11.207C32.2667 10.9941 32.5553 11.0841 32.8214 11.0841C52.5567 11.0796 72.292 11.0796 92.0273 11.0841C92.2934 11.0826 92.582 10.9926 92.8179 11.2055Z" fill="#292430"/>
<path d="M62.7982 20.3628C66.8475 20.3628 70.8968 20.3628 74.9461 20.3628C75.1204 20.3628 75.2963 20.3658 75.4706 20.3658C75.648 20.3673 75.7577 20.4603 75.7577 20.6312C75.7577 20.7976 75.6555 20.9161 75.4857 20.934C75.3128 20.952 75.1369 20.9445 74.9611 20.9445C66.8625 20.9445 58.764 20.9445 50.664 20.9445C50.5137 20.9445 50.3633 20.946 50.2145 20.9415C50.0252 20.9355 49.8598 20.8786 49.8523 20.6552C49.8448 20.4258 50.0026 20.3643 50.198 20.3628C50.3724 20.3613 50.5482 20.3613 50.7226 20.3613C54.7493 20.3628 58.773 20.3628 62.7982 20.3628Z" fill="#2C2733"/>
<path d="M62.7684 18.1323C59.6435 18.1323 56.5187 18.1323 53.3953 18.1323C53.2209 18.1323 53.0451 18.1293 52.8707 18.1308C52.6828 18.1338 52.4874 18.0963 52.4769 17.8849C52.4634 17.6226 52.6858 17.5821 52.8948 17.5701C53.0436 17.5611 53.1939 17.5656 53.3442 17.5656C59.6435 17.5656 65.9429 17.5656 72.2423 17.5656C72.343 17.5656 72.4422 17.5611 72.5429 17.5671C72.7834 17.5821 73.1276 17.5236 73.1141 17.8699C73.102 18.2253 72.7503 18.1278 72.5189 18.1278C69.2677 18.1338 66.0181 18.1323 62.7684 18.1323Z" fill="#2D2934"/>
<path d="M44.5633 34.2884C41.9375 34.2884 39.3116 34.2914 36.6843 34.2839C36.4317 34.2839 36.0289 34.4069 36.0139 34.0246C35.9974 33.5703 36.4317 33.7067 36.7008 33.7067C41.9029 33.7007 47.105 33.7007 52.3072 33.7052C52.5612 33.7052 52.964 33.5913 52.9775 33.9691C52.9941 34.4294 52.5567 34.2824 52.2906 34.2839C49.7159 34.2914 47.1396 34.2884 44.5633 34.2884Z" fill="#28232F"/>
<path d="M44.4922 50.7563C47.0685 50.7563 49.6448 50.7563 52.221 50.7578C52.4209 50.7578 52.6253 50.7503 52.8177 50.7923C52.929 50.8163 53.0342 50.9408 52.9981 51.0787C52.9756 51.1641 52.8974 51.2841 52.8253 51.2991C52.6329 51.3381 52.4284 51.3396 52.23 51.3396C47.0775 51.3411 41.925 51.3411 36.7725 51.3411C36.6221 51.3411 36.4718 51.3441 36.323 51.3336C36.1231 51.3216 35.9758 51.2151 35.9984 51.0097C36.0149 50.8613 36.1352 50.7548 36.3155 50.7593C36.4899 50.7638 36.6657 50.7563 36.8401 50.7563C39.3908 50.7563 41.9415 50.7563 44.4922 50.7563Z" fill="#2C2734"/>
<path d="M44.5015 44.9002C47.0492 44.9002 49.5969 44.9002 52.1446 44.9002C52.319 44.9002 52.4948 44.9062 52.6692 44.9017C52.8436 44.8972 52.9818 44.9811 52.9984 45.1371C53.0194 45.3485 52.8541 45.4384 52.6617 45.4519C52.4873 45.4639 52.313 45.4609 52.1371 45.4609C47.0417 45.4609 41.9463 45.4609 36.8524 45.4609C36.7532 45.4609 36.6525 45.4609 36.5533 45.4609C36.2962 45.4609 35.9791 45.4624 36.0077 45.1236C36.0317 44.8297 36.3489 44.9032 36.5623 44.9032C39.2062 44.8987 41.8546 44.9002 44.5015 44.9002Z" fill="#312C37"/>
<path d="M62.725 23.6961C59.5986 23.6961 56.4722 23.6961 53.3443 23.6961C53.1444 23.6961 52.943 23.6976 52.7446 23.6811C52.6153 23.6706 52.4921 23.6076 52.4755 23.4652C52.4545 23.2778 52.5913 23.2013 52.7491 23.1848C52.9219 23.1668 53.0993 23.1728 53.2737 23.1728C59.6271 23.1728 65.9806 23.1728 72.3341 23.1728C72.4844 23.1728 72.6347 23.1713 72.7835 23.1788C72.9398 23.1848 73.1022 23.2193 73.1217 23.4007C73.1488 23.6391 72.9624 23.6796 72.779 23.6901C72.6047 23.7006 72.4288 23.6961 72.2544 23.6961C69.0785 23.6961 65.9025 23.6961 62.725 23.6961Z" fill="#1F1928"/>
<path d="M44.4866 61.9571C47.0358 61.9571 49.585 61.9571 52.1358 61.9571C52.3357 61.9571 52.5356 61.9571 52.7355 61.9691C52.8723 61.9781 52.9775 62.0635 52.9955 62.1955C53.0211 62.3874 52.8738 62.4518 52.7175 62.4683C52.5446 62.4863 52.3687 62.4818 52.1929 62.4818C47.0689 62.4818 41.9449 62.4818 36.821 62.4818C36.7458 62.4818 36.6707 62.4848 36.5955 62.4818C36.355 62.4713 35.9958 62.5358 36.0048 62.2044C36.0138 61.8671 36.3791 61.9586 36.6135 61.9586C39.2379 61.9556 41.8623 61.9571 44.4866 61.9571Z" fill="#1F1928"/>
<path d="M42.3492 56.9002C40.4493 56.9002 38.5494 56.9047 36.6495 56.8942C36.409 56.8927 36.0092 57.0412 36.0137 56.6199C36.0167 56.2975 36.3684 56.341 36.6119 56.341C40.4628 56.338 44.3122 56.3395 48.163 56.341C48.4065 56.341 48.7537 56.2915 48.7583 56.6229C48.7628 57.0576 48.3614 56.8927 48.127 56.8942C46.1985 56.9047 44.2731 56.9002 42.3492 56.9002Z" fill="#2D2934"/>
<path d="M42.387 39.8415C40.4616 39.8415 38.5376 39.8445 36.6122 39.837C36.3867 39.8355 36.017 39.9554 36.008 39.6001C35.999 39.2148 36.3792 39.2778 36.6423 39.2778C40.4676 39.2748 44.2914 39.2748 48.1167 39.2778C48.3812 39.2778 48.772 39.2118 48.754 39.5941C48.7345 39.9929 48.3271 39.834 48.0866 39.8355C46.1868 39.8475 44.2869 39.8415 42.387 39.8415Z" fill="#2E2A35"/>
</g>
<defs>
<clipPath id="clip0">
<rect width="128" height="133" fill="white"/>
</clipPath>
</defs>
</svg>
