<svg width="138" height="148" viewBox="0 0 138 148" fill="none" xmlns="http://www.w3.org/2000/svg">
<circle cx="72.9195" cy="82.5424" r="64.5556" fill="#F1F1F1"/>
<path d="M129.742 56.5319C127.208 65.6964 118.9 86.1203 103.959 89.917C89.0177 93.7137 81.9217 89.6988 80.4893 87.7895" stroke="#CCCCCC" stroke-width="2"/>
<mask id="path-3-inside-1" fill="white">
<path fill-rule="evenodd" clip-rule="evenodd" d="M56.249 36.6035L42.0523 51.8618V128.482H103.787V51.8618L89.9756 36.6035H56.249ZM68.6427 62.2443C72.2092 62.2443 75.1003 59.3531 75.1003 55.7867C75.1003 52.2202 72.2092 49.3291 68.6427 49.3291C65.0763 49.3291 62.1851 52.2202 62.1851 55.7867C62.1851 59.3531 65.0763 62.2443 68.6427 62.2443Z"/>
</mask>
<path fill-rule="evenodd" clip-rule="evenodd" d="M56.249 36.6035L42.0523 51.8618V128.482H103.787V51.8618L89.9756 36.6035H56.249ZM68.6427 62.2443C72.2092 62.2443 75.1003 59.3531 75.1003 55.7867C75.1003 52.2202 72.2092 49.3291 68.6427 49.3291C65.0763 49.3291 62.1851 52.2202 62.1851 55.7867C62.1851 59.3531 65.0763 62.2443 68.6427 62.2443Z" fill="white"/>
<path d="M42.0523 51.8618L40.93 50.8175L40.5193 51.2589V51.8618H42.0523ZM56.249 36.6035V35.0705H55.5814L55.1267 35.5593L56.249 36.6035ZM42.0523 128.482H40.5193V130.015H42.0523V128.482ZM103.787 128.482V130.015H105.32V128.482H103.787ZM103.787 51.8618H105.32V51.271L104.923 50.833L103.787 51.8618ZM89.9756 36.6035L91.1121 35.5747L90.6557 35.0705H89.9756V36.6035ZM43.1747 52.9061L57.3714 37.6478L55.1267 35.5593L40.93 50.8175L43.1747 52.9061ZM43.5853 128.482V51.8618H40.5193V128.482H43.5853ZM103.787 126.949H42.0523V130.015H103.787V126.949ZM102.254 51.8618V128.482H105.32V51.8618H102.254ZM88.839 37.6323L102.65 52.8906L104.923 50.833L91.1121 35.5747L88.839 37.6323ZM56.249 38.1365H89.9756V35.0705H56.249V38.1365ZM73.5673 55.7867C73.5673 58.5065 71.3625 60.7113 68.6427 60.7113V63.7773C73.0558 63.7773 76.6334 60.1998 76.6334 55.7867H73.5673ZM68.6427 50.8621C71.3625 50.8621 73.5673 53.0669 73.5673 55.7867H76.6334C76.6334 51.3736 73.0558 47.796 68.6427 47.796V50.8621ZM63.7181 55.7867C63.7181 53.0669 65.9229 50.8621 68.6427 50.8621V47.796C64.2296 47.796 60.6521 51.3736 60.6521 55.7867H63.7181ZM68.6427 60.7113C65.9229 60.7113 63.7181 58.5065 63.7181 55.7867H60.6521C60.6521 60.1998 64.2296 63.7773 68.6427 63.7773V60.7113Z" fill="#CCCCCC" mask="url(#path-3-inside-1)"/>
<path d="M64.3204 82.5428C64.3204 83.3765 64.1562 84.202 63.8371 84.9722C63.5181 85.7425 63.0505 86.4423 62.461 87.0318C61.8714 87.6213 61.1716 88.0889 60.4014 88.408C59.6311 88.727 58.8056 88.8912 57.9719 88.8912C57.1382 88.8912 56.3127 88.727 55.5425 88.408C54.7722 88.0889 54.0724 87.6213 53.4829 87.0318C52.8934 86.4423 52.4258 85.7425 52.1067 84.9722C51.7877 84.202 51.6235 83.3765 51.6235 82.5428H53.0231C53.0231 83.1927 53.1511 83.8362 53.3998 84.4366C53.6485 85.0371 54.013 85.5826 54.4725 86.0422C54.9321 86.5017 55.4776 86.8662 56.0781 87.1149C56.6785 87.3637 57.322 87.4917 57.9719 87.4917C58.6218 87.4917 59.2653 87.3637 59.8658 87.1149C60.4662 86.8662 61.0118 86.5017 61.4713 86.0422C61.9308 85.5826 62.2954 85.0371 62.5441 84.4366C62.7928 83.8362 62.9208 83.1927 62.9208 82.5428H64.3204Z" fill="#CCCCCC"/>
<path d="M74.9912 99.3542C74.9912 98.5205 74.827 97.695 74.508 96.9247C74.1889 96.1545 73.7213 95.4547 73.1318 94.8652C72.5423 94.2756 71.8424 93.808 71.0722 93.489C70.302 93.1699 69.4765 93.0057 68.6428 93.0057C67.8091 93.0057 66.9835 93.1699 66.2133 93.489C65.4431 93.808 64.7432 94.2756 64.1537 94.8652C63.5642 95.4547 63.0966 96.1545 62.7776 96.9247C62.4585 97.695 62.2943 98.5205 62.2943 99.3542H63.6939C63.6939 98.7043 63.8219 98.0608 64.0706 97.4603C64.3193 96.8599 64.6838 96.3144 65.1434 95.8548C65.6029 95.3953 66.1485 95.0307 66.7489 94.782C67.3493 94.5333 67.9929 94.4053 68.6428 94.4053C69.2927 94.4053 69.9362 94.5333 70.5366 94.782C71.137 95.0307 71.6826 95.3953 72.1421 95.8548C72.6017 96.3144 72.9662 96.8599 73.2149 97.4603C73.4636 98.0608 73.5916 98.7043 73.5916 99.3542H74.9912Z" fill="#CCCCCC"/>
<path d="M85.6625 82.5428C85.6625 83.3765 85.4983 84.202 85.1792 84.9722C84.8602 85.7425 84.3926 86.4423 83.8031 87.0318C83.2135 87.6213 82.5137 88.0889 81.7435 88.408C80.9732 88.727 80.1477 88.8912 79.314 88.8912C78.4803 88.8912 77.6548 88.727 76.8846 88.408C76.1143 88.0889 75.4145 87.6213 74.825 87.0318C74.2355 86.4423 73.7679 85.7425 73.4488 84.9722C73.1298 84.202 72.9656 83.3765 72.9656 82.5428H74.3652C74.3652 83.1927 74.4932 83.8362 74.7419 84.4366C74.9906 85.0371 75.3551 85.5826 75.8146 86.0422C76.2742 86.5017 76.8197 86.8662 77.4202 87.1149C78.0206 87.3637 78.6641 87.4917 79.314 87.4917C79.9639 87.4917 80.6075 87.3637 81.2079 87.1149C81.8083 86.8662 82.3539 86.5017 82.8134 86.0422C83.273 85.5826 83.6375 85.0371 83.8862 84.4366C84.1349 83.8362 84.2629 83.1927 84.2629 82.5428H85.6625Z" fill="#CCCCCC"/>
<rect x="42.6983" y="113.071" width="60.4423" height="15.331" fill="#FAFAFA" stroke="#CCCCCC" stroke-width="1.53302"/>
<circle cx="67.0793" cy="18.593" r="3.5056" fill="#C4C4C4"/>
<circle cx="111.889" cy="20.1672" r="1.57389" fill="#C4C4C4"/>
<circle cx="103.542" cy="44.9298" r="1.57389" fill="#C4C4C4"/>
<circle cx="126.383" cy="61.7048" r="2.04606" fill="#C4C4C4"/>
<circle cx="30.5637" cy="13.0417" r="2.04606" fill="#C4C4C4"/>
<path d="M92.8187 3.92322L94.702 2.03997L96.0635 3.40154L94.1803 5.28479L96.3087 7.41323L94.8741 8.84784L92.7457 6.7194L90.8572 8.60787L89.4956 7.2463L91.3841 5.35783L89.3443 3.31808L90.7789 1.88347L92.8187 3.92322Z" fill="#E6E6E6"/>
<path d="M43.5054 22.7662L45.0214 21.2501L46.1175 22.3462L44.6015 23.8623L46.3149 25.5758L45.16 26.7307L43.4466 25.0172L41.9263 26.5375L40.8302 25.4414L42.3505 23.9211L40.7084 22.279L41.8633 21.1241L43.5054 22.7662Z" fill="#E6E6E6"/>
<path d="M23.2189 48.5159L24.185 47.5498L24.8835 48.2483L23.9174 49.2145L25.0093 50.3064L24.2733 51.0424L23.1814 49.9505L22.2126 50.9193L21.514 50.2208L22.4829 49.2519L21.4364 48.2055L22.1724 47.4695L23.2189 48.5159Z" fill="#E6E6E6"/>
<path d="M126.463 39.0115L127.43 38.0454L128.128 38.7439L127.162 39.7101L128.254 40.802L127.518 41.538L126.426 40.4461L125.457 41.4149L124.759 40.7164L125.727 39.7475L124.681 38.7011L125.417 37.9651L126.463 39.0115Z" fill="#E6E6E6"/>
<path d="M1 107.615C4.70292 94.2242 16.8421 64.3821 38.6732 58.8345C60.5043 53.2869 70.8724 59.1534 72.9654 61.9431" stroke="#CCCCCC" stroke-width="2"/>
</svg>
