<svg width="34" height="26" viewBox="0 0 34 26" fill="none" xmlns="http://www.w3.org/2000/svg">
<path d="M25.8315 11.3451C27.924 11.0511 29.535 9.25709 29.5395 7.08359C29.5395 4.94159 27.978 3.16559 25.9305 2.82959" stroke="#2B304D" stroke-width="2" stroke-linecap="round" stroke-linejoin="round"/>
<path d="M28.5928 16.3755C30.6193 16.6785 32.0338 17.388 32.0338 18.8505C32.0338 19.857 31.3678 20.511 30.2908 20.922" stroke="#2B304D" stroke-width="2" stroke-linecap="round" stroke-linejoin="round"/>
<path fill-rule="evenodd" clip-rule="evenodd" d="M16.8301 16.9961C12.0091 16.9961 7.8916 17.7266 7.8916 20.6441C7.8916 23.5601 11.9836 24.3116 16.8301 24.3116C21.6511 24.3116 25.7671 23.5886 25.7671 20.6696C25.7671 17.7506 21.6766 16.9961 16.8301 16.9961Z" stroke="#2B304D" stroke-width="2" stroke-linecap="round" stroke-linejoin="round"/>
<path fill-rule="evenodd" clip-rule="evenodd" d="M16.8301 12.832C19.9936 12.832 22.5586 10.2685 22.5586 7.1035C22.5586 3.94 19.9936 1.375 16.8301 1.375C13.6666 1.375 11.1016 3.94 11.1016 7.1035C11.0896 10.2565 13.6351 12.8215 16.7881 12.832H16.8301Z" stroke="#2B304D" stroke-width="2" stroke-linecap="round" stroke-linejoin="round"/>
<path d="M7.82714 11.3451C5.73314 11.0511 4.12364 9.25709 4.11914 7.08359C4.11914 4.94159 5.68064 3.16559 7.72814 2.82959" stroke="#2B304D" stroke-width="2" stroke-linecap="round" stroke-linejoin="round"/>
<path d="M5.06588 16.3755C3.03938 16.6785 1.62488 17.388 1.62488 18.8505C1.62488 19.857 2.29088 20.511 3.36788 20.922" stroke="#2B304D" stroke-width="2" stroke-linecap="round" stroke-linejoin="round"/>
</svg>
