<svg width="30" height="30" viewBox="0 0 30 30" fill="none" xmlns="http://www.w3.org/2000/svg">
<path d="M10.9877 11.55V6.875C10.9877 5.15 12.3877 3.75 14.1127 3.75C15.8377 3.75 17.2377 5.15 17.2377 6.875V11.55C18.7502 10.5375 19.7377 8.825 19.7377 6.875C19.7377 3.7625 17.2252 1.25 14.1127 1.25C11.0002 1.25 8.4877 3.7625 8.4877 6.875C8.4877 8.825 9.4752 10.5375 10.9877 11.55ZM17.8627 14.6375C17.5127 14.4625 17.1377 14.375 16.7502 14.375H15.9877V6.875C15.9877 5.8375 15.1502 5 14.1127 5C13.0752 5 12.2377 5.8375 12.2377 6.875V20.3L7.9377 19.4C7.4752 19.3 6.9877 19.45 6.6502 19.7875C6.1127 20.3375 6.1127 21.2125 6.6502 21.7625L11.6627 26.775C12.1377 27.2375 12.7752 27.5 13.4377 27.5H21.0627C22.3127 27.5 23.3627 26.5875 23.5377 25.35L24.3252 19.7625C24.4752 18.7 23.9252 17.65 22.9627 17.175L17.8627 14.6375Z" fill="#006298"/>
</svg>
