<svg width="26" height="26" viewBox="0 0 26 26" fill="none" xmlns="http://www.w3.org/2000/svg">
<path d="M23.5625 6.45682C22.7855 6.79197 21.94 7.03318 21.0691 7.12713C21.9733 6.58995 22.6504 5.74131 22.9734 4.74041C22.1249 5.24515 21.1954 5.59908 20.2261 5.7865C19.821 5.35341 19.3311 5.00838 18.7868 4.77293C18.2425 4.53748 17.6555 4.41664 17.0625 4.41795C14.6631 4.41795 12.7334 6.36287 12.7334 8.74959C12.7334 9.08475 12.774 9.4199 12.84 9.74236C9.24724 9.55447 6.04294 7.83807 3.91267 5.21014C3.52451 5.87312 3.3211 6.62801 3.32361 7.39627C3.32361 8.89939 4.08787 10.2248 5.2533 11.0043C4.56649 10.9772 3.89577 10.7885 3.29568 10.4533V10.5066C3.29568 12.6115 4.78357 14.3558 6.76658 14.757C6.39425 14.8537 6.01122 14.9032 5.62654 14.9043C5.3447 14.9043 5.0781 14.8763 4.80896 14.8383C5.3574 16.5547 6.95447 17.8013 8.85623 17.842C7.36833 19.0074 5.50466 19.6929 3.48103 19.6929C3.11794 19.6929 2.78279 19.6803 2.43494 19.6396C4.35447 20.8711 6.63201 21.582 9.08474 21.582C17.0472 21.582 21.4043 14.9855 21.4043 9.25994C21.4043 9.07205 21.4043 8.88416 21.3916 8.69627C22.2345 8.07928 22.9734 7.31502 23.5625 6.45682Z" fill="#4F9FDC"/>
</svg>
