<svg width="13" height="12" viewBox="0 0 13 12" fill="none" xmlns="http://www.w3.org/2000/svg">
<path fill-rule="evenodd" clip-rule="evenodd" d="M1 0.5C1 0.223858 0.776142 0 0.5 0C0.223858 0 0 0.223858 0 0.5V11.5V12H0.5H12.5C12.7761 12 13 11.7761 13 11.5C13 11.2239 12.7761 11 12.5 11H1V0.5ZM12.4764 8.97522C12.6456 9.19351 12.6057 9.50758 12.3874 9.67671C12.1692 9.84584 11.8551 9.80599 11.686 9.58771L9.06518 6.20527L6.04681 8.57626C5.94184 8.65872 5.80827 8.69578 5.67582 8.67919C5.54338 8.66261 5.42307 8.59376 5.34167 8.48797L2.34853 4.59781C2.18014 4.37895 2.22105 4.06502 2.43991 3.89663C2.65877 3.72824 2.9727 3.76915 3.14109 3.98801L5.82625 7.47789L8.84327 5.10795C8.94801 5.02568 9.08124 4.98859 9.21342 5.00491C9.3456 5.02124 9.4658 5.08962 9.54738 5.1949L12.4764 8.97522Z" fill="#FF4D35"/>
</svg>
