<svg width="22" height="22" viewBox="0 0 22 22" fill="none" xmlns="http://www.w3.org/2000/svg">
<path d="M11 21C16.5228 21 21 16.5228 21 11C21 5.47715 16.5228 1 11 1C5.47715 1 1 5.47715 1 11C1 16.5228 5.47715 21 11 21Z" stroke="#8A8A8A" stroke-width="1.5" stroke-miterlimit="10"/>
<path d="M10.9999 14.3333C13.3011 14.3333 15.1666 12.4679 15.1666 10.1667C15.1666 7.86548 13.3011 6 10.9999 6C8.69873 6 6.83325 7.86548 6.83325 10.1667C6.83325 12.4679 8.69873 14.3333 10.9999 14.3333Z" stroke="#8A8A8A" stroke-width="1.5" stroke-miterlimit="10"/>
<path d="M4.31226 18.4345C4.93998 17.2003 5.89696 16.1639 7.07729 15.44C8.25761 14.7162 9.61522 14.333 10.9998 14.333C12.3845 14.333 13.7421 14.7162 14.9224 15.44C16.1027 16.1639 17.0597 17.2003 17.6874 18.4344" stroke="#8A8A8A" stroke-width="1.5" stroke-linecap="round" stroke-linejoin="round"/>
</svg>
