<svg width="60" height="60" viewBox="0 0 60 60" fill="none" xmlns="http://www.w3.org/2000/svg">
<path d="M30 60C46.5685 60 60 46.5685 60 30C60 13.4315 46.5685 0 30 0C13.4315 0 0 13.4315 0 30C0 46.5685 13.4315 60 30 60Z" fill="#25D366"/>
<path fill-rule="evenodd" clip-rule="evenodd" d="M30.9888 46.6906H30.9815C27.9959 46.6896 25.0623 45.9405 22.4567 44.5193L13 47L15.5308 37.7561C13.9697 35.0506 13.1482 31.9819 13.1496 28.8378C13.1535 19.0021 21.156 11 30.9887 11C35.7608 11.0021 40.2398 12.8598 43.6078 16.2318C46.9757 19.6035 48.8296 24.0854 48.8277 28.8519C48.8237 38.6853 40.8244 46.6866 30.9888 46.6906ZM22.8949 41.2898L23.4363 41.6111C25.7128 42.962 28.3223 43.6768 30.9829 43.6779H30.9889C39.1611 43.6779 45.8124 37.0263 45.8157 28.8508C45.8172 24.8889 44.2765 21.1638 41.4771 18.3612C38.6778 15.5585 34.955 14.0143 30.9947 14.013C22.8162 14.013 16.1647 20.6638 16.1615 28.8388C16.1604 31.6404 16.9442 34.3688 18.4285 36.7295L18.781 37.2905L17.2831 42.7619L22.8949 41.2898ZM39.3655 32.6926C39.6764 32.8428 39.8864 32.9443 39.976 33.0939C40.0874 33.2797 40.0874 34.1722 39.7161 35.2135C39.3446 36.2547 37.5639 37.205 36.7074 37.3329C35.9395 37.4477 34.9677 37.4956 33.9 37.1563C33.2526 36.9509 32.4224 36.6766 31.3589 36.2173C27.1802 34.413 24.3563 30.363 23.8226 29.5975C23.7852 29.5439 23.7591 29.5064 23.7445 29.4869L23.7409 29.4821C23.505 29.1674 21.9244 27.0585 21.9244 24.8759C21.9244 22.8228 22.933 21.7466 23.3972 21.2513C23.429 21.2173 23.4583 21.1861 23.4845 21.1575C23.893 20.7112 24.376 20.5997 24.6731 20.5997C24.9702 20.5997 25.2677 20.6024 25.5274 20.6155C25.5594 20.6171 25.5928 20.6169 25.6272 20.6167C25.887 20.6152 26.2108 20.6133 26.5303 21.3806C26.6532 21.6759 26.833 22.1137 27.0227 22.5755C27.4062 23.5092 27.83 24.5409 27.9045 24.6902C28.016 24.9134 28.0903 25.1736 27.9417 25.4712C27.9194 25.5158 27.8988 25.5579 27.8791 25.5981C27.7675 25.826 27.6854 25.9936 27.496 26.2147C27.4215 26.3017 27.3445 26.3954 27.2676 26.4891C27.1142 26.6759 26.9609 26.8626 26.8274 26.9956C26.6042 27.2179 26.3719 27.459 26.6319 27.9053C26.8919 28.3515 27.7865 29.8111 29.1116 30.9931C30.536 32.2636 31.774 32.8006 32.4015 33.0728C32.524 33.1259 32.6233 33.169 32.6961 33.2054C33.1417 33.4286 33.4017 33.3913 33.6617 33.0939C33.9218 32.7964 34.776 31.7923 35.0731 31.3461C35.3702 30.9001 35.6675 30.9744 36.076 31.123C36.4846 31.2719 38.676 32.3501 39.1218 32.5732C39.2088 32.6168 39.2901 32.6561 39.3655 32.6926Z" fill="#FDFDFD"/>
</svg>
