<svg width="13" height="14" viewBox="0 0 13 14" fill="none" xmlns="http://www.w3.org/2000/svg">
<path fill-rule="evenodd" clip-rule="evenodd" d="M3.4892 4.41002C3.7583 4.41002 3.9767 4.62842 3.9767 4.89752C3.9767 5.16662 3.7583 5.38502 3.4892 5.38502H2.88275C1.8304 5.38502 0.975 6.24042 0.975 7.29212V10.4609C0.975 11.5132 1.8304 12.3686 2.88275 12.3686H10.1173C11.169 12.3686 12.025 11.5132 12.025 10.4609V7.28627C12.025 6.23782 11.1722 5.38502 10.1244 5.38502H9.51145C9.24235 5.38502 9.02395 5.16662 9.02395 4.89752C9.02395 4.62842 9.24235 4.41002 9.51145 4.41002H10.1244C11.7097 4.41002 13 5.70027 13 7.28627V10.4609C13 12.0508 11.7065 13.3436 10.1173 13.3436H2.88275C1.2935 13.3436 0 12.0508 0 10.4609V7.29212C0 5.70287 1.2935 4.41002 2.88275 4.41002H3.4892ZM6.84489 0.137962L8.74029 2.04116C8.93009 2.23226 8.92944 2.54036 8.73899 2.73016C8.54789 2.91996 8.23979 2.91996 8.04999 2.72886L6.98685 1.66205L6.98724 8.79551H6.01224L6.01185 1.66205L4.95014 2.72886C4.85524 2.82506 4.72979 2.87251 4.60499 2.87251C4.48084 2.87251 4.35604 2.82506 4.26114 2.73016C4.07069 2.54036 4.06939 2.23226 4.25984 2.04116L6.15459 0.137962C6.33724 -0.0459875 6.66224 -0.0459875 6.84489 0.137962Z" fill="white"/>
</svg>
